solid OpenSCAD_Model
  facet normal 0 -1.22461e-016 1
    outer loop
      vertex -15.923 1.56827 1.92052e-016
      vertex -16 0 0
      vertex -15.923 -1.56827 -1.92052e-016
    endloop
  endfacet
  facet normal 0 -1.22461e-016 1
    outer loop
      vertex -15.311 -4.64455 -5.68775e-016
      vertex -15.923 1.56827 1.92052e-016
      vertex -15.6926 -3.12145 -3.82254e-016
    endloop
  endfacet
  facet normal 0 -1.22461e-016 1
    outer loop
      vertex -15.6926 -3.12145 -3.82254e-016
      vertex -15.923 1.56827 1.92052e-016
      vertex -15.923 -1.56827 -1.92052e-016
    endloop
  endfacet
  facet normal 0 -1.22461e-016 1
    outer loop
      vertex -14.7821 -6.12294 -7.49819e-016
      vertex -15.923 1.56827 1.92052e-016
      vertex -15.311 -4.64455 -5.68775e-016
    endloop
  endfacet
  facet normal 0 -1.22461e-016 1
    outer loop
      vertex -14.1107 -7.54235 -9.23641e-016
      vertex -15.923 1.56827 1.92052e-016
      vertex -14.7821 -6.12294 -7.49819e-016
    endloop
  endfacet
  facet normal 0 -1.22461e-016 1
    outer loop
      vertex -13.3035 -8.88912 -1.08857e-015
      vertex -15.923 1.56827 1.92052e-016
      vertex -14.1107 -7.54235 -9.23641e-016
    endloop
  endfacet
  facet normal 0 -1.22461e-016 1
    outer loop
      vertex -12.3682 -10.1503 -1.24301e-015
      vertex -15.923 1.56827 1.92052e-016
      vertex -13.3035 -8.88912 -1.08857e-015
    endloop
  endfacet
  facet normal 0 -1.22461e-016 1
    outer loop
      vertex -11.3137 -11.3137 -1.38548e-015
      vertex -15.923 1.56827 1.92052e-016
      vertex -12.3682 -10.1503 -1.24301e-015
    endloop
  endfacet
  facet normal 0 -1.22461e-016 1
    outer loop
      vertex -10.1503 -12.3682 -1.51461e-015
      vertex -15.923 1.56827 1.92052e-016
      vertex -11.3137 -11.3137 -1.38548e-015
    endloop
  endfacet
  facet normal 0 -1.22461e-016 1
    outer loop
      vertex -8.88912 -13.3035 -1.62916e-015
      vertex -15.923 1.56827 1.92052e-016
      vertex -10.1503 -12.3682 -1.51461e-015
    endloop
  endfacet
  facet normal 0 -1.22461e-016 1
    outer loop
      vertex -7.54235 -14.1107 -1.72801e-015
      vertex -15.923 1.56827 1.92052e-016
      vertex -8.88912 -13.3035 -1.62916e-015
    endloop
  endfacet
  facet normal 0 -1.22461e-016 1
    outer loop
      vertex -6.12294 -14.7821 -1.81022e-015
      vertex -15.923 1.56827 1.92052e-016
      vertex -7.54235 -14.1107 -1.72801e-015
    endloop
  endfacet
  facet normal 0 -1.22461e-016 1
    outer loop
      vertex -4.64455 -15.311 -1.875e-015
      vertex -15.923 1.56827 1.92052e-016
      vertex -6.12294 -14.7821 -1.81022e-015
    endloop
  endfacet
  facet normal 0 -1.22461e-016 1
    outer loop
      vertex -3.12145 -15.6926 -1.92172e-015
      vertex -15.923 1.56827 1.92052e-016
      vertex -4.64455 -15.311 -1.875e-015
    endloop
  endfacet
  facet normal 0 -1.22461e-016 1
    outer loop
      vertex -1.56827 -15.923 -1.94994e-015
      vertex -15.923 1.56827 1.92052e-016
      vertex -3.12145 -15.6926 -1.92172e-015
    endloop
  endfacet
  facet normal 0 -1.22461e-016 1
    outer loop
      vertex -8.56225 -7.18458 -8.79829e-016
      vertex -15.923 1.56827 1.92052e-016
      vertex -1.56827 -15.923 -1.94994e-015
    endloop
  endfacet
  facet normal 0 -1.22461e-016 1
    outer loop
      vertex -8.56225 -7.18458 -8.79829e-016
      vertex -9.47883 -5.92303 -7.25338e-016
      vertex -15.923 1.56827 1.92052e-016
    endloop
  endfacet
  facet normal 0 -1.22461e-016 1
    outer loop
      vertex -3.45395 -10.6302 -1.30178e-015
      vertex -4.89977 -10.046 -1.23024e-015
      vertex 1.56827 -15.923 -1.94994e-015
    endloop
  endfacet
  facet normal 0 -1.22461e-016 1
    outer loop
      vertex -4.89977 -10.046 -1.23024e-015
      vertex -6.25023 -9.26634 -1.13476e-015
      vertex 0 -16 -1.95937e-015
    endloop
  endfacet
  facet normal 0 -1.22461e-016 1
    outer loop
      vertex -0.39008 -11.1704 -1.36794e-015
      vertex -1.9409 -11.0074 -1.34798e-015
      vertex 4.64455 -15.311 -1.875e-015
    endloop
  endfacet
  facet normal 0 -1.22461e-016 1
    outer loop
      vertex 2.70402 -10.8452 -1.32811e-015
      vertex 1.16834 -11.116 -1.36127e-015
      vertex 6.12294 -14.7821 -1.81022e-015
    endloop
  endfacet
  facet normal 0 -1.22461e-016 1
    outer loop
      vertex 10.5032 -3.82284 -4.68147e-016
      vertex 9.86891 -5.24739 -6.42599e-016
      vertex 14.7821 -6.12294 -7.49819e-016
    endloop
  endfacet
  facet normal 0 -1.22461e-016 1
    outer loop
      vertex 11.15 0.779684 9.54806e-017
      vertex 11.15 -0.779684 -9.54806e-017
      vertex 16 0 0
    endloop
  endfacet
  facet normal 0 -1.22461e-016 1
    outer loop
      vertex 10.5032 3.82284 4.68147e-016
      vertex 10.933 2.32388 2.84583e-016
      vertex 15.6926 3.12145 3.82254e-016
    endloop
  endfacet
  facet normal 0 -1.22461e-016 1
    outer loop
      vertex 9.86891 5.24739 6.42599e-016
      vertex 10.5032 3.82284 4.68147e-016
      vertex 15.311 4.64455 5.68775e-016
    endloop
  endfacet
  facet normal 0 -1.22461e-016 1
    outer loop
      vertex -10.7442 3.08086 3.77284e-016
      vertex -10.2109 4.54619 5.56729e-016
      vertex -15.923 1.56827 1.92052e-016
    endloop
  endfacet
  facet normal 0 -1.22461e-016 1
    outer loop
      vertex 10.933 2.32388 2.84583e-016
      vertex 11.15 0.779684 9.54806e-017
      vertex 15.923 1.56827 1.92052e-016
    endloop
  endfacet
  facet normal 0 -1.22461e-016 1
    outer loop
      vertex 2.70402 10.8452 1.32811e-015
      vertex 4.18706 10.3633 1.2691e-015
      vertex 8.88912 13.3035 1.62916e-015
    endloop
  endfacet
  facet normal 0 -1.22461e-016 1
    outer loop
      vertex -9.47883 5.92303 7.25338e-016
      vertex -8.56225 7.18458 8.79829e-016
      vertex -15.923 1.56827 1.92052e-016
    endloop
  endfacet
  facet normal 0 -1.22461e-016 1
    outer loop
      vertex 0 16 1.95937e-015
      vertex -15.923 1.56827 1.92052e-016
      vertex 1.56827 15.923 1.94994e-015
    endloop
  endfacet
  facet normal 0 -1.22461e-016 1
    outer loop
      vertex -1.56827 15.923 1.94994e-015
      vertex -15.923 1.56827 1.92052e-016
      vertex 0 16 1.95937e-015
    endloop
  endfacet
  facet normal 0 -1.22461e-016 1
    outer loop
      vertex -3.12145 15.6926 1.92172e-015
      vertex -15.923 1.56827 1.92052e-016
      vertex -1.56827 15.923 1.94994e-015
    endloop
  endfacet
  facet normal 0 -1.22461e-016 1
    outer loop
      vertex -4.64455 15.311 1.875e-015
      vertex -15.923 1.56827 1.92052e-016
      vertex -3.12145 15.6926 1.92172e-015
    endloop
  endfacet
  facet normal 0 -1.22461e-016 1
    outer loop
      vertex -6.12294 14.7821 1.81022e-015
      vertex -15.923 1.56827 1.92052e-016
      vertex -4.64455 15.311 1.875e-015
    endloop
  endfacet
  facet normal 0 -1.22461e-016 1
    outer loop
      vertex -7.54235 14.1107 1.72801e-015
      vertex -15.923 1.56827 1.92052e-016
      vertex -6.12294 14.7821 1.81022e-015
    endloop
  endfacet
  facet normal 0 -1.22461e-016 1
    outer loop
      vertex -8.88912 13.3035 1.62916e-015
      vertex -15.923 1.56827 1.92052e-016
      vertex -7.54235 14.1107 1.72801e-015
    endloop
  endfacet
  facet normal 0 -1.22461e-016 1
    outer loop
      vertex -10.1503 12.3682 1.51461e-015
      vertex -15.923 1.56827 1.92052e-016
      vertex -8.88912 13.3035 1.62916e-015
    endloop
  endfacet
  facet normal 0 -1.22461e-016 1
    outer loop
      vertex -11.3137 11.3137 1.38548e-015
      vertex -15.923 1.56827 1.92052e-016
      vertex -10.1503 12.3682 1.51461e-015
    endloop
  endfacet
  facet normal 0 -1.22461e-016 1
    outer loop
      vertex -12.3682 10.1503 1.24301e-015
      vertex -15.923 1.56827 1.92052e-016
      vertex -11.3137 11.3137 1.38548e-015
    endloop
  endfacet
  facet normal 0 -1.22461e-016 1
    outer loop
      vertex -13.3035 8.88912 1.08857e-015
      vertex -15.923 1.56827 1.92052e-016
      vertex -12.3682 10.1503 1.24301e-015
    endloop
  endfacet
  facet normal 0 -1.22461e-016 1
    outer loop
      vertex -14.1107 7.54235 9.23641e-016
      vertex -15.923 1.56827 1.92052e-016
      vertex -13.3035 8.88912 1.08857e-015
    endloop
  endfacet
  facet normal 0 -1.22461e-016 1
    outer loop
      vertex -14.7821 6.12294 7.49819e-016
      vertex -15.923 1.56827 1.92052e-016
      vertex -14.1107 7.54235 9.23641e-016
    endloop
  endfacet
  facet normal 0 -1.22461e-016 1
    outer loop
      vertex -15.311 4.64455 5.68775e-016
      vertex -15.923 1.56827 1.92052e-016
      vertex -14.7821 6.12294 7.49819e-016
    endloop
  endfacet
  facet normal 0 -1.22461e-016 1
    outer loop
      vertex -15.6926 3.12145 3.82254e-016
      vertex -15.923 1.56827 1.92052e-016
      vertex -15.311 4.64455 5.68775e-016
    endloop
  endfacet
  facet normal 0 -1.22461e-016 1
    outer loop
      vertex 8.04022 -7.76435 -9.50828e-016
      vertex 6.88139 -8.80777 -1.07861e-015
      vertex 12.3682 -10.1503 -1.24301e-015
    endloop
  endfacet
  facet normal 0 -1.22461e-016 1
    outer loop
      vertex -11.0685 1.55557 1.90496e-016
      vertex -10.7442 3.08086 3.77284e-016
      vertex -15.923 1.56827 1.92052e-016
    endloop
  endfacet
  facet normal 0 -1.22461e-016 1
    outer loop
      vertex 11.15 -0.779684 -9.54806e-017
      vertex 10.933 -2.32388 -2.84583e-016
      vertex 15.923 -1.56827 -1.92052e-016
    endloop
  endfacet
  facet normal 0 -1.22461e-016 1
    outer loop
      vertex 9.04257 6.56981 8.04543e-016
      vertex 9.86891 5.24739 6.42599e-016
      vertex 14.7821 6.12294 7.49819e-016
    endloop
  endfacet
  facet normal 0 -1.22461e-016 1
    outer loop
      vertex 4.18706 10.3633 1.2691e-015
      vertex 5.58861 9.67976 1.18539e-015
      vertex 10.1503 12.3682 1.51461e-015
    endloop
  endfacet
  facet normal 0 -1.22461e-016 1
    outer loop
      vertex -0.39008 11.1704 1.36794e-015
      vertex 1.16834 11.116 1.36127e-015
      vertex 6.12294 14.7821 1.81022e-015
    endloop
  endfacet
  facet normal 0 -1.22461e-016 1
    outer loop
      vertex 1.16834 11.116 1.36127e-015
      vertex 2.70402 10.8452 1.32811e-015
      vertex 7.54235 14.1107 1.72801e-015
    endloop
  endfacet
  facet normal 0 -1.22461e-016 1
    outer loop
      vertex -3.45395 10.6302 1.30178e-015
      vertex -1.94091 11.0074 1.34798e-015
      vertex 3.12145 15.6926 1.92172e-015
    endloop
  endfacet
  facet normal 0 -1.22461e-016 1
    outer loop
      vertex -7.47903 8.3063 1.01719e-015
      vertex -15.923 1.56827 1.92052e-016
      vertex -8.56225 7.18458 8.79829e-016
    endloop
  endfacet
  facet normal 0 -1.22461e-016 1
    outer loop
      vertex 1.56827 15.923 1.94994e-015
      vertex -15.923 1.56827 1.92052e-016
      vertex -7.47903 8.3063 1.01719e-015
    endloop
  endfacet
  facet normal 0 -1.22461e-016 1
    outer loop
      vertex -4.89977 10.046 1.23024e-015
      vertex -3.45395 10.6302 1.30178e-015
      vertex 3.12145 15.6926 1.92172e-015
    endloop
  endfacet
  facet normal 0 -1.22461e-016 1
    outer loop
      vertex 1.56827 15.923 1.94994e-015
      vertex -7.47903 8.3063 1.01719e-015
      vertex -6.25023 9.26634 1.13476e-015
    endloop
  endfacet
  facet normal 0 -1.22461e-016 1
    outer loop
      vertex 1.56827 15.923 1.94994e-015
      vertex -4.89977 10.046 1.23024e-015
      vertex 3.12145 15.6926 1.92172e-015
    endloop
  endfacet
  facet normal 0 -1.22461e-016 1
    outer loop
      vertex -1.94091 11.0074 1.34798e-015
      vertex -0.39008 11.1704 1.36794e-015
      vertex 4.64455 15.311 1.875e-015
    endloop
  endfacet
  facet normal 0 -1.22461e-016 1
    outer loop
      vertex -6.25023 9.26634 1.13476e-015
      vertex -4.89977 10.046 1.23024e-015
      vertex 1.56827 15.923 1.94994e-015
    endloop
  endfacet
  facet normal 0 -1.22461e-016 1
    outer loop
      vertex 3.12145 15.6926 1.92172e-015
      vertex -1.94091 11.0074 1.34798e-015
      vertex 4.64455 15.311 1.875e-015
    endloop
  endfacet
  facet normal 0 -1.22461e-016 1
    outer loop
      vertex 4.64455 15.311 1.875e-015
      vertex -0.39008 11.1704 1.36794e-015
      vertex 6.12294 14.7821 1.81022e-015
    endloop
  endfacet
  facet normal 0 -1.22461e-016 1
    outer loop
      vertex 6.12294 14.7821 1.81022e-015
      vertex 1.16834 11.116 1.36127e-015
      vertex 7.54235 14.1107 1.72801e-015
    endloop
  endfacet
  facet normal 0 -1.22461e-016 1
    outer loop
      vertex -10.2109 -4.54619 -5.56729e-016
      vertex -10.7442 -3.08086 -3.77284e-016
      vertex -15.923 1.56827 1.92052e-016
    endloop
  endfacet
  facet normal 0 -1.22461e-016 1
    outer loop
      vertex 7.54235 14.1107 1.72801e-015
      vertex 2.70402 10.8452 1.32811e-015
      vertex 8.88912 13.3035 1.62916e-015
    endloop
  endfacet
  facet normal 0 -1.22461e-016 1
    outer loop
      vertex 8.88912 13.3035 1.62916e-015
      vertex 4.18706 10.3633 1.2691e-015
      vertex 10.1503 12.3682 1.51461e-015
    endloop
  endfacet
  facet normal 0 -1.22461e-016 1
    outer loop
      vertex 10.1503 12.3682 1.51461e-015
      vertex 5.58861 9.67976 1.18539e-015
      vertex 11.3137 11.3137 1.38548e-015
    endloop
  endfacet
  facet normal 0 -1.22461e-016 1
    outer loop
      vertex 6.88139 8.80777 1.07861e-015
      vertex 8.04022 7.76435 9.50828e-016
      vertex 12.3682 10.1503 1.24301e-015
    endloop
  endfacet
  facet normal 0 -1.22461e-016 1
    outer loop
      vertex 11.3137 11.3137 1.38548e-015
      vertex 6.88139 8.80777 1.07861e-015
      vertex 12.3682 10.1503 1.24301e-015
    endloop
  endfacet
  facet normal 0 -1.22461e-016 1
    outer loop
      vertex -10.2109 4.54619 5.56729e-016
      vertex -9.47883 5.92303 7.25338e-016
      vertex -15.923 1.56827 1.92052e-016
    endloop
  endfacet
  facet normal 0 -1.22461e-016 1
    outer loop
      vertex 12.3682 10.1503 1.24301e-015
      vertex 8.04022 7.76435 9.50828e-016
      vertex 13.3035 8.88912 1.08857e-015
    endloop
  endfacet
  facet normal 0 -1.22461e-016 1
    outer loop
      vertex 13.3035 8.88912 1.08857e-015
      vertex 9.04257 6.56981 8.04543e-016
      vertex 14.1107 7.54235 9.23641e-016
    endloop
  endfacet
  facet normal 0 -1.22461e-016 1
    outer loop
      vertex 5.58861 9.67976 1.18539e-015
      vertex 6.88139 8.80777 1.07861e-015
      vertex 11.3137 11.3137 1.38548e-015
    endloop
  endfacet
  facet normal 0 -1.22461e-016 1
    outer loop
      vertex 14.7821 6.12294 7.49819e-016
      vertex 9.86891 5.24739 6.42599e-016
      vertex 15.311 4.64455 5.68775e-016
    endloop
  endfacet
  facet normal 0 -1.22461e-016 1
    outer loop
      vertex 15.311 4.64455 5.68775e-016
      vertex 10.5032 3.82284 4.68147e-016
      vertex 15.6926 3.12145 3.82254e-016
    endloop
  endfacet
  facet normal 0 -1.22461e-016 1
    outer loop
      vertex 8.04022 7.76435 9.50828e-016
      vertex 9.04257 6.56981 8.04543e-016
      vertex 13.3035 8.88912 1.08857e-015
    endloop
  endfacet
  facet normal 0 -1.22461e-016 1
    outer loop
      vertex 15.6926 3.12145 3.82254e-016
      vertex 10.933 2.32388 2.84583e-016
      vertex 15.923 1.56827 1.92052e-016
    endloop
  endfacet
  facet normal 0 -1.22461e-016 1
    outer loop
      vertex 15.923 1.56827 1.92052e-016
      vertex 11.15 0.779684 9.54806e-017
      vertex 16 0 0
    endloop
  endfacet
  facet normal 0 -1.22461e-016 1
    outer loop
      vertex 16 0 0
      vertex 11.15 -0.779684 -9.54806e-017
      vertex 15.923 -1.56827 -1.92052e-016
    endloop
  endfacet
  facet normal 0 -1.22461e-016 1
    outer loop
      vertex 9.04257 6.56981 8.04543e-016
      vertex 14.7821 6.12294 7.49819e-016
      vertex 14.1107 7.54235 9.23641e-016
    endloop
  endfacet
  facet normal 0 -1.22461e-016 1
    outer loop
      vertex 15.923 -1.56827 -1.92052e-016
      vertex 10.933 -2.32388 -2.84583e-016
      vertex 15.6926 -3.12145 -3.82254e-016
    endloop
  endfacet
  facet normal 0 -1.22461e-016 1
    outer loop
      vertex 15.311 -4.64455 -5.68775e-016
      vertex 10.5032 -3.82284 -4.68147e-016
      vertex 14.7821 -6.12294 -7.49819e-016
    endloop
  endfacet
  facet normal 0 -1.22461e-016 1
    outer loop
      vertex 14.7821 -6.12294 -7.49819e-016
      vertex 9.86891 -5.24739 -6.42599e-016
      vertex 14.1107 -7.54235 -9.23641e-016
    endloop
  endfacet
  facet normal 0 -1.22461e-016 1
    outer loop
      vertex 9.86891 -5.24739 -6.42599e-016
      vertex 9.04257 -6.56981 -8.04543e-016
      vertex 14.1107 -7.54235 -9.23641e-016
    endloop
  endfacet
  facet normal 0 -1.22461e-016 1
    outer loop
      vertex 14.1107 -7.54235 -9.23641e-016
      vertex 9.04257 -6.56981 -8.04543e-016
      vertex 13.3035 -8.88912 -1.08857e-015
    endloop
  endfacet
  facet normal 0 -1.22461e-016 1
    outer loop
      vertex 13.3035 -8.88912 -1.08857e-015
      vertex 8.04022 -7.76435 -9.50828e-016
      vertex 12.3682 -10.1503 -1.24301e-015
    endloop
  endfacet
  facet normal 0 -1.22461e-016 1
    outer loop
      vertex 10.933 -2.32388 -2.84583e-016
      vertex 10.5032 -3.82284 -4.68147e-016
      vertex 15.311 -4.64455 -5.68775e-016
    endloop
  endfacet
  facet normal 0 -1.22461e-016 1
    outer loop
      vertex 12.3682 -10.1503 -1.24301e-015
      vertex 6.88139 -8.80777 -1.07861e-015
      vertex 11.3137 -11.3137 -1.38548e-015
    endloop
  endfacet
  facet normal 0 -1.22461e-016 1
    outer loop
      vertex 10.933 -2.32388 -2.84583e-016
      vertex 15.311 -4.64455 -5.68775e-016
      vertex 15.6926 -3.12145 -3.82254e-016
    endloop
  endfacet
  facet normal 0 -1.22461e-016 1
    outer loop
      vertex 11.3137 -11.3137 -1.38548e-015
      vertex 5.58861 -9.67976 -1.18539e-015
      vertex 10.1503 -12.3682 -1.51461e-015
    endloop
  endfacet
  facet normal 0 -1.22461e-016 1
    outer loop
      vertex 10.1503 -12.3682 -1.51461e-015
      vertex 4.18706 -10.3633 -1.2691e-015
      vertex 8.88912 -13.3035 -1.62916e-015
    endloop
  endfacet
  facet normal 0 -1.22461e-016 1
    outer loop
      vertex 8.88912 -13.3035 -1.62916e-015
      vertex 2.70402 -10.8452 -1.32811e-015
      vertex 7.54235 -14.1107 -1.72801e-015
    endloop
  endfacet
  facet normal 0 -1.22461e-016 1
    outer loop
      vertex 6.12294 -14.7821 -1.81022e-015
      vertex 1.16834 -11.116 -1.36127e-015
      vertex 4.64455 -15.311 -1.875e-015
    endloop
  endfacet
  facet normal 0 -1.22461e-016 1
    outer loop
      vertex 1.16834 -11.116 -1.36127e-015
      vertex -0.39008 -11.1704 -1.36794e-015
      vertex 4.64455 -15.311 -1.875e-015
    endloop
  endfacet
  facet normal 0 -1.22461e-016 1
    outer loop
      vertex 4.64455 -15.311 -1.875e-015
      vertex -1.9409 -11.0074 -1.34798e-015
      vertex 3.12145 -15.6926 -1.92172e-015
    endloop
  endfacet
  facet normal 0 -1.22461e-016 1
    outer loop
      vertex 3.12145 -15.6926 -1.92172e-015
      vertex -3.45395 -10.6302 -1.30178e-015
      vertex 1.56827 -15.923 -1.94994e-015
    endloop
  endfacet
  facet normal 0 -1.22461e-016 1
    outer loop
      vertex 1.56827 -15.923 -1.94994e-015
      vertex -4.89977 -10.046 -1.23024e-015
      vertex 0 -16 -1.95937e-015
    endloop
  endfacet
  facet normal 0 -1.22461e-016 1
    outer loop
      vertex 0 -16 -1.95937e-015
      vertex -6.25023 -9.26634 -1.13476e-015
      vertex -1.56827 -15.923 -1.94994e-015
    endloop
  endfacet
  facet normal 0 -1.22461e-016 1
    outer loop
      vertex -6.25023 -9.26634 -1.13476e-015
      vertex -7.47902 -8.3063 -1.01719e-015
      vertex -1.56827 -15.923 -1.94994e-015
    endloop
  endfacet
  facet normal 0 -1.22461e-016 1
    outer loop
      vertex -7.47902 -8.3063 -1.01719e-015
      vertex -8.56225 -7.18458 -8.79829e-016
      vertex -1.56827 -15.923 -1.94994e-015
    endloop
  endfacet
  facet normal 0 -1.22461e-016 1
    outer loop
      vertex -9.47883 -5.92303 -7.25338e-016
      vertex -10.2109 -4.54619 -5.56729e-016
      vertex -15.923 1.56827 1.92052e-016
    endloop
  endfacet
  facet normal 0 -1.22461e-016 1
    outer loop
      vertex -10.7442 -3.08086 -3.77284e-016
      vertex -11.0685 -1.55557 -1.90496e-016
      vertex -15.923 1.56827 1.92052e-016
    endloop
  endfacet
  facet normal 0 -1.22461e-016 1
    outer loop
      vertex -1.9409 -11.0074 -1.34798e-015
      vertex -3.45395 -10.6302 -1.30178e-015
      vertex 3.12145 -15.6926 -1.92172e-015
    endloop
  endfacet
  facet normal 0 -1.22461e-016 1
    outer loop
      vertex 9.04257 -6.56981 -8.04543e-016
      vertex 8.04022 -7.76435 -9.50828e-016
      vertex 13.3035 -8.88912 -1.08857e-015
    endloop
  endfacet
  facet normal 0 -1.22461e-016 1
    outer loop
      vertex 6.88139 -8.80777 -1.07861e-015
      vertex 5.58861 -9.67976 -1.18539e-015
      vertex 11.3137 -11.3137 -1.38548e-015
    endloop
  endfacet
  facet normal 0 -1.22461e-016 1
    outer loop
      vertex 5.58861 -9.67976 -1.18539e-015
      vertex 4.18706 -10.3633 -1.2691e-015
      vertex 10.1503 -12.3682 -1.51461e-015
    endloop
  endfacet
  facet normal 0 -1.22461e-016 1
    outer loop
      vertex 4.18706 -10.3633 -1.2691e-015
      vertex 2.70402 -10.8452 -1.32811e-015
      vertex 8.88912 -13.3035 -1.62916e-015
    endloop
  endfacet
  facet normal 0 -1.22461e-016 1
    outer loop
      vertex 2.70402 -10.8452 -1.32811e-015
      vertex 6.12294 -14.7821 -1.81022e-015
      vertex 7.54235 -14.1107 -1.72801e-015
    endloop
  endfacet
  facet normal 0 -1.22461e-016 1
    outer loop
      vertex -11.0685 -1.55557 -1.90496e-016
      vertex -11.1772 -1.36877e-015 -1.6762e-031
      vertex -15.923 1.56827 1.92052e-016
    endloop
  endfacet
  facet normal 0 -1.22461e-016 1
    outer loop
      vertex -11.1772 -1.36877e-015 -1.6762e-031
      vertex -11.0685 1.55557 1.90496e-016
      vertex -15.923 1.56827 1.92052e-016
    endloop
  endfacet
  facet normal -0.996589 -0.048959 -0.0664393
    outer loop
      vertex -15.923 -1.56827 -1.92052e-016
      vertex -16 0 0
      vertex -14.9278 -1.47026 -15
    endloop
  endfacet
  facet normal -0.996589 -0.0489592 -0.0664392
    outer loop
      vertex -14.9278 -1.47026 -15
      vertex -16 0 0
      vertex -15 1.83691e-015 -15
    endloop
  endfacet
  facet normal -0.996589 0.048959 -0.0664392
    outer loop
      vertex -15 1.83691e-015 -15
      vertex -16 0 0
      vertex -15.923 1.56827 1.92052e-016
    endloop
  endfacet
  facet normal -0.996589 0.0489592 -0.0664393
    outer loop
      vertex -15 1.83691e-015 -15
      vertex -15.923 1.56827 1.92052e-016
      vertex -14.9278 1.47026 -15
    endloop
  endfacet
  facet normal -0.986991 0.146407 -0.0664393
    outer loop
      vertex -14.9278 1.47026 -15
      vertex -15.923 1.56827 1.92052e-016
      vertex -15.6926 3.12145 3.82254e-016
    endloop
  endfacet
  facet normal -0.986991 0.146406 -0.0664392
    outer loop
      vertex -14.9278 1.47026 -15
      vertex -15.6926 3.12145 3.82254e-016
      vertex -14.7118 2.92636 -15
    endloop
  endfacet
  facet normal -0.967888 0.242443 -0.0664392
    outer loop
      vertex -14.7118 2.92636 -15
      vertex -15.6926 3.12145 3.82254e-016
      vertex -15.311 4.64455 5.68775e-016
    endloop
  endfacet
  facet normal -0.967888 0.242443 -0.0664392
    outer loop
      vertex -14.7118 2.92636 -15
      vertex -15.311 4.64455 5.68775e-016
      vertex -14.3541 4.35427 -15
    endloop
  endfacet
  facet normal -0.939464 0.336145 -0.0664392
    outer loop
      vertex -14.3541 4.35427 -15
      vertex -15.311 4.64455 5.68775e-016
      vertex -14.7821 6.12294 7.49819e-016
    endloop
  endfacet
  facet normal -0.939464 0.336146 -0.0664393
    outer loop
      vertex -14.3541 4.35427 -15
      vertex -14.7821 6.12294 7.49819e-016
      vertex -13.8582 5.74025 -15
    endloop
  endfacet
  facet normal -0.901992 0.426611 -0.0664393
    outer loop
      vertex -13.8582 5.74025 -15
      vertex -14.7821 6.12294 7.49819e-016
      vertex -14.1107 7.54235 9.23641e-016
    endloop
  endfacet
  facet normal -0.901992 0.42661 -0.0664392
    outer loop
      vertex -13.8582 5.74025 -15
      vertex -14.1107 7.54235 9.23641e-016
      vertex -13.2288 7.07095 -15
    endloop
  endfacet
  facet normal -0.855834 0.512967 -0.0664392
    outer loop
      vertex -13.2288 7.07095 -15
      vertex -14.1107 7.54235 9.23641e-016
      vertex -13.3035 8.88912 1.08857e-015
    endloop
  endfacet
  facet normal -0.855833 0.512967 -0.0664393
    outer loop
      vertex -13.2288 7.07095 -15
      vertex -13.3035 8.88912 1.08857e-015
      vertex -12.472 8.33355 -15
    endloop
  endfacet
  facet normal -0.801433 0.594383 -0.0664393
    outer loop
      vertex -12.472 8.33355 -15
      vertex -13.3035 8.88912 1.08857e-015
      vertex -12.3682 10.1503 1.24301e-015
    endloop
  endfacet
  facet normal -0.801433 0.594383 -0.0664392
    outer loop
      vertex -11.5952 9.5159 -15
      vertex -12.472 8.33355 -15
      vertex -12.3682 10.1503 1.24301e-015
    endloop
  endfacet
  facet normal -0.739314 0.670076 -0.0664392
    outer loop
      vertex -11.5952 9.5159 -15
      vertex -12.3682 10.1503 1.24301e-015
      vertex -11.3137 11.3137 1.38548e-015
    endloop
  endfacet
  facet normal -0.739314 0.670075 -0.0664392
    outer loop
      vertex -10.6066 10.6066 -15
      vertex -11.5952 9.5159 -15
      vertex -11.3137 11.3137 1.38548e-015
    endloop
  endfacet
  facet normal -0.670076 0.739314 -0.0664392
    outer loop
      vertex -10.6066 10.6066 -15
      vertex -11.3137 11.3137 1.38548e-015
      vertex -10.1503 12.3682 1.51461e-015
    endloop
  endfacet
  facet normal -0.670075 0.739314 -0.0664392
    outer loop
      vertex -9.5159 11.5952 -15
      vertex -10.6066 10.6066 -15
      vertex -10.1503 12.3682 1.51461e-015
    endloop
  endfacet
  facet normal -0.594383 0.801433 -0.0664392
    outer loop
      vertex -9.5159 11.5952 -15
      vertex -10.1503 12.3682 1.51461e-015
      vertex -8.88912 13.3035 1.62916e-015
    endloop
  endfacet
  facet normal -0.594383 0.801433 -0.0664393
    outer loop
      vertex -8.33355 12.472 -15
      vertex -9.5159 11.5952 -15
      vertex -8.88912 13.3035 1.62916e-015
    endloop
  endfacet
  facet normal -0.512967 0.855834 -0.0664393
    outer loop
      vertex -8.33355 12.472 -15
      vertex -8.88912 13.3035 1.62916e-015
      vertex -7.54235 14.1107 1.72801e-015
    endloop
  endfacet
  facet normal -0.512967 0.855833 -0.0664392
    outer loop
      vertex -7.07095 13.2288 -15
      vertex -8.33355 12.472 -15
      vertex -7.54235 14.1107 1.72801e-015
    endloop
  endfacet
  facet normal -0.426611 0.901992 -0.0664392
    outer loop
      vertex -7.07095 13.2288 -15
      vertex -7.54235 14.1107 1.72801e-015
      vertex -6.12294 14.7821 1.81022e-015
    endloop
  endfacet
  facet normal -0.42661 0.901992 -0.0664393
    outer loop
      vertex -5.74025 13.8582 -15
      vertex -7.07095 13.2288 -15
      vertex -6.12294 14.7821 1.81022e-015
    endloop
  endfacet
  facet normal -0.336145 0.939464 -0.0664393
    outer loop
      vertex -5.74025 13.8582 -15
      vertex -6.12294 14.7821 1.81022e-015
      vertex -4.64455 15.311 1.875e-015
    endloop
  endfacet
  facet normal -0.336146 0.939464 -0.0664392
    outer loop
      vertex -4.35427 14.3541 -15
      vertex -5.74025 13.8582 -15
      vertex -4.64455 15.311 1.875e-015
    endloop
  endfacet
  facet normal -0.242443 0.967888 -0.0664392
    outer loop
      vertex -4.35427 14.3541 -15
      vertex -4.64455 15.311 1.875e-015
      vertex -3.12145 15.6926 1.92172e-015
    endloop
  endfacet
  facet normal -0.242443 0.967888 -0.0664392
    outer loop
      vertex -2.92636 14.7118 -15
      vertex -4.35427 14.3541 -15
      vertex -3.12145 15.6926 1.92172e-015
    endloop
  endfacet
  facet normal -0.146407 0.986991 -0.0664392
    outer loop
      vertex -2.92636 14.7118 -15
      vertex -3.12145 15.6926 1.92172e-015
      vertex -1.56827 15.923 1.94994e-015
    endloop
  endfacet
  facet normal -0.146406 0.986991 -0.0664393
    outer loop
      vertex -1.47026 14.9278 -15
      vertex -2.92636 14.7118 -15
      vertex -1.56827 15.923 1.94994e-015
    endloop
  endfacet
  facet normal -0.048959 0.996589 -0.0664393
    outer loop
      vertex -1.47026 14.9278 -15
      vertex -1.56827 15.923 1.94994e-015
      vertex 0 16 1.95937e-015
    endloop
  endfacet
  facet normal -0.0489592 0.996589 -0.0664392
    outer loop
      vertex 0 15 -15
      vertex -1.47026 14.9278 -15
      vertex 0 16 1.95937e-015
    endloop
  endfacet
  facet normal 0.048959 0.996589 -0.0664392
    outer loop
      vertex 0 15 -15
      vertex 0 16 1.95937e-015
      vertex 1.56827 15.923 1.94994e-015
    endloop
  endfacet
  facet normal 0.0489592 0.996589 -0.0664393
    outer loop
      vertex 1.47026 14.9278 -15
      vertex 0 15 -15
      vertex 1.56827 15.923 1.94994e-015
    endloop
  endfacet
  facet normal 0.146407 0.986991 -0.0664393
    outer loop
      vertex 3.12145 15.6926 1.92172e-015
      vertex 1.47026 14.9278 -15
      vertex 1.56827 15.923 1.94994e-015
    endloop
  endfacet
  facet normal 0.146406 0.986991 -0.0664392
    outer loop
      vertex 2.92636 14.7118 -15
      vertex 1.47026 14.9278 -15
      vertex 3.12145 15.6926 1.92172e-015
    endloop
  endfacet
  facet normal 0.242443 0.967888 -0.0664392
    outer loop
      vertex 4.64455 15.311 1.875e-015
      vertex 2.92636 14.7118 -15
      vertex 3.12145 15.6926 1.92172e-015
    endloop
  endfacet
  facet normal 0.242443 0.967888 -0.0664392
    outer loop
      vertex 4.35427 14.3541 -15
      vertex 2.92636 14.7118 -15
      vertex 4.64455 15.311 1.875e-015
    endloop
  endfacet
  facet normal 0.336145 0.939464 -0.0664392
    outer loop
      vertex 6.12294 14.7821 1.81022e-015
      vertex 4.35427 14.3541 -15
      vertex 4.64455 15.311 1.875e-015
    endloop
  endfacet
  facet normal 0.336146 0.939464 -0.0664393
    outer loop
      vertex 5.74025 13.8582 -15
      vertex 4.35427 14.3541 -15
      vertex 6.12294 14.7821 1.81022e-015
    endloop
  endfacet
  facet normal 0.426611 0.901992 -0.0664393
    outer loop
      vertex 7.54235 14.1107 1.72801e-015
      vertex 5.74025 13.8582 -15
      vertex 6.12294 14.7821 1.81022e-015
    endloop
  endfacet
  facet normal 0.42661 0.901992 -0.0664392
    outer loop
      vertex 7.07095 13.2288 -15
      vertex 5.74025 13.8582 -15
      vertex 7.54235 14.1107 1.72801e-015
    endloop
  endfacet
  facet normal 0.512967 0.855834 -0.0664392
    outer loop
      vertex 8.88912 13.3035 1.62916e-015
      vertex 7.07095 13.2288 -15
      vertex 7.54235 14.1107 1.72801e-015
    endloop
  endfacet
  facet normal 0.512967 0.855833 -0.0664393
    outer loop
      vertex 8.33355 12.472 -15
      vertex 7.07095 13.2288 -15
      vertex 8.88912 13.3035 1.62916e-015
    endloop
  endfacet
  facet normal 0.594383 0.801433 -0.0664393
    outer loop
      vertex 10.1503 12.3682 1.51461e-015
      vertex 8.33355 12.472 -15
      vertex 8.88912 13.3035 1.62916e-015
    endloop
  endfacet
  facet normal 0.594383 0.801433 -0.0664392
    outer loop
      vertex 9.5159 11.5952 -15
      vertex 8.33355 12.472 -15
      vertex 10.1503 12.3682 1.51461e-015
    endloop
  endfacet
  facet normal 0.670076 0.739314 -0.0664392
    outer loop
      vertex 11.3137 11.3137 1.38548e-015
      vertex 9.5159 11.5952 -15
      vertex 10.1503 12.3682 1.51461e-015
    endloop
  endfacet
  facet normal 0.670075 0.739314 -0.0664392
    outer loop
      vertex 10.6066 10.6066 -15
      vertex 9.5159 11.5952 -15
      vertex 11.3137 11.3137 1.38548e-015
    endloop
  endfacet
  facet normal 0.739314 0.670076 -0.0664392
    outer loop
      vertex 12.3682 10.1503 1.24301e-015
      vertex 10.6066 10.6066 -15
      vertex 11.3137 11.3137 1.38548e-015
    endloop
  endfacet
  facet normal 0.739314 0.670075 -0.0664392
    outer loop
      vertex 11.5952 9.5159 -15
      vertex 10.6066 10.6066 -15
      vertex 12.3682 10.1503 1.24301e-015
    endloop
  endfacet
  facet normal 0.801433 0.594383 -0.0664392
    outer loop
      vertex 13.3035 8.88912 1.08857e-015
      vertex 11.5952 9.5159 -15
      vertex 12.3682 10.1503 1.24301e-015
    endloop
  endfacet
  facet normal 0.801433 0.594383 -0.0664393
    outer loop
      vertex 12.472 8.33355 -15
      vertex 11.5952 9.5159 -15
      vertex 13.3035 8.88912 1.08857e-015
    endloop
  endfacet
  facet normal 0.855834 0.512967 -0.0664393
    outer loop
      vertex 14.1107 7.54235 9.23641e-016
      vertex 12.472 8.33355 -15
      vertex 13.3035 8.88912 1.08857e-015
    endloop
  endfacet
  facet normal 0.855833 0.512967 -0.0664392
    outer loop
      vertex 13.2288 7.07095 -15
      vertex 12.472 8.33355 -15
      vertex 14.1107 7.54235 9.23641e-016
    endloop
  endfacet
  facet normal 0.901992 0.426611 -0.0664392
    outer loop
      vertex 14.7821 6.12294 7.49819e-016
      vertex 13.2288 7.07095 -15
      vertex 14.1107 7.54235 9.23641e-016
    endloop
  endfacet
  facet normal 0.901992 0.42661 -0.0664393
    outer loop
      vertex 13.8582 5.74025 -15
      vertex 13.2288 7.07095 -15
      vertex 14.7821 6.12294 7.49819e-016
    endloop
  endfacet
  facet normal 0.939464 0.336145 -0.0664393
    outer loop
      vertex 15.311 4.64455 5.68775e-016
      vertex 13.8582 5.74025 -15
      vertex 14.7821 6.12294 7.49819e-016
    endloop
  endfacet
  facet normal 0.939464 0.336146 -0.0664392
    outer loop
      vertex 14.3541 4.35427 -15
      vertex 13.8582 5.74025 -15
      vertex 15.311 4.64455 5.68775e-016
    endloop
  endfacet
  facet normal 0.967888 0.242443 -0.0664392
    outer loop
      vertex 15.6926 3.12145 3.82254e-016
      vertex 14.3541 4.35427 -15
      vertex 15.311 4.64455 5.68775e-016
    endloop
  endfacet
  facet normal 0.967888 0.242443 -0.0664392
    outer loop
      vertex 14.7118 2.92636 -15
      vertex 14.3541 4.35427 -15
      vertex 15.6926 3.12145 3.82254e-016
    endloop
  endfacet
  facet normal 0.986991 0.146407 -0.0664392
    outer loop
      vertex 15.923 1.56827 1.92052e-016
      vertex 14.7118 2.92636 -15
      vertex 15.6926 3.12145 3.82254e-016
    endloop
  endfacet
  facet normal 0.986991 0.146406 -0.0664393
    outer loop
      vertex 14.9278 1.47026 -15
      vertex 14.7118 2.92636 -15
      vertex 15.923 1.56827 1.92052e-016
    endloop
  endfacet
  facet normal 0.996589 0.048959 -0.0664393
    outer loop
      vertex 16 0 0
      vertex 14.9278 1.47026 -15
      vertex 15.923 1.56827 1.92052e-016
    endloop
  endfacet
  facet normal 0.996589 0.0489592 -0.0664392
    outer loop
      vertex 15 1.83691e-015 -15
      vertex 14.9278 1.47026 -15
      vertex 16 0 0
    endloop
  endfacet
  facet normal 0.996589 -0.048959 -0.0664392
    outer loop
      vertex 15.923 -1.56827 -1.92052e-016
      vertex 15 1.83691e-015 -15
      vertex 16 0 0
    endloop
  endfacet
  facet normal 0.996589 -0.0489592 -0.0664393
    outer loop
      vertex 15.923 -1.56827 -1.92052e-016
      vertex 14.9278 -1.47026 -15
      vertex 15 1.83691e-015 -15
    endloop
  endfacet
  facet normal 0.986991 -0.146407 -0.0664393
    outer loop
      vertex 15.6926 -3.12145 -3.82254e-016
      vertex 14.9278 -1.47026 -15
      vertex 15.923 -1.56827 -1.92052e-016
    endloop
  endfacet
  facet normal 0.986991 -0.146406 -0.0664392
    outer loop
      vertex 15.6926 -3.12145 -3.82254e-016
      vertex 14.7118 -2.92635 -15
      vertex 14.9278 -1.47026 -15
    endloop
  endfacet
  facet normal 0.967888 -0.242443 -0.0664392
    outer loop
      vertex 15.311 -4.64455 -5.68775e-016
      vertex 14.7118 -2.92635 -15
      vertex 15.6926 -3.12145 -3.82254e-016
    endloop
  endfacet
  facet normal 0.967888 -0.242443 -0.0664392
    outer loop
      vertex 15.311 -4.64455 -5.68775e-016
      vertex 14.3541 -4.35427 -15
      vertex 14.7118 -2.92635 -15
    endloop
  endfacet
  facet normal 0.939464 -0.336145 -0.0664392
    outer loop
      vertex 14.7821 -6.12294 -7.49819e-016
      vertex 14.3541 -4.35427 -15
      vertex 15.311 -4.64455 -5.68775e-016
    endloop
  endfacet
  facet normal 0.939464 -0.336146 -0.0664393
    outer loop
      vertex 14.7821 -6.12294 -7.49819e-016
      vertex 13.8582 -5.74025 -15
      vertex 14.3541 -4.35427 -15
    endloop
  endfacet
  facet normal 0.901992 -0.426611 -0.0664393
    outer loop
      vertex 14.1107 -7.54235 -9.23641e-016
      vertex 13.8582 -5.74025 -15
      vertex 14.7821 -6.12294 -7.49819e-016
    endloop
  endfacet
  facet normal 0.901992 -0.42661 -0.0664392
    outer loop
      vertex 14.1107 -7.54235 -9.23641e-016
      vertex 13.2288 -7.07095 -15
      vertex 13.8582 -5.74025 -15
    endloop
  endfacet
  facet normal 0.855834 -0.512967 -0.0664392
    outer loop
      vertex 13.3035 -8.88912 -1.08857e-015
      vertex 13.2288 -7.07095 -15
      vertex 14.1107 -7.54235 -9.23641e-016
    endloop
  endfacet
  facet normal 0.855833 -0.512967 -0.0664393
    outer loop
      vertex 13.3035 -8.88912 -1.08857e-015
      vertex 12.472 -8.33355 -15
      vertex 13.2288 -7.07095 -15
    endloop
  endfacet
  facet normal 0.801433 -0.594383 -0.0664393
    outer loop
      vertex 13.3035 -8.88912 -1.08857e-015
      vertex 12.3682 -10.1503 -1.24301e-015
      vertex 12.472 -8.33355 -15
    endloop
  endfacet
  facet normal 0.801433 -0.594383 -0.0664392
    outer loop
      vertex 12.3682 -10.1503 -1.24301e-015
      vertex 11.5952 -9.5159 -15
      vertex 12.472 -8.33355 -15
    endloop
  endfacet
  facet normal 0.739314 -0.670076 -0.0664392
    outer loop
      vertex 12.3682 -10.1503 -1.24301e-015
      vertex 11.3137 -11.3137 -1.38548e-015
      vertex 11.5952 -9.5159 -15
    endloop
  endfacet
  facet normal 0.739314 -0.670075 -0.0664392
    outer loop
      vertex 11.3137 -11.3137 -1.38548e-015
      vertex 10.6066 -10.6066 -15
      vertex 11.5952 -9.5159 -15
    endloop
  endfacet
  facet normal 0.670076 -0.739314 -0.0664392
    outer loop
      vertex 11.3137 -11.3137 -1.38548e-015
      vertex 10.1503 -12.3682 -1.51461e-015
      vertex 10.6066 -10.6066 -15
    endloop
  endfacet
  facet normal 0.670075 -0.739314 -0.0664392
    outer loop
      vertex 10.1503 -12.3682 -1.51461e-015
      vertex 9.5159 -11.5952 -15
      vertex 10.6066 -10.6066 -15
    endloop
  endfacet
  facet normal 0.594383 -0.801433 -0.0664392
    outer loop
      vertex 10.1503 -12.3682 -1.51461e-015
      vertex 8.88912 -13.3035 -1.62916e-015
      vertex 9.5159 -11.5952 -15
    endloop
  endfacet
  facet normal 0.594383 -0.801433 -0.0664393
    outer loop
      vertex 8.88912 -13.3035 -1.62916e-015
      vertex 8.33355 -12.472 -15
      vertex 9.5159 -11.5952 -15
    endloop
  endfacet
  facet normal 0.512967 -0.855834 -0.0664393
    outer loop
      vertex 8.88912 -13.3035 -1.62916e-015
      vertex 7.54235 -14.1107 -1.72801e-015
      vertex 8.33355 -12.472 -15
    endloop
  endfacet
  facet normal 0.512967 -0.855833 -0.0664392
    outer loop
      vertex 7.54235 -14.1107 -1.72801e-015
      vertex 7.07095 -13.2288 -15
      vertex 8.33355 -12.472 -15
    endloop
  endfacet
  facet normal 0.426611 -0.901992 -0.0664392
    outer loop
      vertex 7.54235 -14.1107 -1.72801e-015
      vertex 6.12294 -14.7821 -1.81022e-015
      vertex 7.07095 -13.2288 -15
    endloop
  endfacet
  facet normal 0.42661 -0.901992 -0.0664393
    outer loop
      vertex 6.12294 -14.7821 -1.81022e-015
      vertex 5.74025 -13.8582 -15
      vertex 7.07095 -13.2288 -15
    endloop
  endfacet
  facet normal 0.336145 -0.939464 -0.0664393
    outer loop
      vertex 6.12294 -14.7821 -1.81022e-015
      vertex 4.64455 -15.311 -1.875e-015
      vertex 5.74025 -13.8582 -15
    endloop
  endfacet
  facet normal 0.336146 -0.939464 -0.0664392
    outer loop
      vertex 4.64455 -15.311 -1.875e-015
      vertex 4.35427 -14.3541 -15
      vertex 5.74025 -13.8582 -15
    endloop
  endfacet
  facet normal 0.242443 -0.967888 -0.0664392
    outer loop
      vertex 4.64455 -15.311 -1.875e-015
      vertex 3.12145 -15.6926 -1.92172e-015
      vertex 4.35427 -14.3541 -15
    endloop
  endfacet
  facet normal 0.242443 -0.967888 -0.0664392
    outer loop
      vertex 3.12145 -15.6926 -1.92172e-015
      vertex 2.92636 -14.7118 -15
      vertex 4.35427 -14.3541 -15
    endloop
  endfacet
  facet normal 0.146407 -0.986991 -0.0664392
    outer loop
      vertex 3.12145 -15.6926 -1.92172e-015
      vertex 1.56827 -15.923 -1.94994e-015
      vertex 2.92636 -14.7118 -15
    endloop
  endfacet
  facet normal 0.146406 -0.986991 -0.0664393
    outer loop
      vertex 1.56827 -15.923 -1.94994e-015
      vertex 1.47026 -14.9278 -15
      vertex 2.92636 -14.7118 -15
    endloop
  endfacet
  facet normal 0.048959 -0.996589 -0.0664393
    outer loop
      vertex 1.56827 -15.923 -1.94994e-015
      vertex 0 -16 -1.95937e-015
      vertex 1.47026 -14.9278 -15
    endloop
  endfacet
  facet normal 0.0489592 -0.996589 -0.0664392
    outer loop
      vertex 0 -16 -1.95937e-015
      vertex 0 -15 -15
      vertex 1.47026 -14.9278 -15
    endloop
  endfacet
  facet normal -0.048959 -0.996589 -0.0664392
    outer loop
      vertex 0 -16 -1.95937e-015
      vertex -1.56827 -15.923 -1.94994e-015
      vertex 0 -15 -15
    endloop
  endfacet
  facet normal -0.0489592 -0.996589 -0.0664393
    outer loop
      vertex 0 -15 -15
      vertex -1.56827 -15.923 -1.94994e-015
      vertex -1.47026 -14.9278 -15
    endloop
  endfacet
  facet normal -0.146407 -0.986991 -0.0664393
    outer loop
      vertex -1.56827 -15.923 -1.94994e-015
      vertex -3.12145 -15.6926 -1.92172e-015
      vertex -1.47026 -14.9278 -15
    endloop
  endfacet
  facet normal -0.146406 -0.986991 -0.0664392
    outer loop
      vertex -1.47026 -14.9278 -15
      vertex -3.12145 -15.6926 -1.92172e-015
      vertex -2.92636 -14.7118 -15
    endloop
  endfacet
  facet normal -0.242443 -0.967888 -0.0664392
    outer loop
      vertex -3.12145 -15.6926 -1.92172e-015
      vertex -4.64455 -15.311 -1.875e-015
      vertex -2.92636 -14.7118 -15
    endloop
  endfacet
  facet normal -0.242443 -0.967888 -0.0664392
    outer loop
      vertex -2.92636 -14.7118 -15
      vertex -4.64455 -15.311 -1.875e-015
      vertex -4.35427 -14.3541 -15
    endloop
  endfacet
  facet normal -0.336145 -0.939464 -0.0664392
    outer loop
      vertex -4.64455 -15.311 -1.875e-015
      vertex -6.12294 -14.7821 -1.81022e-015
      vertex -4.35427 -14.3541 -15
    endloop
  endfacet
  facet normal -0.336146 -0.939464 -0.0664393
    outer loop
      vertex -4.35427 -14.3541 -15
      vertex -6.12294 -14.7821 -1.81022e-015
      vertex -5.74025 -13.8582 -15
    endloop
  endfacet
  facet normal -0.426611 -0.901992 -0.0664393
    outer loop
      vertex -6.12294 -14.7821 -1.81022e-015
      vertex -7.54235 -14.1107 -1.72801e-015
      vertex -5.74025 -13.8582 -15
    endloop
  endfacet
  facet normal -0.42661 -0.901992 -0.0664392
    outer loop
      vertex -5.74025 -13.8582 -15
      vertex -7.54235 -14.1107 -1.72801e-015
      vertex -7.07095 -13.2288 -15
    endloop
  endfacet
  facet normal -0.512967 -0.855834 -0.0664392
    outer loop
      vertex -7.54235 -14.1107 -1.72801e-015
      vertex -8.88912 -13.3035 -1.62916e-015
      vertex -7.07095 -13.2288 -15
    endloop
  endfacet
  facet normal -0.512967 -0.855833 -0.0664393
    outer loop
      vertex -7.07095 -13.2288 -15
      vertex -8.88912 -13.3035 -1.62916e-015
      vertex -8.33355 -12.472 -15
    endloop
  endfacet
  facet normal -0.594383 -0.801433 -0.0664393
    outer loop
      vertex -8.88912 -13.3035 -1.62916e-015
      vertex -10.1503 -12.3682 -1.51461e-015
      vertex -8.33355 -12.472 -15
    endloop
  endfacet
  facet normal -0.594383 -0.801433 -0.0664392
    outer loop
      vertex -8.33355 -12.472 -15
      vertex -10.1503 -12.3682 -1.51461e-015
      vertex -9.5159 -11.5952 -15
    endloop
  endfacet
  facet normal -0.670076 -0.739314 -0.0664392
    outer loop
      vertex -10.1503 -12.3682 -1.51461e-015
      vertex -11.3137 -11.3137 -1.38548e-015
      vertex -9.5159 -11.5952 -15
    endloop
  endfacet
  facet normal -0.670075 -0.739314 -0.0664392
    outer loop
      vertex -9.5159 -11.5952 -15
      vertex -11.3137 -11.3137 -1.38548e-015
      vertex -10.6066 -10.6066 -15
    endloop
  endfacet
  facet normal -0.739314 -0.670076 -0.0664392
    outer loop
      vertex -11.3137 -11.3137 -1.38548e-015
      vertex -12.3682 -10.1503 -1.24301e-015
      vertex -10.6066 -10.6066 -15
    endloop
  endfacet
  facet normal -0.739314 -0.670075 -0.0664392
    outer loop
      vertex -10.6066 -10.6066 -15
      vertex -12.3682 -10.1503 -1.24301e-015
      vertex -11.5952 -9.5159 -15
    endloop
  endfacet
  facet normal -0.801433 -0.594383 -0.0664392
    outer loop
      vertex -12.3682 -10.1503 -1.24301e-015
      vertex -13.3035 -8.88912 -1.08857e-015
      vertex -11.5952 -9.5159 -15
    endloop
  endfacet
  facet normal -0.801433 -0.594383 -0.0664393
    outer loop
      vertex -11.5952 -9.5159 -15
      vertex -13.3035 -8.88912 -1.08857e-015
      vertex -12.472 -8.33355 -15
    endloop
  endfacet
  facet normal -0.855834 -0.512967 -0.0664393
    outer loop
      vertex -13.3035 -8.88912 -1.08857e-015
      vertex -14.1107 -7.54235 -9.23641e-016
      vertex -12.472 -8.33355 -15
    endloop
  endfacet
  facet normal -0.855833 -0.512967 -0.0664392
    outer loop
      vertex -12.472 -8.33355 -15
      vertex -14.1107 -7.54235 -9.23641e-016
      vertex -13.2288 -7.07095 -15
    endloop
  endfacet
  facet normal -0.901992 -0.426611 -0.0664392
    outer loop
      vertex -14.1107 -7.54235 -9.23641e-016
      vertex -14.7821 -6.12294 -7.49819e-016
      vertex -13.2288 -7.07095 -15
    endloop
  endfacet
  facet normal -0.901992 -0.42661 -0.0664393
    outer loop
      vertex -13.2288 -7.07095 -15
      vertex -14.7821 -6.12294 -7.49819e-016
      vertex -13.8582 -5.74025 -15
    endloop
  endfacet
  facet normal -0.939464 -0.336145 -0.0664393
    outer loop
      vertex -14.7821 -6.12294 -7.49819e-016
      vertex -15.311 -4.64455 -5.68775e-016
      vertex -13.8582 -5.74025 -15
    endloop
  endfacet
  facet normal -0.939464 -0.336146 -0.0664392
    outer loop
      vertex -13.8582 -5.74025 -15
      vertex -15.311 -4.64455 -5.68775e-016
      vertex -14.3541 -4.35427 -15
    endloop
  endfacet
  facet normal -0.967888 -0.242443 -0.0664392
    outer loop
      vertex -15.311 -4.64455 -5.68775e-016
      vertex -15.6926 -3.12145 -3.82254e-016
      vertex -14.3541 -4.35427 -15
    endloop
  endfacet
  facet normal -0.967888 -0.242443 -0.0664392
    outer loop
      vertex -14.3541 -4.35427 -15
      vertex -15.6926 -3.12145 -3.82254e-016
      vertex -14.7118 -2.92635 -15
    endloop
  endfacet
  facet normal -0.986991 -0.146407 -0.0664392
    outer loop
      vertex -15.6926 -3.12145 -3.82254e-016
      vertex -15.923 -1.56827 -1.92052e-016
      vertex -14.7118 -2.92635 -15
    endloop
  endfacet
  facet normal -0.986991 -0.146406 -0.0664393
    outer loop
      vertex -14.7118 -2.92635 -15
      vertex -15.923 -1.56827 -1.92052e-016
      vertex -14.9278 -1.47026 -15
    endloop
  endfacet
  facet normal 0.997564 -0.0697565 -8.54242e-018
    outer loop
      vertex -11.1772 -4.74808e-016 -7.3
      vertex -11.0685 1.55557 -7.3
      vertex -11.0685 1.55557 1.90496e-016
    endloop
  endfacet
  facet normal 0.997564 -0.0697565 -8.54242e-018
    outer loop
      vertex -11.1772 -1.36877e-015 -1.6762e-031
      vertex -11.1772 -4.74808e-016 -7.3
      vertex -11.0685 1.55557 1.90496e-016
    endloop
  endfacet
  facet normal 0.997564 0.0697565 8.54242e-018
    outer loop
      vertex -11.0685 -1.55557 -1.90496e-016
      vertex -11.0685 -1.55557 -7.3
      vertex -11.1772 -4.74808e-016 -7.3
    endloop
  endfacet
  facet normal 0.997564 0.0697565 8.54242e-018
    outer loop
      vertex -11.1772 -1.36877e-015 -1.6762e-031
      vertex -11.0685 -1.55557 -1.90496e-016
      vertex -11.1772 -4.74808e-016 -7.3
    endloop
  endfacet
  facet normal 0.978148 0.207912 2.5461e-017
    outer loop
      vertex -10.7442 -3.08086 -3.77284e-016
      vertex -10.7442 -3.08086 -7.3
      vertex -11.0685 -1.55557 -7.3
    endloop
  endfacet
  facet normal 0.978148 0.207912 2.5461e-017
    outer loop
      vertex -11.0685 -1.55557 -1.90496e-016
      vertex -10.7442 -3.08086 -3.77284e-016
      vertex -11.0685 -1.55557 -7.3
    endloop
  endfacet
  facet normal 0.939693 0.34202 4.1884e-017
    outer loop
      vertex -10.2109 -4.54619 -5.56729e-016
      vertex -10.2109 -4.54619 -7.3
      vertex -10.7442 -3.08086 -7.3
    endloop
  endfacet
  facet normal 0.939693 0.34202 4.1884e-017
    outer loop
      vertex -10.7442 -3.08086 -3.77284e-016
      vertex -10.2109 -4.54619 -5.56729e-016
      vertex -10.7442 -3.08086 -7.3
    endloop
  endfacet
  facet normal 0.882948 0.469472 5.74918e-017
    outer loop
      vertex -9.47883 -5.92303 -7.25338e-016
      vertex -9.47883 -5.92303 -7.3
      vertex -10.2109 -4.54619 -7.3
    endloop
  endfacet
  facet normal 0.882948 0.469472 5.74918e-017
    outer loop
      vertex -10.2109 -4.54619 -5.56729e-016
      vertex -9.47883 -5.92303 -7.25338e-016
      vertex -10.2109 -4.54619 -7.3
    endloop
  endfacet
  facet normal 0.809017 0.587785 7.19805e-017
    outer loop
      vertex -8.56225 -7.18458 -8.79829e-016
      vertex -8.56225 -7.18458 -7.3
      vertex -9.47883 -5.92303 -7.3
    endloop
  endfacet
  facet normal 0.809017 0.587785 7.19805e-017
    outer loop
      vertex -9.47883 -5.92303 -7.25338e-016
      vertex -8.56225 -7.18458 -8.79829e-016
      vertex -9.47883 -5.92303 -7.3
    endloop
  endfacet
  facet normal 0.71934 0.694658 8.50683e-017
    outer loop
      vertex -7.47902 -8.3063 -1.01719e-015
      vertex -7.47902 -8.3063 -7.3
      vertex -8.56225 -7.18458 -7.3
    endloop
  endfacet
  facet normal 0.71934 0.694658 8.50683e-017
    outer loop
      vertex -8.56225 -7.18458 -8.79829e-016
      vertex -7.47902 -8.3063 -1.01719e-015
      vertex -8.56225 -7.18458 -7.3
    endloop
  endfacet
  facet normal 0.615661 0.788011 9.65003e-017
    outer loop
      vertex -6.25023 -9.26634 -7.3
      vertex -7.47902 -8.3063 -7.3
      vertex -6.25023 -9.26634 -1.13476e-015
    endloop
  endfacet
  facet normal 0.615661 0.788011 9.65003e-017
    outer loop
      vertex -6.25023 -9.26634 -1.13476e-015
      vertex -7.47902 -8.3063 -7.3
      vertex -7.47902 -8.3063 -1.01719e-015
    endloop
  endfacet
  facet normal 0.5 0.866025 1.06054e-016
    outer loop
      vertex -4.89977 -10.046 -7.3
      vertex -6.25023 -9.26634 -7.3
      vertex -4.89977 -10.046 -1.23024e-015
    endloop
  endfacet
  facet normal 0.5 0.866025 1.06054e-016
    outer loop
      vertex -4.89977 -10.046 -1.23024e-015
      vertex -6.25023 -9.26634 -7.3
      vertex -6.25023 -9.26634 -1.13476e-015
    endloop
  endfacet
  facet normal 0.374607 0.927184 1.13544e-016
    outer loop
      vertex -3.45395 -10.6302 -7.3
      vertex -4.89977 -10.046 -7.3
      vertex -3.45395 -10.6302 -1.30178e-015
    endloop
  endfacet
  facet normal 0.374607 0.927184 1.13544e-016
    outer loop
      vertex -3.45395 -10.6302 -1.30178e-015
      vertex -4.89977 -10.046 -7.3
      vertex -4.89977 -10.046 -1.23024e-015
    endloop
  endfacet
  facet normal 0.241922 0.970296 1.18823e-016
    outer loop
      vertex -1.9409 -11.0074 -7.3
      vertex -3.45395 -10.6302 -7.3
      vertex -1.9409 -11.0074 -1.34798e-015
    endloop
  endfacet
  facet normal 0.241922 0.970296 1.18823e-016
    outer loop
      vertex -1.9409 -11.0074 -1.34798e-015
      vertex -3.45395 -10.6302 -7.3
      vertex -3.45395 -10.6302 -1.30178e-015
    endloop
  endfacet
  facet normal 0.104528 0.994522 1.2179e-016
    outer loop
      vertex -0.39008 -11.1704 -7.3
      vertex -1.9409 -11.0074 -7.3
      vertex -0.39008 -11.1704 -1.36794e-015
    endloop
  endfacet
  facet normal 0.104528 0.994522 1.2179e-016
    outer loop
      vertex -0.39008 -11.1704 -1.36794e-015
      vertex -1.9409 -11.0074 -7.3
      vertex -1.9409 -11.0074 -1.34798e-015
    endloop
  endfacet
  facet normal -0.0348994 0.999391 1.22386e-016
    outer loop
      vertex 1.16834 -11.116 -7.3
      vertex -0.39008 -11.1704 -7.3
      vertex 1.16834 -11.116 -1.36127e-015
    endloop
  endfacet
  facet normal -0.0348994 0.999391 1.22386e-016
    outer loop
      vertex 1.16834 -11.116 -1.36127e-015
      vertex -0.39008 -11.1704 -7.3
      vertex -0.39008 -11.1704 -1.36794e-015
    endloop
  endfacet
  facet normal -0.173648 0.984808 1.206e-016
    outer loop
      vertex 2.70402 -10.8452 -7.3
      vertex 1.16834 -11.116 -7.3
      vertex 2.70402 -10.8452 -1.32811e-015
    endloop
  endfacet
  facet normal -0.173648 0.984808 1.206e-016
    outer loop
      vertex 2.70402 -10.8452 -1.32811e-015
      vertex 1.16834 -11.116 -7.3
      vertex 1.16834 -11.116 -1.36127e-015
    endloop
  endfacet
  facet normal -0.309017 0.951057 1.16467e-016
    outer loop
      vertex 4.18706 -10.3633 -7.3
      vertex 2.70402 -10.8452 -7.3
      vertex 4.18706 -10.3633 -1.2691e-015
    endloop
  endfacet
  facet normal -0.309017 0.951057 1.16467e-016
    outer loop
      vertex 4.18706 -10.3633 -1.2691e-015
      vertex 2.70402 -10.8452 -7.3
      vertex 2.70402 -10.8452 -1.32811e-015
    endloop
  endfacet
  facet normal -0.438371 0.898794 1.10067e-016
    outer loop
      vertex 5.58861 -9.67976 -7.3
      vertex 4.18706 -10.3633 -7.3
      vertex 5.58861 -9.67976 -1.18539e-015
    endloop
  endfacet
  facet normal -0.438371 0.898794 1.10067e-016
    outer loop
      vertex 5.58861 -9.67976 -1.18539e-015
      vertex 4.18706 -10.3633 -7.3
      vertex 4.18706 -10.3633 -1.2691e-015
    endloop
  endfacet
  facet normal -0.559193 0.829037 1.01524e-016
    outer loop
      vertex 6.88139 -8.80777 -7.3
      vertex 5.58861 -9.67976 -7.3
      vertex 6.88139 -8.80777 -1.07861e-015
    endloop
  endfacet
  facet normal -0.559193 0.829037 1.01524e-016
    outer loop
      vertex 6.88139 -8.80777 -1.07861e-015
      vertex 5.58861 -9.67976 -7.3
      vertex 5.58861 -9.67976 -1.18539e-015
    endloop
  endfacet
  facet normal -0.669131 0.743145 9.1006e-017
    outer loop
      vertex 8.04022 -7.76435 -7.3
      vertex 6.88139 -8.80777 -7.3
      vertex 8.04022 -7.76435 -9.50828e-016
    endloop
  endfacet
  facet normal -0.669131 0.743145 9.1006e-017
    outer loop
      vertex 8.04022 -7.76435 -9.50828e-016
      vertex 6.88139 -8.80777 -7.3
      vertex 6.88139 -8.80777 -1.07861e-015
    endloop
  endfacet
  facet normal -0.766044 0.642788 7.87162e-017
    outer loop
      vertex 9.04257 -6.56981 -7.3
      vertex 8.04022 -7.76435 -7.3
      vertex 9.04257 -6.56981 -8.04543e-016
    endloop
  endfacet
  facet normal -0.766044 0.642788 7.87162e-017
    outer loop
      vertex 9.04257 -6.56981 -8.04543e-016
      vertex 8.04022 -7.76435 -7.3
      vertex 8.04022 -7.76435 -9.50828e-016
    endloop
  endfacet
  facet normal -0.848048 0.529919 6.48942e-017
    outer loop
      vertex 9.86891 -5.24739 -7.3
      vertex 9.04257 -6.56981 -7.3
      vertex 9.86891 -5.24739 -6.42599e-016
    endloop
  endfacet
  facet normal -0.848048 0.529919 6.48942e-017
    outer loop
      vertex 9.86891 -5.24739 -6.42599e-016
      vertex 9.04257 -6.56981 -7.3
      vertex 9.04257 -6.56981 -8.04543e-016
    endloop
  endfacet
  facet normal -0.913545 0.406737 4.98092e-017
    outer loop
      vertex 10.5032 -3.82284 -7.3
      vertex 9.86891 -5.24739 -7.3
      vertex 10.5032 -3.82284 -4.68147e-016
    endloop
  endfacet
  facet normal -0.913545 0.406737 4.98092e-017
    outer loop
      vertex 10.5032 -3.82284 -4.68147e-016
      vertex 9.86891 -5.24739 -7.3
      vertex 9.86891 -5.24739 -6.42599e-016
    endloop
  endfacet
  facet normal -0.961262 0.275637 3.37547e-017
    outer loop
      vertex 10.933 -2.32388 -7.3
      vertex 10.5032 -3.82284 -7.3
      vertex 10.933 -2.32388 -2.84583e-016
    endloop
  endfacet
  facet normal -0.961262 0.275637 3.37547e-017
    outer loop
      vertex 10.933 -2.32388 -2.84583e-016
      vertex 10.5032 -3.82284 -7.3
      vertex 10.5032 -3.82284 -4.68147e-016
    endloop
  endfacet
  facet normal -0.990268 0.139173 1.70432e-017
    outer loop
      vertex 11.15 -0.779684 -7.3
      vertex 10.933 -2.32388 -7.3
      vertex 11.15 -0.779684 -9.54806e-017
    endloop
  endfacet
  facet normal -0.990268 0.139173 1.70432e-017
    outer loop
      vertex 11.15 -0.779684 -9.54806e-017
      vertex 10.933 -2.32388 -7.3
      vertex 10.933 -2.32388 -2.84583e-016
    endloop
  endfacet
  facet normal -1 -1.22461e-016 -1.49966e-032
    outer loop
      vertex 11.15 -0.779684 -7.3
      vertex 11.15 -0.779684 -9.54806e-017
      vertex 11.15 0.779684 -7.3
    endloop
  endfacet
  facet normal -1 -1.22461e-016 -1.49966e-032
    outer loop
      vertex 11.15 0.779684 -7.3
      vertex 11.15 -0.779684 -9.54806e-017
      vertex 11.15 0.779684 9.54806e-017
    endloop
  endfacet
  facet normal -0.990268 -0.139173 -1.70432e-017
    outer loop
      vertex 11.15 0.779684 -7.3
      vertex 11.15 0.779684 9.54806e-017
      vertex 10.933 2.32388 -7.3
    endloop
  endfacet
  facet normal -0.990268 -0.139173 -1.70432e-017
    outer loop
      vertex 10.933 2.32388 -7.3
      vertex 11.15 0.779684 9.54806e-017
      vertex 10.933 2.32388 2.84583e-016
    endloop
  endfacet
  facet normal -0.961262 -0.275637 -3.37547e-017
    outer loop
      vertex 10.933 2.32388 -7.3
      vertex 10.933 2.32388 2.84583e-016
      vertex 10.5032 3.82284 -7.3
    endloop
  endfacet
  facet normal -0.961262 -0.275637 -3.37547e-017
    outer loop
      vertex 10.5032 3.82284 -7.3
      vertex 10.933 2.32388 2.84583e-016
      vertex 10.5032 3.82284 4.68147e-016
    endloop
  endfacet
  facet normal -0.913545 -0.406737 -4.98092e-017
    outer loop
      vertex 10.5032 3.82284 -7.3
      vertex 10.5032 3.82284 4.68147e-016
      vertex 9.86891 5.24739 -7.3
    endloop
  endfacet
  facet normal -0.913545 -0.406737 -4.98092e-017
    outer loop
      vertex 9.86891 5.24739 -7.3
      vertex 10.5032 3.82284 4.68147e-016
      vertex 9.86891 5.24739 6.42599e-016
    endloop
  endfacet
  facet normal -0.848048 -0.529919 -6.48942e-017
    outer loop
      vertex 9.86891 5.24739 -7.3
      vertex 9.86891 5.24739 6.42599e-016
      vertex 9.04257 6.56981 -7.3
    endloop
  endfacet
  facet normal -0.848048 -0.529919 -6.48942e-017
    outer loop
      vertex 9.04257 6.56981 -7.3
      vertex 9.86891 5.24739 6.42599e-016
      vertex 9.04257 6.56981 8.04543e-016
    endloop
  endfacet
  facet normal -0.766044 -0.642788 -7.87162e-017
    outer loop
      vertex 9.04257 6.56981 -7.3
      vertex 9.04257 6.56981 8.04543e-016
      vertex 8.04022 7.76435 -7.3
    endloop
  endfacet
  facet normal -0.766044 -0.642788 -7.87162e-017
    outer loop
      vertex 8.04022 7.76435 -7.3
      vertex 9.04257 6.56981 8.04543e-016
      vertex 8.04022 7.76435 9.50828e-016
    endloop
  endfacet
  facet normal -0.669131 -0.743145 -9.1006e-017
    outer loop
      vertex 6.88139 8.80777 -7.3
      vertex 8.04022 7.76435 -7.3
      vertex 8.04022 7.76435 9.50828e-016
    endloop
  endfacet
  facet normal -0.669131 -0.743145 -9.1006e-017
    outer loop
      vertex 6.88139 8.80777 1.07861e-015
      vertex 6.88139 8.80777 -7.3
      vertex 8.04022 7.76435 9.50828e-016
    endloop
  endfacet
  facet normal -0.559193 -0.829037 -1.01524e-016
    outer loop
      vertex 5.58861 9.67976 -7.3
      vertex 6.88139 8.80777 -7.3
      vertex 6.88139 8.80777 1.07861e-015
    endloop
  endfacet
  facet normal -0.559193 -0.829037 -1.01524e-016
    outer loop
      vertex 5.58861 9.67976 1.18539e-015
      vertex 5.58861 9.67976 -7.3
      vertex 6.88139 8.80777 1.07861e-015
    endloop
  endfacet
  facet normal -0.438371 -0.898794 -1.10067e-016
    outer loop
      vertex 4.18706 10.3633 -7.3
      vertex 5.58861 9.67976 -7.3
      vertex 5.58861 9.67976 1.18539e-015
    endloop
  endfacet
  facet normal -0.438371 -0.898794 -1.10067e-016
    outer loop
      vertex 4.18706 10.3633 1.2691e-015
      vertex 4.18706 10.3633 -7.3
      vertex 5.58861 9.67976 1.18539e-015
    endloop
  endfacet
  facet normal -0.309017 -0.951057 -1.16467e-016
    outer loop
      vertex 2.70402 10.8452 -7.3
      vertex 4.18706 10.3633 -7.3
      vertex 4.18706 10.3633 1.2691e-015
    endloop
  endfacet
  facet normal -0.309017 -0.951057 -1.16467e-016
    outer loop
      vertex 2.70402 10.8452 1.32811e-015
      vertex 2.70402 10.8452 -7.3
      vertex 4.18706 10.3633 1.2691e-015
    endloop
  endfacet
  facet normal -0.173648 -0.984808 -1.206e-016
    outer loop
      vertex 1.16834 11.116 -7.3
      vertex 2.70402 10.8452 -7.3
      vertex 2.70402 10.8452 1.32811e-015
    endloop
  endfacet
  facet normal -0.173648 -0.984808 -1.206e-016
    outer loop
      vertex 1.16834 11.116 1.36127e-015
      vertex 1.16834 11.116 -7.3
      vertex 2.70402 10.8452 1.32811e-015
    endloop
  endfacet
  facet normal -0.0348994 -0.999391 -1.22386e-016
    outer loop
      vertex -0.39008 11.1704 -7.3
      vertex 1.16834 11.116 -7.3
      vertex 1.16834 11.116 1.36127e-015
    endloop
  endfacet
  facet normal -0.0348994 -0.999391 -1.22386e-016
    outer loop
      vertex -0.39008 11.1704 1.36794e-015
      vertex -0.39008 11.1704 -7.3
      vertex 1.16834 11.116 1.36127e-015
    endloop
  endfacet
  facet normal 0.104528 -0.994522 -1.2179e-016
    outer loop
      vertex -1.94091 11.0074 -7.3
      vertex -0.39008 11.1704 -7.3
      vertex -0.39008 11.1704 1.36794e-015
    endloop
  endfacet
  facet normal 0.104528 -0.994522 -1.2179e-016
    outer loop
      vertex -1.94091 11.0074 1.34798e-015
      vertex -1.94091 11.0074 -7.3
      vertex -0.39008 11.1704 1.36794e-015
    endloop
  endfacet
  facet normal 0.241922 -0.970296 -1.18823e-016
    outer loop
      vertex -3.45395 10.6302 -7.3
      vertex -1.94091 11.0074 -7.3
      vertex -1.94091 11.0074 1.34798e-015
    endloop
  endfacet
  facet normal 0.241922 -0.970296 -1.18823e-016
    outer loop
      vertex -3.45395 10.6302 1.30178e-015
      vertex -3.45395 10.6302 -7.3
      vertex -1.94091 11.0074 1.34798e-015
    endloop
  endfacet
  facet normal 0.374607 -0.927184 -1.13544e-016
    outer loop
      vertex -4.89977 10.046 -7.3
      vertex -3.45395 10.6302 -7.3
      vertex -3.45395 10.6302 1.30178e-015
    endloop
  endfacet
  facet normal 0.374607 -0.927184 -1.13544e-016
    outer loop
      vertex -4.89977 10.046 1.23024e-015
      vertex -4.89977 10.046 -7.3
      vertex -3.45395 10.6302 1.30178e-015
    endloop
  endfacet
  facet normal 0.5 -0.866025 -1.06054e-016
    outer loop
      vertex -6.25023 9.26634 -7.3
      vertex -4.89977 10.046 -7.3
      vertex -4.89977 10.046 1.23024e-015
    endloop
  endfacet
  facet normal 0.5 -0.866025 -1.06054e-016
    outer loop
      vertex -6.25023 9.26634 1.13476e-015
      vertex -6.25023 9.26634 -7.3
      vertex -4.89977 10.046 1.23024e-015
    endloop
  endfacet
  facet normal 0.615661 -0.788011 -9.65003e-017
    outer loop
      vertex -7.47903 8.3063 -7.3
      vertex -6.25023 9.26634 -7.3
      vertex -6.25023 9.26634 1.13476e-015
    endloop
  endfacet
  facet normal 0.615661 -0.788011 -9.65003e-017
    outer loop
      vertex -7.47903 8.3063 1.01719e-015
      vertex -7.47903 8.3063 -7.3
      vertex -6.25023 9.26634 1.13476e-015
    endloop
  endfacet
  facet normal 0.71934 -0.694658 -8.50683e-017
    outer loop
      vertex -8.56225 7.18458 -7.3
      vertex -7.47903 8.3063 -7.3
      vertex -7.47903 8.3063 1.01719e-015
    endloop
  endfacet
  facet normal 0.71934 -0.694658 -8.50683e-017
    outer loop
      vertex -8.56225 7.18458 8.79829e-016
      vertex -8.56225 7.18458 -7.3
      vertex -7.47903 8.3063 1.01719e-015
    endloop
  endfacet
  facet normal 0.809017 -0.587785 -7.19805e-017
    outer loop
      vertex -9.47883 5.92303 -7.3
      vertex -8.56225 7.18458 -7.3
      vertex -8.56225 7.18458 8.79829e-016
    endloop
  endfacet
  facet normal 0.809017 -0.587785 -7.19805e-017
    outer loop
      vertex -9.47883 5.92303 7.25338e-016
      vertex -9.47883 5.92303 -7.3
      vertex -8.56225 7.18458 8.79829e-016
    endloop
  endfacet
  facet normal 0.882948 -0.469472 -5.74918e-017
    outer loop
      vertex -10.2109 4.54619 -7.3
      vertex -9.47883 5.92303 -7.3
      vertex -9.47883 5.92303 7.25338e-016
    endloop
  endfacet
  facet normal 0.882948 -0.469472 -5.74918e-017
    outer loop
      vertex -10.2109 4.54619 5.56729e-016
      vertex -10.2109 4.54619 -7.3
      vertex -9.47883 5.92303 7.25338e-016
    endloop
  endfacet
  facet normal 0.939693 -0.34202 -4.1884e-017
    outer loop
      vertex -10.7442 3.08086 -7.3
      vertex -10.2109 4.54619 -7.3
      vertex -10.2109 4.54619 5.56729e-016
    endloop
  endfacet
  facet normal 0.939693 -0.34202 -4.1884e-017
    outer loop
      vertex -10.7442 3.08086 3.77284e-016
      vertex -10.7442 3.08086 -7.3
      vertex -10.2109 4.54619 5.56729e-016
    endloop
  endfacet
  facet normal 0.978148 -0.207912 -2.5461e-017
    outer loop
      vertex -11.0685 1.55557 -7.3
      vertex -10.7442 3.08086 -7.3
      vertex -10.7442 3.08086 3.77284e-016
    endloop
  endfacet
  facet normal 0.978148 -0.207912 -2.5461e-017
    outer loop
      vertex -11.0685 1.55557 1.90496e-016
      vertex -11.0685 1.55557 -7.3
      vertex -10.7442 3.08086 3.77284e-016
    endloop
  endfacet
  facet normal 0 1.22461e-016 -1
    outer loop
      vertex -15 1.83691e-015 -15
      vertex -14.9278 1.47026 -15
      vertex -14.9278 -1.47026 -15
    endloop
  endfacet
  facet normal 0 1.22461e-016 -1
    outer loop
      vertex -14.9278 -1.47026 -15
      vertex -14.9278 1.47026 -15
      vertex -14.7118 2.92636 -15
    endloop
  endfacet
  facet normal 0 1.22461e-016 -1
    outer loop
      vertex -14.9278 -1.47026 -15
      vertex -14.7118 2.92636 -15
      vertex -14.3541 4.35427 -15
    endloop
  endfacet
  facet normal 0 1.22461e-016 -1
    outer loop
      vertex -14.9278 -1.47026 -15
      vertex -14.3541 4.35427 -15
      vertex -13.8582 5.74025 -15
    endloop
  endfacet
  facet normal 0 1.22461e-016 -1
    outer loop
      vertex -14.9278 -1.47026 -15
      vertex -13.8582 5.74025 -15
      vertex -13.2288 7.07095 -15
    endloop
  endfacet
  facet normal 0 1.22461e-016 -1
    outer loop
      vertex -14.9278 -1.47026 -15
      vertex -13.2288 7.07095 -15
      vertex -12.472 8.33355 -15
    endloop
  endfacet
  facet normal 0 1.22461e-016 -1
    outer loop
      vertex -14.9278 -1.47026 -15
      vertex -12.472 8.33355 -15
      vertex -11.5952 9.5159 -15
    endloop
  endfacet
  facet normal 0 1.22461e-016 -1
    outer loop
      vertex -14.9278 -1.47026 -15
      vertex -11.5952 9.5159 -15
      vertex -10.6066 10.6066 -15
    endloop
  endfacet
  facet normal 0 1.22461e-016 -1
    outer loop
      vertex -14.9278 -1.47026 -15
      vertex -10.6066 10.6066 -15
      vertex -9.5159 11.5952 -15
    endloop
  endfacet
  facet normal 0 1.22461e-016 -1
    outer loop
      vertex -14.9278 -1.47026 -15
      vertex -9.5159 11.5952 -15
      vertex -8.33355 12.472 -15
    endloop
  endfacet
  facet normal 0 1.22461e-016 -1
    outer loop
      vertex -14.9278 -1.47026 -15
      vertex -8.33355 12.472 -15
      vertex -7.07095 13.2288 -15
    endloop
  endfacet
  facet normal 0 1.22461e-016 -1
    outer loop
      vertex -14.9278 -1.47026 -15
      vertex -7.07095 13.2288 -15
      vertex -5.74025 13.8582 -15
    endloop
  endfacet
  facet normal 0 1.22461e-016 -1
    outer loop
      vertex -14.9278 -1.47026 -15
      vertex -5.74025 13.8582 -15
      vertex -4.35427 14.3541 -15
    endloop
  endfacet
  facet normal 0 1.22461e-016 -1
    outer loop
      vertex -14.9278 -1.47026 -15
      vertex -4.35427 14.3541 -15
      vertex -2.92636 14.7118 -15
    endloop
  endfacet
  facet normal 0 1.22461e-016 -1
    outer loop
      vertex -14.9278 -1.47026 -15
      vertex -2.92636 14.7118 -15
      vertex -1.47026 14.9278 -15
    endloop
  endfacet
  facet normal 0 1.22461e-016 -1
    outer loop
      vertex -14.9278 -1.47026 -15
      vertex -1.47026 14.9278 -15
      vertex 0 15 -15
    endloop
  endfacet
  facet normal 0 1.22461e-016 -1
    outer loop
      vertex -14.9278 -1.47026 -15
      vertex 0 15 -15
      vertex 1.47026 14.9278 -15
    endloop
  endfacet
  facet normal 0 1.22461e-016 -1
    outer loop
      vertex -14.9278 -1.47026 -15
      vertex 1.47026 14.9278 -15
      vertex 2.92636 14.7118 -15
    endloop
  endfacet
  facet normal 0 1.22461e-016 -1
    outer loop
      vertex -14.9278 -1.47026 -15
      vertex 2.92636 14.7118 -15
      vertex 4.35427 14.3541 -15
    endloop
  endfacet
  facet normal 0 1.22461e-016 -1
    outer loop
      vertex -14.9278 -1.47026 -15
      vertex 4.35427 14.3541 -15
      vertex 5.74025 13.8582 -15
    endloop
  endfacet
  facet normal 0 1.22461e-016 -1
    outer loop
      vertex -14.9278 -1.47026 -15
      vertex 5.74025 13.8582 -15
      vertex 7.07095 13.2288 -15
    endloop
  endfacet
  facet normal 0 1.22461e-016 -1
    outer loop
      vertex -14.9278 -1.47026 -15
      vertex 7.07095 13.2288 -15
      vertex 8.33355 12.472 -15
    endloop
  endfacet
  facet normal 0 1.22461e-016 -1
    outer loop
      vertex -14.9278 -1.47026 -15
      vertex 8.33355 12.472 -15
      vertex 9.5159 11.5952 -15
    endloop
  endfacet
  facet normal 0 1.22461e-016 -1
    outer loop
      vertex -14.9278 -1.47026 -15
      vertex 9.5159 11.5952 -15
      vertex 10.6066 10.6066 -15
    endloop
  endfacet
  facet normal 0 1.22461e-016 -1
    outer loop
      vertex -1.97255 3.96141 -15
      vertex 10.6066 10.6066 -15
      vertex 11.5952 9.5159 -15
    endloop
  endfacet
  facet normal 0 1.22461e-016 -1
    outer loop
      vertex -0.40832 4.40647 -15
      vertex 11.5952 9.5159 -15
      vertex 12.472 8.33355 -15
    endloop
  endfacet
  facet normal 0 1.22461e-016 -1
    outer loop
      vertex 1.21105 4.25642 -15
      vertex 12.472 8.33355 -15
      vertex 13.2288 7.07095 -15
    endloop
  endfacet
  facet normal 0 1.22461e-016 -1
    outer loop
      vertex 2.66687 3.53151 -15
      vertex 13.2288 7.07095 -15
      vertex 13.8582 5.74025 -15
    endloop
  endfacet
  facet normal 0 1.22461e-016 -1
    outer loop
      vertex 3.76251 2.32965 -15
      vertex 13.8582 5.74025 -15
      vertex 14.3541 4.35427 -15
    endloop
  endfacet
  facet normal 0 1.22461e-016 -1
    outer loop
      vertex 4.35 0.813156 -15
      vertex 14.7118 2.92636 -15
      vertex 14.9278 1.47026 -15
    endloop
  endfacet
  facet normal 0 1.22461e-016 -1
    outer loop
      vertex 4.35 -0.813156 -15
      vertex 14.7118 -2.92635 -15
      vertex 3.76251 -2.32965 -15
    endloop
  endfacet
  facet normal 0 1.22461e-016 -1
    outer loop
      vertex 4.35 -0.813156 -15
      vertex 15 1.83691e-015 -15
      vertex 14.9278 -1.47026 -15
    endloop
  endfacet
  facet normal 0 1.22461e-016 -1
    outer loop
      vertex 4.35 0.813156 -15
      vertex 15 1.83691e-015 -15
      vertex 4.35 -0.813156 -15
    endloop
  endfacet
  facet normal 0 1.22461e-016 -1
    outer loop
      vertex 2.66687 -3.53151 -15
      vertex 14.3541 -4.35427 -15
      vertex 13.8582 -5.74025 -15
    endloop
  endfacet
  facet normal 0 1.22461e-016 -1
    outer loop
      vertex -0.40832 -4.40647 -15
      vertex 13.2288 -7.07095 -15
      vertex 12.472 -8.33355 -15
    endloop
  endfacet
  facet normal 0 1.22461e-016 -1
    outer loop
      vertex -14.9278 -1.47026 -15
      vertex 12.472 -8.33355 -15
      vertex 11.5952 -9.5159 -15
    endloop
  endfacet
  facet normal 0 1.22461e-016 -1
    outer loop
      vertex -14.9278 -1.47026 -15
      vertex 11.5952 -9.5159 -15
      vertex 10.6066 -10.6066 -15
    endloop
  endfacet
  facet normal 0 1.22461e-016 -1
    outer loop
      vertex -14.9278 -1.47026 -15
      vertex 10.6066 -10.6066 -15
      vertex 9.5159 -11.5952 -15
    endloop
  endfacet
  facet normal 0 1.22461e-016 -1
    outer loop
      vertex -14.9278 -1.47026 -15
      vertex 9.5159 -11.5952 -15
      vertex 8.33355 -12.472 -15
    endloop
  endfacet
  facet normal 0 1.22461e-016 -1
    outer loop
      vertex -14.9278 -1.47026 -15
      vertex 8.33355 -12.472 -15
      vertex 7.07095 -13.2288 -15
    endloop
  endfacet
  facet normal 0 1.22461e-016 -1
    outer loop
      vertex -14.9278 -1.47026 -15
      vertex 7.07095 -13.2288 -15
      vertex 5.74025 -13.8582 -15
    endloop
  endfacet
  facet normal 0 1.22461e-016 -1
    outer loop
      vertex -14.9278 -1.47026 -15
      vertex 5.74025 -13.8582 -15
      vertex 4.35427 -14.3541 -15
    endloop
  endfacet
  facet normal 0 1.22461e-016 -1
    outer loop
      vertex -14.9278 -1.47026 -15
      vertex 4.35427 -14.3541 -15
      vertex 2.92636 -14.7118 -15
    endloop
  endfacet
  facet normal 0 1.22461e-016 -1
    outer loop
      vertex -14.9278 -1.47026 -15
      vertex 2.92636 -14.7118 -15
      vertex 1.47026 -14.9278 -15
    endloop
  endfacet
  facet normal 0 1.22461e-016 -1
    outer loop
      vertex -14.9278 -1.47026 -15
      vertex 1.47026 -14.9278 -15
      vertex 0 -15 -15
    endloop
  endfacet
  facet normal 0 1.22461e-016 -1
    outer loop
      vertex -14.9278 -1.47026 -15
      vertex 0 -15 -15
      vertex -1.47026 -14.9278 -15
    endloop
  endfacet
  facet normal 0 1.22461e-016 -1
    outer loop
      vertex -14.9278 -1.47026 -15
      vertex -1.47026 -14.9278 -15
      vertex -2.92636 -14.7118 -15
    endloop
  endfacet
  facet normal 0 1.22461e-016 -1
    outer loop
      vertex -14.9278 -1.47026 -15
      vertex -2.92636 -14.7118 -15
      vertex -4.35427 -14.3541 -15
    endloop
  endfacet
  facet normal 0 1.22461e-016 -1
    outer loop
      vertex -14.9278 -1.47026 -15
      vertex -4.35427 -14.3541 -15
      vertex -5.74025 -13.8582 -15
    endloop
  endfacet
  facet normal 0 1.22461e-016 -1
    outer loop
      vertex -14.9278 -1.47026 -15
      vertex -5.74025 -13.8582 -15
      vertex -7.07095 -13.2288 -15
    endloop
  endfacet
  facet normal 0 1.22461e-016 -1
    outer loop
      vertex -14.9278 -1.47026 -15
      vertex -7.07095 -13.2288 -15
      vertex -8.33355 -12.472 -15
    endloop
  endfacet
  facet normal 0 1.22461e-016 -1
    outer loop
      vertex -14.9278 -1.47026 -15
      vertex -8.33355 -12.472 -15
      vertex -9.5159 -11.5952 -15
    endloop
  endfacet
  facet normal 0 1.22461e-016 -1
    outer loop
      vertex -14.9278 -1.47026 -15
      vertex -9.5159 -11.5952 -15
      vertex -10.6066 -10.6066 -15
    endloop
  endfacet
  facet normal 0 1.22461e-016 -1
    outer loop
      vertex -14.9278 -1.47026 -15
      vertex -10.6066 -10.6066 -15
      vertex -11.5952 -9.5159 -15
    endloop
  endfacet
  facet normal 0 1.22461e-016 -1
    outer loop
      vertex -14.9278 -1.47026 -15
      vertex -11.5952 -9.5159 -15
      vertex -12.472 -8.33355 -15
    endloop
  endfacet
  facet normal 0 1.22461e-016 -1
    outer loop
      vertex -14.9278 -1.47026 -15
      vertex -12.472 -8.33355 -15
      vertex -13.2288 -7.07095 -15
    endloop
  endfacet
  facet normal 0 1.22461e-016 -1
    outer loop
      vertex -14.9278 -1.47026 -15
      vertex -13.2288 -7.07095 -15
      vertex -13.8582 -5.74025 -15
    endloop
  endfacet
  facet normal 0 1.22461e-016 -1
    outer loop
      vertex -14.9278 -1.47026 -15
      vertex -13.8582 -5.74025 -15
      vertex -14.3541 -4.35427 -15
    endloop
  endfacet
  facet normal 0 1.22461e-016 -1
    outer loop
      vertex -14.9278 -1.47026 -15
      vertex -14.3541 -4.35427 -15
      vertex -14.7118 -2.92635 -15
    endloop
  endfacet
  facet normal 0 1.22461e-016 -1
    outer loop
      vertex -4.42535 1.29498e-015 -15
      vertex -14.9278 -1.47026 -15
      vertex -4.12652 1.59862 -15
    endloop
  endfacet
  facet normal 0 1.22461e-016 -1
    outer loop
      vertex -4.12652 -1.59862 -15
      vertex -14.9278 -1.47026 -15
      vertex -4.42535 1.29498e-015 -15
    endloop
  endfacet
  facet normal 0 1.22461e-016 -1
    outer loop
      vertex -3.27037 -2.98134 -15
      vertex -14.9278 -1.47026 -15
      vertex -4.12652 -1.59862 -15
    endloop
  endfacet
  facet normal 0 1.22461e-016 -1
    outer loop
      vertex -1.97255 -3.96141 -15
      vertex -14.9278 -1.47026 -15
      vertex -3.27037 -2.98134 -15
    endloop
  endfacet
  facet normal 0 1.22461e-016 -1
    outer loop
      vertex 2.66687 -3.53151 -15
      vertex 13.8582 -5.74025 -15
      vertex 1.21106 -4.25641 -15
    endloop
  endfacet
  facet normal 0 1.22461e-016 -1
    outer loop
      vertex 1.21106 -4.25641 -15
      vertex 13.2288 -7.07095 -15
      vertex -0.40832 -4.40647 -15
    endloop
  endfacet
  facet normal 0 1.22461e-016 -1
    outer loop
      vertex 1.21106 -4.25641 -15
      vertex 13.8582 -5.74025 -15
      vertex 13.2288 -7.07095 -15
    endloop
  endfacet
  facet normal 0 1.22461e-016 -1
    outer loop
      vertex -14.9278 -1.47026 -15
      vertex -0.40832 -4.40647 -15
      vertex 12.472 -8.33355 -15
    endloop
  endfacet
  facet normal 0 1.22461e-016 -1
    outer loop
      vertex -0.40832 -4.40647 -15
      vertex -14.9278 -1.47026 -15
      vertex -1.97255 -3.96141 -15
    endloop
  endfacet
  facet normal 0 1.22461e-016 -1
    outer loop
      vertex 3.76251 -2.32965 -15
      vertex 14.3541 -4.35427 -15
      vertex 2.66687 -3.53151 -15
    endloop
  endfacet
  facet normal 0 1.22461e-016 -1
    outer loop
      vertex 4.35 -0.813156 -15
      vertex 14.9278 -1.47026 -15
      vertex 14.7118 -2.92635 -15
    endloop
  endfacet
  facet normal 0 1.22461e-016 -1
    outer loop
      vertex 3.76251 -2.32965 -15
      vertex 14.7118 -2.92635 -15
      vertex 14.3541 -4.35427 -15
    endloop
  endfacet
  facet normal 0 1.22461e-016 -1
    outer loop
      vertex 3.76251 2.32965 -15
      vertex 14.7118 2.92636 -15
      vertex 4.35 0.813156 -15
    endloop
  endfacet
  facet normal 0 1.22461e-016 -1
    outer loop
      vertex 4.35 0.813156 -15
      vertex 14.9278 1.47026 -15
      vertex 15 1.83691e-015 -15
    endloop
  endfacet
  facet normal 0 1.22461e-016 -1
    outer loop
      vertex 1.21105 4.25642 -15
      vertex 13.2288 7.07095 -15
      vertex 2.66687 3.53151 -15
    endloop
  endfacet
  facet normal 0 1.22461e-016 -1
    outer loop
      vertex 3.76251 2.32965 -15
      vertex 14.3541 4.35427 -15
      vertex 14.7118 2.92636 -15
    endloop
  endfacet
  facet normal 0 1.22461e-016 -1
    outer loop
      vertex -1.97255 3.96141 -15
      vertex 11.5952 9.5159 -15
      vertex -0.40832 4.40647 -15
    endloop
  endfacet
  facet normal 0 1.22461e-016 -1
    outer loop
      vertex -14.9278 -1.47026 -15
      vertex 10.6066 10.6066 -15
      vertex -1.97255 3.96141 -15
    endloop
  endfacet
  facet normal 0 1.22461e-016 -1
    outer loop
      vertex -3.27037 2.98134 -15
      vertex -14.9278 -1.47026 -15
      vertex -1.97255 3.96141 -15
    endloop
  endfacet
  facet normal 0 1.22461e-016 -1
    outer loop
      vertex 2.66687 3.53151 -15
      vertex 13.8582 5.74025 -15
      vertex 3.76251 2.32965 -15
    endloop
  endfacet
  facet normal 0 1.22461e-016 -1
    outer loop
      vertex -4.12652 1.59862 -15
      vertex -14.9278 -1.47026 -15
      vertex -3.27037 2.98134 -15
    endloop
  endfacet
  facet normal 0 1.22461e-016 -1
    outer loop
      vertex -0.40832 4.40647 -15
      vertex 12.472 8.33355 -15
      vertex 1.21105 4.25642 -15
    endloop
  endfacet
  facet normal 0 -1.22461e-016 1
    outer loop
      vertex -11.0685 -1.55557 -7.3
      vertex -10.7442 -3.08086 -7.3
      vertex -10.2109 -4.54619 -7.3
    endloop
  endfacet
  facet normal 0 -1.22461e-016 1
    outer loop
      vertex -8.56225 -7.18458 -7.3
      vertex -11.0685 -1.55557 -7.3
      vertex -9.47883 -5.92303 -7.3
    endloop
  endfacet
  facet normal 0 -1.22461e-016 1
    outer loop
      vertex -9.47883 -5.92303 -7.3
      vertex -11.0685 -1.55557 -7.3
      vertex -10.2109 -4.54619 -7.3
    endloop
  endfacet
  facet normal 0 -1.22461e-016 1
    outer loop
      vertex -7.47902 -8.3063 -7.3
      vertex -11.0685 -1.55557 -7.3
      vertex -8.56225 -7.18458 -7.3
    endloop
  endfacet
  facet normal 0 -1.22461e-016 1
    outer loop
      vertex -6.25023 -9.26634 -7.3
      vertex -11.0685 -1.55557 -7.3
      vertex -7.47902 -8.3063 -7.3
    endloop
  endfacet
  facet normal 0 -1.22461e-016 1
    outer loop
      vertex -4.89977 -10.046 -7.3
      vertex -11.0685 -1.55557 -7.3
      vertex -6.25023 -9.26634 -7.3
    endloop
  endfacet
  facet normal 0 -1.22461e-016 1
    outer loop
      vertex -3.45395 -10.6302 -7.3
      vertex -11.0685 -1.55557 -7.3
      vertex -4.89977 -10.046 -7.3
    endloop
  endfacet
  facet normal 0 -1.22461e-016 1
    outer loop
      vertex -1.9409 -11.0074 -7.3
      vertex -11.0685 -1.55557 -7.3
      vertex -3.45395 -10.6302 -7.3
    endloop
  endfacet
  facet normal 0 -1.22461e-016 1
    outer loop
      vertex -0.39008 -11.1704 -7.3
      vertex -11.0685 -1.55557 -7.3
      vertex -1.9409 -11.0074 -7.3
    endloop
  endfacet
  facet normal 0 -1.22461e-016 1
    outer loop
      vertex 1.16834 -11.116 -7.3
      vertex -11.0685 -1.55557 -7.3
      vertex -0.39008 -11.1704 -7.3
    endloop
  endfacet
  facet normal 0 -1.22461e-016 1
    outer loop
      vertex 2.70402 -10.8452 -7.3
      vertex -11.0685 -1.55557 -7.3
      vertex 1.16834 -11.116 -7.3
    endloop
  endfacet
  facet normal 0 -1.22461e-016 1
    outer loop
      vertex 4.18706 -10.3633 -7.3
      vertex -11.0685 -1.55557 -7.3
      vertex 2.70402 -10.8452 -7.3
    endloop
  endfacet
  facet normal 0 -1.22461e-016 1
    outer loop
      vertex 5.58861 -9.67976 -7.3
      vertex -11.0685 -1.55557 -7.3
      vertex 4.18706 -10.3633 -7.3
    endloop
  endfacet
  facet normal 0 -1.22461e-016 1
    outer loop
      vertex 6.88139 -8.80777 -7.3
      vertex -11.0685 -1.55557 -7.3
      vertex 5.58861 -9.67976 -7.3
    endloop
  endfacet
  facet normal 0 -1.22461e-016 1
    outer loop
      vertex 8.04022 -7.76435 -7.3
      vertex -11.0685 -1.55557 -7.3
      vertex 6.88139 -8.80777 -7.3
    endloop
  endfacet
  facet normal 0 -1.22461e-016 1
    outer loop
      vertex -0.40832 -4.40647 -7.3
      vertex -11.0685 -1.55557 -7.3
      vertex 8.04022 -7.76435 -7.3
    endloop
  endfacet
  facet normal 0 -1.22461e-016 1
    outer loop
      vertex -3.27037 -2.98134 -7.3
      vertex -4.12652 -1.59862 -7.3
      vertex -11.0685 -1.55557 -7.3
    endloop
  endfacet
  facet normal 0 -1.22461e-016 1
    outer loop
      vertex 1.21106 -4.25641 -7.3
      vertex -0.40832 -4.40647 -7.3
      vertex 9.04257 -6.56981 -7.3
    endloop
  endfacet
  facet normal 0 -1.22461e-016 1
    outer loop
      vertex 3.76251 -2.32965 -7.3
      vertex 2.66687 -3.53151 -7.3
      vertex 10.5032 -3.82284 -7.3
    endloop
  endfacet
  facet normal 0 -1.22461e-016 1
    outer loop
      vertex 4.35 0.813156 -7.3
      vertex 4.35 -0.813156 -7.3
      vertex 11.15 0.779684 -7.3
    endloop
  endfacet
  facet normal 0 -1.22461e-016 1
    outer loop
      vertex 4.35 -0.813156 -7.3
      vertex 3.76251 -2.32965 -7.3
      vertex 10.933 -2.32388 -7.3
    endloop
  endfacet
  facet normal 0 -1.22461e-016 1
    outer loop
      vertex 1.21105 4.25642 -7.3
      vertex 2.66687 3.53151 -7.3
      vertex 9.04257 6.56981 -7.3
    endloop
  endfacet
  facet normal 0 -1.22461e-016 1
    outer loop
      vertex -0.40832 4.40647 -7.3
      vertex 1.21105 4.25642 -7.3
      vertex 8.04022 7.76435 -7.3
    endloop
  endfacet
  facet normal 0 -1.22461e-016 1
    outer loop
      vertex 4.18706 10.3633 -7.3
      vertex -11.0685 -1.55557 -7.3
      vertex 5.58861 9.67976 -7.3
    endloop
  endfacet
  facet normal 0 -1.22461e-016 1
    outer loop
      vertex 2.70402 10.8452 -7.3
      vertex -11.0685 -1.55557 -7.3
      vertex 4.18706 10.3633 -7.3
    endloop
  endfacet
  facet normal 0 -1.22461e-016 1
    outer loop
      vertex 1.16834 11.116 -7.3
      vertex -11.0685 -1.55557 -7.3
      vertex 2.70402 10.8452 -7.3
    endloop
  endfacet
  facet normal 0 -1.22461e-016 1
    outer loop
      vertex -0.39008 11.1704 -7.3
      vertex -11.0685 -1.55557 -7.3
      vertex 1.16834 11.116 -7.3
    endloop
  endfacet
  facet normal 0 -1.22461e-016 1
    outer loop
      vertex -1.94091 11.0074 -7.3
      vertex -11.0685 -1.55557 -7.3
      vertex -0.39008 11.1704 -7.3
    endloop
  endfacet
  facet normal 0 -1.22461e-016 1
    outer loop
      vertex -3.45395 10.6302 -7.3
      vertex -11.0685 -1.55557 -7.3
      vertex -1.94091 11.0074 -7.3
    endloop
  endfacet
  facet normal 0 -1.22461e-016 1
    outer loop
      vertex -4.89977 10.046 -7.3
      vertex -11.0685 -1.55557 -7.3
      vertex -3.45395 10.6302 -7.3
    endloop
  endfacet
  facet normal 0 -1.22461e-016 1
    outer loop
      vertex -6.25023 9.26634 -7.3
      vertex -11.0685 -1.55557 -7.3
      vertex -4.89977 10.046 -7.3
    endloop
  endfacet
  facet normal 0 -1.22461e-016 1
    outer loop
      vertex -7.47903 8.3063 -7.3
      vertex -11.0685 -1.55557 -7.3
      vertex -6.25023 9.26634 -7.3
    endloop
  endfacet
  facet normal 0 -1.22461e-016 1
    outer loop
      vertex -8.56225 7.18458 -7.3
      vertex -11.0685 -1.55557 -7.3
      vertex -7.47903 8.3063 -7.3
    endloop
  endfacet
  facet normal 0 -1.22461e-016 1
    outer loop
      vertex -9.47883 5.92303 -7.3
      vertex -11.0685 -1.55557 -7.3
      vertex -8.56225 7.18458 -7.3
    endloop
  endfacet
  facet normal 0 -1.22461e-016 1
    outer loop
      vertex -10.2109 4.54619 -7.3
      vertex -11.0685 -1.55557 -7.3
      vertex -9.47883 5.92303 -7.3
    endloop
  endfacet
  facet normal 0 -1.22461e-016 1
    outer loop
      vertex -10.7442 3.08086 -7.3
      vertex -11.0685 -1.55557 -7.3
      vertex -10.2109 4.54619 -7.3
    endloop
  endfacet
  facet normal 0 -1.22461e-016 1
    outer loop
      vertex -11.0685 1.55557 -7.3
      vertex -11.0685 -1.55557 -7.3
      vertex -10.7442 3.08086 -7.3
    endloop
  endfacet
  facet normal 0 -1.22461e-016 1
    outer loop
      vertex -11.1772 -4.74808e-016 -7.3
      vertex -11.0685 -1.55557 -7.3
      vertex -11.0685 1.55557 -7.3
    endloop
  endfacet
  facet normal 0 -1.22461e-016 1
    outer loop
      vertex 2.66687 3.53151 -7.3
      vertex 3.76251 2.32965 -7.3
      vertex 9.86891 5.24739 -7.3
    endloop
  endfacet
  facet normal 0 -1.22461e-016 1
    outer loop
      vertex 3.76251 2.32965 -7.3
      vertex 4.35 0.813156 -7.3
      vertex 10.933 2.32388 -7.3
    endloop
  endfacet
  facet normal 0 -1.22461e-016 1
    outer loop
      vertex 5.58861 9.67976 -7.3
      vertex -11.0685 -1.55557 -7.3
      vertex -3.27037 2.98134 -7.3
    endloop
  endfacet
  facet normal 0 -1.22461e-016 1
    outer loop
      vertex 5.58861 9.67976 -7.3
      vertex -1.97255 3.96141 -7.3
      vertex 6.88139 8.80777 -7.3
    endloop
  endfacet
  facet normal 0 -1.22461e-016 1
    outer loop
      vertex 5.58861 9.67976 -7.3
      vertex -3.27037 2.98134 -7.3
      vertex -1.97255 3.96141 -7.3
    endloop
  endfacet
  facet normal 0 -1.22461e-016 1
    outer loop
      vertex 6.88139 8.80777 -7.3
      vertex -0.40832 4.40647 -7.3
      vertex 8.04022 7.76435 -7.3
    endloop
  endfacet
  facet normal 0 -1.22461e-016 1
    outer loop
      vertex -1.97255 3.96141 -7.3
      vertex -0.40832 4.40647 -7.3
      vertex 6.88139 8.80777 -7.3
    endloop
  endfacet
  facet normal 0 -1.22461e-016 1
    outer loop
      vertex 8.04022 7.76435 -7.3
      vertex 1.21105 4.25642 -7.3
      vertex 9.04257 6.56981 -7.3
    endloop
  endfacet
  facet normal 0 -1.22461e-016 1
    outer loop
      vertex 9.04257 6.56981 -7.3
      vertex 2.66687 3.53151 -7.3
      vertex 9.86891 5.24739 -7.3
    endloop
  endfacet
  facet normal 0 -1.22461e-016 1
    outer loop
      vertex 3.76251 2.32965 -7.3
      vertex 10.933 2.32388 -7.3
      vertex 10.5032 3.82284 -7.3
    endloop
  endfacet
  facet normal 0 -1.22461e-016 1
    outer loop
      vertex 9.86891 5.24739 -7.3
      vertex 3.76251 2.32965 -7.3
      vertex 10.5032 3.82284 -7.3
    endloop
  endfacet
  facet normal 0 -1.22461e-016 1
    outer loop
      vertex -4.12652 1.59862 -7.3
      vertex -3.27037 2.98134 -7.3
      vertex -11.0685 -1.55557 -7.3
    endloop
  endfacet
  facet normal 0 -1.22461e-016 1
    outer loop
      vertex 10.933 2.32388 -7.3
      vertex 4.35 0.813156 -7.3
      vertex 11.15 0.779684 -7.3
    endloop
  endfacet
  facet normal 0 -1.22461e-016 1
    outer loop
      vertex 11.15 0.779684 -7.3
      vertex 4.35 -0.813156 -7.3
      vertex 11.15 -0.779684 -7.3
    endloop
  endfacet
  facet normal 0 -1.22461e-016 1
    outer loop
      vertex 10.933 -2.32388 -7.3
      vertex 3.76251 -2.32965 -7.3
      vertex 10.5032 -3.82284 -7.3
    endloop
  endfacet
  facet normal 0 -1.22461e-016 1
    outer loop
      vertex 10.5032 -3.82284 -7.3
      vertex 2.66687 -3.53151 -7.3
      vertex 9.86891 -5.24739 -7.3
    endloop
  endfacet
  facet normal 0 -1.22461e-016 1
    outer loop
      vertex -4.12652 -1.59862 -7.3
      vertex -4.42535 3.52031e-016 -7.3
      vertex -11.0685 -1.55557 -7.3
    endloop
  endfacet
  facet normal 0 -1.22461e-016 1
    outer loop
      vertex 9.86891 -5.24739 -7.3
      vertex 1.21106 -4.25641 -7.3
      vertex 9.04257 -6.56981 -7.3
    endloop
  endfacet
  facet normal 0 -1.22461e-016 1
    outer loop
      vertex 9.04257 -6.56981 -7.3
      vertex -0.40832 -4.40647 -7.3
      vertex 8.04022 -7.76435 -7.3
    endloop
  endfacet
  facet normal 0 -1.22461e-016 1
    outer loop
      vertex -1.97255 -3.96141 -7.3
      vertex -11.0685 -1.55557 -7.3
      vertex -0.40832 -4.40647 -7.3
    endloop
  endfacet
  facet normal 0 -1.22461e-016 1
    outer loop
      vertex -1.97255 -3.96141 -7.3
      vertex -3.27037 -2.98134 -7.3
      vertex -11.0685 -1.55557 -7.3
    endloop
  endfacet
  facet normal 0 -1.22461e-016 1
    outer loop
      vertex 2.66687 -3.53151 -7.3
      vertex 1.21106 -4.25641 -7.3
      vertex 9.86891 -5.24739 -7.3
    endloop
  endfacet
  facet normal 0 -1.22461e-016 1
    outer loop
      vertex 4.35 -0.813156 -7.3
      vertex 10.933 -2.32388 -7.3
      vertex 11.15 -0.779684 -7.3
    endloop
  endfacet
  facet normal 0 -1.22461e-016 1
    outer loop
      vertex -4.42535 3.52031e-016 -7.3
      vertex -4.12652 1.59862 -7.3
      vertex -11.0685 -1.55557 -7.3
    endloop
  endfacet
  facet normal 0.982973 -0.183749 -2.25021e-017
    outer loop
      vertex -4.42535 1.29498e-015 -15
      vertex -4.12652 1.59862 -15
      vertex -4.12652 1.59862 -7.3
    endloop
  endfacet
  facet normal 0.982973 -0.183749 -2.25021e-017
    outer loop
      vertex -4.42535 3.52031e-016 -7.3
      vertex -4.42535 1.29498e-015 -15
      vertex -4.12652 1.59862 -7.3
    endloop
  endfacet
  facet normal 0.850217 -0.526432 -6.44672e-017
    outer loop
      vertex -4.12652 1.59862 -15
      vertex -3.27037 2.98134 -15
      vertex -3.27037 2.98134 -7.3
    endloop
  endfacet
  facet normal 0.850217 -0.526432 -6.44672e-017
    outer loop
      vertex -4.12652 1.59862 -7.3
      vertex -4.12652 1.59862 -15
      vertex -3.27037 2.98134 -7.3
    endloop
  endfacet
  facet normal 0.602635 -0.798017 -9.77257e-017
    outer loop
      vertex -3.27037 2.98134 -15
      vertex -1.97255 3.96141 -15
      vertex -1.97255 3.96141 -7.3
    endloop
  endfacet
  facet normal 0.602635 -0.798017 -9.77257e-017
    outer loop
      vertex -3.27037 2.98134 -7.3
      vertex -3.27037 2.98134 -15
      vertex -1.97255 3.96141 -7.3
    endloop
  endfacet
  facet normal 0.273663 -0.961826 -1.17786e-016
    outer loop
      vertex -1.97255 3.96141 -15
      vertex -0.40832 4.40647 -15
      vertex -0.40832 4.40647 -7.3
    endloop
  endfacet
  facet normal 0.273663 -0.961826 -1.17786e-016
    outer loop
      vertex -1.97255 3.96141 -7.3
      vertex -1.97255 3.96141 -15
      vertex -0.40832 4.40647 -7.3
    endloop
  endfacet
  facet normal -0.0922682 -0.995734 -1.21938e-016
    outer loop
      vertex -0.40832 4.40647 -15
      vertex 1.21105 4.25642 -15
      vertex 1.21105 4.25642 -7.3
    endloop
  endfacet
  facet normal -0.0922682 -0.995734 -1.21938e-016
    outer loop
      vertex -0.40832 4.40647 -7.3
      vertex -0.40832 4.40647 -15
      vertex 1.21105 4.25642 -7.3
    endloop
  endfacet
  facet normal -0.445738 -0.895163 -1.09622e-016
    outer loop
      vertex 1.21105 4.25642 -15
      vertex 2.66687 3.53151 -15
      vertex 2.66687 3.53151 -7.3
    endloop
  endfacet
  facet normal -0.445738 -0.895163 -1.09622e-016
    outer loop
      vertex 1.21105 4.25642 -7.3
      vertex 1.21105 4.25642 -15
      vertex 2.66687 3.53151 -7.3
    endloop
  endfacet
  facet normal -0.739009 -0.673696 -8.25012e-017
    outer loop
      vertex 3.76251 2.32965 -15
      vertex 3.76251 2.32965 -7.3
      vertex 2.66687 3.53151 -15
    endloop
  endfacet
  facet normal -0.739009 -0.673696 -8.25012e-017
    outer loop
      vertex 2.66687 3.53151 -15
      vertex 3.76251 2.32965 -7.3
      vertex 2.66687 3.53151 -7.3
    endloop
  endfacet
  facet normal -0.932472 -0.361242 -4.42379e-017
    outer loop
      vertex 4.35 0.813156 -15
      vertex 4.35 0.813156 -7.3
      vertex 3.76251 2.32965 -15
    endloop
  endfacet
  facet normal -0.932472 -0.361242 -4.42379e-017
    outer loop
      vertex 3.76251 2.32965 -15
      vertex 4.35 0.813156 -7.3
      vertex 3.76251 2.32965 -7.3
    endloop
  endfacet
  facet normal -1 -1.22461e-016 -1.49966e-032
    outer loop
      vertex 4.35 -0.813156 -15
      vertex 4.35 -0.813156 -7.3
      vertex 4.35 0.813156 -15
    endloop
  endfacet
  facet normal -1 -1.22461e-016 -1.49966e-032
    outer loop
      vertex 4.35 0.813156 -15
      vertex 4.35 -0.813156 -7.3
      vertex 4.35 0.813156 -7.3
    endloop
  endfacet
  facet normal -0.932472 0.361242 4.42379e-017
    outer loop
      vertex 4.35 -0.813156 -15
      vertex 3.76251 -2.32965 -15
      vertex 4.35 -0.813156 -7.3
    endloop
  endfacet
  facet normal -0.932472 0.361242 4.42379e-017
    outer loop
      vertex 4.35 -0.813156 -7.3
      vertex 3.76251 -2.32965 -15
      vertex 3.76251 -2.32965 -7.3
    endloop
  endfacet
  facet normal -0.739009 0.673696 8.25012e-017
    outer loop
      vertex 3.76251 -2.32965 -15
      vertex 2.66687 -3.53151 -15
      vertex 3.76251 -2.32965 -7.3
    endloop
  endfacet
  facet normal -0.739009 0.673696 8.25012e-017
    outer loop
      vertex 3.76251 -2.32965 -7.3
      vertex 2.66687 -3.53151 -15
      vertex 2.66687 -3.53151 -7.3
    endloop
  endfacet
  facet normal -0.445738 0.895163 1.09622e-016
    outer loop
      vertex 2.66687 -3.53151 -15
      vertex 1.21106 -4.25641 -15
      vertex 2.66687 -3.53151 -7.3
    endloop
  endfacet
  facet normal -0.445738 0.895163 1.09622e-016
    outer loop
      vertex 2.66687 -3.53151 -7.3
      vertex 1.21106 -4.25641 -15
      vertex 1.21106 -4.25641 -7.3
    endloop
  endfacet
  facet normal -0.0922682 0.995734 1.21938e-016
    outer loop
      vertex 1.21106 -4.25641 -15
      vertex -0.40832 -4.40647 -15
      vertex 1.21106 -4.25641 -7.3
    endloop
  endfacet
  facet normal -0.0922682 0.995734 1.21938e-016
    outer loop
      vertex 1.21106 -4.25641 -7.3
      vertex -0.40832 -4.40647 -15
      vertex -0.40832 -4.40647 -7.3
    endloop
  endfacet
  facet normal 0.273663 0.961826 1.17786e-016
    outer loop
      vertex -0.40832 -4.40647 -15
      vertex -1.97255 -3.96141 -15
      vertex -0.40832 -4.40647 -7.3
    endloop
  endfacet
  facet normal 0.273663 0.961826 1.17786e-016
    outer loop
      vertex -0.40832 -4.40647 -7.3
      vertex -1.97255 -3.96141 -15
      vertex -1.97255 -3.96141 -7.3
    endloop
  endfacet
  facet normal 0.602635 0.798017 9.77257e-017
    outer loop
      vertex -1.97255 -3.96141 -15
      vertex -3.27037 -2.98134 -15
      vertex -1.97255 -3.96141 -7.3
    endloop
  endfacet
  facet normal 0.602635 0.798017 9.77257e-017
    outer loop
      vertex -1.97255 -3.96141 -7.3
      vertex -3.27037 -2.98134 -15
      vertex -3.27037 -2.98134 -7.3
    endloop
  endfacet
  facet normal 0.850217 0.526432 6.44672e-017
    outer loop
      vertex -3.27037 -2.98134 -7.3
      vertex -3.27037 -2.98134 -15
      vertex -4.12652 -1.59862 -15
    endloop
  endfacet
  facet normal 0.850217 0.526432 6.44672e-017
    outer loop
      vertex -4.12652 -1.59862 -7.3
      vertex -3.27037 -2.98134 -7.3
      vertex -4.12652 -1.59862 -15
    endloop
  endfacet
  facet normal 0.982973 0.183749 2.25021e-017
    outer loop
      vertex -4.12652 -1.59862 -7.3
      vertex -4.12652 -1.59862 -15
      vertex -4.42535 1.29498e-015 -15
    endloop
  endfacet
  facet normal 0.982973 0.183749 2.25021e-017
    outer loop
      vertex -4.42535 3.52031e-016 -7.3
      vertex -4.12652 -1.59862 -7.3
      vertex -4.42535 1.29498e-015 -15
    endloop
  endfacet
endsolid OpenSCAD_Model
