solid OpenSCAD_Model
  facet normal -1.49976e-32 -3.44509e-16 -1
    outer loop
      vertex -6 -18 -37
      vertex -6 -27.5965 -37
      vertex -9 -18 -37
    endloop
  endfacet
  facet normal -1.49976e-32 -3.44509e-16 -1
    outer loop
      vertex -9 -27.5965 -37
      vertex -9 -17.9 -37
      vertex -9 -18 -37
    endloop
  endfacet
  facet normal -1.49976e-32 -3.44509e-16 -1
    outer loop
      vertex -9 -27.5965 -37
      vertex -9 -18 -37
      vertex -6 -27.5965 -37
    endloop
  endfacet
  facet normal -1 1.22465e-16 -2.71926e-32
    outer loop
      vertex -9 -17.9 -37
      vertex -9 -27.5965 -37
      vertex -9 -17.9 5
    endloop
  endfacet
  facet normal -1.19326e-16 -0.97437 0.224951
    outer loop
      vertex -6 -27.5965 -37
      vertex -6 -18 4.56685
      vertex -9 -18 4.56685
    endloop
  endfacet
  facet normal -1.19326e-16 -0.97437 0.224951
    outer loop
      vertex -9 -27.5965 -37
      vertex -6 -27.5965 -37
      vertex -9 -18 4.56685
    endloop
  endfacet
  facet normal -1.19326e-16 -0.97437 0.224951
    outer loop
      vertex -9 -17.9 5
      vertex -9 -27.5965 -37
      vertex -9 -18 4.56685
    endloop
  endfacet
  facet normal 1 -1.22465e-16 2.71926e-32
    outer loop
      vertex -6 -18 4.56685
      vertex -6 -27.5965 -37
      vertex -6 -18 -37
    endloop
  endfacet
  facet normal 0 -1 2.22045e-16
    outer loop
      vertex -6 -18 -37
      vertex -9 -18 -37
      vertex 36 -18 -37
    endloop
  endfacet
  facet normal 0 -1 2.22045e-16
    outer loop
      vertex -9 -18 5
      vertex -9 -18 4.56685
      vertex 36 -18 5
    endloop
  endfacet
  facet normal 0 -1 2.22045e-16
    outer loop
      vertex -9 -18 4.56685
      vertex -6 -18 4.56685
      vertex 36 -18 5
    endloop
  endfacet
  facet normal 0 -1 2.22045e-16
    outer loop
      vertex 33 -18 -37
      vertex -6 -18 -37
      vertex 36 -18 -37
    endloop
  endfacet
  facet normal 0 -1 2.22045e-16
    outer loop
      vertex 33 -18 -37
      vertex 23.2924 -18 -15.9752
      vertex 22.6787 -18 -17.864
    endloop
  endfacet
  facet normal 0 -1 2.22045e-16
    outer loop
      vertex -6 -18 4.56685
      vertex 4.7076 -18 -15.9752
      vertex 4.5 -18 -14
    endloop
  endfacet
  facet normal 0 -1 2.22045e-16
    outer loop
      vertex -6 -18 4.56685
      vertex 4.5 -18 -14
      vertex 4.7076 -18 -12.0248
    endloop
  endfacet
  facet normal 0 -1 2.22045e-16
    outer loop
      vertex -6 -18 4.56685
      vertex 4.7076 -18 -12.0248
      vertex 5.32132 -18 -10.136
    endloop
  endfacet
  facet normal 0 -1 2.22045e-16
    outer loop
      vertex -6 -18 4.56685
      vertex 5.32132 -18 -10.136
      vertex 6.31434 -18 -8.41604
    endloop
  endfacet
  facet normal 0 -1 2.22045e-16
    outer loop
      vertex -6 -18 4.56685
      vertex 6.31434 -18 -8.41604
      vertex 7.64326 -18 -6.94012
    endloop
  endfacet
  facet normal 0 -1 2.22045e-16
    outer loop
      vertex -6 -18 4.56685
      vertex 7.64326 -18 -6.94012
      vertex 9.25 -18 -5.77276
    endloop
  endfacet
  facet normal 0 -1 2.22045e-16
    outer loop
      vertex -6 -18 4.56685
      vertex 9.25 -18 -5.77276
      vertex 11.0643 -18 -4.96496
    endloop
  endfacet
  facet normal 0 -1 2.22045e-16
    outer loop
      vertex 33 -18 -37
      vertex 20.3567 -18 -21.0599
      vertex 18.75 -18 -22.2272
    endloop
  endfacet
  facet normal 0 -1 2.22045e-16
    outer loop
      vertex 13.007 -18 -23.448
      vertex 11.0643 -18 -23.035
      vertex -6 -18 -37
    endloop
  endfacet
  facet normal 0 -1 2.22045e-16
    outer loop
      vertex 9.25 -18 -22.2272
      vertex 7.64326 -18 -21.0599
      vertex -6 -18 -37
    endloop
  endfacet
  facet normal 0 -1 2.22045e-16
    outer loop
      vertex 16.9357 -18 -23.035
      vertex 14.993 -18 -23.448
      vertex -6 -18 -37
    endloop
  endfacet
  facet normal 0 -1 2.22045e-16
    outer loop
      vertex 14.993 -18 -23.448
      vertex 13.007 -18 -23.448
      vertex -6 -18 -37
    endloop
  endfacet
  facet normal 0 -1 2.22045e-16
    outer loop
      vertex 11.0643 -18 -23.035
      vertex 9.25 -18 -22.2272
      vertex -6 -18 -37
    endloop
  endfacet
  facet normal 0 -1 2.22045e-16
    outer loop
      vertex 18.75 -18 -22.2272
      vertex 16.9357 -18 -23.035
      vertex -6 -18 -37
    endloop
  endfacet
  facet normal 0 -1 2.22045e-16
    outer loop
      vertex 33 -18 -37
      vertex 21.6857 -18 -19.584
      vertex 20.3567 -18 -21.0599
    endloop
  endfacet
  facet normal 0 -1 2.22045e-16
    outer loop
      vertex 33 -18 -37
      vertex 22.6787 -18 -17.864
      vertex 21.6857 -18 -19.584
    endloop
  endfacet
  facet normal 0 -1 2.22045e-16
    outer loop
      vertex 33 -18 4.56685
      vertex 36 -18 4.56685
      vertex 36 -18 5
    endloop
  endfacet
  facet normal 0 -1 2.22045e-16
    outer loop
      vertex 18.75 -18 -22.2272
      vertex -6 -18 -37
      vertex 33 -18 -37
    endloop
  endfacet
  facet normal 0 -1 2.22045e-16
    outer loop
      vertex -6 -18 4.56685
      vertex 33 -18 4.56685
      vertex 36 -18 5
    endloop
  endfacet
  facet normal 0 -1 2.22045e-16
    outer loop
      vertex -6 -18 4.56685
      vertex 11.0643 -18 -4.96496
      vertex 33 -18 4.56685
    endloop
  endfacet
  facet normal 0 -1 2.22045e-16
    outer loop
      vertex 36 -18 5
      vertex 36 -18 4.56685
      vertex 36 -18 -37
    endloop
  endfacet
  facet normal 0 -1 2.22045e-16
    outer loop
      vertex -6 -18 4.56685
      vertex 5.32132 -18 -17.864
      vertex 4.7076 -18 -15.9752
    endloop
  endfacet
  facet normal 0 -1 2.22045e-16
    outer loop
      vertex 6.31434 -18 -19.584
      vertex -6 -18 -37
      vertex 7.64326 -18 -21.0599
    endloop
  endfacet
  facet normal 0 -1 2.22045e-16
    outer loop
      vertex 5.32132 -18 -17.864
      vertex -6 -18 -37
      vertex 6.31434 -18 -19.584
    endloop
  endfacet
  facet normal 0 -1 2.22045e-16
    outer loop
      vertex -6 -18 4.56685
      vertex -6 -18 -37
      vertex 5.32132 -18 -17.864
    endloop
  endfacet
  facet normal 0 -1 2.22045e-16
    outer loop
      vertex 33 -18 -37
      vertex 23.5 -18 -14
      vertex 23.2924 -18 -15.9752
    endloop
  endfacet
  facet normal 0 -1 2.22045e-16
    outer loop
      vertex 33 -18 -37
      vertex 23.2924 -18 -12.0248
      vertex 23.5 -18 -14
    endloop
  endfacet
  facet normal 0 -1 2.22045e-16
    outer loop
      vertex 33 -18 -37
      vertex 22.6787 -18 -10.136
      vertex 23.2924 -18 -12.0248
    endloop
  endfacet
  facet normal 0 -1 2.22045e-16
    outer loop
      vertex 13.007 -18 -4.55204
      vertex 33 -18 4.56685
      vertex 11.0643 -18 -4.96496
    endloop
  endfacet
  facet normal 0 -1 2.22045e-16
    outer loop
      vertex 14.993 -18 -4.55204
      vertex 33 -18 4.56685
      vertex 13.007 -18 -4.55204
    endloop
  endfacet
  facet normal 0 -1 2.22045e-16
    outer loop
      vertex 16.9357 -18 -4.96496
      vertex 33 -18 4.56685
      vertex 14.993 -18 -4.55204
    endloop
  endfacet
  facet normal 0 -1 2.22045e-16
    outer loop
      vertex 18.75 -18 -5.77276
      vertex 33 -18 4.56685
      vertex 16.9357 -18 -4.96496
    endloop
  endfacet
  facet normal 0 -1 2.22045e-16
    outer loop
      vertex 20.3567 -18 -6.94012
      vertex 33 -18 4.56685
      vertex 18.75 -18 -5.77276
    endloop
  endfacet
  facet normal 0 -1 2.22045e-16
    outer loop
      vertex 21.6857 -18 -8.41604
      vertex 33 -18 4.56685
      vertex 20.3567 -18 -6.94012
    endloop
  endfacet
  facet normal 0 -1 2.22045e-16
    outer loop
      vertex 22.6787 -18 -10.136
      vertex 33 -18 4.56685
      vertex 21.6857 -18 -8.41604
    endloop
  endfacet
  facet normal 0 -1 2.22045e-16
    outer loop
      vertex 33 -18 -37
      vertex 33 -18 4.56685
      vertex 22.6787 -18 -10.136
    endloop
  endfacet
  facet normal -1 0 0
    outer loop
      vertex -9 -5 -40
      vertex -9 -35 -40
      vertex -9 -5 -37
    endloop
  endfacet
  facet normal -1 0 0
    outer loop
      vertex -9 -18 -37
      vertex -9 -35 -40
      vertex -9 -35 -37
    endloop
  endfacet
  facet normal -1 0 0
    outer loop
      vertex -9 -5 -37
      vertex -9 -35 -40
      vertex -9 -15 -37
    endloop
  endfacet
  facet normal -1 0 0
    outer loop
      vertex -9 -18 -37
      vertex -9 -17.9 -37
      vertex -9 -35 -40
    endloop
  endfacet
  facet normal -1 0 0
    outer loop
      vertex -9 -5.40354 -37
      vertex -9 -17.9 5
      vertex -9 -15 4.56685
    endloop
  endfacet
  facet normal -1 0 0
    outer loop
      vertex -9 -15 4.56685
      vertex -9 -17.9 5
      vertex -9 -15 5
    endloop
  endfacet
  facet normal -1 0 0
    outer loop
      vertex -9 -17.9 -37
      vertex -9 -15 -37
      vertex -9 -35 -40
    endloop
  endfacet
  facet normal -1 0 0
    outer loop
      vertex -9 -17.9 5
      vertex -9 -5.40354 -37
      vertex -9 -15 -37
    endloop
  endfacet
  facet normal -1 0 0
    outer loop
      vertex -9 -17.9 5
      vertex -9 -15 -37
      vertex -9 -17.9 -37
    endloop
  endfacet
  facet normal 0 2.22045e-16 1
    outer loop
      vertex 36 -15 5
      vertex -9 -15 5
      vertex -9 -17.9 5
    endloop
  endfacet
  facet normal 0 2.22045e-16 1
    outer loop
      vertex 36 -18 5
      vertex 36 -15 5
      vertex -9 -18 5
    endloop
  endfacet
  facet normal 0 2.22045e-16 1
    outer loop
      vertex -9 -18 5
      vertex 36 -15 5
      vertex -9 -17.9 5
    endloop
  endfacet
  facet normal -1 0 0
    outer loop
      vertex -9 -17.9 5
      vertex -9 -18 4.56685
      vertex -9 -18 5
    endloop
  endfacet
  facet normal 1 0 0
    outer loop
      vertex 36 -35 -40
      vertex 36 -5 -40
      vertex 36 -5 -37
    endloop
  endfacet
  facet normal 1 0 0
    outer loop
      vertex 36 -15 -37
      vertex 36 -35 -40
      vertex 36 -5 -37
    endloop
  endfacet
  facet normal 1 0 0
    outer loop
      vertex 36 -18 -37
      vertex 36 -35 -40
      vertex 36 -15 -37
    endloop
  endfacet
  facet normal 1 0 0
    outer loop
      vertex 36 -15 4.56685
      vertex 36 -15 -37
      vertex 36 -5.40354 -37
    endloop
  endfacet
  facet normal 1 0 0
    outer loop
      vertex 36 -18 -37
      vertex 36 -35 -37
      vertex 36 -35 -40
    endloop
  endfacet
  facet normal 1 0 0
    outer loop
      vertex 36 -15 4.56685
      vertex 36 -18 -37
      vertex 36 -15 -37
    endloop
  endfacet
  facet normal 1 0 0
    outer loop
      vertex 36 -18 5
      vertex 36 -15 4.56685
      vertex 36 -15 5
    endloop
  endfacet
  facet normal 1 0 0
    outer loop
      vertex 36 -18 5
      vertex 36 -18 -37
      vertex 36 -15 4.56685
    endloop
  endfacet
  facet normal 0 2.22045e-16 1
    outer loop
      vertex -4.8 -30 -37
      vertex -9 -18 -37
      vertex -9 -35 -37
    endloop
  endfacet
  facet normal 0 2.22045e-16 1
    outer loop
      vertex 25.5438 -28.942 -37
      vertex 36 -18 -37
      vertex -9 -35 -37
    endloop
  endfacet
  facet normal 0 2.22045e-16 1
    outer loop
      vertex -4.7119 -30.5562 -37
      vertex -4.8 -30 -37
      vertex -9 -35 -37
    endloop
  endfacet
  facet normal 0 2.22045e-16 1
    outer loop
      vertex -4.7119 -29.4438 -37
      vertex -9 -18 -37
      vertex -4.8 -30 -37
    endloop
  endfacet
  facet normal 0 2.22045e-16 1
    outer loop
      vertex -4.45623 -28.942 -37
      vertex -9 -18 -37
      vertex -4.7119 -29.4438 -37
    endloop
  endfacet
  facet normal 0 2.22045e-16 1
    outer loop
      vertex -4.05801 -28.5438 -37
      vertex -9 -18 -37
      vertex -4.45623 -28.942 -37
    endloop
  endfacet
  facet normal 0 2.22045e-16 1
    outer loop
      vertex -3.55623 -28.2881 -37
      vertex -9 -18 -37
      vertex -4.05801 -28.5438 -37
    endloop
  endfacet
  facet normal 0 2.22045e-16 1
    outer loop
      vertex 36 -18 -37
      vertex -9 -18 -37
      vertex -3.55623 -28.2881 -37
    endloop
  endfacet
  facet normal 0 2.22045e-16 1
    outer loop
      vertex -2.44377 -28.2881 -37
      vertex -1.94199 -28.5438 -37
      vertex 36 -18 -37
    endloop
  endfacet
  facet normal 0 2.22045e-16 1
    outer loop
      vertex 36 -18 -37
      vertex -3.55623 -28.2881 -37
      vertex -3 -28.2 -37
    endloop
  endfacet
  facet normal 0 2.22045e-16 1
    outer loop
      vertex -1.94199 -28.5438 -37
      vertex -1.54377 -28.942 -37
      vertex 36 -18 -37
    endloop
  endfacet
  facet normal 0 2.22045e-16 1
    outer loop
      vertex -1.54377 -28.942 -37
      vertex -1.2881 -29.4438 -37
      vertex 36 -18 -37
    endloop
  endfacet
  facet normal 0 2.22045e-16 1
    outer loop
      vertex 25.942 -28.5438 -37
      vertex 26.4438 -28.2881 -37
      vertex 36 -18 -37
    endloop
  endfacet
  facet normal 0 2.22045e-16 1
    outer loop
      vertex -4.05801 -31.4562 -37
      vertex -4.45623 -31.058 -37
      vertex -9 -35 -37
    endloop
  endfacet
  facet normal 0 2.22045e-16 1
    outer loop
      vertex 36 -18 -37
      vertex -1.2881 -29.4438 -37
      vertex -1.2 -30 -37
    endloop
  endfacet
  facet normal 0 2.22045e-16 1
    outer loop
      vertex -3.55623 -31.7119 -37
      vertex -4.05801 -31.4562 -37
      vertex -9 -35 -37
    endloop
  endfacet
  facet normal 0 2.22045e-16 1
    outer loop
      vertex 36 -18 -37
      vertex -1.2 -30 -37
      vertex -1.2881 -30.5562 -37
    endloop
  endfacet
  facet normal 0 2.22045e-16 1
    outer loop
      vertex -3 -31.8 -37
      vertex -3.55623 -31.7119 -37
      vertex -9 -35 -37
    endloop
  endfacet
  facet normal 0 2.22045e-16 1
    outer loop
      vertex 36 -18 -37
      vertex -1.2881 -30.5562 -37
      vertex -1.54377 -31.058 -37
    endloop
  endfacet
  facet normal 0 2.22045e-16 1
    outer loop
      vertex 36 -18 -37
      vertex -1.54377 -31.058 -37
      vertex -1.94199 -31.4562 -37
    endloop
  endfacet
  facet normal 0 2.22045e-16 1
    outer loop
      vertex 36 -18 -37
      vertex -2.44377 -31.7119 -37
      vertex -9 -35 -37
    endloop
  endfacet
  facet normal 0 2.22045e-16 1
    outer loop
      vertex 36 -18 -37
      vertex -1.94199 -31.4562 -37
      vertex -2.44377 -31.7119 -37
    endloop
  endfacet
  facet normal 0 2.22045e-16 1
    outer loop
      vertex -4.45623 -31.058 -37
      vertex -4.7119 -30.5562 -37
      vertex -9 -35 -37
    endloop
  endfacet
  facet normal 0 2.22045e-16 1
    outer loop
      vertex 25.2881 -30.5562 -37
      vertex 25.2 -30 -37
      vertex -9 -35 -37
    endloop
  endfacet
  facet normal 0 2.22045e-16 1
    outer loop
      vertex 25.2 -30 -37
      vertex 25.2881 -29.4438 -37
      vertex -9 -35 -37
    endloop
  endfacet
  facet normal 0 2.22045e-16 1
    outer loop
      vertex 25.2881 -29.4438 -37
      vertex 25.5438 -28.942 -37
      vertex -9 -35 -37
    endloop
  endfacet
  facet normal 0 2.22045e-16 1
    outer loop
      vertex 25.942 -28.5438 -37
      vertex 36 -18 -37
      vertex 25.5438 -28.942 -37
    endloop
  endfacet
  facet normal 0 2.22045e-16 1
    outer loop
      vertex 26.4438 -28.2881 -37
      vertex 27 -28.2 -37
      vertex 36 -18 -37
    endloop
  endfacet
  facet normal 0 2.22045e-16 1
    outer loop
      vertex 28.4562 -28.942 -37
      vertex 28.7119 -29.4438 -37
      vertex 36 -35 -37
    endloop
  endfacet
  facet normal 0 2.22045e-16 1
    outer loop
      vertex 27.5562 -28.2881 -37
      vertex 36 -18 -37
      vertex 27 -28.2 -37
    endloop
  endfacet
  facet normal 0 2.22045e-16 1
    outer loop
      vertex 28.058 -28.5438 -37
      vertex 36 -18 -37
      vertex 27.5562 -28.2881 -37
    endloop
  endfacet
  facet normal 0 2.22045e-16 1
    outer loop
      vertex 36 -35 -37
      vertex 36 -18 -37
      vertex 28.058 -28.5438 -37
    endloop
  endfacet
  facet normal 0 2.22045e-16 1
    outer loop
      vertex 28.7119 -29.4438 -37
      vertex 28.8 -30 -37
      vertex 36 -35 -37
    endloop
  endfacet
  facet normal 0 2.22045e-16 1
    outer loop
      vertex 36 -35 -37
      vertex 28.058 -28.5438 -37
      vertex 28.4562 -28.942 -37
    endloop
  endfacet
  facet normal 0 2.22045e-16 1
    outer loop
      vertex 28.4562 -31.058 -37
      vertex 28.058 -31.4562 -37
      vertex 36 -35 -37
    endloop
  endfacet
  facet normal 0 2.22045e-16 1
    outer loop
      vertex 36 -35 -37
      vertex 28.8 -30 -37
      vertex 28.7119 -30.5562 -37
    endloop
  endfacet
  facet normal 0 2.22045e-16 1
    outer loop
      vertex 27 -31.8 -37
      vertex 26.4438 -31.7119 -37
      vertex -9 -35 -37
    endloop
  endfacet
  facet normal 0 2.22045e-16 1
    outer loop
      vertex 36 -35 -37
      vertex 28.7119 -30.5562 -37
      vertex 28.4562 -31.058 -37
    endloop
  endfacet
  facet normal 0 2.22045e-16 1
    outer loop
      vertex 26.4438 -31.7119 -37
      vertex 25.942 -31.4562 -37
      vertex -9 -35 -37
    endloop
  endfacet
  facet normal 0 2.22045e-16 1
    outer loop
      vertex 36 -35 -37
      vertex 28.058 -31.4562 -37
      vertex 27.5562 -31.7119 -37
    endloop
  endfacet
  facet normal 0 2.22045e-16 1
    outer loop
      vertex 36 -35 -37
      vertex 27 -31.8 -37
      vertex -9 -35 -37
    endloop
  endfacet
  facet normal 0 2.22045e-16 1
    outer loop
      vertex 36 -35 -37
      vertex 27.5562 -31.7119 -37
      vertex 27 -31.8 -37
    endloop
  endfacet
  facet normal 0 2.22045e-16 1
    outer loop
      vertex 25.942 -31.4562 -37
      vertex 25.5438 -31.058 -37
      vertex -9 -35 -37
    endloop
  endfacet
  facet normal 0 2.22045e-16 1
    outer loop
      vertex 25.5438 -31.058 -37
      vertex 25.2881 -30.5562 -37
      vertex -9 -35 -37
    endloop
  endfacet
  facet normal 0 2.22045e-16 1
    outer loop
      vertex -3 -28.2 -37
      vertex -2.44377 -28.2881 -37
      vertex 36 -18 -37
    endloop
  endfacet
  facet normal 0 2.22045e-16 1
    outer loop
      vertex -2.44377 -31.7119 -37
      vertex -3 -31.8 -37
      vertex -9 -35 -37
    endloop
  endfacet
  facet normal 0.994522 2.321e-17 0.104529
    outer loop
      vertex 4.5 -18 -14
      vertex 4.7076 -18 -15.9752
      vertex 4.7076 -15 -15.9752
    endloop
  endfacet
  facet normal 0.994522 2.321e-17 0.104529
    outer loop
      vertex 4.5 -15 -14
      vertex 4.5 -18 -14
      vertex 4.7076 -15 -15.9752
    endloop
  endfacet
  facet normal 0.951057 6.86155e-17 0.309017
    outer loop
      vertex 4.7076 -18 -15.9752
      vertex 5.32132 -18 -17.864
      vertex 5.32132 -15 -17.864
    endloop
  endfacet
  facet normal 0.951057 6.86155e-17 0.309017
    outer loop
      vertex 4.7076 -15 -15.9752
      vertex 4.7076 -18 -15.9752
      vertex 5.32132 -15 -17.864
    endloop
  endfacet
  facet normal 0.866025 1.11022e-16 0.5
    outer loop
      vertex 5.32132 -18 -17.864
      vertex 6.31434 -18 -19.584
      vertex 6.31434 -15 -19.584
    endloop
  endfacet
  facet normal 0.866025 1.11022e-16 0.5
    outer loop
      vertex 5.32132 -15 -17.864
      vertex 5.32132 -18 -17.864
      vertex 6.31434 -15 -19.584
    endloop
  endfacet
  facet normal 0.743145 1.48577e-16 0.66913
    outer loop
      vertex 6.31434 -18 -19.584
      vertex 7.64326 -18 -21.0599
      vertex 7.64326 -15 -21.0599
    endloop
  endfacet
  facet normal 0.743145 1.48577e-16 0.66913
    outer loop
      vertex 6.31434 -15 -19.584
      vertex 6.31434 -18 -19.584
      vertex 7.64326 -15 -21.0599
    endloop
  endfacet
  facet normal 0.587785 1.79638e-16 0.809017
    outer loop
      vertex 7.64326 -18 -21.0599
      vertex 9.25 -18 -22.2272
      vertex 9.25 -15 -22.2272
    endloop
  endfacet
  facet normal 0.587785 1.79638e-16 0.809017
    outer loop
      vertex 7.64326 -15 -21.0599
      vertex 7.64326 -18 -21.0599
      vertex 9.25 -15 -22.2272
    endloop
  endfacet
  facet normal 0.406737 2.02848e-16 0.913545
    outer loop
      vertex 9.25 -18 -22.2272
      vertex 11.0643 -18 -23.035
      vertex 11.0643 -15 -23.035
    endloop
  endfacet
  facet normal 0.406737 2.02848e-16 0.913545
    outer loop
      vertex 9.25 -15 -22.2272
      vertex 9.25 -18 -22.2272
      vertex 11.0643 -15 -23.035
    endloop
  endfacet
  facet normal 0.207912 2.17192e-16 0.978148
    outer loop
      vertex 11.0643 -18 -23.035
      vertex 13.007 -18 -23.448
      vertex 13.007 -15 -23.448
    endloop
  endfacet
  facet normal 0.207912 2.17192e-16 0.978148
    outer loop
      vertex 11.0643 -15 -23.035
      vertex 11.0643 -18 -23.035
      vertex 13.007 -15 -23.448
    endloop
  endfacet
  facet normal 0 2.22045e-16 1
    outer loop
      vertex 13.007 -18 -23.448
      vertex 14.993 -18 -23.448
      vertex 14.993 -15 -23.448
    endloop
  endfacet
  facet normal 0 2.22045e-16 1
    outer loop
      vertex 13.007 -15 -23.448
      vertex 13.007 -18 -23.448
      vertex 14.993 -15 -23.448
    endloop
  endfacet
  facet normal -0.207912 2.17192e-16 0.978148
    outer loop
      vertex 14.993 -18 -23.448
      vertex 16.9357 -18 -23.035
      vertex 16.9357 -15 -23.035
    endloop
  endfacet
  facet normal -0.207912 2.17192e-16 0.978148
    outer loop
      vertex 14.993 -15 -23.448
      vertex 14.993 -18 -23.448
      vertex 16.9357 -15 -23.035
    endloop
  endfacet
  facet normal -0.406737 2.02848e-16 0.913545
    outer loop
      vertex 16.9357 -18 -23.035
      vertex 18.75 -18 -22.2272
      vertex 18.75 -15 -22.2272
    endloop
  endfacet
  facet normal -0.406737 2.02848e-16 0.913545
    outer loop
      vertex 16.9357 -15 -23.035
      vertex 16.9357 -18 -23.035
      vertex 18.75 -15 -22.2272
    endloop
  endfacet
  facet normal -0.587785 1.79638e-16 0.809017
    outer loop
      vertex 18.75 -18 -22.2272
      vertex 20.3567 -18 -21.0599
      vertex 20.3567 -15 -21.0599
    endloop
  endfacet
  facet normal -0.587785 1.79638e-16 0.809017
    outer loop
      vertex 18.75 -15 -22.2272
      vertex 18.75 -18 -22.2272
      vertex 20.3567 -15 -21.0599
    endloop
  endfacet
  facet normal -0.743145 1.48577e-16 0.66913
    outer loop
      vertex 21.6857 -18 -19.584
      vertex 21.6857 -15 -19.584
      vertex 20.3567 -18 -21.0599
    endloop
  endfacet
  facet normal -0.743145 1.48577e-16 0.66913
    outer loop
      vertex 20.3567 -18 -21.0599
      vertex 21.6857 -15 -19.584
      vertex 20.3567 -15 -21.0599
    endloop
  endfacet
  facet normal -0.866025 1.11022e-16 0.5
    outer loop
      vertex 22.6787 -18 -17.864
      vertex 22.6787 -15 -17.864
      vertex 21.6857 -18 -19.584
    endloop
  endfacet
  facet normal -0.866025 1.11022e-16 0.5
    outer loop
      vertex 21.6857 -18 -19.584
      vertex 22.6787 -15 -17.864
      vertex 21.6857 -15 -19.584
    endloop
  endfacet
  facet normal -0.951057 6.86155e-17 0.309017
    outer loop
      vertex 23.2924 -18 -15.9752
      vertex 23.2924 -15 -15.9752
      vertex 22.6787 -18 -17.864
    endloop
  endfacet
  facet normal -0.951057 6.86155e-17 0.309017
    outer loop
      vertex 22.6787 -18 -17.864
      vertex 23.2924 -15 -15.9752
      vertex 22.6787 -15 -17.864
    endloop
  endfacet
  facet normal -0.994522 2.321e-17 0.104529
    outer loop
      vertex 23.5 -18 -14
      vertex 23.5 -15 -14
      vertex 23.2924 -18 -15.9752
    endloop
  endfacet
  facet normal -0.994522 2.321e-17 0.104529
    outer loop
      vertex 23.2924 -18 -15.9752
      vertex 23.5 -15 -14
      vertex 23.2924 -15 -15.9752
    endloop
  endfacet
  facet normal -0.994522 -2.321e-17 -0.104529
    outer loop
      vertex 23.5 -18 -14
      vertex 23.2924 -18 -12.0248
      vertex 23.5 -15 -14
    endloop
  endfacet
  facet normal -0.994522 -2.321e-17 -0.104529
    outer loop
      vertex 23.5 -15 -14
      vertex 23.2924 -18 -12.0248
      vertex 23.2924 -15 -12.0248
    endloop
  endfacet
  facet normal -0.951057 -6.86155e-17 -0.309017
    outer loop
      vertex 23.2924 -18 -12.0248
      vertex 22.6787 -18 -10.136
      vertex 23.2924 -15 -12.0248
    endloop
  endfacet
  facet normal -0.951057 -6.86155e-17 -0.309017
    outer loop
      vertex 23.2924 -15 -12.0248
      vertex 22.6787 -18 -10.136
      vertex 22.6787 -15 -10.136
    endloop
  endfacet
  facet normal -0.866025 -1.11022e-16 -0.5
    outer loop
      vertex 22.6787 -18 -10.136
      vertex 21.6857 -18 -8.41604
      vertex 22.6787 -15 -10.136
    endloop
  endfacet
  facet normal -0.866025 -1.11022e-16 -0.5
    outer loop
      vertex 22.6787 -15 -10.136
      vertex 21.6857 -18 -8.41604
      vertex 21.6857 -15 -8.41604
    endloop
  endfacet
  facet normal -0.743145 -1.48577e-16 -0.66913
    outer loop
      vertex 21.6857 -18 -8.41604
      vertex 20.3567 -18 -6.94012
      vertex 21.6857 -15 -8.41604
    endloop
  endfacet
  facet normal -0.743145 -1.48577e-16 -0.66913
    outer loop
      vertex 21.6857 -15 -8.41604
      vertex 20.3567 -18 -6.94012
      vertex 20.3567 -15 -6.94012
    endloop
  endfacet
  facet normal -0.587785 -1.79638e-16 -0.809017
    outer loop
      vertex 20.3567 -18 -6.94012
      vertex 18.75 -18 -5.77276
      vertex 20.3567 -15 -6.94012
    endloop
  endfacet
  facet normal -0.587785 -1.79638e-16 -0.809017
    outer loop
      vertex 20.3567 -15 -6.94012
      vertex 18.75 -18 -5.77276
      vertex 18.75 -15 -5.77276
    endloop
  endfacet
  facet normal -0.406737 -2.02848e-16 -0.913545
    outer loop
      vertex 18.75 -18 -5.77276
      vertex 16.9357 -18 -4.96496
      vertex 18.75 -15 -5.77276
    endloop
  endfacet
  facet normal -0.406737 -2.02848e-16 -0.913545
    outer loop
      vertex 18.75 -15 -5.77276
      vertex 16.9357 -18 -4.96496
      vertex 16.9357 -15 -4.96496
    endloop
  endfacet
  facet normal -0.207912 -2.17192e-16 -0.978148
    outer loop
      vertex 16.9357 -18 -4.96496
      vertex 14.993 -18 -4.55204
      vertex 16.9357 -15 -4.96496
    endloop
  endfacet
  facet normal -0.207912 -2.17192e-16 -0.978148
    outer loop
      vertex 16.9357 -15 -4.96496
      vertex 14.993 -18 -4.55204
      vertex 14.993 -15 -4.55204
    endloop
  endfacet
  facet normal 0 -2.22045e-16 -1
    outer loop
      vertex 14.993 -18 -4.55204
      vertex 13.007 -18 -4.55204
      vertex 14.993 -15 -4.55204
    endloop
  endfacet
  facet normal 0 -2.22045e-16 -1
    outer loop
      vertex 14.993 -15 -4.55204
      vertex 13.007 -18 -4.55204
      vertex 13.007 -15 -4.55204
    endloop
  endfacet
  facet normal 0.207912 -2.17192e-16 -0.978148
    outer loop
      vertex 13.007 -18 -4.55204
      vertex 11.0643 -18 -4.96496
      vertex 13.007 -15 -4.55204
    endloop
  endfacet
  facet normal 0.207912 -2.17192e-16 -0.978148
    outer loop
      vertex 13.007 -15 -4.55204
      vertex 11.0643 -18 -4.96496
      vertex 11.0643 -15 -4.96496
    endloop
  endfacet
  facet normal 0.406737 -2.02848e-16 -0.913545
    outer loop
      vertex 11.0643 -18 -4.96496
      vertex 9.25 -18 -5.77276
      vertex 11.0643 -15 -4.96496
    endloop
  endfacet
  facet normal 0.406737 -2.02848e-16 -0.913545
    outer loop
      vertex 11.0643 -15 -4.96496
      vertex 9.25 -18 -5.77276
      vertex 9.25 -15 -5.77276
    endloop
  endfacet
  facet normal 0.587785 -1.79638e-16 -0.809017
    outer loop
      vertex 9.25 -18 -5.77276
      vertex 7.64326 -18 -6.94012
      vertex 9.25 -15 -5.77276
    endloop
  endfacet
  facet normal 0.587785 -1.79638e-16 -0.809017
    outer loop
      vertex 9.25 -15 -5.77276
      vertex 7.64326 -18 -6.94012
      vertex 7.64326 -15 -6.94012
    endloop
  endfacet
  facet normal 0.743145 -1.48577e-16 -0.66913
    outer loop
      vertex 7.64326 -15 -6.94012
      vertex 7.64326 -18 -6.94012
      vertex 6.31434 -18 -8.41604
    endloop
  endfacet
  facet normal 0.743145 -1.48577e-16 -0.66913
    outer loop
      vertex 6.31434 -15 -8.41604
      vertex 7.64326 -15 -6.94012
      vertex 6.31434 -18 -8.41604
    endloop
  endfacet
  facet normal 0.866025 -1.11022e-16 -0.5
    outer loop
      vertex 6.31434 -15 -8.41604
      vertex 6.31434 -18 -8.41604
      vertex 5.32132 -18 -10.136
    endloop
  endfacet
  facet normal 0.866025 -1.11022e-16 -0.5
    outer loop
      vertex 5.32132 -15 -10.136
      vertex 6.31434 -15 -8.41604
      vertex 5.32132 -18 -10.136
    endloop
  endfacet
  facet normal 0.951057 -6.86155e-17 -0.309017
    outer loop
      vertex 5.32132 -15 -10.136
      vertex 5.32132 -18 -10.136
      vertex 4.7076 -18 -12.0248
    endloop
  endfacet
  facet normal 0.951057 -6.86155e-17 -0.309017
    outer loop
      vertex 4.7076 -15 -12.0248
      vertex 5.32132 -15 -10.136
      vertex 4.7076 -18 -12.0248
    endloop
  endfacet
  facet normal 0.994522 -2.321e-17 -0.104529
    outer loop
      vertex 4.7076 -15 -12.0248
      vertex 4.7076 -18 -12.0248
      vertex 4.5 -18 -14
    endloop
  endfacet
  facet normal 0.994522 -2.321e-17 -0.104529
    outer loop
      vertex 4.5 -15 -14
      vertex 4.7076 -15 -12.0248
      vertex 4.5 -18 -14
    endloop
  endfacet
  facet normal -1.49976e-32 -3.44509e-16 -1
    outer loop
      vertex 33 -27.5965 -37
      vertex 33 -18 -37
      vertex 36 -27.5965 -37
    endloop
  endfacet
  facet normal -1.49976e-32 -3.44509e-16 -1
    outer loop
      vertex 36 -27.5965 -37
      vertex 33 -18 -37
      vertex 36 -18 -37
    endloop
  endfacet
  facet normal -1 1.22465e-16 -2.71926e-32
    outer loop
      vertex 33 -18 -37
      vertex 33 -27.5965 -37
      vertex 33 -18 4.56685
    endloop
  endfacet
  facet normal 1 -1.22465e-16 2.71926e-32
    outer loop
      vertex 36 -18 4.56685
      vertex 36 -27.5965 -37
      vertex 36 -18 -37
    endloop
  endfacet
  facet normal -1.19326e-16 -0.97437 0.224951
    outer loop
      vertex 36 -27.5965 -37
      vertex 36 -18 4.56685
      vertex 33 -18 4.56685
    endloop
  endfacet
  facet normal -1.19326e-16 -0.97437 0.224951
    outer loop
      vertex 33 -27.5965 -37
      vertex 36 -27.5965 -37
      vertex 33 -18 4.56685
    endloop
  endfacet
  facet normal 0 1 -2.22045e-16
    outer loop
      vertex -9 -5 -40
      vertex -9 -5 -37
      vertex 36 -5 -40
    endloop
  endfacet
  facet normal 0 1 -2.22045e-16
    outer loop
      vertex 36 -5 -40
      vertex -9 -5 -37
      vertex 36 -5 -37
    endloop
  endfacet
  facet normal 0 2.22045e-16 1
    outer loop
      vertex 36 -5 -37
      vertex -9 -5 -37
      vertex -9 -15 -37
    endloop
  endfacet
  facet normal 0 2.22045e-16 1
    outer loop
      vertex 36 -15 -37
      vertex 36 -5 -37
      vertex -9 -15 -37
    endloop
  endfacet
  facet normal 0 1 -2.22045e-16
    outer loop
      vertex 36 -15 -37
      vertex -9 -15 -37
      vertex -6 -15 -37
    endloop
  endfacet
  facet normal 0 1 -2.22045e-16
    outer loop
      vertex 4.5 -15 -14
      vertex -6 -15 -37
      vertex -6 -15 4.56685
    endloop
  endfacet
  facet normal 0 1 -2.22045e-16
    outer loop
      vertex -6 -15 4.56685
      vertex -9 -15 4.56685
      vertex -9 -15 5
    endloop
  endfacet
  facet normal 0 1 -2.22045e-16
    outer loop
      vertex -6 -15 4.56685
      vertex -9 -15 5
      vertex 36 -15 5
    endloop
  endfacet
  facet normal 0 1 -2.22045e-16
    outer loop
      vertex 33 -15 4.56685
      vertex 36 -15 5
      vertex 36 -15 4.56685
    endloop
  endfacet
  facet normal 0 1 -2.22045e-16
    outer loop
      vertex -6 -15 4.56685
      vertex 36 -15 5
      vertex 33 -15 4.56685
    endloop
  endfacet
  facet normal 0 1 -2.22045e-16
    outer loop
      vertex 36 -15 -37
      vertex -6 -15 -37
      vertex 33 -15 -37
    endloop
  endfacet
  facet normal 0 1 -2.22045e-16
    outer loop
      vertex 11.0643 -15 -23.035
      vertex 33 -15 -37
      vertex 9.25 -15 -22.2272
    endloop
  endfacet
  facet normal 0 1 -2.22045e-16
    outer loop
      vertex 4.7076 -15 -15.9752
      vertex -6 -15 -37
      vertex 4.5 -15 -14
    endloop
  endfacet
  facet normal 0 1 -2.22045e-16
    outer loop
      vertex 4.7076 -15 -12.0248
      vertex 4.5 -15 -14
      vertex -6 -15 4.56685
    endloop
  endfacet
  facet normal 0 1 -2.22045e-16
    outer loop
      vertex 5.32132 -15 -17.864
      vertex -6 -15 -37
      vertex 4.7076 -15 -15.9752
    endloop
  endfacet
  facet normal 0 1 -2.22045e-16
    outer loop
      vertex 6.31434 -15 -19.584
      vertex -6 -15 -37
      vertex 5.32132 -15 -17.864
    endloop
  endfacet
  facet normal 0 1 -2.22045e-16
    outer loop
      vertex 7.64326 -15 -21.0599
      vertex -6 -15 -37
      vertex 6.31434 -15 -19.584
    endloop
  endfacet
  facet normal 0 1 -2.22045e-16
    outer loop
      vertex 9.25 -15 -22.2272
      vertex -6 -15 -37
      vertex 7.64326 -15 -21.0599
    endloop
  endfacet
  facet normal 0 1 -2.22045e-16
    outer loop
      vertex 33 -15 -37
      vertex -6 -15 -37
      vertex 9.25 -15 -22.2272
    endloop
  endfacet
  facet normal 0 1 -2.22045e-16
    outer loop
      vertex 13.007 -15 -23.448
      vertex 33 -15 -37
      vertex 11.0643 -15 -23.035
    endloop
  endfacet
  facet normal 0 1 -2.22045e-16
    outer loop
      vertex 14.993 -15 -23.448
      vertex 33 -15 -37
      vertex 13.007 -15 -23.448
    endloop
  endfacet
  facet normal 0 1 -2.22045e-16
    outer loop
      vertex 16.9357 -15 -23.035
      vertex 33 -15 -37
      vertex 14.993 -15 -23.448
    endloop
  endfacet
  facet normal 0 1 -2.22045e-16
    outer loop
      vertex 20.3567 -15 -21.0599
      vertex 33 -15 -37
      vertex 18.75 -15 -22.2272
    endloop
  endfacet
  facet normal 0 1 -2.22045e-16
    outer loop
      vertex 33 -15 -37
      vertex 16.9357 -15 -23.035
      vertex 18.75 -15 -22.2272
    endloop
  endfacet
  facet normal 0 1 -2.22045e-16
    outer loop
      vertex 14.993 -15 -4.55204
      vertex -6 -15 4.56685
      vertex 16.9357 -15 -4.96496
    endloop
  endfacet
  facet normal 0 1 -2.22045e-16
    outer loop
      vertex 23.5 -15 -14
      vertex 33 -15 4.56685
      vertex 23.2924 -15 -15.9752
    endloop
  endfacet
  facet normal 0 1 -2.22045e-16
    outer loop
      vertex 23.2924 -15 -12.0248
      vertex 33 -15 4.56685
      vertex 23.5 -15 -14
    endloop
  endfacet
  facet normal 0 1 -2.22045e-16
    outer loop
      vertex 22.6787 -15 -10.136
      vertex 33 -15 4.56685
      vertex 23.2924 -15 -12.0248
    endloop
  endfacet
  facet normal 0 1 -2.22045e-16
    outer loop
      vertex 21.6857 -15 -8.41604
      vertex 33 -15 4.56685
      vertex 22.6787 -15 -10.136
    endloop
  endfacet
  facet normal 0 1 -2.22045e-16
    outer loop
      vertex 20.3567 -15 -6.94012
      vertex 33 -15 4.56685
      vertex 21.6857 -15 -8.41604
    endloop
  endfacet
  facet normal 0 1 -2.22045e-16
    outer loop
      vertex 18.75 -15 -5.77276
      vertex 33 -15 4.56685
      vertex 20.3567 -15 -6.94012
    endloop
  endfacet
  facet normal 0 1 -2.22045e-16
    outer loop
      vertex 16.9357 -15 -4.96496
      vertex 33 -15 4.56685
      vertex 18.75 -15 -5.77276
    endloop
  endfacet
  facet normal 0 1 -2.22045e-16
    outer loop
      vertex -6 -15 4.56685
      vertex 33 -15 4.56685
      vertex 16.9357 -15 -4.96496
    endloop
  endfacet
  facet normal 0 1 -2.22045e-16
    outer loop
      vertex 13.007 -15 -4.55204
      vertex -6 -15 4.56685
      vertex 14.993 -15 -4.55204
    endloop
  endfacet
  facet normal 0 1 -2.22045e-16
    outer loop
      vertex 11.0643 -15 -4.96496
      vertex -6 -15 4.56685
      vertex 13.007 -15 -4.55204
    endloop
  endfacet
  facet normal 0 1 -2.22045e-16
    outer loop
      vertex 9.25 -15 -5.77276
      vertex -6 -15 4.56685
      vertex 11.0643 -15 -4.96496
    endloop
  endfacet
  facet normal 0 1 -2.22045e-16
    outer loop
      vertex 6.31434 -15 -8.41604
      vertex -6 -15 4.56685
      vertex 7.64326 -15 -6.94012
    endloop
  endfacet
  facet normal 0 1 -2.22045e-16
    outer loop
      vertex -6 -15 4.56685
      vertex 9.25 -15 -5.77276
      vertex 7.64326 -15 -6.94012
    endloop
  endfacet
  facet normal 0 1 -2.22045e-16
    outer loop
      vertex 5.32132 -15 -10.136
      vertex 4.7076 -15 -12.0248
      vertex -6 -15 4.56685
    endloop
  endfacet
  facet normal 0 1 -2.22045e-16
    outer loop
      vertex 5.32132 -15 -10.136
      vertex -6 -15 4.56685
      vertex 6.31434 -15 -8.41604
    endloop
  endfacet
  facet normal 0 1 -2.22045e-16
    outer loop
      vertex 23.2924 -15 -15.9752
      vertex 33 -15 4.56685
      vertex 22.6787 -15 -17.864
    endloop
  endfacet
  facet normal 0 1 -2.22045e-16
    outer loop
      vertex 33 -15 -37
      vertex 20.3567 -15 -21.0599
      vertex 21.6857 -15 -19.584
    endloop
  endfacet
  facet normal 0 1 -2.22045e-16
    outer loop
      vertex 33 -15 -37
      vertex 21.6857 -15 -19.584
      vertex 22.6787 -15 -17.864
    endloop
  endfacet
  facet normal 0 1 -2.22045e-16
    outer loop
      vertex 33 -15 -37
      vertex 22.6787 -15 -17.864
      vertex 33 -15 4.56685
    endloop
  endfacet
  facet normal 0 -9.95799e-17 -1
    outer loop
      vertex -9 -15 -37
      vertex -9 -5.40354 -37
      vertex -6 -15 -37
    endloop
  endfacet
  facet normal 0 -9.95799e-17 -1
    outer loop
      vertex -6 -15 -37
      vertex -9 -5.40354 -37
      vertex -6 -5.40354 -37
    endloop
  endfacet
  facet normal 0 0.97437 0.224951
    outer loop
      vertex -6 -15 4.56685
      vertex -6 -5.40354 -37
      vertex -9 -15 4.56685
    endloop
  endfacet
  facet normal 0 0.97437 0.224951
    outer loop
      vertex -9 -15 4.56685
      vertex -6 -5.40354 -37
      vertex -9 -5.40354 -37
    endloop
  endfacet
  facet normal 0 -1 2.22045e-16
    outer loop
      vertex -9 -35 -37
      vertex -9 -35 -40
      vertex 36 -35 -40
    endloop
  endfacet
  facet normal 0 -1 2.22045e-16
    outer loop
      vertex 36 -35 -37
      vertex -9 -35 -37
      vertex 36 -35 -40
    endloop
  endfacet
  facet normal 0 -2.22045e-16 -1
    outer loop
      vertex 28.7119 -30.5562 -40
      vertex 36 -5 -40
      vertex 36 -35 -40
    endloop
  endfacet
  facet normal 0 -2.22045e-16 -1
    outer loop
      vertex 27 -31.8 -40
      vertex 36 -35 -40
      vertex 26.4438 -31.7119 -40
    endloop
  endfacet
  facet normal 0 -2.22045e-16 -1
    outer loop
      vertex -9 -5 -40
      vertex -4.7119 -29.4438 -40
      vertex -9 -35 -40
    endloop
  endfacet
  facet normal 0 -2.22045e-16 -1
    outer loop
      vertex -3 -28.2 -40
      vertex 36 -5 -40
      vertex -2.44377 -28.2881 -40
    endloop
  endfacet
  facet normal 0 -2.22045e-16 -1
    outer loop
      vertex -4.7119 -29.4438 -40
      vertex -4.8 -30 -40
      vertex -9 -35 -40
    endloop
  endfacet
  facet normal 0 -2.22045e-16 -1
    outer loop
      vertex -2.44377 -28.2881 -40
      vertex 36 -5 -40
      vertex -1.94199 -28.5438 -40
    endloop
  endfacet
  facet normal 0 -2.22045e-16 -1
    outer loop
      vertex -4.8 -30 -40
      vertex -4.7119 -30.5562 -40
      vertex -9 -35 -40
    endloop
  endfacet
  facet normal 0 -2.22045e-16 -1
    outer loop
      vertex -1.94199 -28.5438 -40
      vertex 36 -5 -40
      vertex -1.54377 -28.942 -40
    endloop
  endfacet
  facet normal 0 -2.22045e-16 -1
    outer loop
      vertex -4.7119 -30.5562 -40
      vertex -4.45623 -31.058 -40
      vertex -9 -35 -40
    endloop
  endfacet
  facet normal 0 -2.22045e-16 -1
    outer loop
      vertex -1.54377 -28.942 -40
      vertex 36 -5 -40
      vertex -1.2881 -29.4438 -40
    endloop
  endfacet
  facet normal 0 -2.22045e-16 -1
    outer loop
      vertex -4.45623 -31.058 -40
      vertex -4.05801 -31.4562 -40
      vertex -9 -35 -40
    endloop
  endfacet
  facet normal 0 -2.22045e-16 -1
    outer loop
      vertex -1.2881 -29.4438 -40
      vertex 36 -5 -40
      vertex -1.2 -30 -40
    endloop
  endfacet
  facet normal 0 -2.22045e-16 -1
    outer loop
      vertex -9 -35 -40
      vertex -3.55623 -31.7119 -40
      vertex -3 -31.8 -40
    endloop
  endfacet
  facet normal 0 -2.22045e-16 -1
    outer loop
      vertex -9 -35 -40
      vertex -3 -31.8 -40
      vertex 36 -35 -40
    endloop
  endfacet
  facet normal 0 -2.22045e-16 -1
    outer loop
      vertex -1.2 -30 -40
      vertex 36 -5 -40
      vertex -1.2881 -30.5562 -40
    endloop
  endfacet
  facet normal 0 -2.22045e-16 -1
    outer loop
      vertex -1.54377 -31.058 -40
      vertex 36 -5 -40
      vertex -1.94199 -31.4562 -40
    endloop
  endfacet
  facet normal 0 -2.22045e-16 -1
    outer loop
      vertex -2.44377 -31.7119 -40
      vertex -1.94199 -31.4562 -40
      vertex 36 -35 -40
    endloop
  endfacet
  facet normal 0 -2.22045e-16 -1
    outer loop
      vertex -1.2881 -30.5562 -40
      vertex 36 -5 -40
      vertex -1.54377 -31.058 -40
    endloop
  endfacet
  facet normal 0 -2.22045e-16 -1
    outer loop
      vertex -2.44377 -31.7119 -40
      vertex 36 -35 -40
      vertex -3 -31.8 -40
    endloop
  endfacet
  facet normal 0 -2.22045e-16 -1
    outer loop
      vertex -9 -5 -40
      vertex 36 -5 -40
      vertex -3 -28.2 -40
    endloop
  endfacet
  facet normal 0 -2.22045e-16 -1
    outer loop
      vertex -9 -5 -40
      vertex -3 -28.2 -40
      vertex -3.55623 -28.2881 -40
    endloop
  endfacet
  facet normal 0 -2.22045e-16 -1
    outer loop
      vertex -9 -5 -40
      vertex -3.55623 -28.2881 -40
      vertex -4.05801 -28.5438 -40
    endloop
  endfacet
  facet normal 0 -2.22045e-16 -1
    outer loop
      vertex -9 -5 -40
      vertex -4.05801 -28.5438 -40
      vertex -4.45623 -28.942 -40
    endloop
  endfacet
  facet normal 0 -2.22045e-16 -1
    outer loop
      vertex -9 -5 -40
      vertex -4.45623 -28.942 -40
      vertex -4.7119 -29.4438 -40
    endloop
  endfacet
  facet normal 0 -2.22045e-16 -1
    outer loop
      vertex -1.94199 -31.4562 -40
      vertex 36 -5 -40
      vertex 25.2881 -29.4438 -40
    endloop
  endfacet
  facet normal 0 -2.22045e-16 -1
    outer loop
      vertex -1.94199 -31.4562 -40
      vertex 25.2881 -29.4438 -40
      vertex 25.2 -30 -40
    endloop
  endfacet
  facet normal 0 -2.22045e-16 -1
    outer loop
      vertex -1.94199 -31.4562 -40
      vertex 25.2 -30 -40
      vertex 25.2881 -30.5562 -40
    endloop
  endfacet
  facet normal 0 -2.22045e-16 -1
    outer loop
      vertex -1.94199 -31.4562 -40
      vertex 25.2881 -30.5562 -40
      vertex 25.5438 -31.058 -40
    endloop
  endfacet
  facet normal 0 -2.22045e-16 -1
    outer loop
      vertex -1.94199 -31.4562 -40
      vertex 25.5438 -31.058 -40
      vertex 25.942 -31.4562 -40
    endloop
  endfacet
  facet normal 0 -2.22045e-16 -1
    outer loop
      vertex -1.94199 -31.4562 -40
      vertex 25.942 -31.4562 -40
      vertex 26.4438 -31.7119 -40
    endloop
  endfacet
  facet normal 0 -2.22045e-16 -1
    outer loop
      vertex -1.94199 -31.4562 -40
      vertex 26.4438 -31.7119 -40
      vertex 36 -35 -40
    endloop
  endfacet
  facet normal 0 -2.22045e-16 -1
    outer loop
      vertex 27.5562 -31.7119 -40
      vertex 36 -35 -40
      vertex 27 -31.8 -40
    endloop
  endfacet
  facet normal 0 -2.22045e-16 -1
    outer loop
      vertex 28.058 -31.4562 -40
      vertex 36 -35 -40
      vertex 27.5562 -31.7119 -40
    endloop
  endfacet
  facet normal 0 -2.22045e-16 -1
    outer loop
      vertex 28.4562 -31.058 -40
      vertex 36 -35 -40
      vertex 28.058 -31.4562 -40
    endloop
  endfacet
  facet normal 0 -2.22045e-16 -1
    outer loop
      vertex 28.7119 -29.4438 -40
      vertex 36 -5 -40
      vertex 28.8 -30 -40
    endloop
  endfacet
  facet normal 0 -2.22045e-16 -1
    outer loop
      vertex 28.8 -30 -40
      vertex 36 -5 -40
      vertex 28.7119 -30.5562 -40
    endloop
  endfacet
  facet normal 0 -2.22045e-16 -1
    outer loop
      vertex 28.4562 -31.058 -40
      vertex 28.7119 -30.5562 -40
      vertex 36 -35 -40
    endloop
  endfacet
  facet normal 0 -2.22045e-16 -1
    outer loop
      vertex 28.4562 -28.942 -40
      vertex 36 -5 -40
      vertex 28.7119 -29.4438 -40
    endloop
  endfacet
  facet normal 0 -2.22045e-16 -1
    outer loop
      vertex 28.058 -28.5438 -40
      vertex 36 -5 -40
      vertex 28.4562 -28.942 -40
    endloop
  endfacet
  facet normal 0 -2.22045e-16 -1
    outer loop
      vertex 27.5562 -28.2881 -40
      vertex 36 -5 -40
      vertex 28.058 -28.5438 -40
    endloop
  endfacet
  facet normal 0 -2.22045e-16 -1
    outer loop
      vertex 27 -28.2 -40
      vertex 36 -5 -40
      vertex 27.5562 -28.2881 -40
    endloop
  endfacet
  facet normal 0 -2.22045e-16 -1
    outer loop
      vertex 26.4438 -28.2881 -40
      vertex 36 -5 -40
      vertex 27 -28.2 -40
    endloop
  endfacet
  facet normal 0 -2.22045e-16 -1
    outer loop
      vertex 25.942 -28.5438 -40
      vertex 36 -5 -40
      vertex 26.4438 -28.2881 -40
    endloop
  endfacet
  facet normal 0 -2.22045e-16 -1
    outer loop
      vertex 25.5438 -28.942 -40
      vertex 36 -5 -40
      vertex 25.942 -28.5438 -40
    endloop
  endfacet
  facet normal 0 -2.22045e-16 -1
    outer loop
      vertex 25.2881 -29.4438 -40
      vertex 36 -5 -40
      vertex 25.5438 -28.942 -40
    endloop
  endfacet
  facet normal 0 -2.22045e-16 -1
    outer loop
      vertex -3.55623 -31.7119 -40
      vertex -9 -35 -40
      vertex -4.05801 -31.4562 -40
    endloop
  endfacet
  facet normal 0 0.97437 0.224951
    outer loop
      vertex 36 -15 4.56685
      vertex 36 -5.40354 -37
      vertex 33 -15 4.56685
    endloop
  endfacet
  facet normal 0 0.97437 0.224951
    outer loop
      vertex 33 -15 4.56685
      vertex 36 -5.40354 -37
      vertex 33 -5.40354 -37
    endloop
  endfacet
  facet normal 0 -9.95799e-17 -1
    outer loop
      vertex 33 -15 -37
      vertex 33 -5.40354 -37
      vertex 36 -15 -37
    endloop
  endfacet
  facet normal 0 -9.95799e-17 -1
    outer loop
      vertex 36 -15 -37
      vertex 33 -5.40354 -37
      vertex 36 -5.40354 -37
    endloop
  endfacet
  facet normal 0.987688 0.156434 -6.94706e-17
    outer loop
      vertex -4.8 -30 -37
      vertex -4.7119 -30.5562 -37
      vertex -4.7119 -30.5562 -40
    endloop
  endfacet
  facet normal 0.987688 0.156434 -6.94706e-17
    outer loop
      vertex -4.8 -30 -40
      vertex -4.8 -30 -37
      vertex -4.7119 -30.5562 -40
    endloop
  endfacet
  facet normal 0.987688 -0.156434 6.94706e-17
    outer loop
      vertex -4.7119 -29.4438 -40
      vertex -4.7119 -29.4438 -37
      vertex -4.8 -30 -37
    endloop
  endfacet
  facet normal 0.987688 -0.156434 6.94706e-17
    outer loop
      vertex -4.8 -30 -40
      vertex -4.7119 -29.4438 -40
      vertex -4.8 -30 -37
    endloop
  endfacet
  facet normal 0.891006 0.453991 -2.01612e-16
    outer loop
      vertex -4.7119 -30.5562 -37
      vertex -4.45623 -31.058 -37
      vertex -4.45623 -31.058 -40
    endloop
  endfacet
  facet normal 0.891006 0.453991 -2.01612e-16
    outer loop
      vertex -4.7119 -30.5562 -40
      vertex -4.7119 -30.5562 -37
      vertex -4.45623 -31.058 -40
    endloop
  endfacet
  facet normal 0.707107 0.707107 -3.14018e-16
    outer loop
      vertex -4.45623 -31.058 -37
      vertex -4.05801 -31.4562 -37
      vertex -4.05801 -31.4562 -40
    endloop
  endfacet
  facet normal 0.707107 0.707107 -3.14018e-16
    outer loop
      vertex -4.45623 -31.058 -40
      vertex -4.45623 -31.058 -37
      vertex -4.05801 -31.4562 -40
    endloop
  endfacet
  facet normal 0.453991 0.891006 -3.95686e-16
    outer loop
      vertex -3.55623 -31.7119 -37
      vertex -3.55623 -31.7119 -40
      vertex -4.05801 -31.4562 -37
    endloop
  endfacet
  facet normal 0.453991 0.891006 -3.95686e-16
    outer loop
      vertex -4.05801 -31.4562 -37
      vertex -3.55623 -31.7119 -40
      vertex -4.05801 -31.4562 -40
    endloop
  endfacet
  facet normal 0.156434 0.987688 -4.38622e-16
    outer loop
      vertex -3 -31.8 -37
      vertex -3 -31.8 -40
      vertex -3.55623 -31.7119 -37
    endloop
  endfacet
  facet normal 0.156434 0.987688 -4.38622e-16
    outer loop
      vertex -3.55623 -31.7119 -37
      vertex -3 -31.8 -40
      vertex -3.55623 -31.7119 -40
    endloop
  endfacet
  facet normal -0.156434 0.987688 -4.38622e-16
    outer loop
      vertex -2.44377 -31.7119 -37
      vertex -2.44377 -31.7119 -40
      vertex -3 -31.8 -37
    endloop
  endfacet
  facet normal -0.156434 0.987688 -4.38622e-16
    outer loop
      vertex -3 -31.8 -37
      vertex -2.44377 -31.7119 -40
      vertex -3 -31.8 -40
    endloop
  endfacet
  facet normal -0.453991 0.891006 -3.95686e-16
    outer loop
      vertex -1.94199 -31.4562 -37
      vertex -1.94199 -31.4562 -40
      vertex -2.44377 -31.7119 -37
    endloop
  endfacet
  facet normal -0.453991 0.891006 -3.95686e-16
    outer loop
      vertex -2.44377 -31.7119 -37
      vertex -1.94199 -31.4562 -40
      vertex -2.44377 -31.7119 -40
    endloop
  endfacet
  facet normal -0.707107 0.707107 -3.14018e-16
    outer loop
      vertex -1.54377 -31.058 -37
      vertex -1.54377 -31.058 -40
      vertex -1.94199 -31.4562 -37
    endloop
  endfacet
  facet normal -0.707107 0.707107 -3.14018e-16
    outer loop
      vertex -1.94199 -31.4562 -37
      vertex -1.54377 -31.058 -40
      vertex -1.94199 -31.4562 -40
    endloop
  endfacet
  facet normal -0.891006 0.453991 -2.01612e-16
    outer loop
      vertex -1.2881 -30.5562 -37
      vertex -1.2881 -30.5562 -40
      vertex -1.54377 -31.058 -37
    endloop
  endfacet
  facet normal -0.891006 0.453991 -2.01612e-16
    outer loop
      vertex -1.54377 -31.058 -37
      vertex -1.2881 -30.5562 -40
      vertex -1.54377 -31.058 -40
    endloop
  endfacet
  facet normal -0.987688 0.156434 -6.94706e-17
    outer loop
      vertex -1.2 -30 -37
      vertex -1.2 -30 -40
      vertex -1.2881 -30.5562 -37
    endloop
  endfacet
  facet normal -0.987688 0.156434 -6.94706e-17
    outer loop
      vertex -1.2881 -30.5562 -37
      vertex -1.2 -30 -40
      vertex -1.2881 -30.5562 -40
    endloop
  endfacet
  facet normal -0.987688 -0.156434 6.94706e-17
    outer loop
      vertex -1.2 -30 -37
      vertex -1.2881 -29.4438 -37
      vertex -1.2 -30 -40
    endloop
  endfacet
  facet normal -0.987688 -0.156434 6.94706e-17
    outer loop
      vertex -1.2 -30 -40
      vertex -1.2881 -29.4438 -37
      vertex -1.2881 -29.4438 -40
    endloop
  endfacet
  facet normal -0.891006 -0.453991 2.01612e-16
    outer loop
      vertex -1.2881 -29.4438 -37
      vertex -1.54377 -28.942 -37
      vertex -1.2881 -29.4438 -40
    endloop
  endfacet
  facet normal -0.891006 -0.453991 2.01612e-16
    outer loop
      vertex -1.2881 -29.4438 -40
      vertex -1.54377 -28.942 -37
      vertex -1.54377 -28.942 -40
    endloop
  endfacet
  facet normal -0.707107 -0.707107 3.14018e-16
    outer loop
      vertex -1.54377 -28.942 -37
      vertex -1.94199 -28.5438 -37
      vertex -1.54377 -28.942 -40
    endloop
  endfacet
  facet normal -0.707107 -0.707107 3.14018e-16
    outer loop
      vertex -1.54377 -28.942 -40
      vertex -1.94199 -28.5438 -37
      vertex -1.94199 -28.5438 -40
    endloop
  endfacet
  facet normal -0.453991 -0.891006 3.95686e-16
    outer loop
      vertex -1.94199 -28.5438 -40
      vertex -1.94199 -28.5438 -37
      vertex -2.44377 -28.2881 -37
    endloop
  endfacet
  facet normal -0.453991 -0.891006 3.95686e-16
    outer loop
      vertex -2.44377 -28.2881 -40
      vertex -1.94199 -28.5438 -40
      vertex -2.44377 -28.2881 -37
    endloop
  endfacet
  facet normal -0.156434 -0.987688 4.38622e-16
    outer loop
      vertex -2.44377 -28.2881 -40
      vertex -2.44377 -28.2881 -37
      vertex -3 -28.2 -37
    endloop
  endfacet
  facet normal -0.156434 -0.987688 4.38622e-16
    outer loop
      vertex -3 -28.2 -40
      vertex -2.44377 -28.2881 -40
      vertex -3 -28.2 -37
    endloop
  endfacet
  facet normal 0.156434 -0.987688 4.38622e-16
    outer loop
      vertex -3 -28.2 -40
      vertex -3 -28.2 -37
      vertex -3.55623 -28.2881 -37
    endloop
  endfacet
  facet normal 0.156434 -0.987688 4.38622e-16
    outer loop
      vertex -3.55623 -28.2881 -40
      vertex -3 -28.2 -40
      vertex -3.55623 -28.2881 -37
    endloop
  endfacet
  facet normal 0.453991 -0.891006 3.95686e-16
    outer loop
      vertex -3.55623 -28.2881 -40
      vertex -3.55623 -28.2881 -37
      vertex -4.05801 -28.5438 -37
    endloop
  endfacet
  facet normal 0.453991 -0.891006 3.95686e-16
    outer loop
      vertex -4.05801 -28.5438 -40
      vertex -3.55623 -28.2881 -40
      vertex -4.05801 -28.5438 -37
    endloop
  endfacet
  facet normal 0.707107 -0.707107 3.14018e-16
    outer loop
      vertex -4.05801 -28.5438 -40
      vertex -4.05801 -28.5438 -37
      vertex -4.45623 -28.942 -37
    endloop
  endfacet
  facet normal 0.707107 -0.707107 3.14018e-16
    outer loop
      vertex -4.45623 -28.942 -40
      vertex -4.05801 -28.5438 -40
      vertex -4.45623 -28.942 -37
    endloop
  endfacet
  facet normal 0.891006 -0.453991 2.01612e-16
    outer loop
      vertex -4.45623 -28.942 -40
      vertex -4.45623 -28.942 -37
      vertex -4.7119 -29.4438 -37
    endloop
  endfacet
  facet normal 0.891006 -0.453991 2.01612e-16
    outer loop
      vertex -4.7119 -29.4438 -40
      vertex -4.45623 -28.942 -40
      vertex -4.7119 -29.4438 -37
    endloop
  endfacet
  facet normal 0.987688 0.156434 -6.94706e-17
    outer loop
      vertex 25.2 -30 -37
      vertex 25.2881 -30.5562 -37
      vertex 25.2881 -30.5562 -40
    endloop
  endfacet
  facet normal 0.987688 0.156434 -6.94706e-17
    outer loop
      vertex 25.2 -30 -40
      vertex 25.2 -30 -37
      vertex 25.2881 -30.5562 -40
    endloop
  endfacet
  facet normal 0.987688 -0.156434 6.94706e-17
    outer loop
      vertex 25.2881 -29.4438 -40
      vertex 25.2881 -29.4438 -37
      vertex 25.2 -30 -37
    endloop
  endfacet
  facet normal 0.987688 -0.156434 6.94706e-17
    outer loop
      vertex 25.2 -30 -40
      vertex 25.2881 -29.4438 -40
      vertex 25.2 -30 -37
    endloop
  endfacet
  facet normal 0.891006 0.453991 -2.01612e-16
    outer loop
      vertex 25.2881 -30.5562 -37
      vertex 25.5438 -31.058 -37
      vertex 25.5438 -31.058 -40
    endloop
  endfacet
  facet normal 0.891006 0.453991 -2.01612e-16
    outer loop
      vertex 25.2881 -30.5562 -40
      vertex 25.2881 -30.5562 -37
      vertex 25.5438 -31.058 -40
    endloop
  endfacet
  facet normal 0.707107 0.707107 -3.14018e-16
    outer loop
      vertex 25.5438 -31.058 -37
      vertex 25.942 -31.4562 -37
      vertex 25.942 -31.4562 -40
    endloop
  endfacet
  facet normal 0.707107 0.707107 -3.14018e-16
    outer loop
      vertex 25.5438 -31.058 -40
      vertex 25.5438 -31.058 -37
      vertex 25.942 -31.4562 -40
    endloop
  endfacet
  facet normal 0.453991 0.891006 -3.95686e-16
    outer loop
      vertex 26.4438 -31.7119 -37
      vertex 26.4438 -31.7119 -40
      vertex 25.942 -31.4562 -37
    endloop
  endfacet
  facet normal 0.453991 0.891006 -3.95686e-16
    outer loop
      vertex 25.942 -31.4562 -37
      vertex 26.4438 -31.7119 -40
      vertex 25.942 -31.4562 -40
    endloop
  endfacet
  facet normal 0.156434 0.987688 -4.38622e-16
    outer loop
      vertex 27 -31.8 -37
      vertex 27 -31.8 -40
      vertex 26.4438 -31.7119 -37
    endloop
  endfacet
  facet normal 0.156434 0.987688 -4.38622e-16
    outer loop
      vertex 26.4438 -31.7119 -37
      vertex 27 -31.8 -40
      vertex 26.4438 -31.7119 -40
    endloop
  endfacet
  facet normal -0.156434 0.987688 -4.38622e-16
    outer loop
      vertex 27.5562 -31.7119 -37
      vertex 27.5562 -31.7119 -40
      vertex 27 -31.8 -37
    endloop
  endfacet
  facet normal -0.156434 0.987688 -4.38622e-16
    outer loop
      vertex 27 -31.8 -37
      vertex 27.5562 -31.7119 -40
      vertex 27 -31.8 -40
    endloop
  endfacet
  facet normal -0.453991 0.891006 -3.95686e-16
    outer loop
      vertex 28.058 -31.4562 -37
      vertex 28.058 -31.4562 -40
      vertex 27.5562 -31.7119 -37
    endloop
  endfacet
  facet normal -0.453991 0.891006 -3.95686e-16
    outer loop
      vertex 27.5562 -31.7119 -37
      vertex 28.058 -31.4562 -40
      vertex 27.5562 -31.7119 -40
    endloop
  endfacet
  facet normal -0.707107 0.707107 -3.14018e-16
    outer loop
      vertex 28.4562 -31.058 -37
      vertex 28.4562 -31.058 -40
      vertex 28.058 -31.4562 -37
    endloop
  endfacet
  facet normal -0.707107 0.707107 -3.14018e-16
    outer loop
      vertex 28.058 -31.4562 -37
      vertex 28.4562 -31.058 -40
      vertex 28.058 -31.4562 -40
    endloop
  endfacet
  facet normal -0.891006 0.453991 -2.01612e-16
    outer loop
      vertex 28.7119 -30.5562 -37
      vertex 28.7119 -30.5562 -40
      vertex 28.4562 -31.058 -37
    endloop
  endfacet
  facet normal -0.891006 0.453991 -2.01612e-16
    outer loop
      vertex 28.4562 -31.058 -37
      vertex 28.7119 -30.5562 -40
      vertex 28.4562 -31.058 -40
    endloop
  endfacet
  facet normal -0.987688 0.156434 -6.94706e-17
    outer loop
      vertex 28.8 -30 -37
      vertex 28.8 -30 -40
      vertex 28.7119 -30.5562 -37
    endloop
  endfacet
  facet normal -0.987688 0.156434 -6.94706e-17
    outer loop
      vertex 28.7119 -30.5562 -37
      vertex 28.8 -30 -40
      vertex 28.7119 -30.5562 -40
    endloop
  endfacet
  facet normal -0.987688 -0.156434 6.94706e-17
    outer loop
      vertex 28.8 -30 -37
      vertex 28.7119 -29.4438 -37
      vertex 28.8 -30 -40
    endloop
  endfacet
  facet normal -0.987688 -0.156434 6.94706e-17
    outer loop
      vertex 28.8 -30 -40
      vertex 28.7119 -29.4438 -37
      vertex 28.7119 -29.4438 -40
    endloop
  endfacet
  facet normal -0.891006 -0.453991 2.01612e-16
    outer loop
      vertex 28.7119 -29.4438 -37
      vertex 28.4562 -28.942 -37
      vertex 28.7119 -29.4438 -40
    endloop
  endfacet
  facet normal -0.891006 -0.453991 2.01612e-16
    outer loop
      vertex 28.7119 -29.4438 -40
      vertex 28.4562 -28.942 -37
      vertex 28.4562 -28.942 -40
    endloop
  endfacet
  facet normal -0.707107 -0.707107 3.14018e-16
    outer loop
      vertex 28.4562 -28.942 -37
      vertex 28.058 -28.5438 -37
      vertex 28.4562 -28.942 -40
    endloop
  endfacet
  facet normal -0.707107 -0.707107 3.14018e-16
    outer loop
      vertex 28.4562 -28.942 -40
      vertex 28.058 -28.5438 -37
      vertex 28.058 -28.5438 -40
    endloop
  endfacet
  facet normal -0.453991 -0.891006 3.95686e-16
    outer loop
      vertex 28.058 -28.5438 -40
      vertex 28.058 -28.5438 -37
      vertex 27.5562 -28.2881 -37
    endloop
  endfacet
  facet normal -0.453991 -0.891006 3.95686e-16
    outer loop
      vertex 27.5562 -28.2881 -40
      vertex 28.058 -28.5438 -40
      vertex 27.5562 -28.2881 -37
    endloop
  endfacet
  facet normal -0.156434 -0.987688 4.38622e-16
    outer loop
      vertex 27.5562 -28.2881 -40
      vertex 27.5562 -28.2881 -37
      vertex 27 -28.2 -37
    endloop
  endfacet
  facet normal -0.156434 -0.987688 4.38622e-16
    outer loop
      vertex 27 -28.2 -40
      vertex 27.5562 -28.2881 -40
      vertex 27 -28.2 -37
    endloop
  endfacet
  facet normal 0.156434 -0.987688 4.38622e-16
    outer loop
      vertex 27 -28.2 -40
      vertex 27 -28.2 -37
      vertex 26.4438 -28.2881 -37
    endloop
  endfacet
  facet normal 0.156434 -0.987688 4.38622e-16
    outer loop
      vertex 26.4438 -28.2881 -40
      vertex 27 -28.2 -40
      vertex 26.4438 -28.2881 -37
    endloop
  endfacet
  facet normal 0.453991 -0.891006 3.95686e-16
    outer loop
      vertex 26.4438 -28.2881 -40
      vertex 26.4438 -28.2881 -37
      vertex 25.942 -28.5438 -37
    endloop
  endfacet
  facet normal 0.453991 -0.891006 3.95686e-16
    outer loop
      vertex 25.942 -28.5438 -40
      vertex 26.4438 -28.2881 -40
      vertex 25.942 -28.5438 -37
    endloop
  endfacet
  facet normal 0.707107 -0.707107 3.14018e-16
    outer loop
      vertex 25.942 -28.5438 -40
      vertex 25.942 -28.5438 -37
      vertex 25.5438 -28.942 -37
    endloop
  endfacet
  facet normal 0.707107 -0.707107 3.14018e-16
    outer loop
      vertex 25.5438 -28.942 -40
      vertex 25.942 -28.5438 -40
      vertex 25.5438 -28.942 -37
    endloop
  endfacet
  facet normal 0.891006 -0.453991 2.01612e-16
    outer loop
      vertex 25.5438 -28.942 -40
      vertex 25.5438 -28.942 -37
      vertex 25.2881 -29.4438 -37
    endloop
  endfacet
  facet normal 0.891006 -0.453991 2.01612e-16
    outer loop
      vertex 25.2881 -29.4438 -40
      vertex 25.5438 -28.942 -40
      vertex 25.2881 -29.4438 -37
    endloop
  endfacet
  facet normal -1 0 0
    outer loop
      vertex 33 -5.40354 -37
      vertex 33 -15 -37
      vertex 33 -15 4.56685
    endloop
  endfacet
  facet normal 1 0 0
    outer loop
      vertex -6 -15 4.56685
      vertex -6 -15 -37
      vertex -6 -5.40354 -37
    endloop
  endfacet
endsolid OpenSCAD_Model
