solid OpenSCAD_Model
  facet normal -1 0 0
    outer loop
      vertex -23 15 0
      vertex -23 15 1
      vertex -23 27 0
    endloop
  endfacet
  facet normal -1 0 0
    outer loop
      vertex -23 27 0
      vertex -23 15 1
      vertex -23 27 1
    endloop
  endfacet
  facet normal -0.991445 -0.130527 0
    outer loop
      vertex -23 15 0
      vertex -22.8978 14.2235 0
      vertex -23 15 1
    endloop
  endfacet
  facet normal -0.991445 -0.130527 0
    outer loop
      vertex -23 15 1
      vertex -22.8978 14.2235 0
      vertex -22.8978 14.2235 1
    endloop
  endfacet
  facet normal 0 0 -1
    outer loop
      vertex -23 15 0
      vertex -23 27 0
      vertex -22.8978 14.2235 0
    endloop
  endfacet
  facet normal 0 0 -1
    outer loop
      vertex -22.8978 14.2235 0
      vertex -23 27 0
      vertex -22.8978 27.7765 0
    endloop
  endfacet
  facet normal 0 0 -1
    outer loop
      vertex -22.8978 14.2235 0
      vertex -22.8978 27.7765 0
      vertex -22.5981 28.5 0
    endloop
  endfacet
  facet normal 0 0 -1
    outer loop
      vertex -22.8978 14.2235 0
      vertex -22.5981 28.5 0
      vertex -22.1213 29.1213 0
    endloop
  endfacet
  facet normal 0 0 -1
    outer loop
      vertex -22.8978 14.2235 0
      vertex -22.1213 29.1213 0
      vertex -21.5 29.5981 0
    endloop
  endfacet
  facet normal 0 0 -1
    outer loop
      vertex -22.8978 14.2235 0
      vertex -21.5 29.5981 0
      vertex -20.7765 29.8978 0
    endloop
  endfacet
  facet normal 0 0 -1
    outer loop
      vertex -22.8978 14.2235 0
      vertex -20.7765 29.8978 0
      vertex -20 30 0
    endloop
  endfacet
  facet normal 0 0 -1
    outer loop
      vertex -22.8978 14.2235 0
      vertex -20 30 0
      vertex -2 30 0
    endloop
  endfacet
  facet normal 0 0 -1
    outer loop
      vertex -22.8978 14.2235 0
      vertex -2 30 0
      vertex -1.22354 29.8978 0
    endloop
  endfacet
  facet normal 0 0 -1
    outer loop
      vertex -22.8978 14.2235 0
      vertex -1.22354 29.8978 0
      vertex -0.5 29.5981 0
    endloop
  endfacet
  facet normal 0 0 -1
    outer loop
      vertex -22.8978 14.2235 0
      vertex -0.5 29.5981 0
      vertex 0.12132 29.1213 0
    endloop
  endfacet
  facet normal 0 0 -1
    outer loop
      vertex -22.8978 14.2235 0
      vertex 0.12132 29.1213 0
      vertex 0.598076 28.5 0
    endloop
  endfacet
  facet normal 0 0 -1
    outer loop
      vertex -22.8978 14.2235 0
      vertex 0.598076 28.5 0
      vertex 0.897777 27.7765 0
    endloop
  endfacet
  facet normal 0 0 -1
    outer loop
      vertex -22.8978 14.2235 0
      vertex 0.897777 27.7765 0
      vertex 1 27 0
    endloop
  endfacet
  facet normal 0 0 -1
    outer loop
      vertex -22.8978 14.2235 0
      vertex 1 27 0
      vertex 1 15 0
    endloop
  endfacet
  facet normal 0 0 -1
    outer loop
      vertex -20.7765 12.1022 0
      vertex -22.8978 14.2235 0
      vertex -20 12 0
    endloop
  endfacet
  facet normal 0 0 -1
    outer loop
      vertex -22.8978 14.2235 0
      vertex 0.897777 14.2235 0
      vertex 0.598076 13.5 0
    endloop
  endfacet
  facet normal 0 0 -1
    outer loop
      vertex -22.8978 14.2235 0
      vertex 0.598076 13.5 0
      vertex 0.12132 12.8787 0
    endloop
  endfacet
  facet normal 0 0 -1
    outer loop
      vertex -22.8978 14.2235 0
      vertex 0.12132 12.8787 0
      vertex -0.5 12.4019 0
    endloop
  endfacet
  facet normal 0 0 -1
    outer loop
      vertex -22.8978 14.2235 0
      vertex -0.5 12.4019 0
      vertex -1.22354 12.1022 0
    endloop
  endfacet
  facet normal 0 0 -1
    outer loop
      vertex -22.8978 14.2235 0
      vertex -1.22354 12.1022 0
      vertex -2 12 0
    endloop
  endfacet
  facet normal 0 0 -1
    outer loop
      vertex -22.8978 14.2235 0
      vertex -2 12 0
      vertex -20 12 0
    endloop
  endfacet
  facet normal 0 0 -1
    outer loop
      vertex -22.8978 14.2235 0
      vertex -20.7765 12.1022 0
      vertex -21.5 12.4019 0
    endloop
  endfacet
  facet normal 0 0 -1
    outer loop
      vertex -22.8978 14.2235 0
      vertex -21.5 12.4019 0
      vertex -22.1213 12.8787 0
    endloop
  endfacet
  facet normal 0 0 -1
    outer loop
      vertex -22.8978 14.2235 0
      vertex -22.1213 12.8787 0
      vertex -22.5981 13.5 0
    endloop
  endfacet
  facet normal 0 0 -1
    outer loop
      vertex 0.897777 14.2235 0
      vertex -22.8978 14.2235 0
      vertex 1 15 0
    endloop
  endfacet
  facet normal 0 0 1
    outer loop
      vertex -22.8978 14.2235 1
      vertex -22.5981 13.5 1
      vertex -22.1213 12.8787 1
    endloop
  endfacet
  facet normal 0 0 1
    outer loop
      vertex -20.7765 12.1022 1
      vertex -22.8978 14.2235 1
      vertex -21.5 12.4019 1
    endloop
  endfacet
  facet normal 0 0 1
    outer loop
      vertex -21.5 12.4019 1
      vertex -22.8978 14.2235 1
      vertex -22.1213 12.8787 1
    endloop
  endfacet
  facet normal 0 0 1
    outer loop
      vertex -20 12 1
      vertex -22.8978 14.2235 1
      vertex -20.7765 12.1022 1
    endloop
  endfacet
  facet normal 0 0 1
    outer loop
      vertex -2 12 1
      vertex -22.8978 14.2235 1
      vertex -20 12 1
    endloop
  endfacet
  facet normal 0 0 1
    outer loop
      vertex -1.22354 12.1022 1
      vertex -22.8978 14.2235 1
      vertex -2 12 1
    endloop
  endfacet
  facet normal 0 0 1
    outer loop
      vertex -0.5 12.4019 1
      vertex -22.8978 14.2235 1
      vertex -1.22354 12.1022 1
    endloop
  endfacet
  facet normal 0 0 1
    outer loop
      vertex 0.12132 12.8787 1
      vertex -22.8978 14.2235 1
      vertex -0.5 12.4019 1
    endloop
  endfacet
  facet normal 0 0 1
    outer loop
      vertex 0.598076 13.5 1
      vertex -22.8978 14.2235 1
      vertex 0.12132 12.8787 1
    endloop
  endfacet
  facet normal 0 0 1
    outer loop
      vertex 0.897777 14.2235 1
      vertex -22.8978 14.2235 1
      vertex 0.598076 13.5 1
    endloop
  endfacet
  facet normal 0 0 1
    outer loop
      vertex 1 15 1
      vertex -22.8978 14.2235 1
      vertex 0.897777 14.2235 1
    endloop
  endfacet
  facet normal 0 0 1
    outer loop
      vertex -3 16 1
      vertex -22.8978 14.2235 1
      vertex 1 15 1
    endloop
  endfacet
  facet normal 0 0 1
    outer loop
      vertex 1 27 1
      vertex -3 16 1
      vertex 1 15 1
    endloop
  endfacet
  facet normal 0 0 1
    outer loop
      vertex -19 16 1
      vertex -22.8978 14.2235 1
      vertex -3 16 1
    endloop
  endfacet
  facet normal 0 0 1
    outer loop
      vertex -19 16 1
      vertex -19 30 1
      vertex -22.8978 14.2235 1
    endloop
  endfacet
  facet normal 0 0 1
    outer loop
      vertex -20 30 1
      vertex -22.8978 14.2235 1
      vertex -19 30 1
    endloop
  endfacet
  facet normal 0 0 1
    outer loop
      vertex -20.7765 29.8978 1
      vertex -22.8978 14.2235 1
      vertex -20 30 1
    endloop
  endfacet
  facet normal 0 0 1
    outer loop
      vertex -21.5 29.5981 1
      vertex -22.8978 14.2235 1
      vertex -20.7765 29.8978 1
    endloop
  endfacet
  facet normal 0 0 1
    outer loop
      vertex -22.1213 29.1213 1
      vertex -22.8978 14.2235 1
      vertex -21.5 29.5981 1
    endloop
  endfacet
  facet normal 0 0 1
    outer loop
      vertex -22.5981 28.5 1
      vertex -22.8978 14.2235 1
      vertex -22.1213 29.1213 1
    endloop
  endfacet
  facet normal 0 0 1
    outer loop
      vertex -22.8978 27.7765 1
      vertex -22.8978 14.2235 1
      vertex -22.5981 28.5 1
    endloop
  endfacet
  facet normal 0 0 1
    outer loop
      vertex -23 27 1
      vertex -22.8978 14.2235 1
      vertex -22.8978 27.7765 1
    endloop
  endfacet
  facet normal 0 0 1
    outer loop
      vertex -23 15 1
      vertex -22.8978 14.2235 1
      vertex -23 27 1
    endloop
  endfacet
  facet normal 0 0 1
    outer loop
      vertex -3 30 1
      vertex -1.22354 29.8978 1
      vertex -2 30 1
    endloop
  endfacet
  facet normal 0 0 1
    outer loop
      vertex -3 30 1
      vertex -0.5 29.5981 1
      vertex -1.22354 29.8978 1
    endloop
  endfacet
  facet normal 0 0 1
    outer loop
      vertex -3 30 1
      vertex 0.12132 29.1213 1
      vertex -0.5 29.5981 1
    endloop
  endfacet
  facet normal 0 0 1
    outer loop
      vertex -3 30 1
      vertex 0.598076 28.5 1
      vertex 0.12132 29.1213 1
    endloop
  endfacet
  facet normal 0 0 1
    outer loop
      vertex -3 30 1
      vertex 0.897777 27.7765 1
      vertex 0.598076 28.5 1
    endloop
  endfacet
  facet normal 0 0 1
    outer loop
      vertex -3 30 1
      vertex 1 27 1
      vertex 0.897777 27.7765 1
    endloop
  endfacet
  facet normal 0 0 1
    outer loop
      vertex -3 30 1
      vertex -3 16 1
      vertex 1 27 1
    endloop
  endfacet
  facet normal -0.92388 -0.382683 0
    outer loop
      vertex -22.8978 14.2235 0
      vertex -22.5981 13.5 0
      vertex -22.8978 14.2235 1
    endloop
  endfacet
  facet normal -0.92388 -0.382683 0
    outer loop
      vertex -22.8978 14.2235 1
      vertex -22.5981 13.5 0
      vertex -22.5981 13.5 1
    endloop
  endfacet
  facet normal -0.793353 -0.608762 0
    outer loop
      vertex -22.5981 13.5 0
      vertex -22.1213 12.8787 0
      vertex -22.5981 13.5 1
    endloop
  endfacet
  facet normal -0.793353 -0.608762 0
    outer loop
      vertex -22.5981 13.5 1
      vertex -22.1213 12.8787 0
      vertex -22.1213 12.8787 1
    endloop
  endfacet
  facet normal -0.608762 -0.793353 0
    outer loop
      vertex -22.1213 12.8787 1
      vertex -22.1213 12.8787 0
      vertex -21.5 12.4019 0
    endloop
  endfacet
  facet normal -0.608762 -0.793353 0
    outer loop
      vertex -21.5 12.4019 1
      vertex -22.1213 12.8787 1
      vertex -21.5 12.4019 0
    endloop
  endfacet
  facet normal -0.382683 -0.92388 0
    outer loop
      vertex -21.5 12.4019 1
      vertex -21.5 12.4019 0
      vertex -20.7765 12.1022 0
    endloop
  endfacet
  facet normal -0.382683 -0.92388 0
    outer loop
      vertex -20.7765 12.1022 1
      vertex -21.5 12.4019 1
      vertex -20.7765 12.1022 0
    endloop
  endfacet
  facet normal -0.130527 -0.991445 0
    outer loop
      vertex -20.7765 12.1022 1
      vertex -20.7765 12.1022 0
      vertex -20 12 0
    endloop
  endfacet
  facet normal -0.130527 -0.991445 0
    outer loop
      vertex -20 12 1
      vertex -20.7765 12.1022 1
      vertex -20 12 0
    endloop
  endfacet
  facet normal 0 -1 0
    outer loop
      vertex -20 12 1
      vertex -20 12 0
      vertex -2 12 0
    endloop
  endfacet
  facet normal 0 -1 0
    outer loop
      vertex -2 12 1
      vertex -20 12 1
      vertex -2 12 0
    endloop
  endfacet
  facet normal 0.130527 -0.991445 0
    outer loop
      vertex -2 12 1
      vertex -2 12 0
      vertex -1.22354 12.1022 0
    endloop
  endfacet
  facet normal 0.130527 -0.991445 0
    outer loop
      vertex -1.22354 12.1022 1
      vertex -2 12 1
      vertex -1.22354 12.1022 0
    endloop
  endfacet
  facet normal 0.382683 -0.92388 0
    outer loop
      vertex -1.22354 12.1022 1
      vertex -1.22354 12.1022 0
      vertex -0.5 12.4019 0
    endloop
  endfacet
  facet normal 0.382683 -0.92388 0
    outer loop
      vertex -0.5 12.4019 1
      vertex -1.22354 12.1022 1
      vertex -0.5 12.4019 0
    endloop
  endfacet
  facet normal 0.608762 -0.793353 0
    outer loop
      vertex -0.5 12.4019 1
      vertex -0.5 12.4019 0
      vertex 0.12132 12.8787 0
    endloop
  endfacet
  facet normal 0.608762 -0.793353 0
    outer loop
      vertex 0.12132 12.8787 1
      vertex -0.5 12.4019 1
      vertex 0.12132 12.8787 0
    endloop
  endfacet
  facet normal 0.793353 -0.608762 0
    outer loop
      vertex 0.12132 12.8787 1
      vertex 0.12132 12.8787 0
      vertex 0.598076 13.5 0
    endloop
  endfacet
  facet normal 0.793353 -0.608762 0
    outer loop
      vertex 0.598076 13.5 1
      vertex 0.12132 12.8787 1
      vertex 0.598076 13.5 0
    endloop
  endfacet
  facet normal 0.92388 -0.382683 0
    outer loop
      vertex 0.598076 13.5 1
      vertex 0.598076 13.5 0
      vertex 0.897777 14.2235 0
    endloop
  endfacet
  facet normal 0.92388 -0.382683 0
    outer loop
      vertex 0.897777 14.2235 1
      vertex 0.598076 13.5 1
      vertex 0.897777 14.2235 0
    endloop
  endfacet
  facet normal 0.991445 -0.130527 0
    outer loop
      vertex 0.897777 14.2235 1
      vertex 0.897777 14.2235 0
      vertex 1 15 0
    endloop
  endfacet
  facet normal 0.991445 -0.130527 0
    outer loop
      vertex 1 15 1
      vertex 0.897777 14.2235 1
      vertex 1 15 0
    endloop
  endfacet
  facet normal 1 0 0
    outer loop
      vertex 1 15 1
      vertex 1 15 0
      vertex 1 27 0
    endloop
  endfacet
  facet normal 1 0 0
    outer loop
      vertex 1 27 1
      vertex 1 15 1
      vertex 1 27 0
    endloop
  endfacet
  facet normal 0.991445 0.130527 0
    outer loop
      vertex 1 27 0
      vertex 0.897777 27.7765 0
      vertex 0.897777 27.7765 1
    endloop
  endfacet
  facet normal 0.991445 0.130527 0
    outer loop
      vertex 1 27 1
      vertex 1 27 0
      vertex 0.897777 27.7765 1
    endloop
  endfacet
  facet normal 0.92388 0.382683 0
    outer loop
      vertex 0.897777 27.7765 0
      vertex 0.598076 28.5 0
      vertex 0.598076 28.5 1
    endloop
  endfacet
  facet normal 0.92388 0.382683 0
    outer loop
      vertex 0.897777 27.7765 1
      vertex 0.897777 27.7765 0
      vertex 0.598076 28.5 1
    endloop
  endfacet
  facet normal 0.793353 0.608762 0
    outer loop
      vertex 0.598076 28.5 0
      vertex 0.12132 29.1213 0
      vertex 0.12132 29.1213 1
    endloop
  endfacet
  facet normal 0.793353 0.608762 0
    outer loop
      vertex 0.598076 28.5 1
      vertex 0.598076 28.5 0
      vertex 0.12132 29.1213 1
    endloop
  endfacet
  facet normal 0.608762 0.793353 0
    outer loop
      vertex -0.5 29.5981 0
      vertex -0.5 29.5981 1
      vertex 0.12132 29.1213 0
    endloop
  endfacet
  facet normal 0.608762 0.793353 0
    outer loop
      vertex 0.12132 29.1213 0
      vertex -0.5 29.5981 1
      vertex 0.12132 29.1213 1
    endloop
  endfacet
  facet normal 0.382683 0.92388 0
    outer loop
      vertex -1.22354 29.8978 0
      vertex -1.22354 29.8978 1
      vertex -0.5 29.5981 0
    endloop
  endfacet
  facet normal 0.382683 0.92388 0
    outer loop
      vertex -0.5 29.5981 0
      vertex -1.22354 29.8978 1
      vertex -0.5 29.5981 1
    endloop
  endfacet
  facet normal 0.130527 0.991445 0
    outer loop
      vertex -2 30 0
      vertex -2 30 1
      vertex -1.22354 29.8978 0
    endloop
  endfacet
  facet normal 0.130527 0.991445 0
    outer loop
      vertex -1.22354 29.8978 0
      vertex -2 30 1
      vertex -1.22354 29.8978 1
    endloop
  endfacet
  facet normal 0 1 0
    outer loop
      vertex -20 30 0
      vertex -20 30 1
      vertex -2 30 0
    endloop
  endfacet
  facet normal 0 1 0
    outer loop
      vertex -2 30 0
      vertex -20 30 1
      vertex -19 30 1
    endloop
  endfacet
  facet normal 0 1 0
    outer loop
      vertex -2 30 0
      vertex -19 30 1
      vertex -19 30 1.01
    endloop
  endfacet
  facet normal 0 1 0
    outer loop
      vertex -3 30 1
      vertex -19 30 1.01
      vertex -3 30 1.01
    endloop
  endfacet
  facet normal 0 1 0
    outer loop
      vertex -2 30 0
      vertex -19 30 1.01
      vertex -3 30 1
    endloop
  endfacet
  facet normal 0 1 0
    outer loop
      vertex -2 30 1
      vertex -2 30 0
      vertex -3 30 1
    endloop
  endfacet
  facet normal -0.130527 0.991445 0
    outer loop
      vertex -20.7765 29.8978 0
      vertex -20.7765 29.8978 1
      vertex -20 30 0
    endloop
  endfacet
  facet normal -0.130527 0.991445 0
    outer loop
      vertex -20 30 0
      vertex -20.7765 29.8978 1
      vertex -20 30 1
    endloop
  endfacet
  facet normal -0.382683 0.92388 0
    outer loop
      vertex -21.5 29.5981 0
      vertex -21.5 29.5981 1
      vertex -20.7765 29.8978 0
    endloop
  endfacet
  facet normal -0.382683 0.92388 0
    outer loop
      vertex -20.7765 29.8978 0
      vertex -21.5 29.5981 1
      vertex -20.7765 29.8978 1
    endloop
  endfacet
  facet normal -0.608762 0.793353 0
    outer loop
      vertex -22.1213 29.1213 0
      vertex -22.1213 29.1213 1
      vertex -21.5 29.5981 0
    endloop
  endfacet
  facet normal -0.608762 0.793353 0
    outer loop
      vertex -21.5 29.5981 0
      vertex -22.1213 29.1213 1
      vertex -21.5 29.5981 1
    endloop
  endfacet
  facet normal -0.793353 0.608762 0
    outer loop
      vertex -22.5981 28.5 0
      vertex -22.5981 28.5 1
      vertex -22.1213 29.1213 0
    endloop
  endfacet
  facet normal -0.793353 0.608762 0
    outer loop
      vertex -22.1213 29.1213 0
      vertex -22.5981 28.5 1
      vertex -22.1213 29.1213 1
    endloop
  endfacet
  facet normal -0.92388 0.382683 0
    outer loop
      vertex -22.8978 27.7765 0
      vertex -22.8978 27.7765 1
      vertex -22.5981 28.5 0
    endloop
  endfacet
  facet normal -0.92388 0.382683 0
    outer loop
      vertex -22.5981 28.5 0
      vertex -22.8978 27.7765 1
      vertex -22.5981 28.5 1
    endloop
  endfacet
  facet normal -0.991445 0.130527 0
    outer loop
      vertex -23 27 0
      vertex -23 27 1
      vertex -22.8978 27.7765 0
    endloop
  endfacet
  facet normal -0.991445 0.130527 0
    outer loop
      vertex -22.8978 27.7765 0
      vertex -23 27 1
      vertex -22.8978 27.7765 1
    endloop
  endfacet
  facet normal -1 0 0
    outer loop
      vertex -19 30 1.01
      vertex -19 30 1
      vertex -19 16 1.01
    endloop
  endfacet
  facet normal -1 0 0
    outer loop
      vertex -19 16 1.01
      vertex -19 30 1
      vertex -19 16 1
    endloop
  endfacet
  facet normal 0 -1 0
    outer loop
      vertex -3 16 1
      vertex -3 16 1.01
      vertex -19 16 1.01
    endloop
  endfacet
  facet normal 0 -1 0
    outer loop
      vertex -19 16 1
      vertex -3 16 1
      vertex -19 16 1.01
    endloop
  endfacet
  facet normal 1 0 0
    outer loop
      vertex -3 30 1
      vertex -3 30 1.01
      vertex -3 16 1.01
    endloop
  endfacet
  facet normal 1 0 0
    outer loop
      vertex -3 16 1
      vertex -3 30 1
      vertex -3 16 1.01
    endloop
  endfacet
  facet normal 0 0 1
    outer loop
      vertex -7.45263 22.05 1.01
      vertex -3 30 1.01
      vertex -19 30 1.01
    endloop
  endfacet
  facet normal 0 0 1
    outer loop
      vertex -15.65 22.4526 1.01
      vertex -3 16 1.01
      vertex -19 30 1.01
    endloop
  endfacet
  facet normal 0 0 1
    outer loop
      vertex -19 16 1.01
      vertex -17.3 21.5 1.01
      vertex -19 30 1.01
    endloop
  endfacet
  facet normal 0 0 1
    outer loop
      vertex -17.3 21.5 1.01
      vertex -17.1526 22.05 1.01
      vertex -19 30 1.01
    endloop
  endfacet
  facet normal 0 0 1
    outer loop
      vertex -17.1526 22.05 1.01
      vertex -16.75 22.4526 1.01
      vertex -19 30 1.01
    endloop
  endfacet
  facet normal 0 0 1
    outer loop
      vertex -16.75 22.4526 1.01
      vertex -16.2 22.6 1.01
      vertex -19 30 1.01
    endloop
  endfacet
  facet normal 0 0 1
    outer loop
      vertex -16.2 22.6 1.01
      vertex -15.65 22.4526 1.01
      vertex -19 30 1.01
    endloop
  endfacet
  facet normal 0 0 1
    outer loop
      vertex -15.2474 22.05 1.01
      vertex -15.1 21.5 1.01
      vertex -3 16 1.01
    endloop
  endfacet
  facet normal 0 0 1
    outer loop
      vertex -15.1 21.5 1.01
      vertex -15.2474 20.95 1.01
      vertex -3 16 1.01
    endloop
  endfacet
  facet normal 0 0 1
    outer loop
      vertex -15.2474 20.95 1.01
      vertex -15.65 20.5474 1.01
      vertex -3 16 1.01
    endloop
  endfacet
  facet normal 0 0 1
    outer loop
      vertex -7.45263 22.05 1.01
      vertex -7.05 22.4526 1.01
      vertex -3 30 1.01
    endloop
  endfacet
  facet normal 0 0 1
    outer loop
      vertex -19 16 1.01
      vertex -3 16 1.01
      vertex -15.65 20.5474 1.01
    endloop
  endfacet
  facet normal 0 0 1
    outer loop
      vertex -19 16 1.01
      vertex -15.65 20.5474 1.01
      vertex -16.2 20.4 1.01
    endloop
  endfacet
  facet normal 0 0 1
    outer loop
      vertex -19 16 1.01
      vertex -16.2 20.4 1.01
      vertex -16.75 20.5474 1.01
    endloop
  endfacet
  facet normal 0 0 1
    outer loop
      vertex -19 16 1.01
      vertex -17.1526 20.95 1.01
      vertex -17.3 21.5 1.01
    endloop
  endfacet
  facet normal 0 0 1
    outer loop
      vertex -19 16 1.01
      vertex -16.75 20.5474 1.01
      vertex -17.1526 20.95 1.01
    endloop
  endfacet
  facet normal 0 0 1
    outer loop
      vertex -7.45263 20.95 1.01
      vertex -7.6 21.5 1.01
      vertex -19 30 1.01
    endloop
  endfacet
  facet normal 0 0 1
    outer loop
      vertex -7.6 21.5 1.01
      vertex -7.45263 22.05 1.01
      vertex -19 30 1.01
    endloop
  endfacet
  facet normal 0 0 1
    outer loop
      vertex -5.4 21.5 1.01
      vertex -5.54737 20.95 1.01
      vertex -3 16 1.01
    endloop
  endfacet
  facet normal 0 0 1
    outer loop
      vertex -6.5 22.6 1.01
      vertex -3 30 1.01
      vertex -7.05 22.4526 1.01
    endloop
  endfacet
  facet normal 0 0 1
    outer loop
      vertex -6.5 20.4 1.01
      vertex -7.05 20.5474 1.01
      vertex -3 16 1.01
    endloop
  endfacet
  facet normal 0 0 1
    outer loop
      vertex -5.95 22.4526 1.01
      vertex -3 30 1.01
      vertex -6.5 22.6 1.01
    endloop
  endfacet
  facet normal 0 0 1
    outer loop
      vertex -5.54737 22.05 1.01
      vertex -3 30 1.01
      vertex -5.95 22.4526 1.01
    endloop
  endfacet
  facet normal 0 0 1
    outer loop
      vertex -3 16 1.01
      vertex -3 30 1.01
      vertex -5.54737 22.05 1.01
    endloop
  endfacet
  facet normal 0 0 1
    outer loop
      vertex -3 16 1.01
      vertex -5.54737 22.05 1.01
      vertex -5.4 21.5 1.01
    endloop
  endfacet
  facet normal 0 0 1
    outer loop
      vertex -3 16 1.01
      vertex -5.95 20.5474 1.01
      vertex -6.5 20.4 1.01
    endloop
  endfacet
  facet normal 0 0 1
    outer loop
      vertex -3 16 1.01
      vertex -7.05 20.5474 1.01
      vertex -19 30 1.01
    endloop
  endfacet
  facet normal 0 0 1
    outer loop
      vertex -7.05 20.5474 1.01
      vertex -7.45263 20.95 1.01
      vertex -19 30 1.01
    endloop
  endfacet
  facet normal 0 0 1
    outer loop
      vertex -15.65 22.4526 1.01
      vertex -15.2474 22.05 1.01
      vertex -3 16 1.01
    endloop
  endfacet
  facet normal 0 0 1
    outer loop
      vertex -5.54737 20.95 1.01
      vertex -5.95 20.5474 1.01
      vertex -3 16 1.01
    endloop
  endfacet
  facet normal -0.965926 0.258819 0
    outer loop
      vertex -17.3 21.5 1.01
      vertex -17.3 21.5 3
      vertex -17.1526 22.05 1.01
    endloop
  endfacet
  facet normal -0.965926 0.258819 0
    outer loop
      vertex -17.1526 22.05 1.01
      vertex -17.3 21.5 3
      vertex -17.1526 22.05 3
    endloop
  endfacet
  facet normal -0.965926 -0.258819 0
    outer loop
      vertex -17.3 21.5 1.01
      vertex -17.1526 20.95 1.01
      vertex -17.3 21.5 3
    endloop
  endfacet
  facet normal -0.965926 -0.258819 0
    outer loop
      vertex -17.3 21.5 3
      vertex -17.1526 20.95 1.01
      vertex -17.1526 20.95 3
    endloop
  endfacet
  facet normal -0.707107 -0.707107 0
    outer loop
      vertex -17.1526 20.95 3
      vertex -17.1526 20.95 1.01
      vertex -16.75 20.5474 1.01
    endloop
  endfacet
  facet normal -0.707107 -0.707107 0
    outer loop
      vertex -16.75 20.5474 3
      vertex -17.1526 20.95 3
      vertex -16.75 20.5474 1.01
    endloop
  endfacet
  facet normal -0.258819 -0.965926 0
    outer loop
      vertex -16.75 20.5474 3
      vertex -16.75 20.5474 1.01
      vertex -16.2 20.4 1.01
    endloop
  endfacet
  facet normal -0.258819 -0.965926 0
    outer loop
      vertex -16.2 20.4 3
      vertex -16.75 20.5474 3
      vertex -16.2 20.4 1.01
    endloop
  endfacet
  facet normal 0.258819 -0.965926 0
    outer loop
      vertex -16.2 20.4 3
      vertex -16.2 20.4 1.01
      vertex -15.65 20.5474 1.01
    endloop
  endfacet
  facet normal 0.258819 -0.965926 0
    outer loop
      vertex -15.65 20.5474 3
      vertex -16.2 20.4 3
      vertex -15.65 20.5474 1.01
    endloop
  endfacet
  facet normal 0.707107 -0.707107 0
    outer loop
      vertex -15.65 20.5474 3
      vertex -15.65 20.5474 1.01
      vertex -15.2474 20.95 1.01
    endloop
  endfacet
  facet normal 0.707107 -0.707107 0
    outer loop
      vertex -15.2474 20.95 3
      vertex -15.65 20.5474 3
      vertex -15.2474 20.95 1.01
    endloop
  endfacet
  facet normal 0.965926 -0.258819 0
    outer loop
      vertex -15.2474 20.95 3
      vertex -15.2474 20.95 1.01
      vertex -15.1 21.5 1.01
    endloop
  endfacet
  facet normal 0.965926 -0.258819 0
    outer loop
      vertex -15.1 21.5 3
      vertex -15.2474 20.95 3
      vertex -15.1 21.5 1.01
    endloop
  endfacet
  facet normal 0.965926 0.258819 0
    outer loop
      vertex -15.1 21.5 1.01
      vertex -15.2474 22.05 1.01
      vertex -15.2474 22.05 3
    endloop
  endfacet
  facet normal 0.965926 0.258819 0
    outer loop
      vertex -15.1 21.5 3
      vertex -15.1 21.5 1.01
      vertex -15.2474 22.05 3
    endloop
  endfacet
  facet normal 0.707107 0.707107 0
    outer loop
      vertex -15.65 22.4526 1.01
      vertex -15.65 22.4526 3
      vertex -15.2474 22.05 1.01
    endloop
  endfacet
  facet normal 0.707107 0.707107 0
    outer loop
      vertex -15.2474 22.05 1.01
      vertex -15.65 22.4526 3
      vertex -15.2474 22.05 3
    endloop
  endfacet
  facet normal 0.258819 0.965926 0
    outer loop
      vertex -16.2 22.6 1.01
      vertex -16.2 22.6 3
      vertex -15.65 22.4526 1.01
    endloop
  endfacet
  facet normal 0.258819 0.965926 0
    outer loop
      vertex -15.65 22.4526 1.01
      vertex -16.2 22.6 3
      vertex -15.65 22.4526 3
    endloop
  endfacet
  facet normal -0.258819 0.965926 0
    outer loop
      vertex -16.75 22.4526 1.01
      vertex -16.75 22.4526 3
      vertex -16.2 22.6 1.01
    endloop
  endfacet
  facet normal -0.258819 0.965926 0
    outer loop
      vertex -16.2 22.6 1.01
      vertex -16.75 22.4526 3
      vertex -16.2 22.6 3
    endloop
  endfacet
  facet normal -0.707107 0.707107 0
    outer loop
      vertex -17.1526 22.05 1.01
      vertex -17.1526 22.05 3
      vertex -16.75 22.4526 1.01
    endloop
  endfacet
  facet normal -0.707107 0.707107 0
    outer loop
      vertex -16.75 22.4526 1.01
      vertex -17.1526 22.05 3
      vertex -16.75 22.4526 3
    endloop
  endfacet
  facet normal -0.965926 0.258819 0
    outer loop
      vertex -7.6 21.5 1.01
      vertex -7.6 21.5 3
      vertex -7.45263 22.05 1.01
    endloop
  endfacet
  facet normal -0.965926 0.258819 0
    outer loop
      vertex -7.45263 22.05 1.01
      vertex -7.6 21.5 3
      vertex -7.45263 22.05 3
    endloop
  endfacet
  facet normal -0.965926 -0.258819 0
    outer loop
      vertex -7.6 21.5 1.01
      vertex -7.45263 20.95 1.01
      vertex -7.6 21.5 3
    endloop
  endfacet
  facet normal -0.965926 -0.258819 0
    outer loop
      vertex -7.6 21.5 3
      vertex -7.45263 20.95 1.01
      vertex -7.45263 20.95 3
    endloop
  endfacet
  facet normal -0.707107 -0.707107 0
    outer loop
      vertex -7.45263 20.95 3
      vertex -7.45263 20.95 1.01
      vertex -7.05 20.5474 1.01
    endloop
  endfacet
  facet normal -0.707107 -0.707107 0
    outer loop
      vertex -7.05 20.5474 3
      vertex -7.45263 20.95 3
      vertex -7.05 20.5474 1.01
    endloop
  endfacet
  facet normal -0.258819 -0.965926 0
    outer loop
      vertex -7.05 20.5474 3
      vertex -7.05 20.5474 1.01
      vertex -6.5 20.4 1.01
    endloop
  endfacet
  facet normal -0.258819 -0.965926 0
    outer loop
      vertex -6.5 20.4 3
      vertex -7.05 20.5474 3
      vertex -6.5 20.4 1.01
    endloop
  endfacet
  facet normal 0.258819 -0.965926 0
    outer loop
      vertex -6.5 20.4 3
      vertex -6.5 20.4 1.01
      vertex -5.95 20.5474 1.01
    endloop
  endfacet
  facet normal 0.258819 -0.965926 0
    outer loop
      vertex -5.95 20.5474 3
      vertex -6.5 20.4 3
      vertex -5.95 20.5474 1.01
    endloop
  endfacet
  facet normal 0.707107 -0.707107 0
    outer loop
      vertex -5.95 20.5474 3
      vertex -5.95 20.5474 1.01
      vertex -5.54737 20.95 1.01
    endloop
  endfacet
  facet normal 0.707107 -0.707107 0
    outer loop
      vertex -5.54737 20.95 3
      vertex -5.95 20.5474 3
      vertex -5.54737 20.95 1.01
    endloop
  endfacet
  facet normal 0.965926 -0.258819 0
    outer loop
      vertex -5.54737 20.95 3
      vertex -5.54737 20.95 1.01
      vertex -5.4 21.5 1.01
    endloop
  endfacet
  facet normal 0.965926 -0.258819 0
    outer loop
      vertex -5.4 21.5 3
      vertex -5.54737 20.95 3
      vertex -5.4 21.5 1.01
    endloop
  endfacet
  facet normal 0.965926 0.258819 0
    outer loop
      vertex -5.4 21.5 1.01
      vertex -5.54737 22.05 1.01
      vertex -5.54737 22.05 3
    endloop
  endfacet
  facet normal 0.965926 0.258819 0
    outer loop
      vertex -5.4 21.5 3
      vertex -5.4 21.5 1.01
      vertex -5.54737 22.05 3
    endloop
  endfacet
  facet normal 0.707107 0.707107 0
    outer loop
      vertex -5.95 22.4526 1.01
      vertex -5.95 22.4526 3
      vertex -5.54737 22.05 1.01
    endloop
  endfacet
  facet normal 0.707107 0.707107 0
    outer loop
      vertex -5.54737 22.05 1.01
      vertex -5.95 22.4526 3
      vertex -5.54737 22.05 3
    endloop
  endfacet
  facet normal 0.258819 0.965926 0
    outer loop
      vertex -6.5 22.6 1.01
      vertex -6.5 22.6 3
      vertex -5.95 22.4526 1.01
    endloop
  endfacet
  facet normal 0.258819 0.965926 0
    outer loop
      vertex -5.95 22.4526 1.01
      vertex -6.5 22.6 3
      vertex -5.95 22.4526 3
    endloop
  endfacet
  facet normal -0.258819 0.965926 0
    outer loop
      vertex -7.05 22.4526 1.01
      vertex -7.05 22.4526 3
      vertex -6.5 22.6 1.01
    endloop
  endfacet
  facet normal -0.258819 0.965926 0
    outer loop
      vertex -6.5 22.6 1.01
      vertex -7.05 22.4526 3
      vertex -6.5 22.6 3
    endloop
  endfacet
  facet normal -0.707107 0.707107 0
    outer loop
      vertex -7.45263 22.05 1.01
      vertex -7.45263 22.05 3
      vertex -7.05 22.4526 1.01
    endloop
  endfacet
  facet normal -0.707107 0.707107 0
    outer loop
      vertex -7.05 22.4526 1.01
      vertex -7.45263 22.05 3
      vertex -7.05 22.4526 3
    endloop
  endfacet
  facet normal 0 0 1
    outer loop
      vertex -17.1526 22.05 3
      vertex -17.3 21.5 3
      vertex -17.1526 20.95 3
    endloop
  endfacet
  facet normal 0 0 1
    outer loop
      vertex -16.2 20.4 3
      vertex -17.1526 22.05 3
      vertex -16.75 20.5474 3
    endloop
  endfacet
  facet normal 0 0 1
    outer loop
      vertex -16.75 20.5474 3
      vertex -17.1526 22.05 3
      vertex -17.1526 20.95 3
    endloop
  endfacet
  facet normal 0 0 1
    outer loop
      vertex -15.65 20.5474 3
      vertex -17.1526 22.05 3
      vertex -16.2 20.4 3
    endloop
  endfacet
  facet normal 0 0 1
    outer loop
      vertex -15.2474 20.95 3
      vertex -17.1526 22.05 3
      vertex -15.65 20.5474 3
    endloop
  endfacet
  facet normal 0 0 1
    outer loop
      vertex -15.1 21.5 3
      vertex -17.1526 22.05 3
      vertex -15.2474 20.95 3
    endloop
  endfacet
  facet normal 0 0 1
    outer loop
      vertex -15.2474 22.05 3
      vertex -17.1526 22.05 3
      vertex -15.1 21.5 3
    endloop
  endfacet
  facet normal 0 0 1
    outer loop
      vertex -15.65 22.4526 3
      vertex -17.1526 22.05 3
      vertex -15.2474 22.05 3
    endloop
  endfacet
  facet normal 0 0 1
    outer loop
      vertex -16.2 22.6 3
      vertex -17.1526 22.05 3
      vertex -15.65 22.4526 3
    endloop
  endfacet
  facet normal 0 0 1
    outer loop
      vertex -16.75 22.4526 3
      vertex -17.1526 22.05 3
      vertex -16.2 22.6 3
    endloop
  endfacet
  facet normal 0 0 1
    outer loop
      vertex -7.45263 22.05 3
      vertex -7.6 21.5 3
      vertex -7.45263 20.95 3
    endloop
  endfacet
  facet normal 0 0 1
    outer loop
      vertex -6.5 20.4 3
      vertex -7.45263 22.05 3
      vertex -7.05 20.5474 3
    endloop
  endfacet
  facet normal 0 0 1
    outer loop
      vertex -7.05 20.5474 3
      vertex -7.45263 22.05 3
      vertex -7.45263 20.95 3
    endloop
  endfacet
  facet normal 0 0 1
    outer loop
      vertex -5.95 20.5474 3
      vertex -7.45263 22.05 3
      vertex -6.5 20.4 3
    endloop
  endfacet
  facet normal 0 0 1
    outer loop
      vertex -5.54737 20.95 3
      vertex -7.45263 22.05 3
      vertex -5.95 20.5474 3
    endloop
  endfacet
  facet normal 0 0 1
    outer loop
      vertex -5.4 21.5 3
      vertex -7.45263 22.05 3
      vertex -5.54737 20.95 3
    endloop
  endfacet
  facet normal 0 0 1
    outer loop
      vertex -5.54737 22.05 3
      vertex -7.45263 22.05 3
      vertex -5.4 21.5 3
    endloop
  endfacet
  facet normal 0 0 1
    outer loop
      vertex -5.95 22.4526 3
      vertex -7.45263 22.05 3
      vertex -5.54737 22.05 3
    endloop
  endfacet
  facet normal 0 0 1
    outer loop
      vertex -6.5 22.6 3
      vertex -7.45263 22.05 3
      vertex -5.95 22.4526 3
    endloop
  endfacet
  facet normal 0 0 1
    outer loop
      vertex -7.05 22.4526 3
      vertex -7.45263 22.05 3
      vertex -6.5 22.6 3
    endloop
  endfacet
endsolid OpenSCAD_Model
