solid OpenSCAD_Model
  facet normal -1 0 0
    outer loop
      vertex -23.7 9 18
      vertex -23.7 9 2
      vertex -23.7 3.9968e-015 18
    endloop
  endfacet
  facet normal -1 0 0
    outer loop
      vertex -23.7 3.9968e-015 18
      vertex -23.7 9 2
      vertex -23.7 4.44089e-016 2
    endloop
  endfacet
  facet normal 0 -1 2.22045e-016
    outer loop
      vertex -23.6319 3.2915e-016 1.48236
      vertex -23.4321 2.22045e-016 1
      vertex -23.1142 1.30071e-016 0.585786
    endloop
  endfacet
  facet normal 0 -1 2.22045e-016
    outer loop
      vertex -22.2176 1.51319e-017 0.068148
      vertex -23.6319 3.2915e-016 1.48236
      vertex -22.7 5.94966e-017 0.267949
    endloop
  endfacet
  facet normal 0 -1 2.22045e-016
    outer loop
      vertex -22.7 5.94966e-017 0.267949
      vertex -23.6319 3.2915e-016 1.48236
      vertex -23.1142 1.30071e-016 0.585786
    endloop
  endfacet
  facet normal 0 -1 2.22045e-016
    outer loop
      vertex -21.7 2.71917e-031 1.22461e-015
      vertex -23.6319 3.2915e-016 1.48236
      vertex -22.2176 1.51319e-017 0.068148
    endloop
  endfacet
  facet normal 0 -1 2.22045e-016
    outer loop
      vertex -1.5 0 0
      vertex -23.6319 3.2915e-016 1.48236
      vertex -21.7 2.71917e-031 1.22461e-015
    endloop
  endfacet
  facet normal 0 -1 2.22045e-016
    outer loop
      vertex -1.5 0 0
      vertex -21.7 2.71917e-031 1.22461e-015
      vertex -21.7 0 0
    endloop
  endfacet
  facet normal 0 -1 2.22045e-016
    outer loop
      vertex -1.5 2.22045e-015 10
      vertex -23.6319 3.2915e-016 1.48236
      vertex -1.5 0 0
    endloop
  endfacet
  facet normal 0 -1 2.22045e-016
    outer loop
      vertex 0.3 3.9968e-015 18
      vertex -23.6319 3.2915e-016 1.48236
      vertex -1.5 2.22045e-015 10
    endloop
  endfacet
  facet normal 0 -1 2.22045e-016
    outer loop
      vertex 0.3 3.9968e-015 18
      vertex -1.5 2.22045e-015 10
      vertex 0.3 2.22045e-015 10
    endloop
  endfacet
  facet normal 0 -1 2.22045e-016
    outer loop
      vertex -23.7 3.9968e-015 18
      vertex -23.6319 3.2915e-016 1.48236
      vertex 0.3 3.9968e-015 18
    endloop
  endfacet
  facet normal 0 -1 2.22045e-016
    outer loop
      vertex -23.7 4.44089e-016 2
      vertex -23.6319 3.2915e-016 1.48236
      vertex -23.7 3.9968e-015 18
    endloop
  endfacet
  facet normal -0.991445 -2.89825e-017 -0.130526
    outer loop
      vertex -23.6319 9 1.48236
      vertex -23.6319 3.2915e-016 1.48236
      vertex -23.7 9 2
    endloop
  endfacet
  facet normal -0.991445 -2.89825e-017 -0.130526
    outer loop
      vertex -23.7 9 2
      vertex -23.6319 3.2915e-016 1.48236
      vertex -23.7 4.44089e-016 2
    endloop
  endfacet
  facet normal 0 2.22045e-016 1
    outer loop
      vertex 0.3 3.9968e-015 18
      vertex 0.3 9 18
      vertex -1.2 9 18
    endloop
  endfacet
  facet normal 0 2.22045e-016 1
    outer loop
      vertex -22.2 2.6 18
      vertex 0.3 3.9968e-015 18
      vertex -1.2 2.6 18
    endloop
  endfacet
  facet normal 0 2.22045e-016 1
    outer loop
      vertex -1.2 2.6 18
      vertex 0.3 3.9968e-015 18
      vertex -1.2 9 18
    endloop
  endfacet
  facet normal 0 2.22045e-016 1
    outer loop
      vertex -23.7 3.9968e-015 18
      vertex 0.3 3.9968e-015 18
      vertex -22.2 2.6 18
    endloop
  endfacet
  facet normal 0 2.22045e-016 1
    outer loop
      vertex -23.7 9 18
      vertex -22.2 2.6 18
      vertex -22.2 9 18
    endloop
  endfacet
  facet normal 0 2.22045e-016 1
    outer loop
      vertex -23.7 3.9968e-015 18
      vertex -22.2 2.6 18
      vertex -23.7 9 18
    endloop
  endfacet
  facet normal 0 1 -2.22045e-016
    outer loop
      vertex -22.2 9 18
      vertex -22.2 9 1.5
      vertex -23.7 9 18
    endloop
  endfacet
  facet normal 0 1 -2.22045e-016
    outer loop
      vertex -18.7 9 -1.9984e-015
      vertex -22.2 9 1.5
      vertex -18.7 9 1.5
    endloop
  endfacet
  facet normal 0 1 -2.22045e-016
    outer loop
      vertex -21.7 9 -7.73795e-016
      vertex -22.2 9 1.5
      vertex -18.7 9 -1.9984e-015
    endloop
  endfacet
  facet normal 0 1 -2.22045e-016
    outer loop
      vertex -21.7 9 -1.9984e-015
      vertex -21.7 9 -7.73795e-016
      vertex -18.7 9 -1.9984e-015
    endloop
  endfacet
  facet normal 0 1 -2.22045e-016
    outer loop
      vertex -23.7 9 18
      vertex -22.2 9 1.5
      vertex -22.2176 9 0.068148
    endloop
  endfacet
  facet normal 0 1 -2.22045e-016
    outer loop
      vertex -23.7 9 18
      vertex -22.2176 9 0.068148
      vertex -22.7 9 0.267949
    endloop
  endfacet
  facet normal 0 1 -2.22045e-016
    outer loop
      vertex -23.7 9 18
      vertex -22.7 9 0.267949
      vertex -23.1142 9 0.585786
    endloop
  endfacet
  facet normal 0 1 -2.22045e-016
    outer loop
      vertex -23.7 9 18
      vertex -23.1142 9 0.585786
      vertex -23.4321 9 1
    endloop
  endfacet
  facet normal 0 1 -2.22045e-016
    outer loop
      vertex -23.7 9 18
      vertex -23.4321 9 1
      vertex -23.6319 9 1.48236
    endloop
  endfacet
  facet normal 0 1 -2.22045e-016
    outer loop
      vertex -23.7 9 18
      vertex -23.6319 9 1.48236
      vertex -23.7 9 2
    endloop
  endfacet
  facet normal 0 1 -2.22045e-016
    outer loop
      vertex -22.2176 9 0.068148
      vertex -22.2 9 1.5
      vertex -21.7 9 -7.73795e-016
    endloop
  endfacet
  facet normal -0.923879 -8.49728e-017 -0.382684
    outer loop
      vertex -23.4321 9 1
      vertex -23.4321 2.22045e-016 1
      vertex -23.6319 9 1.48236
    endloop
  endfacet
  facet normal -0.923879 -8.49728e-017 -0.382684
    outer loop
      vertex -23.6319 9 1.48236
      vertex -23.4321 2.22045e-016 1
      vertex -23.6319 3.2915e-016 1.48236
    endloop
  endfacet
  facet normal 1 0 0
    outer loop
      vertex 0.3 9 -1.9984e-015
      vertex 0.3 9 0
      vertex 0.3 5.90587 0
    endloop
  endfacet
  facet normal 1 0 0
    outer loop
      vertex 0.3 4 0
      vertex 0.3 9 -1.9984e-015
      vertex 0.3 5.90587 0
    endloop
  endfacet
  facet normal 1 0 0
    outer loop
      vertex 0.3 9 10
      vertex 0.3 9 18
      vertex 0.3 5.90587 10
    endloop
  endfacet
  facet normal 1 0 0
    outer loop
      vertex 0.3 9 18
      vertex 0.3 3.9968e-015 18
      vertex 0.3 5.90587 10
    endloop
  endfacet
  facet normal 1 0 0
    outer loop
      vertex 0.3 4 10
      vertex 0.3 4 0
      vertex 0.3 5.90587 0
    endloop
  endfacet
  facet normal 1 0 0
    outer loop
      vertex 0.3 5.90587 10
      vertex 0.3 4 10
      vertex 0.3 5.90587 0
    endloop
  endfacet
  facet normal 1 0 0
    outer loop
      vertex 0.3 5.90587 10
      vertex 0.3 3.9968e-015 18
      vertex 0.3 4 10
    endloop
  endfacet
  facet normal 1 0 0
    outer loop
      vertex 0.3 4 0
      vertex 0.3 0 0
      vertex 0.3 9 -1.9984e-015
    endloop
  endfacet
  facet normal 1 0 0
    outer loop
      vertex 0.3 2.22045e-015 10
      vertex 0.3 4 10
      vertex 0.3 3.9968e-015 18
    endloop
  endfacet
  facet normal 0 0 1
    outer loop
      vertex -1.5 2.22045e-015 10
      vertex -1.5 0 10
      vertex 23.3 0 10
    endloop
  endfacet
  facet normal 0 0 1
    outer loop
      vertex 0.3 2.22045e-015 10
      vertex -1.5 2.22045e-015 10
      vertex 23.3 0 10
    endloop
  endfacet
  facet normal 0 0 1
    outer loop
      vertex 10.2253 4.05 10
      vertex 10.05 3.90289 10
      vertex 23.3 4.05 10
    endloop
  endfacet
  facet normal 0 0 1
    outer loop
      vertex 10.2253 11.55 10
      vertex 23.3 11.55 10
      vertex 10.05 11.6971 10
    endloop
  endfacet
  facet normal 0 0 1
    outer loop
      vertex 10.05 3.90289 10
      vertex 8.58142 3.36836 10
      vertex 23.3 4.05 10
    endloop
  endfacet
  facet normal 0 0 1
    outer loop
      vertex 0.381759 5.38967 10
      vertex 3.57138 9.33909 10
      vertex 5.38967 15.2182 10
    endloop
  endfacet
  facet normal 0 0 1
    outer loop
      vertex 1.08983 4 10
      vertex 4.3528 4.90746 10
      vertex 3.57138 6.26091 10
    endloop
  endfacet
  facet normal 0 0 1
    outer loop
      vertex 1.08983 4 10
      vertex 5.55 3.90289 10
      vertex 4.3528 4.90746 10
    endloop
  endfacet
  facet normal 0 0 1
    outer loop
      vertex 5.38967 15.2182 10
      vertex 3.57138 9.33909 10
      vertex 4.3528 10.6925 10
    endloop
  endfacet
  facet normal 0 0 1
    outer loop
      vertex 7.8 15.6 10
      vertex 4.3528 10.6925 10
      vertex 5.55 11.6971 10
    endloop
  endfacet
  facet normal 0 0 1
    outer loop
      vertex 7.8 15.6 10
      vertex 5.55 11.6971 10
      vertex 7.01858 12.2316 10
    endloop
  endfacet
  facet normal 0 0 1
    outer loop
      vertex 23.3 15.6 10
      vertex 7.01858 12.2316 10
      vertex 8.58142 12.2316 10
    endloop
  endfacet
  facet normal 0 0 1
    outer loop
      vertex 23.3 11.55 10
      vertex 8.58142 12.2316 10
      vertex 10.05 11.6971 10
    endloop
  endfacet
  facet normal 0 0 1
    outer loop
      vertex 0.3 9 10
      vertex 0.3 5.90587 10
      vertex 1.48967 12.3847 10
    endloop
  endfacet
  facet normal 0 0 1
    outer loop
      vertex 23.3 15.6 10
      vertex 8.58142 12.2316 10
      vertex 23.3 11.55 10
    endloop
  endfacet
  facet normal 0 0 1
    outer loop
      vertex 7.8 15.6 10
      vertex 7.01858 12.2316 10
      vertex 23.3 15.6 10
    endloop
  endfacet
  facet normal 0 0 1
    outer loop
      vertex 5.38967 15.2182 10
      vertex 4.3528 10.6925 10
      vertex 7.8 15.6 10
    endloop
  endfacet
  facet normal 0 0 1
    outer loop
      vertex 0.3 4 10
      vertex 5.55 3.90289 10
      vertex 1.08983 4 10
    endloop
  endfacet
  facet normal 0 0 1
    outer loop
      vertex 0.3 5.90587 10
      vertex 0.381759 5.38967 10
      vertex 3.21528 14.1103 10
    endloop
  endfacet
  facet normal 0 0 1
    outer loop
      vertex 0.381759 10.2103 10
      vertex 0.190061 9 10
      vertex 1.48967 12.3847 10
    endloop
  endfacet
  facet normal 0 0 1
    outer loop
      vertex 0.190061 9 10
      vertex 0.3 9 10
      vertex 1.48967 12.3847 10
    endloop
  endfacet
  facet normal 0 0 1
    outer loop
      vertex 1.48967 12.3847 10
      vertex 0.3 5.90587 10
      vertex 3.21528 14.1103 10
    endloop
  endfacet
  facet normal 0 0 1
    outer loop
      vertex 3.21528 14.1103 10
      vertex 0.381759 5.38967 10
      vertex 5.38967 15.2182 10
    endloop
  endfacet
  facet normal 0 0 1
    outer loop
      vertex 3.3 7.8 10
      vertex 1.08983 4 10
      vertex 3.57138 6.26091 10
    endloop
  endfacet
  facet normal 0 0 1
    outer loop
      vertex 0.3 4 10
      vertex 7.01858 3.36836 10
      vertex 5.55 3.90289 10
    endloop
  endfacet
  facet normal 0 0 1
    outer loop
      vertex 23.3 4.05 10
      vertex 0.3 2.22045e-015 10
      vertex 23.3 0 10
    endloop
  endfacet
  facet normal 0 0 1
    outer loop
      vertex 0.381759 5.38967 10
      vertex 3.3 7.8 10
      vertex 3.57138 9.33909 10
    endloop
  endfacet
  facet normal 0 0 1
    outer loop
      vertex 0.381759 5.38967 10
      vertex 1.08983 4 10
      vertex 3.3 7.8 10
    endloop
  endfacet
  facet normal 0 0 1
    outer loop
      vertex 8.58142 3.36836 10
      vertex 0.3 2.22045e-015 10
      vertex 23.3 4.05 10
    endloop
  endfacet
  facet normal 0 0 1
    outer loop
      vertex 7.01858 3.36836 10
      vertex 0.3 2.22045e-015 10
      vertex 8.58142 3.36836 10
    endloop
  endfacet
  facet normal 0 0 1
    outer loop
      vertex 0.3 4 10
      vertex 0.3 2.22045e-015 10
      vertex 7.01858 3.36836 10
    endloop
  endfacet
  facet normal -1 0 0
    outer loop
      vertex -1.5 2.22045e-015 10
      vertex -1.5 0 0
      vertex -1.5 0 10
    endloop
  endfacet
  facet normal 0 -1 0
    outer loop
      vertex -1.5 0 10
      vertex -1.5 0 0
      vertex 0.3 0 0
    endloop
  endfacet
  facet normal 0 -1 0
    outer loop
      vertex 16.4438 0 3.2881
      vertex -1.5 0 10
      vertex 23.3 0 0
    endloop
  endfacet
  facet normal 0 -1 0
    outer loop
      vertex 23.3 0 0
      vertex -1.5 0 10
      vertex 0.3 0 0
    endloop
  endfacet
  facet normal 0 -1 0
    outer loop
      vertex 15.2 0 5
      vertex -1.5 0 10
      vertex 15.5438 0 3.94199
    endloop
  endfacet
  facet normal 0 -1 0
    outer loop
      vertex 17.5562 0 3.2881
      vertex 16.4438 0 3.2881
      vertex 23.3 0 0
    endloop
  endfacet
  facet normal 0 -1 0
    outer loop
      vertex 15.5438 0 6.05801
      vertex -1.5 0 10
      vertex 15.2 0 5
    endloop
  endfacet
  facet normal 0 -1 0
    outer loop
      vertex 16.4438 0 6.7119
      vertex -1.5 0 10
      vertex 15.5438 0 6.05801
    endloop
  endfacet
  facet normal 0 -1 0
    outer loop
      vertex 23.3 0 10
      vertex -1.5 0 10
      vertex 16.4438 0 6.7119
    endloop
  endfacet
  facet normal 0 -1 0
    outer loop
      vertex 23.3 0 10
      vertex 18.4562 0 6.05801
      vertex 23.3 0 0
    endloop
  endfacet
  facet normal 0 -1 0
    outer loop
      vertex 18.4562 0 6.05801
      vertex 18.8 0 5
      vertex 23.3 0 0
    endloop
  endfacet
  facet normal 0 -1 0
    outer loop
      vertex 18.8 0 5
      vertex 18.4562 0 3.94199
      vertex 23.3 0 0
    endloop
  endfacet
  facet normal 0 -1 0
    outer loop
      vertex 18.4562 0 3.94199
      vertex 17.5562 0 3.2881
      vertex 23.3 0 0
    endloop
  endfacet
  facet normal 0 -1 0
    outer loop
      vertex 15.5438 0 3.94199
      vertex -1.5 0 10
      vertex 16.4438 0 3.2881
    endloop
  endfacet
  facet normal 0 -1 0
    outer loop
      vertex 16.4438 0 6.7119
      vertex 17.5562 0 6.7119
      vertex 23.3 0 10
    endloop
  endfacet
  facet normal 0 -1 0
    outer loop
      vertex 17.5562 0 6.7119
      vertex 18.4562 0 6.05801
      vertex 23.3 0 10
    endloop
  endfacet
  facet normal 0 -2.22045e-016 -1
    outer loop
      vertex -18.7 9 -1.9984e-015
      vertex -18.7 4 -8.88178e-016
      vertex -21.7 9 -1.9984e-015
    endloop
  endfacet
  facet normal 0 -2.22045e-016 -1
    outer loop
      vertex -1.5 0 0
      vertex -18.7 4 -8.88178e-016
      vertex 0.3 0 0
    endloop
  endfacet
  facet normal 0 -2.22045e-016 -1
    outer loop
      vertex -16.8 4 -8.88178e-016
      vertex -17.3 4 -8.88178e-016
      vertex -16.8 5.2 -1.15463e-015
    endloop
  endfacet
  facet normal 0 -2.22045e-016 -1
    outer loop
      vertex -17.3 4 -8.88178e-016
      vertex -17.3 5.2 -1.15463e-015
      vertex -16.8 5.2 -1.15463e-015
    endloop
  endfacet
  facet normal 0 -2.22045e-016 -1
    outer loop
      vertex -18.7 4 -8.88178e-016
      vertex -17.3 4 -8.88178e-016
      vertex 0.3 0 0
    endloop
  endfacet
  facet normal 0 -2.22045e-016 -1
    outer loop
      vertex -17.3 4 -8.88178e-016
      vertex -16.8 4 -8.88178e-016
      vertex 0.3 0 0
    endloop
  endfacet
  facet normal 0 -2.22045e-016 -1
    outer loop
      vertex -7 4 -8.88178e-016
      vertex -7.5 4 -8.88178e-016
      vertex -7 5.2 -1.15463e-015
    endloop
  endfacet
  facet normal 0 -2.22045e-016 -1
    outer loop
      vertex -7.5 4 -8.88178e-016
      vertex -7.5 5.2 -1.15463e-015
      vertex -7 5.2 -1.15463e-015
    endloop
  endfacet
  facet normal 0 -2.22045e-016 -1
    outer loop
      vertex -16.8 4 -8.88178e-016
      vertex -7.5 4 -8.88178e-016
      vertex 0.3 0 0
    endloop
  endfacet
  facet normal 0 -2.22045e-016 -1
    outer loop
      vertex -7.5 4 -8.88178e-016
      vertex -7 4 -8.88178e-016
      vertex 0.3 0 0
    endloop
  endfacet
  facet normal 0 -2.22045e-016 -1
    outer loop
      vertex 0.3 9 -1.9984e-015
      vertex -4.7 4 -8.88178e-016
      vertex -4.7 9 -1.9984e-015
    endloop
  endfacet
  facet normal 0 -2.22045e-016 -1
    outer loop
      vertex 0.3 0 0
      vertex -4.7 4 -8.88178e-016
      vertex 0.3 9 -1.9984e-015
    endloop
  endfacet
  facet normal 0 -2.22045e-016 -1
    outer loop
      vertex -7 4 -8.88178e-016
      vertex -4.7 4 -8.88178e-016
      vertex 0.3 0 0
    endloop
  endfacet
  facet normal 0 -2.22045e-016 -1
    outer loop
      vertex -21.7 0 0
      vertex -18.7 4 -8.88178e-016
      vertex -1.5 0 0
    endloop
  endfacet
  facet normal 0 -2.22045e-016 -1
    outer loop
      vertex -21.7 9 -1.9984e-015
      vertex -18.7 4 -8.88178e-016
      vertex -21.7 0 0
    endloop
  endfacet
  facet normal -1 2.71917e-032 1.22461e-016
    outer loop
      vertex -21.7 0 0
      vertex -21.7 2.71917e-031 1.22461e-015
      vertex -21.7 9 -1.9984e-015
    endloop
  endfacet
  facet normal -1 2.71917e-032 1.22461e-016
    outer loop
      vertex -21.7 9 -1.9984e-015
      vertex -21.7 2.71917e-031 1.22461e-015
      vertex -21.7 9 -7.73795e-016
    endloop
  endfacet
  facet normal -0.130526 -2.20145e-016 -0.991445
    outer loop
      vertex -21.7 9 -7.73795e-016
      vertex -21.7 2.71917e-031 1.22461e-015
      vertex -22.2176 9 0.068148
    endloop
  endfacet
  facet normal -0.130526 -2.20145e-016 -0.991445
    outer loop
      vertex -22.2176 9 0.068148
      vertex -21.7 2.71917e-031 1.22461e-015
      vertex -22.2176 1.51319e-017 0.068148
    endloop
  endfacet
  facet normal -0.382684 -2.05142e-016 -0.923879
    outer loop
      vertex -22.2176 9 0.068148
      vertex -22.2176 1.51319e-017 0.068148
      vertex -22.7 9 0.267949
    endloop
  endfacet
  facet normal -0.382684 -2.05142e-016 -0.923879
    outer loop
      vertex -22.7 9 0.267949
      vertex -22.2176 1.51319e-017 0.068148
      vertex -22.7 5.94966e-017 0.267949
    endloop
  endfacet
  facet normal -0.608761 -1.7616e-016 -0.793354
    outer loop
      vertex -22.7 9 0.267949
      vertex -22.7 5.94966e-017 0.267949
      vertex -23.1142 9 0.585786
    endloop
  endfacet
  facet normal -0.608761 -1.7616e-016 -0.793354
    outer loop
      vertex -23.1142 9 0.585786
      vertex -22.7 5.94966e-017 0.267949
      vertex -23.1142 1.30071e-016 0.585786
    endloop
  endfacet
  facet normal -0.793354 -1.35172e-016 -0.608761
    outer loop
      vertex -23.1142 9 0.585786
      vertex -23.1142 1.30071e-016 0.585786
      vertex -23.4321 9 1
    endloop
  endfacet
  facet normal -0.793354 -1.35172e-016 -0.608761
    outer loop
      vertex -23.4321 9 1
      vertex -23.1142 1.30071e-016 0.585786
      vertex -23.4321 2.22045e-016 1
    endloop
  endfacet
  facet normal 1 0 0
    outer loop
      vertex -22.2 2.6 18
      vertex -22.2 2.6 1.5
      vertex -22.2 9 1.5
    endloop
  endfacet
  facet normal 1 0 0
    outer loop
      vertex -22.2 9 18
      vertex -22.2 2.6 18
      vertex -22.2 9 1.5
    endloop
  endfacet
  facet normal 0 1 -2.22045e-016
    outer loop
      vertex -15.9474 2.6 10.05
      vertex -22.2 2.6 18
      vertex -1.5 2.6 1.5
    endloop
  endfacet
  facet normal 0 1 -2.22045e-016
    outer loop
      vertex -1.5 2.6 10
      vertex -22.2 2.6 18
      vertex -1.2 2.6 18
    endloop
  endfacet
  facet normal 0 1 -2.22045e-016
    outer loop
      vertex -6.65 2.6 10.4526
      vertex -22.2 2.6 18
      vertex -1.5 2.6 10
    endloop
  endfacet
  facet normal 0 1 -2.22045e-016
    outer loop
      vertex -16.35 2.6 8.54737
      vertex -1.5 2.6 1.5
      vertex -16.9 2.6 8.4
    endloop
  endfacet
  facet normal 0 1 -2.22045e-016
    outer loop
      vertex -22.2 2.6 1.5
      vertex -22.2 2.6 18
      vertex -18 2.6 9.5
    endloop
  endfacet
  facet normal 0 1 -2.22045e-016
    outer loop
      vertex -22.2 2.6 1.5
      vertex -18 2.6 9.5
      vertex -17.8526 2.6 8.95
    endloop
  endfacet
  facet normal 0 1 -2.22045e-016
    outer loop
      vertex -22.2 2.6 1.5
      vertex -17.8526 2.6 8.95
      vertex -17.45 2.6 8.54737
    endloop
  endfacet
  facet normal 0 1 -2.22045e-016
    outer loop
      vertex -22.2 2.6 1.5
      vertex -17.45 2.6 8.54737
      vertex -1.5 2.6 1.5
    endloop
  endfacet
  facet normal 0 1 -2.22045e-016
    outer loop
      vertex -17.45 2.6 8.54737
      vertex -16.9 2.6 8.4
      vertex -1.5 2.6 1.5
    endloop
  endfacet
  facet normal 0 1 -2.22045e-016
    outer loop
      vertex -15.9474 2.6 8.95
      vertex -1.5 2.6 1.5
      vertex -16.35 2.6 8.54737
    endloop
  endfacet
  facet normal 0 1 -2.22045e-016
    outer loop
      vertex -7.2 2.6 8.4
      vertex -1.5 2.6 1.5
      vertex -7.75 2.6 8.54737
    endloop
  endfacet
  facet normal 0 1 -2.22045e-016
    outer loop
      vertex -16.9 2.6 10.6
      vertex -22.2 2.6 18
      vertex -16.35 2.6 10.4526
    endloop
  endfacet
  facet normal 0 1 -2.22045e-016
    outer loop
      vertex -17.45 2.6 10.4526
      vertex -22.2 2.6 18
      vertex -16.9 2.6 10.6
    endloop
  endfacet
  facet normal 0 1 -2.22045e-016
    outer loop
      vertex -15.9474 2.6 8.95
      vertex -15.8 2.6 9.5
      vertex -1.5 2.6 1.5
    endloop
  endfacet
  facet normal 0 1 -2.22045e-016
    outer loop
      vertex -16.35 2.6 10.4526
      vertex -22.2 2.6 18
      vertex -15.9474 2.6 10.05
    endloop
  endfacet
  facet normal 0 1 -2.22045e-016
    outer loop
      vertex -15.8 2.6 9.5
      vertex -15.9474 2.6 10.05
      vertex -1.5 2.6 1.5
    endloop
  endfacet
  facet normal 0 1 -2.22045e-016
    outer loop
      vertex -17.8526 2.6 10.05
      vertex -22.2 2.6 18
      vertex -17.45 2.6 10.4526
    endloop
  endfacet
  facet normal 0 1 -2.22045e-016
    outer loop
      vertex -18 2.6 9.5
      vertex -22.2 2.6 18
      vertex -17.8526 2.6 10.05
    endloop
  endfacet
  facet normal 0 1 -2.22045e-016
    outer loop
      vertex -8.15263 2.6 8.95
      vertex -22.2 2.6 18
      vertex -8.3 2.6 9.5
    endloop
  endfacet
  facet normal 0 1 -2.22045e-016
    outer loop
      vertex -1.5 2.6 1.5
      vertex -22.2 2.6 18
      vertex -8.15263 2.6 8.95
    endloop
  endfacet
  facet normal 0 1 -2.22045e-016
    outer loop
      vertex -1.5 2.6 1.5
      vertex -8.15263 2.6 8.95
      vertex -7.75 2.6 8.54737
    endloop
  endfacet
  facet normal 0 1 -2.22045e-016
    outer loop
      vertex -6.24737 2.6 8.95
      vertex -1.5 2.6 10
      vertex -6.65 2.6 8.54737
    endloop
  endfacet
  facet normal 0 1 -2.22045e-016
    outer loop
      vertex -1.5 2.6 1.5
      vertex -7.2 2.6 8.4
      vertex -6.65 2.6 8.54737
    endloop
  endfacet
  facet normal 0 1 -2.22045e-016
    outer loop
      vertex -1.5 2.6 1.5
      vertex -6.65 2.6 8.54737
      vertex -1.5 2.6 10
    endloop
  endfacet
  facet normal 0 1 -2.22045e-016
    outer loop
      vertex -6.24737 2.6 10.05
      vertex -1.5 2.6 10
      vertex -6.1 2.6 9.5
    endloop
  endfacet
  facet normal 0 1 -2.22045e-016
    outer loop
      vertex -6.24737 2.6 8.95
      vertex -6.1 2.6 9.5
      vertex -1.5 2.6 10
    endloop
  endfacet
  facet normal 0 1 -2.22045e-016
    outer loop
      vertex -7.75 2.6 10.4526
      vertex -22.2 2.6 18
      vertex -7.2 2.6 10.6
    endloop
  endfacet
  facet normal 0 1 -2.22045e-016
    outer loop
      vertex -7.2 2.6 10.6
      vertex -22.2 2.6 18
      vertex -6.65 2.6 10.4526
    endloop
  endfacet
  facet normal 0 1 -2.22045e-016
    outer loop
      vertex -6.24737 2.6 10.05
      vertex -6.65 2.6 10.4526
      vertex -1.5 2.6 10
    endloop
  endfacet
  facet normal 0 1 -2.22045e-016
    outer loop
      vertex -8.15263 2.6 10.05
      vertex -22.2 2.6 18
      vertex -7.75 2.6 10.4526
    endloop
  endfacet
  facet normal 0 1 -2.22045e-016
    outer loop
      vertex -8.3 2.6 9.5
      vertex -22.2 2.6 18
      vertex -8.15263 2.6 10.05
    endloop
  endfacet
  facet normal 0 1 -2.22045e-016
    outer loop
      vertex -1.5 2.6 10
      vertex -1.2 2.6 18
      vertex -1.2 2.6 10
    endloop
  endfacet
  facet normal -1 0 0
    outer loop
      vertex -1.2 2.6 10
      vertex -1.2 2.6 18
      vertex -1.2 4 10
    endloop
  endfacet
  facet normal -1 0 0
    outer loop
      vertex -1.2 4 10
      vertex -1.2 2.6 18
      vertex -1.2 9 18
    endloop
  endfacet
  facet normal -1 0 0
    outer loop
      vertex -1.2 4 10
      vertex -1.2 9 18
      vertex -1.2 9 1.5
    endloop
  endfacet
  facet normal -1 0 0
    outer loop
      vertex -1.2 4 10
      vertex -1.2 9 1.5
      vertex -1.2 4 1.5
    endloop
  endfacet
  facet normal 0 1 -2.22045e-016
    outer loop
      vertex -1.2 9 1.5
      vertex -1.2 9 18
      vertex 0.3 9 18
    endloop
  endfacet
  facet normal 0 1 -2.22045e-016
    outer loop
      vertex 0.190061 9 10
      vertex 0.3 9 18
      vertex 0.3 9 10
    endloop
  endfacet
  facet normal 0 1 -2.22045e-016
    outer loop
      vertex -1.2 9 1.5
      vertex 0.3 9 18
      vertex 0.190061 9 10
    endloop
  endfacet
  facet normal 0 1 -2.22045e-016
    outer loop
      vertex -1.2 9 1.5
      vertex 0.190061 9 0
      vertex -4.7 9 1.5
    endloop
  endfacet
  facet normal 0 1 -2.22045e-016
    outer loop
      vertex 0.190061 9 0
      vertex 0.3 9 0
      vertex 0.3 9 -1.9984e-015
    endloop
  endfacet
  facet normal 0 1 -2.22045e-016
    outer loop
      vertex 0.190061 9 0
      vertex 0.3 9 -1.9984e-015
      vertex -4.7 9 -1.9984e-015
    endloop
  endfacet
  facet normal 0 1 -2.22045e-016
    outer loop
      vertex 0.190061 9 0
      vertex -4.7 9 -1.9984e-015
      vertex -4.7 9 1.5
    endloop
  endfacet
  facet normal 0 1 -2.22045e-016
    outer loop
      vertex 0.190061 9 0
      vertex -1.2 9 1.5
      vertex 0.190061 9 10
    endloop
  endfacet
  facet normal 1 0 0
    outer loop
      vertex -18.7 4 1.5
      vertex -18.7 4 -8.88178e-016
      vertex -18.7 9 -1.9984e-015
    endloop
  endfacet
  facet normal 1 0 0
    outer loop
      vertex -18.7 9 1.5
      vertex -18.7 4 1.5
      vertex -18.7 9 -1.9984e-015
    endloop
  endfacet
  facet normal 0 2.22045e-016 1
    outer loop
      vertex -7 3 1.5
      vertex -22.2 2.6 1.5
      vertex -1.5 2.6 1.5
    endloop
  endfacet
  facet normal 0 2.22045e-016 1
    outer loop
      vertex -4.7 4 1.5
      vertex -7 4 1.5
      vertex -1.5 2.6 1.5
    endloop
  endfacet
  facet normal 0 2.22045e-016 1
    outer loop
      vertex -17.3 3 1.5
      vertex -17.3 4 1.5
      vertex -22.2 2.6 1.5
    endloop
  endfacet
  facet normal 0 2.22045e-016 1
    outer loop
      vertex -1.2 9 1.5
      vertex -4.7 9 1.5
      vertex -1.2 4 1.5
    endloop
  endfacet
  facet normal 0 2.22045e-016 1
    outer loop
      vertex -1.5 4 1.5
      vertex -4.7 4 1.5
      vertex -1.5 2.6 1.5
    endloop
  endfacet
  facet normal 0 2.22045e-016 1
    outer loop
      vertex -7 4 1.5
      vertex -7 3 1.5
      vertex -1.5 2.6 1.5
    endloop
  endfacet
  facet normal 0 2.22045e-016 1
    outer loop
      vertex -7.5 3 1.5
      vertex -22.2 2.6 1.5
      vertex -7 3 1.5
    endloop
  endfacet
  facet normal 0 2.22045e-016 1
    outer loop
      vertex -16.8 3 1.5
      vertex -22.2 2.6 1.5
      vertex -7.5 3 1.5
    endloop
  endfacet
  facet normal 0 2.22045e-016 1
    outer loop
      vertex -17.3 3 1.5
      vertex -22.2 2.6 1.5
      vertex -16.8 3 1.5
    endloop
  endfacet
  facet normal 0 2.22045e-016 1
    outer loop
      vertex -16.8 4 1.5
      vertex -16.8 3 1.5
      vertex -7.5 4 1.5
    endloop
  endfacet
  facet normal 0 2.22045e-016 1
    outer loop
      vertex -18.7 4 1.5
      vertex -22.2 2.6 1.5
      vertex -17.3 4 1.5
    endloop
  endfacet
  facet normal 0 2.22045e-016 1
    outer loop
      vertex -22.2 9 1.5
      vertex -22.2 2.6 1.5
      vertex -18.7 4 1.5
    endloop
  endfacet
  facet normal 0 2.22045e-016 1
    outer loop
      vertex -7.5 3 1.5
      vertex -7.5 4 1.5
      vertex -16.8 3 1.5
    endloop
  endfacet
  facet normal 0 2.22045e-016 1
    outer loop
      vertex -4.7 9 1.5
      vertex -1.5 4 1.5
      vertex -1.2 4 1.5
    endloop
  endfacet
  facet normal 0 2.22045e-016 1
    outer loop
      vertex -4.7 9 1.5
      vertex -4.7 4 1.5
      vertex -1.5 4 1.5
    endloop
  endfacet
  facet normal 0 2.22045e-016 1
    outer loop
      vertex -18.7 4 1.5
      vertex -18.7 9 1.5
      vertex -22.2 9 1.5
    endloop
  endfacet
  facet normal 0 0 -1
    outer loop
      vertex 0.190061 9 0
      vertex 0.381759 10.2103 0
      vertex 0.3 9 0
    endloop
  endfacet
  facet normal 0 0 -1
    outer loop
      vertex 0.3 9 0
      vertex 0.381759 10.2103 0
      vertex 1.48967 12.3847 0
    endloop
  endfacet
  facet normal 0 0 -1
    outer loop
      vertex 0.3 9 0
      vertex 1.48967 12.3847 0
      vertex 3.21528 14.1103 0
    endloop
  endfacet
  facet normal 0 0 -1
    outer loop
      vertex 0.3 9 0
      vertex 3.21528 14.1103 0
      vertex 5.38967 15.2182 0
    endloop
  endfacet
  facet normal 0 0 -1
    outer loop
      vertex 0.3 9 0
      vertex 5.38967 15.2182 0
      vertex 7.8 15.6 0
    endloop
  endfacet
  facet normal 0 0 -1
    outer loop
      vertex 8.58142 12.2316 0
      vertex 7.8 15.6 0
      vertex 23.3 15.6 0
    endloop
  endfacet
  facet normal 0 0 -1
    outer loop
      vertex 10.2253 11.55 0
      vertex 23.3 15.6 0
      vertex 23.3 11.55 0
    endloop
  endfacet
  facet normal 0 0 -1
    outer loop
      vertex 10.05 11.6971 0
      vertex 23.3 15.6 0
      vertex 10.2253 11.55 0
    endloop
  endfacet
  facet normal 0 0 -1
    outer loop
      vertex 7.01858 12.2316 0
      vertex 7.8 15.6 0
      vertex 8.58142 12.2316 0
    endloop
  endfacet
  facet normal 0 0 -1
    outer loop
      vertex 4.3528 10.6925 0
      vertex 0.3 9 0
      vertex 5.55 11.6971 0
    endloop
  endfacet
  facet normal 0 0 -1
    outer loop
      vertex 5.55 11.6971 0
      vertex 7.8 15.6 0
      vertex 7.01858 12.2316 0
    endloop
  endfacet
  facet normal 0 0 -1
    outer loop
      vertex 0.3 9 0
      vertex 7.8 15.6 0
      vertex 5.55 11.6971 0
    endloop
  endfacet
  facet normal 0 0 -1
    outer loop
      vertex 3.57138 9.33909 0
      vertex 0.3 9 0
      vertex 4.3528 10.6925 0
    endloop
  endfacet
  facet normal 0 0 -1
    outer loop
      vertex 23.3 4.05 0
      vertex 10.05 3.90289 0
      vertex 10.2253 4.05 0
    endloop
  endfacet
  facet normal 0 0 -1
    outer loop
      vertex 0.3 9 0
      vertex 3.57138 9.33909 0
      vertex 3.3 7.8 0
    endloop
  endfacet
  facet normal 0 0 -1
    outer loop
      vertex 8.58142 12.2316 0
      vertex 23.3 15.6 0
      vertex 10.05 11.6971 0
    endloop
  endfacet
  facet normal 0 0 -1
    outer loop
      vertex 5.55 3.90289 0
      vertex 0.3 0 0
      vertex 4.3528 4.90746 0
    endloop
  endfacet
  facet normal 0 0 -1
    outer loop
      vertex 0.381759 5.38967 0
      vertex 4.3528 4.90746 0
      vertex 1.08983 4 0
    endloop
  endfacet
  facet normal 0 0 -1
    outer loop
      vertex 10.05 3.90289 0
      vertex 23.3 4.05 0
      vertex 8.58142 3.36836 0
    endloop
  endfacet
  facet normal 0 0 -1
    outer loop
      vertex 8.58142 3.36836 0
      vertex 23.3 4.05 0
      vertex 23.3 0 0
    endloop
  endfacet
  facet normal 0 0 -1
    outer loop
      vertex 8.58142 3.36836 0
      vertex 23.3 0 0
      vertex 7.01858 3.36836 0
    endloop
  endfacet
  facet normal 0 0 -1
    outer loop
      vertex 7.01858 3.36836 0
      vertex 23.3 0 0
      vertex 0.3 0 0
    endloop
  endfacet
  facet normal 0 0 -1
    outer loop
      vertex 7.01858 3.36836 0
      vertex 0.3 0 0
      vertex 5.55 3.90289 0
    endloop
  endfacet
  facet normal 0 0 -1
    outer loop
      vertex 1.08983 4 0
      vertex 0.3 0 0
      vertex 0.3 4 0
    endloop
  endfacet
  facet normal 0 0 -1
    outer loop
      vertex 4.3528 4.90746 0
      vertex 0.3 0 0
      vertex 1.08983 4 0
    endloop
  endfacet
  facet normal 0 0 -1
    outer loop
      vertex 0.3 9 0
      vertex 3.3 7.8 0
      vertex 3.57138 6.26091 0
    endloop
  endfacet
  facet normal 0 0 -1
    outer loop
      vertex 0.3 9 0
      vertex 3.57138 6.26091 0
      vertex 4.3528 4.90746 0
    endloop
  endfacet
  facet normal 0 0 -1
    outer loop
      vertex 0.3 9 0
      vertex 4.3528 4.90746 0
      vertex 0.381759 5.38967 0
    endloop
  endfacet
  facet normal 0 0 -1
    outer loop
      vertex 0.3 9 0
      vertex 0.381759 5.38967 0
      vertex 0.3 5.90587 0
    endloop
  endfacet
  facet normal 0 1 0
    outer loop
      vertex 0.3 4 0
      vertex 0.3 4 10
      vertex 1.08983 4 0
    endloop
  endfacet
  facet normal 0 1 0
    outer loop
      vertex 1.08983 4 0
      vertex 0.3 4 10
      vertex 1.08983 4 10
    endloop
  endfacet
  facet normal -0.987688 -0.156434 0
    outer loop
      vertex 0.3 5.90587 0
      vertex 0.381759 5.38967 0
      vertex 0.3 5.90587 10
    endloop
  endfacet
  facet normal -0.987688 -0.156434 0
    outer loop
      vertex 0.3 5.90587 10
      vertex 0.381759 5.38967 0
      vertex 0.381759 5.38967 10
    endloop
  endfacet
  facet normal -0.891007 -0.45399 0
    outer loop
      vertex 0.381759 5.38967 0
      vertex 1.08983 4 0
      vertex 0.381759 5.38967 10
    endloop
  endfacet
  facet normal -0.891007 -0.45399 0
    outer loop
      vertex 0.381759 5.38967 10
      vertex 1.08983 4 0
      vertex 1.08983 4 10
    endloop
  endfacet
  facet normal -0.987688 0.156434 0
    outer loop
      vertex 0.190061 9 0
      vertex 0.190061 9 10
      vertex 0.381759 10.2103 0
    endloop
  endfacet
  facet normal -0.987688 0.156434 0
    outer loop
      vertex 0.381759 10.2103 0
      vertex 0.190061 9 10
      vertex 0.381759 10.2103 10
    endloop
  endfacet
  facet normal -0.891007 0.45399 0
    outer loop
      vertex 0.381759 10.2103 0
      vertex 0.381759 10.2103 10
      vertex 1.48967 12.3847 0
    endloop
  endfacet
  facet normal -0.891007 0.45399 0
    outer loop
      vertex 1.48967 12.3847 0
      vertex 0.381759 10.2103 10
      vertex 1.48967 12.3847 10
    endloop
  endfacet
  facet normal -0.707107 0.707107 0
    outer loop
      vertex 1.48967 12.3847 0
      vertex 1.48967 12.3847 10
      vertex 3.21528 14.1103 0
    endloop
  endfacet
  facet normal -0.707107 0.707107 0
    outer loop
      vertex 3.21528 14.1103 0
      vertex 1.48967 12.3847 10
      vertex 3.21528 14.1103 10
    endloop
  endfacet
  facet normal -0.45399 0.891007 0
    outer loop
      vertex 3.21528 14.1103 0
      vertex 3.21528 14.1103 10
      vertex 5.38967 15.2182 0
    endloop
  endfacet
  facet normal -0.45399 0.891007 0
    outer loop
      vertex 5.38967 15.2182 0
      vertex 3.21528 14.1103 10
      vertex 5.38967 15.2182 10
    endloop
  endfacet
  facet normal -0.156434 0.987688 0
    outer loop
      vertex 5.38967 15.2182 0
      vertex 5.38967 15.2182 10
      vertex 7.8 15.6 0
    endloop
  endfacet
  facet normal -0.156434 0.987688 0
    outer loop
      vertex 7.8 15.6 0
      vertex 5.38967 15.2182 10
      vertex 7.8 15.6 10
    endloop
  endfacet
  facet normal 0 1 0
    outer loop
      vertex 22.77 15.6 5
      vertex 23.3 15.6 0
      vertex 19.885 15.6 0.003033
    endloop
  endfacet
  facet normal 0 1 0
    outer loop
      vertex 19.885 15.6 9.99697
      vertex 7.8 15.6 10
      vertex 23.3 15.6 10
    endloop
  endfacet
  facet normal 0 1 0
    outer loop
      vertex 7.8 15.6 0
      vertex 7.8 15.6 10
      vertex 11.23 15.6 5
    endloop
  endfacet
  facet normal 0 1 0
    outer loop
      vertex 7.8 15.6 0
      vertex 11.23 15.6 5
      vertex 14.115 15.6 0.003033
    endloop
  endfacet
  facet normal 0 1 0
    outer loop
      vertex 7.8 15.6 0
      vertex 14.115 15.6 0.003033
      vertex 23.3 15.6 0
    endloop
  endfacet
  facet normal 0 1 0
    outer loop
      vertex 14.115 15.6 0.003033
      vertex 19.885 15.6 0.003033
      vertex 23.3 15.6 0
    endloop
  endfacet
  facet normal 0 1 0
    outer loop
      vertex 23.3 15.6 0
      vertex 22.77 15.6 5
      vertex 23.3 15.6 10
    endloop
  endfacet
  facet normal 0 1 0
    outer loop
      vertex 14.115 15.6 9.99697
      vertex 7.8 15.6 10
      vertex 19.885 15.6 9.99697
    endloop
  endfacet
  facet normal 0 1 0
    outer loop
      vertex 22.77 15.6 5
      vertex 19.885 15.6 9.99697
      vertex 23.3 15.6 10
    endloop
  endfacet
  facet normal 0 1 0
    outer loop
      vertex 11.23 15.6 5
      vertex 7.8 15.6 10
      vertex 14.115 15.6 9.99697
    endloop
  endfacet
  facet normal 1 0 0
    outer loop
      vertex 23.3 11.55 10
      vertex 23.3 11.55 0
      vertex 23.3 15.6 0
    endloop
  endfacet
  facet normal 1 0 0
    outer loop
      vertex 23.3 15.6 10
      vertex 23.3 11.55 10
      vertex 23.3 15.6 0
    endloop
  endfacet
  facet normal 0 -1 0
    outer loop
      vertex 16.4438 11.55 6.7119
      vertex 23.3 11.55 10
      vertex 10.2253 11.55 10
    endloop
  endfacet
  facet normal 0 -1 0
    outer loop
      vertex 16.4438 11.55 6.7119
      vertex 17.5562 11.55 6.7119
      vertex 23.3 11.55 10
    endloop
  endfacet
  facet normal 0 -1 0
    outer loop
      vertex 10.2253 11.55 0
      vertex 15.2 11.55 5
      vertex 10.2253 11.55 10
    endloop
  endfacet
  facet normal 0 -1 0
    outer loop
      vertex 15.5438 11.55 6.05801
      vertex 16.4438 11.55 6.7119
      vertex 10.2253 11.55 10
    endloop
  endfacet
  facet normal 0 -1 0
    outer loop
      vertex 18.4562 11.55 6.05801
      vertex 18.8 11.55 5
      vertex 23.3 11.55 0
    endloop
  endfacet
  facet normal 0 -1 0
    outer loop
      vertex 18.4562 11.55 6.05801
      vertex 23.3 11.55 10
      vertex 17.5562 11.55 6.7119
    endloop
  endfacet
  facet normal 0 -1 0
    outer loop
      vertex 23.3 11.55 0
      vertex 23.3 11.55 10
      vertex 18.4562 11.55 6.05801
    endloop
  endfacet
  facet normal 0 -1 0
    outer loop
      vertex 23.3 11.55 0
      vertex 18.8 11.55 5
      vertex 18.4562 11.55 3.94199
    endloop
  endfacet
  facet normal 0 -1 0
    outer loop
      vertex 10.2253 11.55 0
      vertex 23.3 11.55 0
      vertex 17.5562 11.55 3.2881
    endloop
  endfacet
  facet normal 0 -1 0
    outer loop
      vertex 10.2253 11.55 0
      vertex 17.5562 11.55 3.2881
      vertex 16.4438 11.55 3.2881
    endloop
  endfacet
  facet normal 0 -1 0
    outer loop
      vertex 10.2253 11.55 0
      vertex 15.5438 11.55 3.94199
      vertex 15.2 11.55 5
    endloop
  endfacet
  facet normal 0 -1 0
    outer loop
      vertex 10.2253 11.55 0
      vertex 16.4438 11.55 3.2881
      vertex 15.5438 11.55 3.94199
    endloop
  endfacet
  facet normal 0 -1 0
    outer loop
      vertex 15.2 11.55 5
      vertex 15.5438 11.55 6.05801
      vertex 10.2253 11.55 10
    endloop
  endfacet
  facet normal 0 -1 0
    outer loop
      vertex 18.4562 11.55 3.94199
      vertex 17.5562 11.55 3.2881
      vertex 23.3 11.55 0
    endloop
  endfacet
  facet normal -0.642788 -0.766044 0
    outer loop
      vertex 10.2253 11.55 0
      vertex 10.2253 11.55 10
      vertex 10.05 11.6971 10
    endloop
  endfacet
  facet normal -0.642788 -0.766044 0
    outer loop
      vertex 10.05 11.6971 0
      vertex 10.2253 11.55 0
      vertex 10.05 11.6971 10
    endloop
  endfacet
  facet normal -0.34202 -0.939693 0
    outer loop
      vertex 10.05 11.6971 0
      vertex 10.05 11.6971 10
      vertex 8.58142 12.2316 10
    endloop
  endfacet
  facet normal -0.34202 -0.939693 0
    outer loop
      vertex 8.58142 12.2316 0
      vertex 10.05 11.6971 0
      vertex 8.58142 12.2316 10
    endloop
  endfacet
  facet normal 0 -1 0
    outer loop
      vertex 8.58142 12.2316 0
      vertex 8.58142 12.2316 10
      vertex 7.01858 12.2316 10
    endloop
  endfacet
  facet normal 0 -1 0
    outer loop
      vertex 7.01858 12.2316 0
      vertex 8.58142 12.2316 0
      vertex 7.01858 12.2316 10
    endloop
  endfacet
  facet normal 0.34202 -0.939693 0
    outer loop
      vertex 7.01858 12.2316 0
      vertex 7.01858 12.2316 10
      vertex 5.55 11.6971 10
    endloop
  endfacet
  facet normal 0.34202 -0.939693 0
    outer loop
      vertex 5.55 11.6971 0
      vertex 7.01858 12.2316 0
      vertex 5.55 11.6971 10
    endloop
  endfacet
  facet normal 0.642788 -0.766044 0
    outer loop
      vertex 5.55 11.6971 0
      vertex 5.55 11.6971 10
      vertex 4.3528 10.6925 10
    endloop
  endfacet
  facet normal 0.642788 -0.766044 0
    outer loop
      vertex 4.3528 10.6925 0
      vertex 5.55 11.6971 0
      vertex 4.3528 10.6925 10
    endloop
  endfacet
  facet normal 0.866025 -0.5 0
    outer loop
      vertex 4.3528 10.6925 0
      vertex 4.3528 10.6925 10
      vertex 3.57138 9.33909 10
    endloop
  endfacet
  facet normal 0.866025 -0.5 0
    outer loop
      vertex 3.57138 9.33909 0
      vertex 4.3528 10.6925 0
      vertex 3.57138 9.33909 10
    endloop
  endfacet
  facet normal 0.984808 -0.173648 0
    outer loop
      vertex 3.57138 9.33909 0
      vertex 3.57138 9.33909 10
      vertex 3.3 7.8 10
    endloop
  endfacet
  facet normal 0.984808 -0.173648 0
    outer loop
      vertex 3.3 7.8 0
      vertex 3.57138 9.33909 0
      vertex 3.3 7.8 10
    endloop
  endfacet
  facet normal 0.984808 0.173648 0
    outer loop
      vertex 3.3 7.8 10
      vertex 3.57138 6.26091 10
      vertex 3.57138 6.26091 0
    endloop
  endfacet
  facet normal 0.984808 0.173648 0
    outer loop
      vertex 3.3 7.8 0
      vertex 3.3 7.8 10
      vertex 3.57138 6.26091 0
    endloop
  endfacet
  facet normal 0.866025 0.5 0
    outer loop
      vertex 3.57138 6.26091 10
      vertex 4.3528 4.90746 10
      vertex 4.3528 4.90746 0
    endloop
  endfacet
  facet normal 0.866025 0.5 0
    outer loop
      vertex 3.57138 6.26091 0
      vertex 3.57138 6.26091 10
      vertex 4.3528 4.90746 0
    endloop
  endfacet
  facet normal 0.642788 0.766044 0
    outer loop
      vertex 5.55 3.90289 10
      vertex 5.55 3.90289 0
      vertex 4.3528 4.90746 10
    endloop
  endfacet
  facet normal 0.642788 0.766044 0
    outer loop
      vertex 4.3528 4.90746 10
      vertex 5.55 3.90289 0
      vertex 4.3528 4.90746 0
    endloop
  endfacet
  facet normal 0.34202 0.939693 0
    outer loop
      vertex 7.01858 3.36836 10
      vertex 7.01858 3.36836 0
      vertex 5.55 3.90289 10
    endloop
  endfacet
  facet normal 0.34202 0.939693 0
    outer loop
      vertex 5.55 3.90289 10
      vertex 7.01858 3.36836 0
      vertex 5.55 3.90289 0
    endloop
  endfacet
  facet normal 0 1 0
    outer loop
      vertex 8.58142 3.36836 10
      vertex 8.58142 3.36836 0
      vertex 7.01858 3.36836 10
    endloop
  endfacet
  facet normal 0 1 0
    outer loop
      vertex 7.01858 3.36836 10
      vertex 8.58142 3.36836 0
      vertex 7.01858 3.36836 0
    endloop
  endfacet
  facet normal -0.34202 0.939693 0
    outer loop
      vertex 10.05 3.90289 10
      vertex 10.05 3.90289 0
      vertex 8.58142 3.36836 10
    endloop
  endfacet
  facet normal -0.34202 0.939693 0
    outer loop
      vertex 8.58142 3.36836 10
      vertex 10.05 3.90289 0
      vertex 8.58142 3.36836 0
    endloop
  endfacet
  facet normal -0.642788 0.766044 0
    outer loop
      vertex 10.2253 4.05 10
      vertex 10.2253 4.05 0
      vertex 10.05 3.90289 10
    endloop
  endfacet
  facet normal -0.642788 0.766044 0
    outer loop
      vertex 10.05 3.90289 10
      vertex 10.2253 4.05 0
      vertex 10.05 3.90289 0
    endloop
  endfacet
  facet normal 0 1 0
    outer loop
      vertex 16.4438 4.05 3.2881
      vertex 23.3 4.05 0
      vertex 10.2253 4.05 0
    endloop
  endfacet
  facet normal 0 1 0
    outer loop
      vertex 18.4562 4.05 3.94199
      vertex 23.3 4.05 0
      vertex 17.5562 4.05 3.2881
    endloop
  endfacet
  facet normal 0 1 0
    outer loop
      vertex 10.2253 4.05 10
      vertex 15.5438 4.05 3.94199
      vertex 10.2253 4.05 0
    endloop
  endfacet
  facet normal 0 1 0
    outer loop
      vertex 15.5438 4.05 3.94199
      vertex 16.4438 4.05 3.2881
      vertex 10.2253 4.05 0
    endloop
  endfacet
  facet normal 0 1 0
    outer loop
      vertex 23.3 4.05 10
      vertex 23.3 4.05 0
      vertex 18.4562 4.05 3.94199
    endloop
  endfacet
  facet normal 0 1 0
    outer loop
      vertex 23.3 4.05 10
      vertex 18.4562 4.05 3.94199
      vertex 18.8 4.05 5
    endloop
  endfacet
  facet normal 0 1 0
    outer loop
      vertex 23.3 4.05 10
      vertex 18.8 4.05 5
      vertex 18.4562 4.05 6.05801
    endloop
  endfacet
  facet normal 0 1 0
    outer loop
      vertex 23.3 4.05 10
      vertex 18.4562 4.05 6.05801
      vertex 17.5562 4.05 6.7119
    endloop
  endfacet
  facet normal 0 1 0
    outer loop
      vertex 23.3 4.05 10
      vertex 17.5562 4.05 6.7119
      vertex 10.2253 4.05 10
    endloop
  endfacet
  facet normal 0 1 0
    outer loop
      vertex 15.5438 4.05 6.05801
      vertex 10.2253 4.05 10
      vertex 16.4438 4.05 6.7119
    endloop
  endfacet
  facet normal 0 1 0
    outer loop
      vertex 16.4438 4.05 6.7119
      vertex 10.2253 4.05 10
      vertex 17.5562 4.05 6.7119
    endloop
  endfacet
  facet normal 0 1 0
    outer loop
      vertex 15.2 4.05 5
      vertex 10.2253 4.05 10
      vertex 15.5438 4.05 6.05801
    endloop
  endfacet
  facet normal 0 1 0
    outer loop
      vertex 10.2253 4.05 10
      vertex 15.2 4.05 5
      vertex 15.5438 4.05 3.94199
    endloop
  endfacet
  facet normal 0 1 0
    outer loop
      vertex 17.5562 4.05 3.2881
      vertex 23.3 4.05 0
      vertex 16.4438 4.05 3.2881
    endloop
  endfacet
  facet normal 1 0 0
    outer loop
      vertex 23.3 0 10
      vertex 23.3 0 0
      vertex 23.3 4.05 0
    endloop
  endfacet
  facet normal 1 0 0
    outer loop
      vertex 23.3 4.05 10
      vertex 23.3 0 10
      vertex 23.3 4.05 0
    endloop
  endfacet
  facet normal 0.587786 1.79638e-016 0.809017
    outer loop
      vertex 16.4438 0 3.2881
      vertex 16.4438 4.05 3.2881
      vertex 15.5438 4.05 3.94199
    endloop
  endfacet
  facet normal 0.587786 1.79638e-016 0.809017
    outer loop
      vertex 15.5438 0 3.94199
      vertex 16.4438 0 3.2881
      vertex 15.5438 4.05 3.94199
    endloop
  endfacet
  facet normal 0.951057 6.86155e-017 0.309017
    outer loop
      vertex 15.5438 0 3.94199
      vertex 15.5438 4.05 3.94199
      vertex 15.2 4.05 5
    endloop
  endfacet
  facet normal 0.951057 6.86155e-017 0.309017
    outer loop
      vertex 15.2 0 5
      vertex 15.5438 0 3.94199
      vertex 15.2 4.05 5
    endloop
  endfacet
  facet normal 0 2.22045e-016 1
    outer loop
      vertex 17.5562 0 3.2881
      vertex 17.5562 4.05 3.2881
      vertex 16.4438 4.05 3.2881
    endloop
  endfacet
  facet normal 0 2.22045e-016 1
    outer loop
      vertex 16.4438 0 3.2881
      vertex 17.5562 0 3.2881
      vertex 16.4438 4.05 3.2881
    endloop
  endfacet
  facet normal -0.587786 1.79638e-016 0.809017
    outer loop
      vertex 18.4562 0 3.94199
      vertex 18.4562 4.05 3.94199
      vertex 17.5562 4.05 3.2881
    endloop
  endfacet
  facet normal -0.587786 1.79638e-016 0.809017
    outer loop
      vertex 17.5562 0 3.2881
      vertex 18.4562 0 3.94199
      vertex 17.5562 4.05 3.2881
    endloop
  endfacet
  facet normal -0.951057 6.86155e-017 0.309017
    outer loop
      vertex 18.8 4.05 5
      vertex 18.4562 4.05 3.94199
      vertex 18.8 0 5
    endloop
  endfacet
  facet normal -0.951057 6.86155e-017 0.309017
    outer loop
      vertex 18.8 0 5
      vertex 18.4562 4.05 3.94199
      vertex 18.4562 0 3.94199
    endloop
  endfacet
  facet normal -0.951057 -6.86155e-017 -0.309017
    outer loop
      vertex 18.8 4.05 5
      vertex 18.8 0 5
      vertex 18.4562 4.05 6.05801
    endloop
  endfacet
  facet normal -0.951057 -6.86155e-017 -0.309017
    outer loop
      vertex 18.4562 4.05 6.05801
      vertex 18.8 0 5
      vertex 18.4562 0 6.05801
    endloop
  endfacet
  facet normal -0.587786 -1.79638e-016 -0.809017
    outer loop
      vertex 18.4562 4.05 6.05801
      vertex 18.4562 0 6.05801
      vertex 17.5562 4.05 6.7119
    endloop
  endfacet
  facet normal -0.587786 -1.79638e-016 -0.809017
    outer loop
      vertex 17.5562 4.05 6.7119
      vertex 18.4562 0 6.05801
      vertex 17.5562 0 6.7119
    endloop
  endfacet
  facet normal 0 -2.22045e-016 -1
    outer loop
      vertex 17.5562 4.05 6.7119
      vertex 17.5562 0 6.7119
      vertex 16.4438 4.05 6.7119
    endloop
  endfacet
  facet normal 0 -2.22045e-016 -1
    outer loop
      vertex 16.4438 4.05 6.7119
      vertex 17.5562 0 6.7119
      vertex 16.4438 0 6.7119
    endloop
  endfacet
  facet normal 0.587786 -1.79638e-016 -0.809017
    outer loop
      vertex 16.4438 4.05 6.7119
      vertex 16.4438 0 6.7119
      vertex 15.5438 4.05 6.05801
    endloop
  endfacet
  facet normal 0.587786 -1.79638e-016 -0.809017
    outer loop
      vertex 15.5438 4.05 6.05801
      vertex 16.4438 0 6.7119
      vertex 15.5438 0 6.05801
    endloop
  endfacet
  facet normal 0.951057 -6.86155e-017 -0.309017
    outer loop
      vertex 15.2 4.05 5
      vertex 15.5438 4.05 6.05801
      vertex 15.5438 0 6.05801
    endloop
  endfacet
  facet normal 0.951057 -6.86155e-017 -0.309017
    outer loop
      vertex 15.2 0 5
      vertex 15.2 4.05 5
      vertex 15.5438 0 6.05801
    endloop
  endfacet
  facet normal -1 0 0
    outer loop
      vertex -4.7 4 -8.88178e-016
      vertex -4.7 4 1.5
      vertex -4.7 9 -1.9984e-015
    endloop
  endfacet
  facet normal -1 0 0
    outer loop
      vertex -4.7 9 -1.9984e-015
      vertex -4.7 4 1.5
      vertex -4.7 9 1.5
    endloop
  endfacet
  facet normal 0 1 -2.22045e-016
    outer loop
      vertex -7 4 -8.88178e-016
      vertex -7 4 1.5
      vertex -4.7 4 -8.88178e-016
    endloop
  endfacet
  facet normal 0 1 -2.22045e-016
    outer loop
      vertex -4.7 4 -8.88178e-016
      vertex -7 4 1.5
      vertex -4.7 4 1.5
    endloop
  endfacet
  facet normal 1 0 0
    outer loop
      vertex -7 4 1.5
      vertex -7 4 -8.88178e-016
      vertex -7 5.2 -1.15463e-015
    endloop
  endfacet
  facet normal 1 0 0
    outer loop
      vertex -7 5 8.45359
      vertex -7 4 1.5
      vertex -7 5.2 8.5
    endloop
  endfacet
  facet normal 1 0 0
    outer loop
      vertex -7 5.2 8.5
      vertex -7 4 1.5
      vertex -7 5.2 -1.15463e-015
    endloop
  endfacet
  facet normal 1 0 0
    outer loop
      vertex -7 5 8.5
      vertex -7 5 8.45359
      vertex -7 5.2 8.5
    endloop
  endfacet
  facet normal 1 0 0
    outer loop
      vertex -7 5 8.45359
      vertex -7 3 8.45359
      vertex -7 4 1.5
    endloop
  endfacet
  facet normal 1 0 0
    outer loop
      vertex -7 3 1.5
      vertex -7 4 1.5
      vertex -7 3 8.45359
    endloop
  endfacet
  facet normal 0 1 -2.22045e-016
    outer loop
      vertex -7 5.2 8.5
      vertex -7 5.2 -1.15463e-015
      vertex -7.5 5.2 8.5
    endloop
  endfacet
  facet normal 0 1 -2.22045e-016
    outer loop
      vertex -7.5 5.2 8.5
      vertex -7 5.2 -1.15463e-015
      vertex -7.5 5.2 -1.15463e-015
    endloop
  endfacet
  facet normal -1 0 0
    outer loop
      vertex -7.5 5 8.48038
      vertex -7.5 5 8.5
      vertex -7.5 5.2 8.5
    endloop
  endfacet
  facet normal -1 0 0
    outer loop
      vertex -7.5 5 8.48038
      vertex -7.5 5.2 8.5
      vertex -7.5 5.2 -1.15463e-015
    endloop
  endfacet
  facet normal -1 0 0
    outer loop
      vertex -7.5 5 8.48038
      vertex -7.5 5.2 -1.15463e-015
      vertex -7.5 3 8.48038
    endloop
  endfacet
  facet normal -1 0 0
    outer loop
      vertex -7.5 5.2 -1.15463e-015
      vertex -7.5 4 -8.88178e-016
      vertex -7.5 4 1.5
    endloop
  endfacet
  facet normal -1 0 0
    outer loop
      vertex -7.5 5.2 -1.15463e-015
      vertex -7.5 4 1.5
      vertex -7.5 3 8.48038
    endloop
  endfacet
  facet normal -1 0 0
    outer loop
      vertex -7.5 3 1.5
      vertex -7.5 3 8.48038
      vertex -7.5 4 1.5
    endloop
  endfacet
  facet normal 0 1 -2.22045e-016
    outer loop
      vertex -16.8 4 -8.88178e-016
      vertex -16.8 4 1.5
      vertex -7.5 4 -8.88178e-016
    endloop
  endfacet
  facet normal 0 1 -2.22045e-016
    outer loop
      vertex -7.5 4 -8.88178e-016
      vertex -16.8 4 1.5
      vertex -7.5 4 1.5
    endloop
  endfacet
  facet normal 1 0 0
    outer loop
      vertex -16.8 4 1.5
      vertex -16.8 4 -8.88178e-016
      vertex -16.8 5.2 -1.15463e-015
    endloop
  endfacet
  facet normal 1 0 0
    outer loop
      vertex -16.8 5 8.42679
      vertex -16.8 4 1.5
      vertex -16.8 5.2 8.5
    endloop
  endfacet
  facet normal 1 0 0
    outer loop
      vertex -16.8 5.2 8.5
      vertex -16.8 4 1.5
      vertex -16.8 5.2 -1.15463e-015
    endloop
  endfacet
  facet normal 1 0 0
    outer loop
      vertex -16.8 5 8.5
      vertex -16.8 5 8.42679
      vertex -16.8 5.2 8.5
    endloop
  endfacet
  facet normal 1 0 0
    outer loop
      vertex -16.8 5 8.42679
      vertex -16.8 3 8.42679
      vertex -16.8 4 1.5
    endloop
  endfacet
  facet normal 1 0 0
    outer loop
      vertex -16.8 3 1.5
      vertex -16.8 4 1.5
      vertex -16.8 3 8.42679
    endloop
  endfacet
  facet normal 0 1 -2.22045e-016
    outer loop
      vertex -16.8 5.2 8.5
      vertex -16.8 5.2 -1.15463e-015
      vertex -17.3 5.2 8.5
    endloop
  endfacet
  facet normal 0 1 -2.22045e-016
    outer loop
      vertex -17.3 5.2 8.5
      vertex -16.8 5.2 -1.15463e-015
      vertex -17.3 5.2 -1.15463e-015
    endloop
  endfacet
  facet normal -1 0 0
    outer loop
      vertex -17.3 5.2 8.5
      vertex -17.3 5.2 -1.15463e-015
      vertex -17.3 3 8.5
    endloop
  endfacet
  facet normal -1 0 0
    outer loop
      vertex -17.3 4 1.5
      vertex -17.3 5.2 -1.15463e-015
      vertex -17.3 4 -8.88178e-016
    endloop
  endfacet
  facet normal -1 0 0
    outer loop
      vertex -17.3 3 8.5
      vertex -17.3 5.2 -1.15463e-015
      vertex -17.3 4 1.5
    endloop
  endfacet
  facet normal -1 0 0
    outer loop
      vertex -17.3 3 1.5
      vertex -17.3 3 8.5
      vertex -17.3 4 1.5
    endloop
  endfacet
  facet normal 0 1 -2.22045e-016
    outer loop
      vertex -18.7 4 -8.88178e-016
      vertex -18.7 4 1.5
      vertex -17.3 4 -8.88178e-016
    endloop
  endfacet
  facet normal 0 1 -2.22045e-016
    outer loop
      vertex -17.3 4 -8.88178e-016
      vertex -18.7 4 1.5
      vertex -17.3 4 1.5
    endloop
  endfacet
  facet normal -1 0 0
    outer loop
      vertex -1.5 2.6 1.5
      vertex -1.5 2.6 10
      vertex -1.5 4 1.5
    endloop
  endfacet
  facet normal -1 0 0
    outer loop
      vertex -1.5 4 1.5
      vertex -1.5 2.6 10
      vertex -1.5 4 10
    endloop
  endfacet
  facet normal 0 0 1
    outer loop
      vertex -1.5 4 10
      vertex -1.5 2.6 10
      vertex -1.2 2.6 10
    endloop
  endfacet
  facet normal 0 0 1
    outer loop
      vertex -1.2 4 10
      vertex -1.5 4 10
      vertex -1.2 2.6 10
    endloop
  endfacet
  facet normal -0.965926 5.74694e-017 0.258819
    outer loop
      vertex -17.8526 5 10.05
      vertex -18 5 9.5
      vertex -17.8526 2.6 10.05
    endloop
  endfacet
  facet normal -0.965926 5.74694e-017 0.258819
    outer loop
      vertex -17.8526 2.6 10.05
      vertex -18 5 9.5
      vertex -18 2.6 9.5
    endloop
  endfacet
  facet normal -0.965926 -5.74694e-017 -0.258819
    outer loop
      vertex -17.8526 5 8.95
      vertex -17.8526 2.6 8.95
      vertex -18 5 9.5
    endloop
  endfacet
  facet normal -0.965926 -5.74694e-017 -0.258819
    outer loop
      vertex -18 5 9.5
      vertex -17.8526 2.6 8.95
      vertex -18 2.6 9.5
    endloop
  endfacet
  facet normal -0.707107 1.57009e-016 0.707107
    outer loop
      vertex -17.45 5 10.4526
      vertex -17.8526 5 10.05
      vertex -17.45 2.6 10.4526
    endloop
  endfacet
  facet normal -0.707107 1.57009e-016 0.707107
    outer loop
      vertex -17.45 2.6 10.4526
      vertex -17.8526 5 10.05
      vertex -17.8526 2.6 10.05
    endloop
  endfacet
  facet normal -0.258819 2.14479e-016 0.965926
    outer loop
      vertex -16.9 2.6 10.6
      vertex -16.9 5 10.6
      vertex -17.45 5 10.4526
    endloop
  endfacet
  facet normal -0.258819 2.14479e-016 0.965926
    outer loop
      vertex -17.45 2.6 10.4526
      vertex -16.9 2.6 10.6
      vertex -17.45 5 10.4526
    endloop
  endfacet
  facet normal 0.258819 2.14479e-016 0.965926
    outer loop
      vertex -16.35 2.6 10.4526
      vertex -16.35 5 10.4526
      vertex -16.9 5 10.6
    endloop
  endfacet
  facet normal 0.258819 2.14479e-016 0.965926
    outer loop
      vertex -16.9 2.6 10.6
      vertex -16.35 2.6 10.4526
      vertex -16.9 5 10.6
    endloop
  endfacet
  facet normal 0.707107 1.57009e-016 0.707107
    outer loop
      vertex -15.9474 2.6 10.05
      vertex -15.9474 5 10.05
      vertex -16.35 5 10.4526
    endloop
  endfacet
  facet normal 0.707107 1.57009e-016 0.707107
    outer loop
      vertex -16.35 2.6 10.4526
      vertex -15.9474 2.6 10.05
      vertex -16.35 5 10.4526
    endloop
  endfacet
  facet normal 0.965926 5.74694e-017 0.258819
    outer loop
      vertex -15.8 2.6 9.5
      vertex -15.8 5 9.5
      vertex -15.9474 5 10.05
    endloop
  endfacet
  facet normal 0.965926 5.74694e-017 0.258819
    outer loop
      vertex -15.9474 2.6 10.05
      vertex -15.8 2.6 9.5
      vertex -15.9474 5 10.05
    endloop
  endfacet
  facet normal 0.965926 -5.74694e-017 -0.258819
    outer loop
      vertex -15.9474 5 8.95
      vertex -15.8 5 9.5
      vertex -15.8 2.6 9.5
    endloop
  endfacet
  facet normal 0.965926 -5.74694e-017 -0.258819
    outer loop
      vertex -15.9474 2.6 8.95
      vertex -15.9474 5 8.95
      vertex -15.8 2.6 9.5
    endloop
  endfacet
  facet normal 0.707107 -1.57009e-016 -0.707107
    outer loop
      vertex -16.35 5 8.54737
      vertex -15.9474 5 8.95
      vertex -15.9474 2.6 8.95
    endloop
  endfacet
  facet normal 0.707107 -1.57009e-016 -0.707107
    outer loop
      vertex -16.35 2.6 8.54737
      vertex -16.35 5 8.54737
      vertex -15.9474 2.6 8.95
    endloop
  endfacet
  facet normal 0.258819 -2.14479e-016 -0.965926
    outer loop
      vertex -16.8 3 8.42679
      vertex -16.8 5 8.42679
      vertex -16.35 5 8.54737
    endloop
  endfacet
  facet normal 0.258819 -2.14479e-016 -0.965926
    outer loop
      vertex -16.8 3 8.42679
      vertex -16.35 5 8.54737
      vertex -16.35 2.6 8.54737
    endloop
  endfacet
  facet normal 0.258819 -2.14479e-016 -0.965926
    outer loop
      vertex -16.8 3 8.42679
      vertex -16.35 2.6 8.54737
      vertex -16.9 3 8.4
    endloop
  endfacet
  facet normal 0.258819 -2.14479e-016 -0.965926
    outer loop
      vertex -16.35 2.6 8.54737
      vertex -16.9 2.6 8.4
      vertex -16.9 3 8.4
    endloop
  endfacet
  facet normal -0.258819 -2.14479e-016 -0.965926
    outer loop
      vertex -17.2732 5 8.5
      vertex -17.2732 3 8.5
      vertex -17.45 5 8.54737
    endloop
  endfacet
  facet normal -0.258819 -2.14479e-016 -0.965926
    outer loop
      vertex -16.9 2.6 8.4
      vertex -17.2732 3 8.5
      vertex -16.9 3 8.4
    endloop
  endfacet
  facet normal -0.258819 -2.14479e-016 -0.965926
    outer loop
      vertex -17.45 2.6 8.54737
      vertex -17.2732 3 8.5
      vertex -16.9 2.6 8.4
    endloop
  endfacet
  facet normal -0.258819 -2.14479e-016 -0.965926
    outer loop
      vertex -17.45 5 8.54737
      vertex -17.2732 3 8.5
      vertex -17.45 2.6 8.54737
    endloop
  endfacet
  facet normal -0.707107 -1.57009e-016 -0.707107
    outer loop
      vertex -17.45 5 8.54737
      vertex -17.45 2.6 8.54737
      vertex -17.8526 5 8.95
    endloop
  endfacet
  facet normal -0.707107 -1.57009e-016 -0.707107
    outer loop
      vertex -17.8526 5 8.95
      vertex -17.45 2.6 8.54737
      vertex -17.8526 2.6 8.95
    endloop
  endfacet
  facet normal -0.965926 5.74694e-017 0.258819
    outer loop
      vertex -8.15263 5 10.05
      vertex -8.3 5 9.5
      vertex -8.15263 2.6 10.05
    endloop
  endfacet
  facet normal -0.965926 5.74694e-017 0.258819
    outer loop
      vertex -8.15263 2.6 10.05
      vertex -8.3 5 9.5
      vertex -8.3 2.6 9.5
    endloop
  endfacet
  facet normal -0.965926 -5.74694e-017 -0.258819
    outer loop
      vertex -8.15263 5 8.95
      vertex -8.15263 2.6 8.95
      vertex -8.3 5 9.5
    endloop
  endfacet
  facet normal -0.965926 -5.74694e-017 -0.258819
    outer loop
      vertex -8.3 5 9.5
      vertex -8.15263 2.6 8.95
      vertex -8.3 2.6 9.5
    endloop
  endfacet
  facet normal -0.707107 1.57009e-016 0.707107
    outer loop
      vertex -7.75 5 10.4526
      vertex -8.15263 5 10.05
      vertex -7.75 2.6 10.4526
    endloop
  endfacet
  facet normal -0.707107 1.57009e-016 0.707107
    outer loop
      vertex -7.75 2.6 10.4526
      vertex -8.15263 5 10.05
      vertex -8.15263 2.6 10.05
    endloop
  endfacet
  facet normal -0.258819 2.14479e-016 0.965926
    outer loop
      vertex -7.2 2.6 10.6
      vertex -7.2 5 10.6
      vertex -7.75 5 10.4526
    endloop
  endfacet
  facet normal -0.258819 2.14479e-016 0.965926
    outer loop
      vertex -7.75 2.6 10.4526
      vertex -7.2 2.6 10.6
      vertex -7.75 5 10.4526
    endloop
  endfacet
  facet normal 0.258819 2.14479e-016 0.965926
    outer loop
      vertex -6.65 2.6 10.4526
      vertex -6.65 5 10.4526
      vertex -7.2 5 10.6
    endloop
  endfacet
  facet normal 0.258819 2.14479e-016 0.965926
    outer loop
      vertex -7.2 2.6 10.6
      vertex -6.65 2.6 10.4526
      vertex -7.2 5 10.6
    endloop
  endfacet
  facet normal 0.707107 1.57009e-016 0.707107
    outer loop
      vertex -6.24737 2.6 10.05
      vertex -6.24737 5 10.05
      vertex -6.65 5 10.4526
    endloop
  endfacet
  facet normal 0.707107 1.57009e-016 0.707107
    outer loop
      vertex -6.65 2.6 10.4526
      vertex -6.24737 2.6 10.05
      vertex -6.65 5 10.4526
    endloop
  endfacet
  facet normal 0.965926 5.74694e-017 0.258819
    outer loop
      vertex -6.1 2.6 9.5
      vertex -6.1 5 9.5
      vertex -6.24737 5 10.05
    endloop
  endfacet
  facet normal 0.965926 5.74694e-017 0.258819
    outer loop
      vertex -6.24737 2.6 10.05
      vertex -6.1 2.6 9.5
      vertex -6.24737 5 10.05
    endloop
  endfacet
  facet normal 0.965926 -5.74694e-017 -0.258819
    outer loop
      vertex -6.24737 5 8.95
      vertex -6.1 5 9.5
      vertex -6.1 2.6 9.5
    endloop
  endfacet
  facet normal 0.965926 -5.74694e-017 -0.258819
    outer loop
      vertex -6.24737 2.6 8.95
      vertex -6.24737 5 8.95
      vertex -6.1 2.6 9.5
    endloop
  endfacet
  facet normal 0.707107 -1.57009e-016 -0.707107
    outer loop
      vertex -6.65 5 8.54737
      vertex -6.24737 5 8.95
      vertex -6.24737 2.6 8.95
    endloop
  endfacet
  facet normal 0.707107 -1.57009e-016 -0.707107
    outer loop
      vertex -6.65 2.6 8.54737
      vertex -6.65 5 8.54737
      vertex -6.24737 2.6 8.95
    endloop
  endfacet
  facet normal 0.258819 -2.14479e-016 -0.965926
    outer loop
      vertex -7 3 8.45359
      vertex -7 5 8.45359
      vertex -6.65 5 8.54737
    endloop
  endfacet
  facet normal 0.258819 -2.14479e-016 -0.965926
    outer loop
      vertex -7 3 8.45359
      vertex -6.65 5 8.54737
      vertex -6.65 2.6 8.54737
    endloop
  endfacet
  facet normal 0.258819 -2.14479e-016 -0.965926
    outer loop
      vertex -7 3 8.45359
      vertex -6.65 2.6 8.54737
      vertex -7.2 3 8.4
    endloop
  endfacet
  facet normal 0.258819 -2.14479e-016 -0.965926
    outer loop
      vertex -6.65 2.6 8.54737
      vertex -7.2 2.6 8.4
      vertex -7.2 3 8.4
    endloop
  endfacet
  facet normal -0.258819 -2.14479e-016 -0.965926
    outer loop
      vertex -7.5 5 8.48038
      vertex -7.5 3 8.48038
      vertex -7.75 5 8.54737
    endloop
  endfacet
  facet normal -0.258819 -2.14479e-016 -0.965926
    outer loop
      vertex -7.2 2.6 8.4
      vertex -7.5 3 8.48038
      vertex -7.2 3 8.4
    endloop
  endfacet
  facet normal -0.258819 -2.14479e-016 -0.965926
    outer loop
      vertex -7.75 2.6 8.54737
      vertex -7.5 3 8.48038
      vertex -7.2 2.6 8.4
    endloop
  endfacet
  facet normal -0.258819 -2.14479e-016 -0.965926
    outer loop
      vertex -7.75 5 8.54737
      vertex -7.5 3 8.48038
      vertex -7.75 2.6 8.54737
    endloop
  endfacet
  facet normal -0.707107 -1.57009e-016 -0.707107
    outer loop
      vertex -7.75 5 8.54737
      vertex -7.75 2.6 8.54737
      vertex -8.15263 5 8.95
    endloop
  endfacet
  facet normal -0.707107 -1.57009e-016 -0.707107
    outer loop
      vertex -8.15263 5 8.95
      vertex -7.75 2.6 8.54737
      vertex -8.15263 2.6 8.95
    endloop
  endfacet
  facet normal 0 1 0
    outer loop
      vertex -1.5 4 1.5
      vertex -1.5 4 10
      vertex -1.2 4 1.5
    endloop
  endfacet
  facet normal 0 1 0
    outer loop
      vertex -1.2 4 1.5
      vertex -1.5 4 10
      vertex -1.2 4 10
    endloop
  endfacet
  facet normal 0 -1 2.22045e-016
    outer loop
      vertex -16.8 3 1.5
      vertex -16.8 3 8.42679
      vertex -16.9 3 8.4
    endloop
  endfacet
  facet normal 0 -1 2.22045e-016
    outer loop
      vertex -17.2732 3 8.5
      vertex -16.8 3 1.5
      vertex -16.9 3 8.4
    endloop
  endfacet
  facet normal 0 -1 2.22045e-016
    outer loop
      vertex -17.2732 3 8.5
      vertex -17.3 3 8.5
      vertex -16.8 3 1.5
    endloop
  endfacet
  facet normal 0 -1 2.22045e-016
    outer loop
      vertex -17.3 3 8.5
      vertex -17.3 3 1.5
      vertex -16.8 3 1.5
    endloop
  endfacet
  facet normal 0 -1 2.22045e-016
    outer loop
      vertex -7 3 1.5
      vertex -7 3 8.45359
      vertex -7.2 3 8.4
    endloop
  endfacet
  facet normal 0 -1 2.22045e-016
    outer loop
      vertex -7.5 3 8.48038
      vertex -7 3 1.5
      vertex -7.2 3 8.4
    endloop
  endfacet
  facet normal 0 -1 2.22045e-016
    outer loop
      vertex -7.5 3 8.48038
      vertex -7.5 3 1.5
      vertex -7 3 1.5
    endloop
  endfacet
  facet normal -0.866025 1.11022e-016 0.5
    outer loop
      vertex 11.23 15.6 5
      vertex 14.115 15.6 9.99697
      vertex 11.23 17.5 5
    endloop
  endfacet
  facet normal -0.866025 1.11022e-016 0.5
    outer loop
      vertex 11.23 17.5 5
      vertex 14.115 15.6 9.99697
      vertex 14.115 17.5 9.99697
    endloop
  endfacet
  facet normal -0.866025 -1.11022e-016 -0.5
    outer loop
      vertex 11.23 15.6 5
      vertex 11.23 17.5 5
      vertex 14.115 15.6 0.003033
    endloop
  endfacet
  facet normal -0.866025 -1.11022e-016 -0.5
    outer loop
      vertex 14.115 15.6 0.003033
      vertex 11.23 17.5 5
      vertex 14.115 17.5 0.003033
    endloop
  endfacet
  facet normal 0 2.22045e-016 1
    outer loop
      vertex 14.115 17.5 9.99697
      vertex 14.115 15.6 9.99697
      vertex 19.885 15.6 9.99697
    endloop
  endfacet
  facet normal 0 2.22045e-016 1
    outer loop
      vertex 19.885 17.5 9.99697
      vertex 14.115 17.5 9.99697
      vertex 19.885 15.6 9.99697
    endloop
  endfacet
  facet normal 0.866025 1.11022e-016 0.5
    outer loop
      vertex 19.885 17.5 9.99697
      vertex 19.885 15.6 9.99697
      vertex 22.77 15.6 5
    endloop
  endfacet
  facet normal 0.866025 1.11022e-016 0.5
    outer loop
      vertex 22.77 17.5 5
      vertex 19.885 17.5 9.99697
      vertex 22.77 15.6 5
    endloop
  endfacet
  facet normal 0.866025 -1.11022e-016 -0.5
    outer loop
      vertex 22.77 15.6 5
      vertex 19.885 15.6 0.003033
      vertex 19.885 17.5 0.003033
    endloop
  endfacet
  facet normal 0.866025 -1.11022e-016 -0.5
    outer loop
      vertex 22.77 17.5 5
      vertex 22.77 15.6 5
      vertex 19.885 17.5 0.003033
    endloop
  endfacet
  facet normal 0 -2.22045e-016 -1
    outer loop
      vertex 14.115 15.6 0.003033
      vertex 14.115 17.5 0.003033
      vertex 19.885 15.6 0.003033
    endloop
  endfacet
  facet normal 0 -2.22045e-016 -1
    outer loop
      vertex 19.885 15.6 0.003033
      vertex 14.115 17.5 0.003033
      vertex 19.885 17.5 0.003033
    endloop
  endfacet
  facet normal 0.951057 -6.86155e-017 -0.309017
    outer loop
      vertex 15.2 14.5 5
      vertex 15.5438 14.5 6.05801
      vertex 15.5438 11.55 6.05801
    endloop
  endfacet
  facet normal 0.951057 -6.86155e-017 -0.309017
    outer loop
      vertex 15.2 11.55 5
      vertex 15.2 14.5 5
      vertex 15.5438 11.55 6.05801
    endloop
  endfacet
  facet normal 0.951057 6.86155e-017 0.309017
    outer loop
      vertex 15.5438 11.55 3.94199
      vertex 15.5438 14.5 3.94199
      vertex 15.2 14.5 5
    endloop
  endfacet
  facet normal 0.951057 6.86155e-017 0.309017
    outer loop
      vertex 15.2 11.55 5
      vertex 15.5438 11.55 3.94199
      vertex 15.2 14.5 5
    endloop
  endfacet
  facet normal 0.587786 1.79638e-016 0.809017
    outer loop
      vertex 16.4438 11.55 3.2881
      vertex 16.4438 14.5 3.2881
      vertex 15.5438 14.5 3.94199
    endloop
  endfacet
  facet normal 0.587786 1.79638e-016 0.809017
    outer loop
      vertex 15.5438 11.55 3.94199
      vertex 16.4438 11.55 3.2881
      vertex 15.5438 14.5 3.94199
    endloop
  endfacet
  facet normal 0 2.22045e-016 1
    outer loop
      vertex 17.5562 11.55 3.2881
      vertex 17.5562 14.5 3.2881
      vertex 16.4438 14.5 3.2881
    endloop
  endfacet
  facet normal 0 2.22045e-016 1
    outer loop
      vertex 16.4438 11.55 3.2881
      vertex 17.5562 11.55 3.2881
      vertex 16.4438 14.5 3.2881
    endloop
  endfacet
  facet normal -0.587786 1.79638e-016 0.809017
    outer loop
      vertex 18.4562 11.55 3.94199
      vertex 18.4562 14.5 3.94199
      vertex 17.5562 14.5 3.2881
    endloop
  endfacet
  facet normal -0.587786 1.79638e-016 0.809017
    outer loop
      vertex 17.5562 11.55 3.2881
      vertex 18.4562 11.55 3.94199
      vertex 17.5562 14.5 3.2881
    endloop
  endfacet
  facet normal -0.951057 6.86155e-017 0.309017
    outer loop
      vertex 18.8 14.5 5
      vertex 18.4562 14.5 3.94199
      vertex 18.8 11.55 5
    endloop
  endfacet
  facet normal -0.951057 6.86155e-017 0.309017
    outer loop
      vertex 18.8 11.55 5
      vertex 18.4562 14.5 3.94199
      vertex 18.4562 11.55 3.94199
    endloop
  endfacet
  facet normal -0.951057 -6.86155e-017 -0.309017
    outer loop
      vertex 18.8 14.5 5
      vertex 18.8 11.55 5
      vertex 18.4562 14.5 6.05801
    endloop
  endfacet
  facet normal -0.951057 -6.86155e-017 -0.309017
    outer loop
      vertex 18.4562 14.5 6.05801
      vertex 18.8 11.55 5
      vertex 18.4562 11.55 6.05801
    endloop
  endfacet
  facet normal -0.587786 -1.79638e-016 -0.809017
    outer loop
      vertex 18.4562 14.5 6.05801
      vertex 18.4562 11.55 6.05801
      vertex 17.5562 14.5 6.7119
    endloop
  endfacet
  facet normal -0.587786 -1.79638e-016 -0.809017
    outer loop
      vertex 17.5562 14.5 6.7119
      vertex 18.4562 11.55 6.05801
      vertex 17.5562 11.55 6.7119
    endloop
  endfacet
  facet normal 0 -2.22045e-016 -1
    outer loop
      vertex 17.5562 14.5 6.7119
      vertex 17.5562 11.55 6.7119
      vertex 16.4438 14.5 6.7119
    endloop
  endfacet
  facet normal 0 -2.22045e-016 -1
    outer loop
      vertex 16.4438 14.5 6.7119
      vertex 17.5562 11.55 6.7119
      vertex 16.4438 11.55 6.7119
    endloop
  endfacet
  facet normal 0.587786 -1.79638e-016 -0.809017
    outer loop
      vertex 16.4438 14.5 6.7119
      vertex 16.4438 11.55 6.7119
      vertex 15.5438 14.5 6.05801
    endloop
  endfacet
  facet normal 0.587786 -1.79638e-016 -0.809017
    outer loop
      vertex 15.5438 14.5 6.05801
      vertex 16.4438 11.55 6.7119
      vertex 15.5438 11.55 6.05801
    endloop
  endfacet
  facet normal 0 1 -2.22045e-016
    outer loop
      vertex -8.3 5 9.5
      vertex -8.15263 5 10.05
      vertex -8.15263 5 8.95
    endloop
  endfacet
  facet normal 0 1 -2.22045e-016
    outer loop
      vertex -8.15263 5 8.95
      vertex -8.15263 5 10.05
      vertex -7.75 5 10.4526
    endloop
  endfacet
  facet normal 0 1 -2.22045e-016
    outer loop
      vertex -8.15263 5 8.95
      vertex -7.75 5 10.4526
      vertex -7.2 5 10.6
    endloop
  endfacet
  facet normal 0 1 -2.22045e-016
    outer loop
      vertex -8.15263 5 8.95
      vertex -7.2 5 10.6
      vertex -6.65 5 10.4526
    endloop
  endfacet
  facet normal 0 1 -2.22045e-016
    outer loop
      vertex -8.15263 5 8.95
      vertex -6.65 5 10.4526
      vertex -6.24737 5 10.05
    endloop
  endfacet
  facet normal 0 1 -2.22045e-016
    outer loop
      vertex -8.15263 5 8.95
      vertex -6.24737 5 10.05
      vertex -6.1 5 9.5
    endloop
  endfacet
  facet normal 0 1 -2.22045e-016
    outer loop
      vertex -8.15263 5 8.95
      vertex -6.1 5 9.5
      vertex -6.24737 5 8.95
    endloop
  endfacet
  facet normal 0 1 -2.22045e-016
    outer loop
      vertex -8.15263 5 8.95
      vertex -6.24737 5 8.95
      vertex -6.65 5 8.54737
    endloop
  endfacet
  facet normal 0 1 -2.22045e-016
    outer loop
      vertex -7 5 8.5
      vertex -6.65 5 8.54737
      vertex -7 5 8.45359
    endloop
  endfacet
  facet normal 0 1 -2.22045e-016
    outer loop
      vertex -8.15263 5 8.95
      vertex -6.65 5 8.54737
      vertex -7 5 8.5
    endloop
  endfacet
  facet normal 0 1 -2.22045e-016
    outer loop
      vertex -8.15263 5 8.95
      vertex -7.5 5 8.5
      vertex -7.5 5 8.48038
    endloop
  endfacet
  facet normal 0 1 -2.22045e-016
    outer loop
      vertex -8.15263 5 8.95
      vertex -7.5 5 8.48038
      vertex -7.75 5 8.54737
    endloop
  endfacet
  facet normal 0 1 -2.22045e-016
    outer loop
      vertex -7.5 5 8.5
      vertex -8.15263 5 8.95
      vertex -7 5 8.5
    endloop
  endfacet
  facet normal 0 2.22045e-016 1
    outer loop
      vertex -7 5 8.5
      vertex -7 5.2 8.5
      vertex -7.5 5.2 8.5
    endloop
  endfacet
  facet normal 0 2.22045e-016 1
    outer loop
      vertex -7.5 5 8.5
      vertex -7 5 8.5
      vertex -7.5 5.2 8.5
    endloop
  endfacet
  facet normal 0 1 -2.22045e-016
    outer loop
      vertex -18 5 9.5
      vertex -17.8526 5 10.05
      vertex -17.8526 5 8.95
    endloop
  endfacet
  facet normal 0 1 -2.22045e-016
    outer loop
      vertex -17.8526 5 8.95
      vertex -17.8526 5 10.05
      vertex -17.45 5 10.4526
    endloop
  endfacet
  facet normal 0 1 -2.22045e-016
    outer loop
      vertex -17.8526 5 8.95
      vertex -17.45 5 10.4526
      vertex -16.9 5 10.6
    endloop
  endfacet
  facet normal 0 1 -2.22045e-016
    outer loop
      vertex -17.8526 5 8.95
      vertex -16.9 5 10.6
      vertex -16.35 5 10.4526
    endloop
  endfacet
  facet normal 0 1 -2.22045e-016
    outer loop
      vertex -17.8526 5 8.95
      vertex -16.35 5 10.4526
      vertex -15.9474 5 10.05
    endloop
  endfacet
  facet normal 0 1 -2.22045e-016
    outer loop
      vertex -17.8526 5 8.95
      vertex -15.9474 5 10.05
      vertex -15.8 5 9.5
    endloop
  endfacet
  facet normal 0 1 -2.22045e-016
    outer loop
      vertex -17.8526 5 8.95
      vertex -15.8 5 9.5
      vertex -15.9474 5 8.95
    endloop
  endfacet
  facet normal 0 1 -2.22045e-016
    outer loop
      vertex -17.8526 5 8.95
      vertex -15.9474 5 8.95
      vertex -16.35 5 8.54737
    endloop
  endfacet
  facet normal 0 1 -2.22045e-016
    outer loop
      vertex -16.8 5 8.5
      vertex -16.35 5 8.54737
      vertex -16.8 5 8.42679
    endloop
  endfacet
  facet normal 0 1 -2.22045e-016
    outer loop
      vertex -17.8526 5 8.95
      vertex -16.35 5 8.54737
      vertex -16.8 5 8.5
    endloop
  endfacet
  facet normal 0 1 -2.22045e-016
    outer loop
      vertex -17.8526 5 8.95
      vertex -17.2732 5 8.5
      vertex -17.45 5 8.54737
    endloop
  endfacet
  facet normal 0 1 -2.22045e-016
    outer loop
      vertex -17.2732 5 8.5
      vertex -17.8526 5 8.95
      vertex -16.8 5 8.5
    endloop
  endfacet
  facet normal 0 2.22045e-016 1
    outer loop
      vertex -16.8 5.2 8.5
      vertex -17.2732 5 8.5
      vertex -16.8 5 8.5
    endloop
  endfacet
  facet normal 0 2.22045e-016 1
    outer loop
      vertex -17.3 5.2 8.5
      vertex -17.2732 5 8.5
      vertex -16.8 5.2 8.5
    endloop
  endfacet
  facet normal 0 2.22045e-016 1
    outer loop
      vertex -17.2732 3 8.5
      vertex -17.2732 5 8.5
      vertex -17.3 5.2 8.5
    endloop
  endfacet
  facet normal 0 2.22045e-016 1
    outer loop
      vertex -17.3 3 8.5
      vertex -17.2732 3 8.5
      vertex -17.3 5.2 8.5
    endloop
  endfacet
  facet normal 0 1 -2.22045e-016
    outer loop
      vertex 15.475 17.5 2.35862
      vertex 14.115 17.5 0.003033
      vertex 13.95 17.5 5
    endloop
  endfacet
  facet normal 0 1 -2.22045e-016
    outer loop
      vertex 15.475 17.5 7.64138
      vertex 14.115 17.5 9.99697
      vertex 19.885 17.5 9.99697
    endloop
  endfacet
  facet normal 0 1 -2.22045e-016
    outer loop
      vertex 20.05 17.5 5
      vertex 19.885 17.5 9.99697
      vertex 22.77 17.5 5
    endloop
  endfacet
  facet normal 0 1 -2.22045e-016
    outer loop
      vertex 18.525 17.5 2.35862
      vertex 22.77 17.5 5
      vertex 19.885 17.5 0.003033
    endloop
  endfacet
  facet normal 0 1 -2.22045e-016
    outer loop
      vertex 11.23 17.5 5
      vertex 14.115 17.5 9.99697
      vertex 13.95 17.5 5
    endloop
  endfacet
  facet normal 0 1 -2.22045e-016
    outer loop
      vertex 11.23 17.5 5
      vertex 13.95 17.5 5
      vertex 14.115 17.5 0.003033
    endloop
  endfacet
  facet normal 0 1 -2.22045e-016
    outer loop
      vertex 20.05 17.5 5
      vertex 22.77 17.5 5
      vertex 18.525 17.5 2.35862
    endloop
  endfacet
  facet normal 0 1 -2.22045e-016
    outer loop
      vertex 14.115 17.5 0.003033
      vertex 18.525 17.5 2.35862
      vertex 19.885 17.5 0.003033
    endloop
  endfacet
  facet normal 0 1 -2.22045e-016
    outer loop
      vertex 18.525 17.5 7.64138
      vertex 19.885 17.5 9.99697
      vertex 20.05 17.5 5
    endloop
  endfacet
  facet normal 0 1 -2.22045e-016
    outer loop
      vertex 13.95 17.5 5
      vertex 14.115 17.5 9.99697
      vertex 15.475 17.5 7.64138
    endloop
  endfacet
  facet normal 0 1 -2.22045e-016
    outer loop
      vertex 18.525 17.5 2.35862
      vertex 14.115 17.5 0.003033
      vertex 15.475 17.5 2.35862
    endloop
  endfacet
  facet normal 0 1 -2.22045e-016
    outer loop
      vertex 15.475 17.5 7.64138
      vertex 19.885 17.5 9.99697
      vertex 18.525 17.5 7.64138
    endloop
  endfacet
  facet normal 0 1 -2.22045e-016
    outer loop
      vertex 16.4438 14.5 6.7119
      vertex 15.475 14.5 7.64138
      vertex 17.5562 14.5 6.7119
    endloop
  endfacet
  facet normal 0 1 -2.22045e-016
    outer loop
      vertex 18.4562 14.5 3.94199
      vertex 20.05 14.5 5
      vertex 18.525 14.5 2.35862
    endloop
  endfacet
  facet normal 0 1 -2.22045e-016
    outer loop
      vertex 16.4438 14.5 3.2881
      vertex 18.525 14.5 2.35862
      vertex 15.475 14.5 2.35862
    endloop
  endfacet
  facet normal 0 1 -2.22045e-016
    outer loop
      vertex 15.2 14.5 5
      vertex 15.475 14.5 2.35862
      vertex 13.95 14.5 5
    endloop
  endfacet
  facet normal 0 1 -2.22045e-016
    outer loop
      vertex 18.4562 14.5 3.94199
      vertex 18.525 14.5 2.35862
      vertex 17.5562 14.5 3.2881
    endloop
  endfacet
  facet normal 0 1 -2.22045e-016
    outer loop
      vertex 17.5562 14.5 3.2881
      vertex 18.525 14.5 2.35862
      vertex 16.4438 14.5 3.2881
    endloop
  endfacet
  facet normal 0 1 -2.22045e-016
    outer loop
      vertex 15.5438 14.5 3.94199
      vertex 16.4438 14.5 3.2881
      vertex 15.475 14.5 2.35862
    endloop
  endfacet
  facet normal 0 1 -2.22045e-016
    outer loop
      vertex 18.8 14.5 5
      vertex 20.05 14.5 5
      vertex 18.4562 14.5 3.94199
    endloop
  endfacet
  facet normal 0 1 -2.22045e-016
    outer loop
      vertex 18.4562 14.5 6.05801
      vertex 20.05 14.5 5
      vertex 18.8 14.5 5
    endloop
  endfacet
  facet normal 0 1 -2.22045e-016
    outer loop
      vertex 18.525 14.5 7.64138
      vertex 20.05 14.5 5
      vertex 18.4562 14.5 6.05801
    endloop
  endfacet
  facet normal 0 1 -2.22045e-016
    outer loop
      vertex 18.525 14.5 7.64138
      vertex 18.4562 14.5 6.05801
      vertex 17.5562 14.5 6.7119
    endloop
  endfacet
  facet normal 0 1 -2.22045e-016
    outer loop
      vertex 18.525 14.5 7.64138
      vertex 17.5562 14.5 6.7119
      vertex 15.475 14.5 7.64138
    endloop
  endfacet
  facet normal 0 1 -2.22045e-016
    outer loop
      vertex 15.5438 14.5 6.05801
      vertex 15.475 14.5 7.64138
      vertex 16.4438 14.5 6.7119
    endloop
  endfacet
  facet normal 0 1 -2.22045e-016
    outer loop
      vertex 15.2 14.5 5
      vertex 15.475 14.5 7.64138
      vertex 15.5438 14.5 6.05801
    endloop
  endfacet
  facet normal 0 1 -2.22045e-016
    outer loop
      vertex 15.475 14.5 7.64138
      vertex 15.2 14.5 5
      vertex 13.95 14.5 5
    endloop
  endfacet
  facet normal 0 1 -2.22045e-016
    outer loop
      vertex 15.5438 14.5 3.94199
      vertex 15.475 14.5 2.35862
      vertex 15.2 14.5 5
    endloop
  endfacet
  facet normal 0.866025 -1.11022e-016 -0.5
    outer loop
      vertex 13.95 17.5 5
      vertex 15.475 17.5 7.64138
      vertex 15.475 14.5 7.64138
    endloop
  endfacet
  facet normal 0.866025 -1.11022e-016 -0.5
    outer loop
      vertex 13.95 14.5 5
      vertex 13.95 17.5 5
      vertex 15.475 14.5 7.64138
    endloop
  endfacet
  facet normal 0.866025 1.11022e-016 0.5
    outer loop
      vertex 15.475 14.5 2.35862
      vertex 15.475 17.5 2.35862
      vertex 13.95 17.5 5
    endloop
  endfacet
  facet normal 0.866025 1.11022e-016 0.5
    outer loop
      vertex 13.95 14.5 5
      vertex 15.475 14.5 2.35862
      vertex 13.95 17.5 5
    endloop
  endfacet
  facet normal 0 -2.22045e-016 -1
    outer loop
      vertex 18.525 17.5 7.64138
      vertex 18.525 14.5 7.64138
      vertex 15.475 17.5 7.64138
    endloop
  endfacet
  facet normal 0 -2.22045e-016 -1
    outer loop
      vertex 15.475 17.5 7.64138
      vertex 18.525 14.5 7.64138
      vertex 15.475 14.5 7.64138
    endloop
  endfacet
  facet normal -0.866025 -1.11022e-016 -0.5
    outer loop
      vertex 20.05 17.5 5
      vertex 20.05 14.5 5
      vertex 18.525 17.5 7.64138
    endloop
  endfacet
  facet normal -0.866025 -1.11022e-016 -0.5
    outer loop
      vertex 18.525 17.5 7.64138
      vertex 20.05 14.5 5
      vertex 18.525 14.5 7.64138
    endloop
  endfacet
  facet normal -0.866025 1.11022e-016 0.5
    outer loop
      vertex 20.05 17.5 5
      vertex 18.525 17.5 2.35862
      vertex 20.05 14.5 5
    endloop
  endfacet
  facet normal -0.866025 1.11022e-016 0.5
    outer loop
      vertex 20.05 14.5 5
      vertex 18.525 17.5 2.35862
      vertex 18.525 14.5 2.35862
    endloop
  endfacet
  facet normal 0 2.22045e-016 1
    outer loop
      vertex 18.525 14.5 2.35862
      vertex 18.525 17.5 2.35862
      vertex 15.475 17.5 2.35862
    endloop
  endfacet
  facet normal 0 2.22045e-016 1
    outer loop
      vertex 15.475 14.5 2.35862
      vertex 18.525 14.5 2.35862
      vertex 15.475 17.5 2.35862
    endloop
  endfacet
endsolid OpenSCAD_Model
