solid OpenSCAD_Model
  facet normal 0 0 -1
    outer loop
      vertex -38 -30 0
      vertex -34 -30 0
      vertex -34 -36.9282 0
    endloop
  endfacet
  facet normal 0 0 -1
    outer loop
      vertex -32 -26.5359 0
      vertex -34 -23.0718 0
      vertex -26 -23.0718 0
    endloop
  endfacet
  facet normal 0 0 -1
    outer loop
      vertex -26 -30 0
      vertex -26 -23.0718 0
      vertex -22 -30 0
    endloop
  endfacet
  facet normal 0 0 -1
    outer loop
      vertex -28 -33.4641 0
      vertex -22 -30 0
      vertex -26 -36.9282 0
    endloop
  endfacet
  facet normal 0 0 -1
    outer loop
      vertex -38 -30 0
      vertex -34 -23.0718 0
      vertex -34 -30 0
    endloop
  endfacet
  facet normal 0 0 -1
    outer loop
      vertex -28 -33.4641 0
      vertex -34 -36.9282 0
      vertex -32 -33.4641 0
    endloop
  endfacet
  facet normal 0 0 -1
    outer loop
      vertex -26 -30 0
      vertex -22 -30 0
      vertex -28 -33.4641 0
    endloop
  endfacet
  facet normal 0 0 -1
    outer loop
      vertex -34 -36.9282 0
      vertex -28 -33.4641 0
      vertex -26 -36.9282 0
    endloop
  endfacet
  facet normal 0 0 -1
    outer loop
      vertex -28 -26.5359 0
      vertex -26 -23.0718 0
      vertex -26 -30 0
    endloop
  endfacet
  facet normal 0 0 -1
    outer loop
      vertex -34 -30 0
      vertex -34 -23.0718 0
      vertex -32 -26.5359 0
    endloop
  endfacet
  facet normal 0 0 -1
    outer loop
      vertex -32 -33.4641 0
      vertex -34 -36.9282 0
      vertex -34 -30 0
    endloop
  endfacet
  facet normal 0 0 -1
    outer loop
      vertex -32 -26.5359 0
      vertex -26 -23.0718 0
      vertex -28 -26.5359 0
    endloop
  endfacet
  facet normal -0.866025 0.5 0
    outer loop
      vertex -38 -30 0
      vertex -38 -30 8
      vertex -34 -23.0718 0
    endloop
  endfacet
  facet normal -0.866025 0.5 0
    outer loop
      vertex -34 -23.0718 0
      vertex -38 -30 8
      vertex -34 -23.0718 8
    endloop
  endfacet
  facet normal -0.866025 -0.5 0
    outer loop
      vertex -38 -30 0
      vertex -34 -36.9282 0
      vertex -38 -30 8
    endloop
  endfacet
  facet normal -0.866025 -0.5 0
    outer loop
      vertex -38 -30 8
      vertex -34 -36.9282 0
      vertex -34 -36.9282 8
    endloop
  endfacet
  facet normal 0 -1 0
    outer loop
      vertex -34 -36.9282 8
      vertex -34 -36.9282 0
      vertex -26 -36.9282 0
    endloop
  endfacet
  facet normal 0 -1 0
    outer loop
      vertex -26 -36.9282 8
      vertex -34 -36.9282 8
      vertex -26 -36.9282 0
    endloop
  endfacet
  facet normal 0.866025 -0.5 0
    outer loop
      vertex -26 -36.9282 8
      vertex -26 -36.9282 0
      vertex -22 -30 0
    endloop
  endfacet
  facet normal 0.866025 -0.5 0
    outer loop
      vertex -22 -30 8
      vertex -26 -36.9282 8
      vertex -22 -30 0
    endloop
  endfacet
  facet normal 0.866025 0.5 0
    outer loop
      vertex -22 -30 0
      vertex -26 -23.0718 0
      vertex -26 -23.0718 8
    endloop
  endfacet
  facet normal 0.866025 0.5 0
    outer loop
      vertex -22 -30 8
      vertex -22 -30 0
      vertex -26 -23.0718 8
    endloop
  endfacet
  facet normal 0 1 0
    outer loop
      vertex -34 -23.0718 0
      vertex -34 -23.0718 8
      vertex -26 -23.0718 0
    endloop
  endfacet
  facet normal 0 1 0
    outer loop
      vertex -26 -23.0718 0
      vertex -34 -23.0718 8
      vertex -26 -23.0718 8
    endloop
  endfacet
  facet normal 0.866025 -0.5 0
    outer loop
      vertex -32 -26.5359 0
      vertex -32 -26.5359 8
      vertex -34 -30 8
    endloop
  endfacet
  facet normal 0.866025 -0.5 0
    outer loop
      vertex -34 -30 0
      vertex -32 -26.5359 0
      vertex -34 -30 8
    endloop
  endfacet
  facet normal 0.866025 0.5 0
    outer loop
      vertex -34 -30 8
      vertex -32 -33.4641 8
      vertex -32 -33.4641 0
    endloop
  endfacet
  facet normal 0.866025 0.5 0
    outer loop
      vertex -34 -30 0
      vertex -34 -30 8
      vertex -32 -33.4641 0
    endloop
  endfacet
  facet normal 0 -1 0
    outer loop
      vertex -28 -26.5359 0
      vertex -28 -26.5359 8
      vertex -32 -26.5359 8
    endloop
  endfacet
  facet normal 0 -1 0
    outer loop
      vertex -32 -26.5359 0
      vertex -28 -26.5359 0
      vertex -32 -26.5359 8
    endloop
  endfacet
  facet normal -0.866025 -0.5 0
    outer loop
      vertex -26 -30 8
      vertex -28 -26.5359 8
      vertex -26 -30 0
    endloop
  endfacet
  facet normal -0.866025 -0.5 0
    outer loop
      vertex -26 -30 0
      vertex -28 -26.5359 8
      vertex -28 -26.5359 0
    endloop
  endfacet
  facet normal -0.866025 0.5 0
    outer loop
      vertex -26 -30 8
      vertex -26 -30 0
      vertex -28 -33.4641 8
    endloop
  endfacet
  facet normal -0.866025 0.5 0
    outer loop
      vertex -28 -33.4641 8
      vertex -26 -30 0
      vertex -28 -33.4641 0
    endloop
  endfacet
  facet normal 0 1 0
    outer loop
      vertex -28 -33.4641 8
      vertex -28 -33.4641 0
      vertex -32 -33.4641 8
    endloop
  endfacet
  facet normal 0 1 0
    outer loop
      vertex -32 -33.4641 8
      vertex -28 -33.4641 0
      vertex -32 -33.4641 0
    endloop
  endfacet
  facet normal 0 0 1
    outer loop
      vertex -34 -30 8
      vertex -38 -30 8
      vertex -34 -36.9282 8
    endloop
  endfacet
  facet normal 0 0 1
    outer loop
      vertex -26 -30 8
      vertex -28 -33.4641 8
      vertex -26 -36.9282 8
    endloop
  endfacet
  facet normal 0 0 1
    outer loop
      vertex -34 -30 8
      vertex -34 -23.0718 8
      vertex -38 -30 8
    endloop
  endfacet
  facet normal 0 0 1
    outer loop
      vertex -26 -36.9282 8
      vertex -32 -33.4641 8
      vertex -34 -36.9282 8
    endloop
  endfacet
  facet normal 0 0 1
    outer loop
      vertex -32 -33.4641 8
      vertex -34 -30 8
      vertex -34 -36.9282 8
    endloop
  endfacet
  facet normal 0 0 1
    outer loop
      vertex -28 -26.5359 8
      vertex -26 -30 8
      vertex -22 -30 8
    endloop
  endfacet
  facet normal 0 0 1
    outer loop
      vertex -26 -23.0718 8
      vertex -28 -26.5359 8
      vertex -22 -30 8
    endloop
  endfacet
  facet normal 0 0 1
    outer loop
      vertex -26 -23.0718 8
      vertex -34 -23.0718 8
      vertex -28 -26.5359 8
    endloop
  endfacet
  facet normal 0 0 1
    outer loop
      vertex -22 -30 8
      vertex -26 -30 8
      vertex -26 -36.9282 8
    endloop
  endfacet
  facet normal 0 0 1
    outer loop
      vertex -26 -36.9282 8
      vertex -28 -33.4641 8
      vertex -32 -33.4641 8
    endloop
  endfacet
  facet normal 0 0 1
    outer loop
      vertex -32 -26.5359 8
      vertex -28 -26.5359 8
      vertex -34 -23.0718 8
    endloop
  endfacet
  facet normal 0 0 1
    outer loop
      vertex -34 -30 8
      vertex -32 -26.5359 8
      vertex -34 -23.0718 8
    endloop
  endfacet
  facet normal 0 0 -1
    outer loop
      vertex -38 30 0
      vertex -34 30 0
      vertex -34 23.0718 0
    endloop
  endfacet
  facet normal 0 0 -1
    outer loop
      vertex -32 33.4641 0
      vertex -34 36.9282 0
      vertex -26 36.9282 0
    endloop
  endfacet
  facet normal 0 0 -1
    outer loop
      vertex -26 30 0
      vertex -26 36.9282 0
      vertex -22 30 0
    endloop
  endfacet
  facet normal 0 0 -1
    outer loop
      vertex -28 26.5359 0
      vertex -22 30 0
      vertex -26 23.0718 0
    endloop
  endfacet
  facet normal 0 0 -1
    outer loop
      vertex -38 30 0
      vertex -34 36.9282 0
      vertex -34 30 0
    endloop
  endfacet
  facet normal 0 0 -1
    outer loop
      vertex -28 26.5359 0
      vertex -34 23.0718 0
      vertex -32 26.5359 0
    endloop
  endfacet
  facet normal 0 0 -1
    outer loop
      vertex -26 30 0
      vertex -22 30 0
      vertex -28 26.5359 0
    endloop
  endfacet
  facet normal 0 0 -1
    outer loop
      vertex -34 23.0718 0
      vertex -28 26.5359 0
      vertex -26 23.0718 0
    endloop
  endfacet
  facet normal 0 0 -1
    outer loop
      vertex -28 33.4641 0
      vertex -26 36.9282 0
      vertex -26 30 0
    endloop
  endfacet
  facet normal 0 0 -1
    outer loop
      vertex -34 30 0
      vertex -34 36.9282 0
      vertex -32 33.4641 0
    endloop
  endfacet
  facet normal 0 0 -1
    outer loop
      vertex -32 26.5359 0
      vertex -34 23.0718 0
      vertex -34 30 0
    endloop
  endfacet
  facet normal 0 0 -1
    outer loop
      vertex -32 33.4641 0
      vertex -26 36.9282 0
      vertex -28 33.4641 0
    endloop
  endfacet
  facet normal -0.866025 0.5 0
    outer loop
      vertex -38 30 0
      vertex -38 30 8
      vertex -34 36.9282 0
    endloop
  endfacet
  facet normal -0.866025 0.5 0
    outer loop
      vertex -34 36.9282 0
      vertex -38 30 8
      vertex -34 36.9282 8
    endloop
  endfacet
  facet normal -0.866025 -0.5 0
    outer loop
      vertex -38 30 0
      vertex -34 23.0718 0
      vertex -38 30 8
    endloop
  endfacet
  facet normal -0.866025 -0.5 0
    outer loop
      vertex -38 30 8
      vertex -34 23.0718 0
      vertex -34 23.0718 8
    endloop
  endfacet
  facet normal 0 -1 0
    outer loop
      vertex -34 23.0718 8
      vertex -34 23.0718 0
      vertex -26 23.0718 0
    endloop
  endfacet
  facet normal 0 -1 0
    outer loop
      vertex -26 23.0718 8
      vertex -34 23.0718 8
      vertex -26 23.0718 0
    endloop
  endfacet
  facet normal 0.866025 -0.5 0
    outer loop
      vertex -26 23.0718 8
      vertex -26 23.0718 0
      vertex -22 30 0
    endloop
  endfacet
  facet normal 0.866025 -0.5 0
    outer loop
      vertex -22 30 8
      vertex -26 23.0718 8
      vertex -22 30 0
    endloop
  endfacet
  facet normal 0.866025 0.5 0
    outer loop
      vertex -22 30 0
      vertex -26 36.9282 0
      vertex -26 36.9282 8
    endloop
  endfacet
  facet normal 0.866025 0.5 0
    outer loop
      vertex -22 30 8
      vertex -22 30 0
      vertex -26 36.9282 8
    endloop
  endfacet
  facet normal 0 1 0
    outer loop
      vertex -34 36.9282 0
      vertex -34 36.9282 8
      vertex -26 36.9282 0
    endloop
  endfacet
  facet normal 0 1 0
    outer loop
      vertex -26 36.9282 0
      vertex -34 36.9282 8
      vertex -26 36.9282 8
    endloop
  endfacet
  facet normal 0.866025 -0.5 0
    outer loop
      vertex -32 33.4641 0
      vertex -32 33.4641 8
      vertex -34 30 8
    endloop
  endfacet
  facet normal 0.866025 -0.5 0
    outer loop
      vertex -34 30 0
      vertex -32 33.4641 0
      vertex -34 30 8
    endloop
  endfacet
  facet normal 0.866025 0.5 0
    outer loop
      vertex -34 30 8
      vertex -32 26.5359 8
      vertex -32 26.5359 0
    endloop
  endfacet
  facet normal 0.866025 0.5 0
    outer loop
      vertex -34 30 0
      vertex -34 30 8
      vertex -32 26.5359 0
    endloop
  endfacet
  facet normal 0 -1 0
    outer loop
      vertex -28 33.4641 0
      vertex -28 33.4641 8
      vertex -32 33.4641 8
    endloop
  endfacet
  facet normal 0 -1 0
    outer loop
      vertex -32 33.4641 0
      vertex -28 33.4641 0
      vertex -32 33.4641 8
    endloop
  endfacet
  facet normal -0.866025 -0.5 0
    outer loop
      vertex -26 30 8
      vertex -28 33.4641 8
      vertex -26 30 0
    endloop
  endfacet
  facet normal -0.866025 -0.5 0
    outer loop
      vertex -26 30 0
      vertex -28 33.4641 8
      vertex -28 33.4641 0
    endloop
  endfacet
  facet normal -0.866025 0.5 0
    outer loop
      vertex -26 30 8
      vertex -26 30 0
      vertex -28 26.5359 8
    endloop
  endfacet
  facet normal -0.866025 0.5 0
    outer loop
      vertex -28 26.5359 8
      vertex -26 30 0
      vertex -28 26.5359 0
    endloop
  endfacet
  facet normal 0 1 0
    outer loop
      vertex -28 26.5359 8
      vertex -28 26.5359 0
      vertex -32 26.5359 8
    endloop
  endfacet
  facet normal 0 1 0
    outer loop
      vertex -32 26.5359 8
      vertex -28 26.5359 0
      vertex -32 26.5359 0
    endloop
  endfacet
  facet normal 0 0 1
    outer loop
      vertex -34 30 8
      vertex -38 30 8
      vertex -34 23.0718 8
    endloop
  endfacet
  facet normal 0 0 1
    outer loop
      vertex -26 30 8
      vertex -28 26.5359 8
      vertex -26 23.0718 8
    endloop
  endfacet
  facet normal 0 0 1
    outer loop
      vertex -34 30 8
      vertex -34 36.9282 8
      vertex -38 30 8
    endloop
  endfacet
  facet normal 0 0 1
    outer loop
      vertex -26 23.0718 8
      vertex -32 26.5359 8
      vertex -34 23.0718 8
    endloop
  endfacet
  facet normal 0 0 1
    outer loop
      vertex -32 26.5359 8
      vertex -34 30 8
      vertex -34 23.0718 8
    endloop
  endfacet
  facet normal 0 0 1
    outer loop
      vertex -28 33.4641 8
      vertex -26 30 8
      vertex -22 30 8
    endloop
  endfacet
  facet normal 0 0 1
    outer loop
      vertex -26 36.9282 8
      vertex -28 33.4641 8
      vertex -22 30 8
    endloop
  endfacet
  facet normal 0 0 1
    outer loop
      vertex -26 36.9282 8
      vertex -34 36.9282 8
      vertex -28 33.4641 8
    endloop
  endfacet
  facet normal 0 0 1
    outer loop
      vertex -22 30 8
      vertex -26 30 8
      vertex -26 23.0718 8
    endloop
  endfacet
  facet normal 0 0 1
    outer loop
      vertex -26 23.0718 8
      vertex -28 26.5359 8
      vertex -32 26.5359 8
    endloop
  endfacet
  facet normal 0 0 1
    outer loop
      vertex -32 33.4641 8
      vertex -28 33.4641 8
      vertex -34 36.9282 8
    endloop
  endfacet
  facet normal 0 0 1
    outer loop
      vertex -34 30 8
      vertex -32 33.4641 8
      vertex -34 36.9282 8
    endloop
  endfacet
  facet normal 0 0 -1
    outer loop
      vertex 22 -30 0
      vertex 26 -30 0
      vertex 26 -36.9282 0
    endloop
  endfacet
  facet normal 0 0 -1
    outer loop
      vertex 28 -26.5359 0
      vertex 26 -23.0718 0
      vertex 34 -23.0718 0
    endloop
  endfacet
  facet normal 0 0 -1
    outer loop
      vertex 34 -30 0
      vertex 34 -23.0718 0
      vertex 38 -30 0
    endloop
  endfacet
  facet normal 0 0 -1
    outer loop
      vertex 32 -33.4641 0
      vertex 38 -30 0
      vertex 34 -36.9282 0
    endloop
  endfacet
  facet normal 0 0 -1
    outer loop
      vertex 22 -30 0
      vertex 26 -23.0718 0
      vertex 26 -30 0
    endloop
  endfacet
  facet normal 0 0 -1
    outer loop
      vertex 32 -33.4641 0
      vertex 26 -36.9282 0
      vertex 28 -33.4641 0
    endloop
  endfacet
  facet normal 0 0 -1
    outer loop
      vertex 34 -30 0
      vertex 38 -30 0
      vertex 32 -33.4641 0
    endloop
  endfacet
  facet normal 0 0 -1
    outer loop
      vertex 26 -36.9282 0
      vertex 32 -33.4641 0
      vertex 34 -36.9282 0
    endloop
  endfacet
  facet normal 0 0 -1
    outer loop
      vertex 32 -26.5359 0
      vertex 34 -23.0718 0
      vertex 34 -30 0
    endloop
  endfacet
  facet normal 0 0 -1
    outer loop
      vertex 26 -30 0
      vertex 26 -23.0718 0
      vertex 28 -26.5359 0
    endloop
  endfacet
  facet normal 0 0 -1
    outer loop
      vertex 28 -33.4641 0
      vertex 26 -36.9282 0
      vertex 26 -30 0
    endloop
  endfacet
  facet normal 0 0 -1
    outer loop
      vertex 28 -26.5359 0
      vertex 34 -23.0718 0
      vertex 32 -26.5359 0
    endloop
  endfacet
  facet normal -0.866025 0.5 0
    outer loop
      vertex 22 -30 0
      vertex 22 -30 8
      vertex 26 -23.0718 0
    endloop
  endfacet
  facet normal -0.866025 0.5 0
    outer loop
      vertex 26 -23.0718 0
      vertex 22 -30 8
      vertex 26 -23.0718 8
    endloop
  endfacet
  facet normal -0.866025 -0.5 0
    outer loop
      vertex 22 -30 0
      vertex 26 -36.9282 0
      vertex 22 -30 8
    endloop
  endfacet
  facet normal -0.866025 -0.5 0
    outer loop
      vertex 22 -30 8
      vertex 26 -36.9282 0
      vertex 26 -36.9282 8
    endloop
  endfacet
  facet normal 0 -1 0
    outer loop
      vertex 26 -36.9282 8
      vertex 26 -36.9282 0
      vertex 34 -36.9282 0
    endloop
  endfacet
  facet normal 0 -1 0
    outer loop
      vertex 34 -36.9282 8
      vertex 26 -36.9282 8
      vertex 34 -36.9282 0
    endloop
  endfacet
  facet normal 0.866025 -0.5 0
    outer loop
      vertex 34 -36.9282 8
      vertex 34 -36.9282 0
      vertex 38 -30 0
    endloop
  endfacet
  facet normal 0.866025 -0.5 0
    outer loop
      vertex 38 -30 8
      vertex 34 -36.9282 8
      vertex 38 -30 0
    endloop
  endfacet
  facet normal 0.866025 0.5 0
    outer loop
      vertex 38 -30 0
      vertex 34 -23.0718 0
      vertex 34 -23.0718 8
    endloop
  endfacet
  facet normal 0.866025 0.5 0
    outer loop
      vertex 38 -30 8
      vertex 38 -30 0
      vertex 34 -23.0718 8
    endloop
  endfacet
  facet normal 0 1 0
    outer loop
      vertex 26 -23.0718 0
      vertex 26 -23.0718 8
      vertex 34 -23.0718 0
    endloop
  endfacet
  facet normal 0 1 0
    outer loop
      vertex 34 -23.0718 0
      vertex 26 -23.0718 8
      vertex 34 -23.0718 8
    endloop
  endfacet
  facet normal 0.866025 -0.5 0
    outer loop
      vertex 28 -26.5359 0
      vertex 28 -26.5359 8
      vertex 26 -30 8
    endloop
  endfacet
  facet normal 0.866025 -0.5 0
    outer loop
      vertex 26 -30 0
      vertex 28 -26.5359 0
      vertex 26 -30 8
    endloop
  endfacet
  facet normal 0.866025 0.5 0
    outer loop
      vertex 26 -30 8
      vertex 28 -33.4641 8
      vertex 28 -33.4641 0
    endloop
  endfacet
  facet normal 0.866025 0.5 0
    outer loop
      vertex 26 -30 0
      vertex 26 -30 8
      vertex 28 -33.4641 0
    endloop
  endfacet
  facet normal 0 -1 0
    outer loop
      vertex 32 -26.5359 0
      vertex 32 -26.5359 8
      vertex 28 -26.5359 8
    endloop
  endfacet
  facet normal 0 -1 0
    outer loop
      vertex 28 -26.5359 0
      vertex 32 -26.5359 0
      vertex 28 -26.5359 8
    endloop
  endfacet
  facet normal -0.866025 -0.5 0
    outer loop
      vertex 34 -30 8
      vertex 32 -26.5359 8
      vertex 34 -30 0
    endloop
  endfacet
  facet normal -0.866025 -0.5 0
    outer loop
      vertex 34 -30 0
      vertex 32 -26.5359 8
      vertex 32 -26.5359 0
    endloop
  endfacet
  facet normal -0.866025 0.5 0
    outer loop
      vertex 34 -30 8
      vertex 34 -30 0
      vertex 32 -33.4641 8
    endloop
  endfacet
  facet normal -0.866025 0.5 0
    outer loop
      vertex 32 -33.4641 8
      vertex 34 -30 0
      vertex 32 -33.4641 0
    endloop
  endfacet
  facet normal 0 1 0
    outer loop
      vertex 32 -33.4641 8
      vertex 32 -33.4641 0
      vertex 28 -33.4641 8
    endloop
  endfacet
  facet normal 0 1 0
    outer loop
      vertex 28 -33.4641 8
      vertex 32 -33.4641 0
      vertex 28 -33.4641 0
    endloop
  endfacet
  facet normal 0 0 1
    outer loop
      vertex 26 -30 8
      vertex 22 -30 8
      vertex 26 -36.9282 8
    endloop
  endfacet
  facet normal 0 0 1
    outer loop
      vertex 34 -30 8
      vertex 32 -33.4641 8
      vertex 34 -36.9282 8
    endloop
  endfacet
  facet normal 0 0 1
    outer loop
      vertex 26 -30 8
      vertex 26 -23.0718 8
      vertex 22 -30 8
    endloop
  endfacet
  facet normal 0 0 1
    outer loop
      vertex 34 -36.9282 8
      vertex 28 -33.4641 8
      vertex 26 -36.9282 8
    endloop
  endfacet
  facet normal 0 0 1
    outer loop
      vertex 28 -33.4641 8
      vertex 26 -30 8
      vertex 26 -36.9282 8
    endloop
  endfacet
  facet normal 0 0 1
    outer loop
      vertex 32 -26.5359 8
      vertex 34 -30 8
      vertex 38 -30 8
    endloop
  endfacet
  facet normal 0 0 1
    outer loop
      vertex 34 -23.0718 8
      vertex 32 -26.5359 8
      vertex 38 -30 8
    endloop
  endfacet
  facet normal 0 0 1
    outer loop
      vertex 34 -23.0718 8
      vertex 26 -23.0718 8
      vertex 32 -26.5359 8
    endloop
  endfacet
  facet normal 0 0 1
    outer loop
      vertex 38 -30 8
      vertex 34 -30 8
      vertex 34 -36.9282 8
    endloop
  endfacet
  facet normal 0 0 1
    outer loop
      vertex 34 -36.9282 8
      vertex 32 -33.4641 8
      vertex 28 -33.4641 8
    endloop
  endfacet
  facet normal 0 0 1
    outer loop
      vertex 28 -26.5359 8
      vertex 32 -26.5359 8
      vertex 26 -23.0718 8
    endloop
  endfacet
  facet normal 0 0 1
    outer loop
      vertex 26 -30 8
      vertex 28 -26.5359 8
      vertex 26 -23.0718 8
    endloop
  endfacet
  facet normal 0 0 -1
    outer loop
      vertex 22 30 0
      vertex 26 30 0
      vertex 26 23.0718 0
    endloop
  endfacet
  facet normal 0 0 -1
    outer loop
      vertex 28 33.4641 0
      vertex 26 36.9282 0
      vertex 34 36.9282 0
    endloop
  endfacet
  facet normal 0 0 -1
    outer loop
      vertex 34 30 0
      vertex 34 36.9282 0
      vertex 38 30 0
    endloop
  endfacet
  facet normal 0 0 -1
    outer loop
      vertex 32 26.5359 0
      vertex 38 30 0
      vertex 34 23.0718 0
    endloop
  endfacet
  facet normal 0 0 -1
    outer loop
      vertex 22 30 0
      vertex 26 36.9282 0
      vertex 26 30 0
    endloop
  endfacet
  facet normal 0 0 -1
    outer loop
      vertex 32 26.5359 0
      vertex 26 23.0718 0
      vertex 28 26.5359 0
    endloop
  endfacet
  facet normal 0 0 -1
    outer loop
      vertex 34 30 0
      vertex 38 30 0
      vertex 32 26.5359 0
    endloop
  endfacet
  facet normal 0 0 -1
    outer loop
      vertex 26 23.0718 0
      vertex 32 26.5359 0
      vertex 34 23.0718 0
    endloop
  endfacet
  facet normal 0 0 -1
    outer loop
      vertex 32 33.4641 0
      vertex 34 36.9282 0
      vertex 34 30 0
    endloop
  endfacet
  facet normal 0 0 -1
    outer loop
      vertex 26 30 0
      vertex 26 36.9282 0
      vertex 28 33.4641 0
    endloop
  endfacet
  facet normal 0 0 -1
    outer loop
      vertex 28 26.5359 0
      vertex 26 23.0718 0
      vertex 26 30 0
    endloop
  endfacet
  facet normal 0 0 -1
    outer loop
      vertex 28 33.4641 0
      vertex 34 36.9282 0
      vertex 32 33.4641 0
    endloop
  endfacet
  facet normal -0.866025 0.5 0
    outer loop
      vertex 22 30 0
      vertex 22 30 8
      vertex 26 36.9282 0
    endloop
  endfacet
  facet normal -0.866025 0.5 0
    outer loop
      vertex 26 36.9282 0
      vertex 22 30 8
      vertex 26 36.9282 8
    endloop
  endfacet
  facet normal -0.866025 -0.5 0
    outer loop
      vertex 22 30 0
      vertex 26 23.0718 0
      vertex 22 30 8
    endloop
  endfacet
  facet normal -0.866025 -0.5 0
    outer loop
      vertex 22 30 8
      vertex 26 23.0718 0
      vertex 26 23.0718 8
    endloop
  endfacet
  facet normal 0 -1 0
    outer loop
      vertex 26 23.0718 8
      vertex 26 23.0718 0
      vertex 34 23.0718 0
    endloop
  endfacet
  facet normal 0 -1 0
    outer loop
      vertex 34 23.0718 8
      vertex 26 23.0718 8
      vertex 34 23.0718 0
    endloop
  endfacet
  facet normal 0.866025 -0.5 0
    outer loop
      vertex 34 23.0718 8
      vertex 34 23.0718 0
      vertex 38 30 0
    endloop
  endfacet
  facet normal 0.866025 -0.5 0
    outer loop
      vertex 38 30 8
      vertex 34 23.0718 8
      vertex 38 30 0
    endloop
  endfacet
  facet normal 0.866025 0.5 0
    outer loop
      vertex 38 30 0
      vertex 34 36.9282 0
      vertex 34 36.9282 8
    endloop
  endfacet
  facet normal 0.866025 0.5 0
    outer loop
      vertex 38 30 8
      vertex 38 30 0
      vertex 34 36.9282 8
    endloop
  endfacet
  facet normal 0 1 0
    outer loop
      vertex 26 36.9282 0
      vertex 26 36.9282 8
      vertex 34 36.9282 0
    endloop
  endfacet
  facet normal 0 1 0
    outer loop
      vertex 34 36.9282 0
      vertex 26 36.9282 8
      vertex 34 36.9282 8
    endloop
  endfacet
  facet normal 0.866025 -0.5 0
    outer loop
      vertex 28 33.4641 0
      vertex 28 33.4641 8
      vertex 26 30 8
    endloop
  endfacet
  facet normal 0.866025 -0.5 0
    outer loop
      vertex 26 30 0
      vertex 28 33.4641 0
      vertex 26 30 8
    endloop
  endfacet
  facet normal 0.866025 0.5 0
    outer loop
      vertex 26 30 8
      vertex 28 26.5359 8
      vertex 28 26.5359 0
    endloop
  endfacet
  facet normal 0.866025 0.5 0
    outer loop
      vertex 26 30 0
      vertex 26 30 8
      vertex 28 26.5359 0
    endloop
  endfacet
  facet normal 0 -1 0
    outer loop
      vertex 32 33.4641 0
      vertex 32 33.4641 8
      vertex 28 33.4641 8
    endloop
  endfacet
  facet normal 0 -1 0
    outer loop
      vertex 28 33.4641 0
      vertex 32 33.4641 0
      vertex 28 33.4641 8
    endloop
  endfacet
  facet normal -0.866025 -0.5 0
    outer loop
      vertex 34 30 8
      vertex 32 33.4641 8
      vertex 34 30 0
    endloop
  endfacet
  facet normal -0.866025 -0.5 0
    outer loop
      vertex 34 30 0
      vertex 32 33.4641 8
      vertex 32 33.4641 0
    endloop
  endfacet
  facet normal -0.866025 0.5 0
    outer loop
      vertex 34 30 8
      vertex 34 30 0
      vertex 32 26.5359 8
    endloop
  endfacet
  facet normal -0.866025 0.5 0
    outer loop
      vertex 32 26.5359 8
      vertex 34 30 0
      vertex 32 26.5359 0
    endloop
  endfacet
  facet normal 0 1 0
    outer loop
      vertex 32 26.5359 8
      vertex 32 26.5359 0
      vertex 28 26.5359 8
    endloop
  endfacet
  facet normal 0 1 0
    outer loop
      vertex 28 26.5359 8
      vertex 32 26.5359 0
      vertex 28 26.5359 0
    endloop
  endfacet
  facet normal 0 0 1
    outer loop
      vertex 26 30 8
      vertex 22 30 8
      vertex 26 23.0718 8
    endloop
  endfacet
  facet normal 0 0 1
    outer loop
      vertex 34 30 8
      vertex 32 26.5359 8
      vertex 34 23.0718 8
    endloop
  endfacet
  facet normal 0 0 1
    outer loop
      vertex 26 30 8
      vertex 26 36.9282 8
      vertex 22 30 8
    endloop
  endfacet
  facet normal 0 0 1
    outer loop
      vertex 34 23.0718 8
      vertex 28 26.5359 8
      vertex 26 23.0718 8
    endloop
  endfacet
  facet normal 0 0 1
    outer loop
      vertex 28 26.5359 8
      vertex 26 30 8
      vertex 26 23.0718 8
    endloop
  endfacet
  facet normal 0 0 1
    outer loop
      vertex 32 33.4641 8
      vertex 34 30 8
      vertex 38 30 8
    endloop
  endfacet
  facet normal 0 0 1
    outer loop
      vertex 34 36.9282 8
      vertex 32 33.4641 8
      vertex 38 30 8
    endloop
  endfacet
  facet normal 0 0 1
    outer loop
      vertex 34 36.9282 8
      vertex 26 36.9282 8
      vertex 32 33.4641 8
    endloop
  endfacet
  facet normal 0 0 1
    outer loop
      vertex 38 30 8
      vertex 34 30 8
      vertex 34 23.0718 8
    endloop
  endfacet
  facet normal 0 0 1
    outer loop
      vertex 34 23.0718 8
      vertex 32 26.5359 8
      vertex 28 26.5359 8
    endloop
  endfacet
  facet normal 0 0 1
    outer loop
      vertex 28 33.4641 8
      vertex 32 33.4641 8
      vertex 26 36.9282 8
    endloop
  endfacet
  facet normal 0 0 1
    outer loop
      vertex 26 30 8
      vertex 28 33.4641 8
      vertex 26 36.9282 8
    endloop
  endfacet
endsolid OpenSCAD_Model
