solid OpenSCAD_Model
  facet normal -1 0 0
    outer loop
      vertex -30 -7.5 -13
      vertex -30 -7.5 13
      vertex -30 7.5 -13
    endloop
  endfacet
  facet normal -1 0 0
    outer loop
      vertex -30 7.5 -13
      vertex -30 -7.5 13
      vertex -30 7.5 13
    endloop
  endfacet
  facet normal -0.951057 -0.309017 0
    outer loop
      vertex -30 -7.5 -13
      vertex -29.4271 -9.26336 -13
      vertex -30 -7.5 13
    endloop
  endfacet
  facet normal -0.951057 -0.309017 0
    outer loop
      vertex -30 -7.5 13
      vertex -29.4271 -9.26336 -13
      vertex -29.4271 -9.26336 13
    endloop
  endfacet
  facet normal 0 0 -1
    outer loop
      vertex -30 -7.5 -13
      vertex -30 7.5 -13
      vertex -29.4271 -9.26336 -13
    endloop
  endfacet
  facet normal 0 0 -1
    outer loop
      vertex -29.4271 -9.26336 -13
      vertex -30 7.5 -13
      vertex -29.8532 7.5 -13
    endloop
  endfacet
  facet normal 0 0 -1
    outer loop
      vertex -29.4271 -9.26336 -13
      vertex -29.8532 7.5 -13
      vertex -29.8532 8.42705 -13
    endloop
  endfacet
  facet normal 0 0 -1
    outer loop
      vertex -29.4271 -9.26336 -13
      vertex -29.8532 8.42705 -13
      vertex -28.7634 9.92705 -13
    endloop
  endfacet
  facet normal 0 0 -1
    outer loop
      vertex -29.4271 -9.26336 -13
      vertex -28.7634 9.92705 -13
      vertex -27 10.5 -13
    endloop
  endfacet
  facet normal 0 0 -1
    outer loop
      vertex -12.753 1.56366 -13
      vertex -27 10.5 -13
      vertex 31 10.5 -13
    endloop
  endfacet
  facet normal 0 0 -1
    outer loop
      vertex -29.4271 -9.26336 -13
      vertex 31 10.5 -13
      vertex 31 10.3532 -13
    endloop
  endfacet
  facet normal 0 0 -1
    outer loop
      vertex -29.4271 -9.26336 -13
      vertex 31 10.3532 -13
      vertex 31.9271 10.3532 -13
    endloop
  endfacet
  facet normal 0 0 -1
    outer loop
      vertex -29.4271 -9.26336 -13
      vertex 31.9271 10.3532 -13
      vertex 33.4271 9.26336 -13
    endloop
  endfacet
  facet normal 0 0 -1
    outer loop
      vertex 31.247 7.56366 -13
      vertex 33.4271 9.26336 -13
      vertex 34 7.5 -13
    endloop
  endfacet
  facet normal 0 0 -1
    outer loop
      vertex 33.8532 -7.5 -13
      vertex 34 7.5 -13
      vertex 34 -7.5 -13
    endloop
  endfacet
  facet normal 0 0 -1
    outer loop
      vertex 31.247 4.43634 -13
      vertex 34 7.5 -13
      vertex 33.8532 -7.5 -13
    endloop
  endfacet
  facet normal 0 0 -1
    outer loop
      vertex -27.9271 -10.3532 -13
      vertex -29.4271 -9.26336 -13
      vertex -27 -10.3532 -13
    endloop
  endfacet
  facet normal 0 0 -1
    outer loop
      vertex -29.4271 -9.26336 -13
      vertex 33.8532 -8.42705 -13
      vertex 32.7634 -9.92705 -13
    endloop
  endfacet
  facet normal 0 0 -1
    outer loop
      vertex -29.4271 -9.26336 -13
      vertex 32.7634 -9.92705 -13
      vertex 31 -10.5 -13
    endloop
  endfacet
  facet normal 0 0 -1
    outer loop
      vertex -27 -10.3532 -13
      vertex 31 -10.5 -13
      vertex -27 -10.5 -13
    endloop
  endfacet
  facet normal 0 0 -1
    outer loop
      vertex -29.4271 -9.26336 -13
      vertex 31 -10.5 -13
      vertex -27 -10.3532 -13
    endloop
  endfacet
  facet normal 0 0 -1
    outer loop
      vertex -12 0 -13
      vertex 31 10.5 -13
      vertex -12.753 -1.56366 -13
    endloop
  endfacet
  facet normal 0 0 -1
    outer loop
      vertex -29.4271 -9.26336 -13
      vertex -27 10.5 -13
      vertex -15.8019 0.867767 -13
    endloop
  endfacet
  facet normal 0 0 -1
    outer loop
      vertex -29.4271 -9.26336 -13
      vertex -15.8019 0.867767 -13
      vertex -15.8019 -0.867767 -13
    endloop
  endfacet
  facet normal 0 0 -1
    outer loop
      vertex -29.4271 -9.26336 -13
      vertex -15.8019 -0.867767 -13
      vertex -14.445 -1.94986 -13
    endloop
  endfacet
  facet normal 0 0 -1
    outer loop
      vertex -29.4271 -9.26336 -13
      vertex -14.445 -1.94986 -13
      vertex -12.753 -1.56366 -13
    endloop
  endfacet
  facet normal 0 0 -1
    outer loop
      vertex -29.4271 -9.26336 -13
      vertex -12.753 -1.56366 -13
      vertex 31 10.5 -13
    endloop
  endfacet
  facet normal 0 0 -1
    outer loop
      vertex -12.753 1.56366 -13
      vertex 31 10.5 -13
      vertex -12 0 -13
    endloop
  endfacet
  facet normal 0 0 -1
    outer loop
      vertex -14.445 1.94986 -13
      vertex -27 10.5 -13
      vertex -12.753 1.56366 -13
    endloop
  endfacet
  facet normal 0 0 -1
    outer loop
      vertex 28.1981 5.13223 -13
      vertex -29.4271 -9.26336 -13
      vertex 28.1981 6.86777 -13
    endloop
  endfacet
  facet normal 0 0 -1
    outer loop
      vertex -15.8019 0.867767 -13
      vertex -27 10.5 -13
      vertex -14.445 1.94986 -13
    endloop
  endfacet
  facet normal 0 0 -1
    outer loop
      vertex 32 6 -13
      vertex 34 7.5 -13
      vertex 31.247 4.43634 -13
    endloop
  endfacet
  facet normal 0 0 -1
    outer loop
      vertex -29.4271 -9.26336 -13
      vertex 28.1981 5.13223 -13
      vertex 33.8532 -7.5 -13
    endloop
  endfacet
  facet normal 0 0 -1
    outer loop
      vertex 31.247 7.56366 -13
      vertex 34 7.5 -13
      vertex 32 6 -13
    endloop
  endfacet
  facet normal 0 0 -1
    outer loop
      vertex 28.1981 5.13223 -13
      vertex 29.555 4.05014 -13
      vertex 33.8532 -7.5 -13
    endloop
  endfacet
  facet normal 0 0 -1
    outer loop
      vertex 29.555 4.05014 -13
      vertex 31.247 4.43634 -13
      vertex 33.8532 -7.5 -13
    endloop
  endfacet
  facet normal 0 0 -1
    outer loop
      vertex 29.555 7.94986 -13
      vertex 33.4271 9.26336 -13
      vertex 31.247 7.56366 -13
    endloop
  endfacet
  facet normal 0 0 -1
    outer loop
      vertex -29.4271 -9.26336 -13
      vertex 33.4271 9.26336 -13
      vertex 29.555 7.94986 -13
    endloop
  endfacet
  facet normal 0 0 -1
    outer loop
      vertex -29.4271 -9.26336 -13
      vertex 29.555 7.94986 -13
      vertex 28.1981 6.86777 -13
    endloop
  endfacet
  facet normal 0 0 -1
    outer loop
      vertex 33.8532 -8.42705 -13
      vertex -29.4271 -9.26336 -13
      vertex 33.8532 -7.5 -13
    endloop
  endfacet
  facet normal 1.77321e-016 1 0
    outer loop
      vertex -29.8532 7.5 13
      vertex -29.8532 7.5 -13
      vertex -30 7.5 13
    endloop
  endfacet
  facet normal 1.77321e-016 1 0
    outer loop
      vertex -30 7.5 13
      vertex -29.8532 7.5 -13
      vertex -30 7.5 -13
    endloop
  endfacet
  facet normal 0 0 1
    outer loop
      vertex -30 7.5 13
      vertex -30 -7.5 13
      vertex -29.4271 -9.26336 13
    endloop
  endfacet
  facet normal 0 0 1
    outer loop
      vertex -27 -10.3532 13
      vertex -30 7.5 13
      vertex -27.9271 -10.3532 13
    endloop
  endfacet
  facet normal 0 0 1
    outer loop
      vertex -27.9271 -10.3532 13
      vertex -30 7.5 13
      vertex -29.4271 -9.26336 13
    endloop
  endfacet
  facet normal 0 0 1
    outer loop
      vertex -4.42705 -8.35317 13
      vertex -30 7.5 13
      vertex -27 -10.3532 13
    endloop
  endfacet
  facet normal 0 0 1
    outer loop
      vertex 31 -10.5 13
      vertex -27 -10.3532 13
      vertex -27 -10.5 13
    endloop
  endfacet
  facet normal 0 0 1
    outer loop
      vertex -29.8532 8.42705 13
      vertex -29.8532 7.5 13
      vertex -5.26336 7.92705 13
    endloop
  endfacet
  facet normal 0 0 1
    outer loop
      vertex 31 -10.5 13
      vertex -3.5 -8.5 13
      vertex -27 -10.3532 13
    endloop
  endfacet
  facet normal 0 0 1
    outer loop
      vertex -6.5 -5.5 13
      vertex -12.753 1.56366 13
      vertex -12 0 13
    endloop
  endfacet
  facet normal 0 0 1
    outer loop
      vertex -3.5 -8.5 13
      vertex -4.42705 -8.35317 13
      vertex -27 -10.3532 13
    endloop
  endfacet
  facet normal 0 0 1
    outer loop
      vertex -5.92705 -7.26336 13
      vertex -30 7.5 13
      vertex -4.42705 -8.35317 13
    endloop
  endfacet
  facet normal 0 0 1
    outer loop
      vertex -14.445 -1.94986 13
      vertex -30 7.5 13
      vertex -5.92705 -7.26336 13
    endloop
  endfacet
  facet normal 0 0 1
    outer loop
      vertex -12.753 1.56366 13
      vertex -6.5 5.5 13
      vertex -30 7.5 13
    endloop
  endfacet
  facet normal 0 0 1
    outer loop
      vertex -12 0 13
      vertex -12.753 -1.56366 13
      vertex -6.5 -5.5 13
    endloop
  endfacet
  facet normal 0 0 1
    outer loop
      vertex -6.35317 5.5 13
      vertex -30 7.5 13
      vertex -6.5 5.5 13
    endloop
  endfacet
  facet normal 0 0 1
    outer loop
      vertex -6.35317 6.42705 13
      vertex -30 7.5 13
      vertex -6.35317 5.5 13
    endloop
  endfacet
  facet normal 0 0 1
    outer loop
      vertex -29.8532 7.5 13
      vertex -30 7.5 13
      vertex -6.35317 6.42705 13
    endloop
  endfacet
  facet normal 0 0 1
    outer loop
      vertex -15.8019 -0.867767 13
      vertex -15.8019 0.867767 13
      vertex -30 7.5 13
    endloop
  endfacet
  facet normal 0 0 1
    outer loop
      vertex 33.4271 9.26336 13
      vertex -3.5 8.5 13
      vertex 33.6751 8.5 13
    endloop
  endfacet
  facet normal 0 0 1
    outer loop
      vertex 31.9271 10.3532 13
      vertex -3.5 8.5 13
      vertex 33.4271 9.26336 13
    endloop
  endfacet
  facet normal 0 0 1
    outer loop
      vertex -5.26336 7.92705 13
      vertex -29.8532 7.5 13
      vertex -6.35317 6.42705 13
    endloop
  endfacet
  facet normal 0 0 1
    outer loop
      vertex -12.753 -1.56366 13
      vertex -14.445 -1.94986 13
      vertex -5.92705 -7.26336 13
    endloop
  endfacet
  facet normal 0 0 1
    outer loop
      vertex -14.445 1.94986 13
      vertex -30 7.5 13
      vertex -15.8019 0.867767 13
    endloop
  endfacet
  facet normal 0 0 1
    outer loop
      vertex -12.753 1.56366 13
      vertex -30 7.5 13
      vertex -14.445 1.94986 13
    endloop
  endfacet
  facet normal 0 0 1
    outer loop
      vertex -29.8532 8.42705 13
      vertex -3.5 8.5 13
      vertex 31.9271 10.3532 13
    endloop
  endfacet
  facet normal 0 0 1
    outer loop
      vertex -29.8532 8.42705 13
      vertex -5.26336 7.92705 13
      vertex -3.5 8.5 13
    endloop
  endfacet
  facet normal 0 0 1
    outer loop
      vertex -3.5 -8.35317 13
      vertex -4.42705 -8.35317 13
      vertex -3.5 -8.5 13
    endloop
  endfacet
  facet normal 0 0 1
    outer loop
      vertex -6.5 -5.5 13
      vertex -6.5 5.5 13
      vertex -12.753 1.56366 13
    endloop
  endfacet
  facet normal 0 0 1
    outer loop
      vertex -14.445 -1.94986 13
      vertex -15.8019 -0.867767 13
      vertex -30 7.5 13
    endloop
  endfacet
  facet normal 0 0 1
    outer loop
      vertex -12.753 -1.56366 13
      vertex -5.92705 -7.26336 13
      vertex -6.5 -5.5 13
    endloop
  endfacet
  facet normal 0 0 1
    outer loop
      vertex -29.8532 8.42705 13
      vertex 31.9271 10.3532 13
      vertex 31 10.3532 13
    endloop
  endfacet
  facet normal 0 0 1
    outer loop
      vertex -29.8532 8.42705 13
      vertex 31 10.3532 13
      vertex 31 10.5 13
    endloop
  endfacet
  facet normal 0 0 1
    outer loop
      vertex -29.8532 8.42705 13
      vertex -27 10.5 13
      vertex -28.7634 9.92705 13
    endloop
  endfacet
  facet normal 0 0 1
    outer loop
      vertex -29.8532 8.42705 13
      vertex 31 10.5 13
      vertex -27 10.5 13
    endloop
  endfacet
  facet normal 0 0 1
    outer loop
      vertex 33.8002 -8.5 13
      vertex 31 -10.5 13
      vertex 32.7634 -9.92705 13
    endloop
  endfacet
  facet normal 0 0 1
    outer loop
      vertex 33.8002 -8.5 13
      vertex -3.5 -8.5 13
      vertex 31 -10.5 13
    endloop
  endfacet
  facet normal -0.587785 -0.809017 0
    outer loop
      vertex -29.4271 -9.26336 13
      vertex -29.4271 -9.26336 -13
      vertex -27.9271 -10.3532 -13
    endloop
  endfacet
  facet normal -0.587785 -0.809017 0
    outer loop
      vertex -27.9271 -10.3532 13
      vertex -29.4271 -9.26336 13
      vertex -27.9271 -10.3532 -13
    endloop
  endfacet
  facet normal -1.22461e-016 -1 0
    outer loop
      vertex -27.9271 -10.3532 13
      vertex -27.9271 -10.3532 -13
      vertex -27 -10.3532 -13
    endloop
  endfacet
  facet normal -1.22461e-016 -1 0
    outer loop
      vertex -27 -10.3532 13
      vertex -27.9271 -10.3532 13
      vertex -27 -10.3532 -13
    endloop
  endfacet
  facet normal -1 1.22461e-016 0
    outer loop
      vertex -27 -10.3532 13
      vertex -27 -10.3532 -13
      vertex -27 -10.5 13
    endloop
  endfacet
  facet normal -1 1.22461e-016 0
    outer loop
      vertex -27 -10.5 13
      vertex -27 -10.3532 -13
      vertex -27 -10.5 -13
    endloop
  endfacet
  facet normal 0 -1 0
    outer loop
      vertex -27 -10.5 13
      vertex -27 -10.5 -13
      vertex 31 -10.5 -13
    endloop
  endfacet
  facet normal 0 -1 0
    outer loop
      vertex 31 -10.5 13
      vertex -27 -10.5 13
      vertex 31 -10.5 -13
    endloop
  endfacet
  facet normal 0.309017 -0.951057 0
    outer loop
      vertex 31 -10.5 13
      vertex 31 -10.5 -13
      vertex 32.7634 -9.92705 -13
    endloop
  endfacet
  facet normal 0.309017 -0.951057 0
    outer loop
      vertex 32.7634 -9.92705 13
      vertex 31 -10.5 13
      vertex 32.7634 -9.92705 -13
    endloop
  endfacet
  facet normal 0.809017 -0.587785 0
    outer loop
      vertex 32.7634 -9.92705 13
      vertex 32.7634 -9.92705 -13
      vertex 33.8532 -8.42705 -13
    endloop
  endfacet
  facet normal 0.809017 -0.587785 0
    outer loop
      vertex 33.8002 -8.5 -7
      vertex 32.7634 -9.92705 13
      vertex 33.8532 -8.42705 -13
    endloop
  endfacet
  facet normal 0.809017 -0.587785 0
    outer loop
      vertex 33.8532 -8.42705 -7
      vertex 33.8002 -8.5 -7
      vertex 33.8532 -8.42705 -13
    endloop
  endfacet
  facet normal 0.809017 -0.587785 0
    outer loop
      vertex 33.8002 -8.5 -7
      vertex 33.8002 -8.5 13
      vertex 32.7634 -9.92705 13
    endloop
  endfacet
  facet normal 1 -1.36718e-016 0
    outer loop
      vertex 33.8532 -8.42705 -7
      vertex 33.8532 -8.42705 -13
      vertex 33.8532 -7.5 -13
    endloop
  endfacet
  facet normal 1 -1.36718e-016 0
    outer loop
      vertex 33.8532 -7.80343 -11
      vertex 33.8532 -8.42705 -7
      vertex 33.8532 -7.5 -13
    endloop
  endfacet
  facet normal 1 -1.36718e-016 0
    outer loop
      vertex 33.8532 -7.5 -11
      vertex 33.8532 -7.80343 -11
      vertex 33.8532 -7.5 -13
    endloop
  endfacet
  facet normal 1 -1.36718e-016 0
    outer loop
      vertex 33.8532 -7.80343 -11
      vertex 33.8532 -7.80343 -7
      vertex 33.8532 -8.42705 -7
    endloop
  endfacet
  facet normal -1.36718e-016 -1 0
    outer loop
      vertex 34 -7.5 -13
      vertex 34 -7.5 -11
      vertex 33.8532 -7.5 -11
    endloop
  endfacet
  facet normal -1.36718e-016 -1 0
    outer loop
      vertex 33.8532 -7.5 -13
      vertex 34 -7.5 -13
      vertex 33.8532 -7.5 -11
    endloop
  endfacet
  facet normal 1 0 0
    outer loop
      vertex 34 -7.5 -11
      vertex 34 -7.5 -13
      vertex 34 7.5 -13
    endloop
  endfacet
  facet normal 1 0 0
    outer loop
      vertex 34 7.5 -11
      vertex 34 -7.5 -11
      vertex 34 7.5 -13
    endloop
  endfacet
  facet normal 0.951057 0.309017 0
    outer loop
      vertex 33.6751 8.5 -7
      vertex 33.4271 9.26336 -13
      vertex 33.4271 9.26336 13
    endloop
  endfacet
  facet normal 0.951057 0.309017 0
    outer loop
      vertex 34 7.5 -13
      vertex 33.4271 9.26336 -13
      vertex 33.6751 8.5 -7
    endloop
  endfacet
  facet normal 0.951057 0.309017 0
    outer loop
      vertex 33.6751 8.5 -7
      vertex 33.9687 7.59638 -7
      vertex 33.9687 7.59638 -11
    endloop
  endfacet
  facet normal 0.951057 0.309017 0
    outer loop
      vertex 33.9687 7.59638 -11
      vertex 34 7.5 -11
      vertex 34 7.5 -13
    endloop
  endfacet
  facet normal 0.951057 0.309017 0
    outer loop
      vertex 33.6751 8.5 -7
      vertex 33.9687 7.59638 -11
      vertex 34 7.5 -13
    endloop
  endfacet
  facet normal 0.951057 0.309017 0
    outer loop
      vertex 33.6751 8.5 13
      vertex 33.6751 8.5 -7
      vertex 33.4271 9.26336 13
    endloop
  endfacet
  facet normal 0.587785 0.809017 0
    outer loop
      vertex 31.9271 10.3532 -13
      vertex 31.9271 10.3532 13
      vertex 33.4271 9.26336 -13
    endloop
  endfacet
  facet normal 0.587785 0.809017 0
    outer loop
      vertex 33.4271 9.26336 -13
      vertex 31.9271 10.3532 13
      vertex 33.4271 9.26336 13
    endloop
  endfacet
  facet normal 0 1 0
    outer loop
      vertex 31 10.3532 -13
      vertex 31 10.3532 13
      vertex 31.9271 10.3532 -13
    endloop
  endfacet
  facet normal 0 1 0
    outer loop
      vertex 31.9271 10.3532 -13
      vertex 31 10.3532 13
      vertex 31.9271 10.3532 13
    endloop
  endfacet
  facet normal 1 0 0
    outer loop
      vertex 31 10.5 -13
      vertex 31 10.5 13
      vertex 31 10.3532 13
    endloop
  endfacet
  facet normal 1 0 0
    outer loop
      vertex 31 10.3532 -13
      vertex 31 10.5 -13
      vertex 31 10.3532 13
    endloop
  endfacet
  facet normal 0 1 0
    outer loop
      vertex -27 10.5 -13
      vertex -27 10.5 13
      vertex 31 10.5 -13
    endloop
  endfacet
  facet normal 0 1 0
    outer loop
      vertex 31 10.5 -13
      vertex -27 10.5 13
      vertex 31 10.5 13
    endloop
  endfacet
  facet normal -0.309017 0.951057 0
    outer loop
      vertex -28.7634 9.92705 -13
      vertex -28.7634 9.92705 13
      vertex -27 10.5 -13
    endloop
  endfacet
  facet normal -0.309017 0.951057 0
    outer loop
      vertex -27 10.5 -13
      vertex -28.7634 9.92705 13
      vertex -27 10.5 13
    endloop
  endfacet
  facet normal -0.809017 0.587785 0
    outer loop
      vertex -29.8532 8.42705 -13
      vertex -29.8532 8.42705 13
      vertex -28.7634 9.92705 -13
    endloop
  endfacet
  facet normal -0.809017 0.587785 0
    outer loop
      vertex -28.7634 9.92705 -13
      vertex -29.8532 8.42705 13
      vertex -28.7634 9.92705 13
    endloop
  endfacet
  facet normal -1 1.77321e-016 0
    outer loop
      vertex -29.8532 7.5 -13
      vertex -29.8532 7.5 13
      vertex -29.8532 8.42705 -13
    endloop
  endfacet
  facet normal -1 1.77321e-016 0
    outer loop
      vertex -29.8532 8.42705 -13
      vertex -29.8532 7.5 13
      vertex -29.8532 8.42705 13
    endloop
  endfacet
  facet normal 0.62349 -0.781831 0
    outer loop
      vertex -14.445 1.94986 -13
      vertex -14.445 1.94986 -11
      vertex -15.8019 0.867767 -11
    endloop
  endfacet
  facet normal 0.62349 -0.781831 0
    outer loop
      vertex -15.8019 0.867767 -13
      vertex -14.445 1.94986 -13
      vertex -15.8019 0.867767 -11
    endloop
  endfacet
  facet normal 1 0 0
    outer loop
      vertex -15.8019 0.867767 -13
      vertex -15.8019 0.867767 -11
      vertex -15.8019 -0.867767 -11
    endloop
  endfacet
  facet normal 1 0 0
    outer loop
      vertex -15.8019 -0.867767 -13
      vertex -15.8019 0.867767 -13
      vertex -15.8019 -0.867767 -11
    endloop
  endfacet
  facet normal -0.222521 -0.974928 0
    outer loop
      vertex -12.753 1.56366 -13
      vertex -12.753 1.56366 -11
      vertex -14.445 1.94986 -11
    endloop
  endfacet
  facet normal -0.222521 -0.974928 0
    outer loop
      vertex -14.445 1.94986 -13
      vertex -12.753 1.56366 -13
      vertex -14.445 1.94986 -11
    endloop
  endfacet
  facet normal -0.900969 -0.433884 0
    outer loop
      vertex -12 0 -11
      vertex -12.753 1.56366 -11
      vertex -12 0 -13
    endloop
  endfacet
  facet normal -0.900969 -0.433884 0
    outer loop
      vertex -12 0 -13
      vertex -12.753 1.56366 -11
      vertex -12.753 1.56366 -13
    endloop
  endfacet
  facet normal -0.900969 0.433884 0
    outer loop
      vertex -12 0 -11
      vertex -12 0 -13
      vertex -12.753 -1.56366 -11
    endloop
  endfacet
  facet normal -0.900969 0.433884 0
    outer loop
      vertex -12.753 -1.56366 -11
      vertex -12 0 -13
      vertex -12.753 -1.56366 -13
    endloop
  endfacet
  facet normal -0.222521 0.974928 0
    outer loop
      vertex -12.753 -1.56366 -11
      vertex -12.753 -1.56366 -13
      vertex -14.445 -1.94986 -11
    endloop
  endfacet
  facet normal -0.222521 0.974928 0
    outer loop
      vertex -14.445 -1.94986 -11
      vertex -12.753 -1.56366 -13
      vertex -14.445 -1.94986 -13
    endloop
  endfacet
  facet normal 0.62349 0.781831 0
    outer loop
      vertex -14.445 -1.94986 -11
      vertex -14.445 -1.94986 -13
      vertex -15.8019 -0.867767 -11
    endloop
  endfacet
  facet normal 0.62349 0.781831 0
    outer loop
      vertex -15.8019 -0.867767 -11
      vertex -14.445 -1.94986 -13
      vertex -15.8019 -0.867767 -13
    endloop
  endfacet
  facet normal 0.62349 -0.781831 0
    outer loop
      vertex 29.555 7.94986 -13
      vertex 29.555 7.94986 -11
      vertex 28.1981 6.86777 -11
    endloop
  endfacet
  facet normal 0.62349 -0.781831 0
    outer loop
      vertex 28.1981 6.86777 -13
      vertex 29.555 7.94986 -13
      vertex 28.1981 6.86777 -11
    endloop
  endfacet
  facet normal 1 0 0
    outer loop
      vertex 28.1981 6.86777 -13
      vertex 28.1981 6.86777 -11
      vertex 28.1981 5.13223 -11
    endloop
  endfacet
  facet normal 1 0 0
    outer loop
      vertex 28.1981 5.13223 -13
      vertex 28.1981 6.86777 -13
      vertex 28.1981 5.13223 -11
    endloop
  endfacet
  facet normal -0.222521 -0.974928 0
    outer loop
      vertex 31.247 7.56366 -13
      vertex 31.247 7.56366 -11
      vertex 29.555 7.94986 -11
    endloop
  endfacet
  facet normal -0.222521 -0.974928 0
    outer loop
      vertex 29.555 7.94986 -13
      vertex 31.247 7.56366 -13
      vertex 29.555 7.94986 -11
    endloop
  endfacet
  facet normal -0.900969 -0.433884 0
    outer loop
      vertex 32 6 -11
      vertex 31.247 7.56366 -11
      vertex 32 6 -13
    endloop
  endfacet
  facet normal -0.900969 -0.433884 0
    outer loop
      vertex 32 6 -13
      vertex 31.247 7.56366 -11
      vertex 31.247 7.56366 -13
    endloop
  endfacet
  facet normal -0.900969 0.433884 0
    outer loop
      vertex 32 6 -11
      vertex 32 6 -13
      vertex 31.247 4.43634 -11
    endloop
  endfacet
  facet normal -0.900969 0.433884 0
    outer loop
      vertex 31.247 4.43634 -11
      vertex 32 6 -13
      vertex 31.247 4.43634 -13
    endloop
  endfacet
  facet normal -0.222521 0.974928 0
    outer loop
      vertex 31.247 4.43634 -11
      vertex 31.247 4.43634 -13
      vertex 29.555 4.05014 -11
    endloop
  endfacet
  facet normal -0.222521 0.974928 0
    outer loop
      vertex 29.555 4.05014 -11
      vertex 31.247 4.43634 -13
      vertex 29.555 4.05014 -13
    endloop
  endfacet
  facet normal 0.62349 0.781831 0
    outer loop
      vertex 29.555 4.05014 -11
      vertex 29.555 4.05014 -13
      vertex 28.1981 5.13223 -11
    endloop
  endfacet
  facet normal 0.62349 0.781831 0
    outer loop
      vertex 28.1981 5.13223 -11
      vertex 29.555 4.05014 -13
      vertex 28.1981 5.13223 -13
    endloop
  endfacet
  facet normal 0 -1 0
    outer loop
      vertex 33.6751 8.5 13
      vertex 32 8.5 -7
      vertex 33.6751 8.5 -7
    endloop
  endfacet
  facet normal 0 -1 0
    outer loop
      vertex -3.5 8.5 13
      vertex 32 8.5 -7
      vertex 33.6751 8.5 13
    endloop
  endfacet
  facet normal 0 -1 0
    outer loop
      vertex 32 8.5 -11
      vertex 32 8.5 -7
      vertex -3.5 8.5 13
    endloop
  endfacet
  facet normal 0 -1 0
    outer loop
      vertex -3.5 8.5 11
      vertex 32 8.5 -11
      vertex -3.5 8.5 13
    endloop
  endfacet
  facet normal 0 -1 0
    outer loop
      vertex -24 8.5 11
      vertex 32 8.5 -11
      vertex -3.5 8.5 11
    endloop
  endfacet
  facet normal 0 -1 0
    outer loop
      vertex -24 8.5 -11
      vertex 32 8.5 -11
      vertex -24 8.5 11
    endloop
  endfacet
  facet normal 0.309017 -0.951057 0
    outer loop
      vertex -3.5 8.5 11
      vertex -3.5 8.5 13
      vertex -5.26336 7.92705 13
    endloop
  endfacet
  facet normal 0.309017 -0.951057 0
    outer loop
      vertex -5.26336 7.92705 11
      vertex -3.5 8.5 11
      vertex -5.26336 7.92705 13
    endloop
  endfacet
  facet normal 0.809017 -0.587785 0
    outer loop
      vertex -5.26336 7.92705 11
      vertex -5.26336 7.92705 13
      vertex -6.35317 6.42705 13
    endloop
  endfacet
  facet normal 0.809017 -0.587785 0
    outer loop
      vertex -6.35317 6.42705 11
      vertex -5.26336 7.92705 11
      vertex -6.35317 6.42705 13
    endloop
  endfacet
  facet normal 1 -1.77321e-016 0
    outer loop
      vertex -6.35317 6.42705 11
      vertex -6.35317 6.42705 13
      vertex -6.35317 5.5 13
    endloop
  endfacet
  facet normal 1 -1.77321e-016 0
    outer loop
      vertex -6.35317 5.5 11
      vertex -6.35317 6.42705 11
      vertex -6.35317 5.5 13
    endloop
  endfacet
  facet normal -1.77321e-016 -1 0
    outer loop
      vertex -6.5 5.5 13
      vertex -6.5 5.5 11
      vertex -6.35317 5.5 11
    endloop
  endfacet
  facet normal -1.77321e-016 -1 0
    outer loop
      vertex -6.35317 5.5 13
      vertex -6.5 5.5 13
      vertex -6.35317 5.5 11
    endloop
  endfacet
  facet normal 1 0 0
    outer loop
      vertex -6.5 5.5 11
      vertex -6.5 5.5 13
      vertex -6.5 -5.5 13
    endloop
  endfacet
  facet normal 1 0 0
    outer loop
      vertex -6.5 -5.5 11
      vertex -6.5 5.5 11
      vertex -6.5 -5.5 13
    endloop
  endfacet
  facet normal 0.951057 0.309017 0
    outer loop
      vertex -6.5 -5.5 13
      vertex -5.92705 -7.26336 13
      vertex -5.92705 -7.26336 11
    endloop
  endfacet
  facet normal 0.951057 0.309017 0
    outer loop
      vertex -6.5 -5.5 11
      vertex -6.5 -5.5 13
      vertex -5.92705 -7.26336 11
    endloop
  endfacet
  facet normal 0.587785 0.809017 0
    outer loop
      vertex -4.42705 -8.35317 13
      vertex -4.42705 -8.35317 11
      vertex -5.92705 -7.26336 13
    endloop
  endfacet
  facet normal 0.587785 0.809017 0
    outer loop
      vertex -5.92705 -7.26336 13
      vertex -4.42705 -8.35317 11
      vertex -5.92705 -7.26336 11
    endloop
  endfacet
  facet normal 1.22461e-016 1 0
    outer loop
      vertex -3.5 -8.35317 13
      vertex -3.5 -8.35317 11
      vertex -4.42705 -8.35317 13
    endloop
  endfacet
  facet normal 1.22461e-016 1 0
    outer loop
      vertex -4.42705 -8.35317 13
      vertex -3.5 -8.35317 11
      vertex -4.42705 -8.35317 11
    endloop
  endfacet
  facet normal 1 -1.22461e-016 0
    outer loop
      vertex -3.5 -8.5 13
      vertex -3.5 -8.5 11
      vertex -3.5 -8.35317 11
    endloop
  endfacet
  facet normal 1 -1.22461e-016 0
    outer loop
      vertex -3.5 -8.35317 13
      vertex -3.5 -8.5 13
      vertex -3.5 -8.35317 11
    endloop
  endfacet
  facet normal 0 1 0
    outer loop
      vertex -3.5 -8.5 11
      vertex -3.5 -8.5 13
      vertex 33.8002 -8.5 13
    endloop
  endfacet
  facet normal 0 1 0
    outer loop
      vertex -3.5 -8.5 11
      vertex 33.8002 -8.5 13
      vertex 33.8002 -8.5 -7
    endloop
  endfacet
  facet normal 0 1 0
    outer loop
      vertex -3.5 -8.5 11
      vertex 33.8002 -8.5 -7
      vertex -24 -8.5 11
    endloop
  endfacet
  facet normal 0 1 0
    outer loop
      vertex 33.8002 -8.5 -7
      vertex 32 -8.5 -7
      vertex -24 -8.5 11
    endloop
  endfacet
  facet normal 0 1 0
    outer loop
      vertex 32 -8.5 -7
      vertex 32 -8.5 -11
      vertex -24 -8.5 11
    endloop
  endfacet
  facet normal 0 1 0
    outer loop
      vertex 32 -8.5 -11
      vertex -24 -8.5 -11
      vertex -24 -8.5 11
    endloop
  endfacet
  facet normal 1 0 0
    outer loop
      vertex -15.8019 0.867767 11
      vertex -15.8019 0.867767 13
      vertex -15.8019 -0.867767 13
    endloop
  endfacet
  facet normal 1 0 0
    outer loop
      vertex -15.8019 -0.867767 11
      vertex -15.8019 0.867767 11
      vertex -15.8019 -0.867767 13
    endloop
  endfacet
  facet normal 0.62349 0.781831 0
    outer loop
      vertex -14.445 -1.94986 13
      vertex -14.445 -1.94986 11
      vertex -15.8019 -0.867767 13
    endloop
  endfacet
  facet normal 0.62349 0.781831 0
    outer loop
      vertex -15.8019 -0.867767 13
      vertex -14.445 -1.94986 11
      vertex -15.8019 -0.867767 11
    endloop
  endfacet
  facet normal -0.222521 0.974928 0
    outer loop
      vertex -12.753 -1.56366 13
      vertex -12.753 -1.56366 11
      vertex -14.445 -1.94986 13
    endloop
  endfacet
  facet normal -0.222521 0.974928 0
    outer loop
      vertex -14.445 -1.94986 13
      vertex -12.753 -1.56366 11
      vertex -14.445 -1.94986 11
    endloop
  endfacet
  facet normal -0.900969 0.433884 0
    outer loop
      vertex -12 0 13
      vertex -12 0 11
      vertex -12.753 -1.56366 13
    endloop
  endfacet
  facet normal -0.900969 0.433884 0
    outer loop
      vertex -12.753 -1.56366 13
      vertex -12 0 11
      vertex -12.753 -1.56366 11
    endloop
  endfacet
  facet normal -0.900969 -0.433884 0
    outer loop
      vertex -12 0 13
      vertex -12.753 1.56366 13
      vertex -12 0 11
    endloop
  endfacet
  facet normal -0.900969 -0.433884 0
    outer loop
      vertex -12 0 11
      vertex -12.753 1.56366 13
      vertex -12.753 1.56366 11
    endloop
  endfacet
  facet normal -0.222521 -0.974928 0
    outer loop
      vertex -12.753 1.56366 11
      vertex -12.753 1.56366 13
      vertex -14.445 1.94986 13
    endloop
  endfacet
  facet normal -0.222521 -0.974928 0
    outer loop
      vertex -14.445 1.94986 11
      vertex -12.753 1.56366 11
      vertex -14.445 1.94986 13
    endloop
  endfacet
  facet normal 0.62349 -0.781831 0
    outer loop
      vertex -14.445 1.94986 11
      vertex -14.445 1.94986 13
      vertex -15.8019 0.867767 13
    endloop
  endfacet
  facet normal 0.62349 -0.781831 0
    outer loop
      vertex -15.8019 0.867767 11
      vertex -14.445 1.94986 11
      vertex -15.8019 0.867767 13
    endloop
  endfacet
  facet normal 0 0 1
    outer loop
      vertex 33.8002 -8.5 -7
      vertex 33.8532 -8.42705 -7
      vertex 33.8532 -7.80343 -7
    endloop
  endfacet
  facet normal 0 0 1
    outer loop
      vertex 32 -8.5 -7
      vertex 33.8002 -8.5 -7
      vertex 33.7634 -7.92705 -7
    endloop
  endfacet
  facet normal 0 0 1
    outer loop
      vertex 33.7634 -7.92705 -7
      vertex 33.8002 -8.5 -7
      vertex 33.8532 -7.80343 -7
    endloop
  endfacet
  facet normal -0.809017 0.587785 0
    outer loop
      vertex 33.8532 -7.80343 -7
      vertex 33.8532 -7.80343 -11
      vertex 33.7634 -7.92705 -7
    endloop
  endfacet
  facet normal -0.809017 0.587785 0
    outer loop
      vertex 33.7634 -7.92705 -7
      vertex 33.8532 -7.80343 -11
      vertex 33.7634 -7.92705 -11
    endloop
  endfacet
  facet normal 0 0 1
    outer loop
      vertex 33.8532 -7.5 -11
      vertex 34 -7.5 -11
      vertex -26.4271 -7.26336 -11
    endloop
  endfacet
  facet normal 0 0 1
    outer loop
      vertex -26.4271 -7.26336 -11
      vertex -24.9271 -8.35317 -11
      vertex -24 -8.35317 -11
    endloop
  endfacet
  facet normal 0 0 1
    outer loop
      vertex 32 -8.5 -11
      vertex -26.4271 -7.26336 -11
      vertex -24 -8.35317 -11
    endloop
  endfacet
  facet normal 0 0 1
    outer loop
      vertex -24 -8.5 -11
      vertex 32 -8.5 -11
      vertex -24 -8.35317 -11
    endloop
  endfacet
  facet normal 0 0 1
    outer loop
      vertex 32 -8.5 -11
      vertex 33.7634 -7.92705 -11
      vertex -26.4271 -7.26336 -11
    endloop
  endfacet
  facet normal 0 0 1
    outer loop
      vertex 33.7634 -7.92705 -11
      vertex 33.8532 -7.80343 -11
      vertex -26.4271 -7.26336 -11
    endloop
  endfacet
  facet normal 0 0 1
    outer loop
      vertex 33.8532 -7.80343 -11
      vertex 33.8532 -7.5 -11
      vertex -26.4271 -7.26336 -11
    endloop
  endfacet
  facet normal 0 0 1
    outer loop
      vertex 29.555 7.94986 -11
      vertex 31.247 7.56366 -11
      vertex 32.9271 8.35317 -11
    endloop
  endfacet
  facet normal 0 0 1
    outer loop
      vertex 31.247 7.56366 -11
      vertex 34 7.5 -11
      vertex 33.9687 7.59638 -11
    endloop
  endfacet
  facet normal 0 0 1
    outer loop
      vertex 29.555 7.94986 -11
      vertex 32.9271 8.35317 -11
      vertex 32 8.35317 -11
    endloop
  endfacet
  facet normal 0 0 1
    outer loop
      vertex 31.247 7.56366 -11
      vertex 32 6 -11
      vertex 34 7.5 -11
    endloop
  endfacet
  facet normal 0 0 1
    outer loop
      vertex -26.8532 5.5 -11
      vertex -27 5.5 -11
      vertex -26.4271 -7.26336 -11
    endloop
  endfacet
  facet normal 0 0 1
    outer loop
      vertex -15.8019 0.867767 -11
      vertex -24 8.5 -11
      vertex -26.4271 -7.26336 -11
    endloop
  endfacet
  facet normal 0 0 1
    outer loop
      vertex -24 8.5 -11
      vertex -25.7634 7.92705 -11
      vertex -26.4271 -7.26336 -11
    endloop
  endfacet
  facet normal 0 0 1
    outer loop
      vertex -25.7634 7.92705 -11
      vertex -26.8532 6.42705 -11
      vertex -26.4271 -7.26336 -11
    endloop
  endfacet
  facet normal 0 0 1
    outer loop
      vertex -26.8532 6.42705 -11
      vertex -26.8532 5.5 -11
      vertex -26.4271 -7.26336 -11
    endloop
  endfacet
  facet normal 0 0 1
    outer loop
      vertex -27 5.5 -11
      vertex -27 -5.5 -11
      vertex -26.4271 -7.26336 -11
    endloop
  endfacet
  facet normal 0 0 1
    outer loop
      vertex -15.8019 -0.867767 -11
      vertex -15.8019 0.867767 -11
      vertex -26.4271 -7.26336 -11
    endloop
  endfacet
  facet normal 0 0 1
    outer loop
      vertex -14.445 1.94986 -11
      vertex -24 8.5 -11
      vertex -15.8019 0.867767 -11
    endloop
  endfacet
  facet normal 0 0 1
    outer loop
      vertex 32 8.5 -11
      vertex -24 8.5 -11
      vertex -14.445 1.94986 -11
    endloop
  endfacet
  facet normal 0 0 1
    outer loop
      vertex -14.445 -1.94986 -11
      vertex -15.8019 -0.867767 -11
      vertex -26.4271 -7.26336 -11
    endloop
  endfacet
  facet normal 0 0 1
    outer loop
      vertex 32 8.5 -11
      vertex -14.445 1.94986 -11
      vertex -12.753 1.56366 -11
    endloop
  endfacet
  facet normal 0 0 1
    outer loop
      vertex 29.555 7.94986 -11
      vertex -12.753 -1.56366 -11
      vertex -26.4271 -7.26336 -11
    endloop
  endfacet
  facet normal 0 0 1
    outer loop
      vertex 32 8.5 -11
      vertex -12 0 -11
      vertex -12.753 -1.56366 -11
    endloop
  endfacet
  facet normal 0 0 1
    outer loop
      vertex -12.753 -1.56366 -11
      vertex -14.445 -1.94986 -11
      vertex -26.4271 -7.26336 -11
    endloop
  endfacet
  facet normal 0 0 1
    outer loop
      vertex 29.555 4.05014 -11
      vertex 28.1981 5.13223 -11
      vertex -26.4271 -7.26336 -11
    endloop
  endfacet
  facet normal 0 0 1
    outer loop
      vertex 29.555 7.94986 -11
      vertex 32 8.35317 -11
      vertex 32 8.5 -11
    endloop
  endfacet
  facet normal 0 0 1
    outer loop
      vertex 32 8.5 -11
      vertex -12.753 -1.56366 -11
      vertex 29.555 7.94986 -11
    endloop
  endfacet
  facet normal 0 0 1
    outer loop
      vertex 33.9687 7.59638 -11
      vertex 32.9271 8.35317 -11
      vertex 31.247 7.56366 -11
    endloop
  endfacet
  facet normal 0 0 1
    outer loop
      vertex 28.1981 6.86777 -11
      vertex 29.555 7.94986 -11
      vertex -26.4271 -7.26336 -11
    endloop
  endfacet
  facet normal 0 0 1
    outer loop
      vertex 34 -7.5 -11
      vertex 34 7.5 -11
      vertex 32 6 -11
    endloop
  endfacet
  facet normal 0 0 1
    outer loop
      vertex 34 -7.5 -11
      vertex 32 6 -11
      vertex 31.247 4.43634 -11
    endloop
  endfacet
  facet normal 0 0 1
    outer loop
      vertex 34 -7.5 -11
      vertex 29.555 4.05014 -11
      vertex -26.4271 -7.26336 -11
    endloop
  endfacet
  facet normal 0 0 1
    outer loop
      vertex 34 -7.5 -11
      vertex 31.247 4.43634 -11
      vertex 29.555 4.05014 -11
    endloop
  endfacet
  facet normal 0 0 1
    outer loop
      vertex -12.753 1.56366 -11
      vertex -12 0 -11
      vertex 32 8.5 -11
    endloop
  endfacet
  facet normal 0 0 1
    outer loop
      vertex 28.1981 5.13223 -11
      vertex 28.1981 6.86777 -11
      vertex -26.4271 -7.26336 -11
    endloop
  endfacet
  facet normal -0.587785 -0.809017 0
    outer loop
      vertex 33.9687 7.59638 -11
      vertex 33.9687 7.59638 -7
      vertex 32.9271 8.35317 -7
    endloop
  endfacet
  facet normal -0.587785 -0.809017 0
    outer loop
      vertex 32.9271 8.35317 -11
      vertex 33.9687 7.59638 -11
      vertex 32.9271 8.35317 -7
    endloop
  endfacet
  facet normal 0 0 1
    outer loop
      vertex 32.9271 8.35317 -7
      vertex 33.9687 7.59638 -7
      vertex 33.6751 8.5 -7
    endloop
  endfacet
  facet normal 0 0 1
    outer loop
      vertex 32 8.5 -7
      vertex 32.9271 8.35317 -7
      vertex 33.6751 8.5 -7
    endloop
  endfacet
  facet normal 0 0 1
    outer loop
      vertex 32 8.35317 -7
      vertex 32.9271 8.35317 -7
      vertex 32 8.5 -7
    endloop
  endfacet
  facet normal -1 0 0
    outer loop
      vertex 32 8.35317 -11
      vertex 32 8.35317 -7
      vertex 32 8.5 -11
    endloop
  endfacet
  facet normal -1 0 0
    outer loop
      vertex 32 8.5 -11
      vertex 32 8.35317 -7
      vertex 32 8.5 -7
    endloop
  endfacet
  facet normal 0.309017 -0.951057 0
    outer loop
      vertex -24 8.5 -11
      vertex -24 8.5 11
      vertex -25.7634 7.92705 11
    endloop
  endfacet
  facet normal 0.309017 -0.951057 0
    outer loop
      vertex -25.7634 7.92705 -11
      vertex -24 8.5 -11
      vertex -25.7634 7.92705 11
    endloop
  endfacet
  facet normal 0 0 -1
    outer loop
      vertex -26.8532 5.5 11
      vertex -26.8532 6.42705 11
      vertex -25.7634 7.92705 11
    endloop
  endfacet
  facet normal 0 0 -1
    outer loop
      vertex -26.8532 5.5 11
      vertex -25.7634 7.92705 11
      vertex -24 8.5 11
    endloop
  endfacet
  facet normal 0 0 -1
    outer loop
      vertex -26.8532 5.5 11
      vertex -24 8.5 11
      vertex -3.5 8.5 11
    endloop
  endfacet
  facet normal 0 0 -1
    outer loop
      vertex -26.8532 5.5 11
      vertex -3.5 8.5 11
      vertex -5.26336 7.92705 11
    endloop
  endfacet
  facet normal 0 0 -1
    outer loop
      vertex -26.8532 5.5 11
      vertex -5.26336 7.92705 11
      vertex -6.35317 6.42705 11
    endloop
  endfacet
  facet normal 0 0 -1
    outer loop
      vertex -6.35317 6.42705 11
      vertex -6.35317 5.5 11
      vertex -6.5 5.5 11
    endloop
  endfacet
  facet normal 0 0 -1
    outer loop
      vertex -6.35317 6.42705 11
      vertex -6.5 5.5 11
      vertex -26.8532 5.5 11
    endloop
  endfacet
  facet normal 0 0 -1
    outer loop
      vertex -24.9271 -8.35317 11
      vertex -27 5.5 11
      vertex -24 -8.35317 11
    endloop
  endfacet
  facet normal 0 0 -1
    outer loop
      vertex -12.753 -1.56366 11
      vertex -5.92705 -7.26336 11
      vertex -14.445 -1.94986 11
    endloop
  endfacet
  facet normal 0 0 -1
    outer loop
      vertex -14.445 -1.94986 11
      vertex -5.92705 -7.26336 11
      vertex -27 5.5 11
    endloop
  endfacet
  facet normal 0 0 -1
    outer loop
      vertex -5.92705 -7.26336 11
      vertex -4.42705 -8.35317 11
      vertex -27 5.5 11
    endloop
  endfacet
  facet normal 0 0 -1
    outer loop
      vertex -4.42705 -8.35317 11
      vertex -3.5 -8.35317 11
      vertex -3.5 -8.5 11
    endloop
  endfacet
  facet normal 0 0 -1
    outer loop
      vertex -4.42705 -8.35317 11
      vertex -3.5 -8.5 11
      vertex -24 -8.5 11
    endloop
  endfacet
  facet normal 0 0 -1
    outer loop
      vertex -15.8019 -0.867767 11
      vertex -26.8532 5.5 11
      vertex -15.8019 0.867767 11
    endloop
  endfacet
  facet normal 0 0 -1
    outer loop
      vertex -4.42705 -8.35317 11
      vertex -24 -8.5 11
      vertex -24 -8.35317 11
    endloop
  endfacet
  facet normal 0 0 -1
    outer loop
      vertex -4.42705 -8.35317 11
      vertex -24 -8.35317 11
      vertex -27 5.5 11
    endloop
  endfacet
  facet normal 0 0 -1
    outer loop
      vertex -15.8019 -0.867767 11
      vertex -27 5.5 11
      vertex -26.8532 5.5 11
    endloop
  endfacet
  facet normal 0 0 -1
    outer loop
      vertex -24.9271 -8.35317 11
      vertex -26.4271 -7.26336 11
      vertex -27 5.5 11
    endloop
  endfacet
  facet normal 0 0 -1
    outer loop
      vertex -26.4271 -7.26336 11
      vertex -27 -5.5 11
      vertex -27 5.5 11
    endloop
  endfacet
  facet normal 0 0 -1
    outer loop
      vertex -12.753 -1.56366 11
      vertex -6.5 -5.5 11
      vertex -5.92705 -7.26336 11
    endloop
  endfacet
  facet normal 0 0 -1
    outer loop
      vertex -15.8019 -0.867767 11
      vertex -14.445 -1.94986 11
      vertex -27 5.5 11
    endloop
  endfacet
  facet normal 0 0 -1
    outer loop
      vertex -15.8019 0.867767 11
      vertex -26.8532 5.5 11
      vertex -14.445 1.94986 11
    endloop
  endfacet
  facet normal 0 0 -1
    outer loop
      vertex -26.8532 5.5 11
      vertex -12.753 1.56366 11
      vertex -14.445 1.94986 11
    endloop
  endfacet
  facet normal 0 0 -1
    outer loop
      vertex -6.5 -5.5 11
      vertex -12.753 -1.56366 11
      vertex -12 0 11
    endloop
  endfacet
  facet normal 0 0 -1
    outer loop
      vertex -6.5 -5.5 11
      vertex -12 0 11
      vertex -12.753 1.56366 11
    endloop
  endfacet
  facet normal 0 0 -1
    outer loop
      vertex -12.753 1.56366 11
      vertex -26.8532 5.5 11
      vertex -6.5 5.5 11
    endloop
  endfacet
  facet normal 0 0 -1
    outer loop
      vertex -6.5 -5.5 11
      vertex -12.753 1.56366 11
      vertex -6.5 5.5 11
    endloop
  endfacet
  facet normal 1 -1.22461e-016 0
    outer loop
      vertex -24 -8.5 11
      vertex -24 -8.5 -11
      vertex -24 -8.35317 -11
    endloop
  endfacet
  facet normal 1 -1.22461e-016 0
    outer loop
      vertex -24 -8.35317 11
      vertex -24 -8.5 11
      vertex -24 -8.35317 -11
    endloop
  endfacet
  facet normal -0.309017 0.951057 0
    outer loop
      vertex 33.7634 -7.92705 -7
      vertex 33.7634 -7.92705 -11
      vertex 32 -8.5 -7
    endloop
  endfacet
  facet normal -0.309017 0.951057 0
    outer loop
      vertex 32 -8.5 -7
      vertex 33.7634 -7.92705 -11
      vertex 32 -8.5 -11
    endloop
  endfacet
  facet normal 0.951057 0.309017 0
    outer loop
      vertex -27 -5.5 11
      vertex -26.4271 -7.26336 11
      vertex -26.4271 -7.26336 -11
    endloop
  endfacet
  facet normal 0.951057 0.309017 0
    outer loop
      vertex -27 -5.5 -11
      vertex -27 -5.5 11
      vertex -26.4271 -7.26336 -11
    endloop
  endfacet
  facet normal 0.587785 0.809017 0
    outer loop
      vertex -24.9271 -8.35317 11
      vertex -24.9271 -8.35317 -11
      vertex -26.4271 -7.26336 11
    endloop
  endfacet
  facet normal 0.587785 0.809017 0
    outer loop
      vertex -26.4271 -7.26336 11
      vertex -24.9271 -8.35317 -11
      vertex -26.4271 -7.26336 -11
    endloop
  endfacet
  facet normal 1 0 0
    outer loop
      vertex -27 5.5 -11
      vertex -27 5.5 11
      vertex -27 -5.5 11
    endloop
  endfacet
  facet normal 1 0 0
    outer loop
      vertex -27 -5.5 -11
      vertex -27 5.5 -11
      vertex -27 -5.5 11
    endloop
  endfacet
  facet normal -1.77321e-016 -1 0
    outer loop
      vertex -27 5.5 11
      vertex -27 5.5 -11
      vertex -26.8532 5.5 -11
    endloop
  endfacet
  facet normal -1.77321e-016 -1 0
    outer loop
      vertex -26.8532 5.5 11
      vertex -27 5.5 11
      vertex -26.8532 5.5 -11
    endloop
  endfacet
  facet normal 1 -1.77321e-016 0
    outer loop
      vertex -26.8532 6.42705 -11
      vertex -26.8532 6.42705 11
      vertex -26.8532 5.5 11
    endloop
  endfacet
  facet normal 1 -1.77321e-016 0
    outer loop
      vertex -26.8532 5.5 -11
      vertex -26.8532 6.42705 -11
      vertex -26.8532 5.5 11
    endloop
  endfacet
  facet normal 0.809017 -0.587785 0
    outer loop
      vertex -25.7634 7.92705 -11
      vertex -25.7634 7.92705 11
      vertex -26.8532 6.42705 11
    endloop
  endfacet
  facet normal 0.809017 -0.587785 0
    outer loop
      vertex -26.8532 6.42705 -11
      vertex -25.7634 7.92705 -11
      vertex -26.8532 6.42705 11
    endloop
  endfacet
  facet normal 0 -1 0
    outer loop
      vertex 32.9271 8.35317 -11
      vertex 32.9271 8.35317 -7
      vertex 32 8.35317 -7
    endloop
  endfacet
  facet normal 0 -1 0
    outer loop
      vertex 32 8.35317 -11
      vertex 32.9271 8.35317 -11
      vertex 32 8.35317 -7
    endloop
  endfacet
  facet normal 1.22461e-016 1 0
    outer loop
      vertex -24 -8.35317 11
      vertex -24 -8.35317 -11
      vertex -24.9271 -8.35317 11
    endloop
  endfacet
  facet normal 1.22461e-016 1 0
    outer loop
      vertex -24.9271 -8.35317 11
      vertex -24 -8.35317 -11
      vertex -24.9271 -8.35317 -11
    endloop
  endfacet
endsolid OpenSCAD_Model
